<svg xmlns="http://www.w3.org/2000/svg" xmlns:xlink="http://www.w3.org/1999/xlink" width="190" height="113" viewBox="0 0 190 113">
  <defs>
    <linearGradient id="linear-gradient" x1="0.5" x2="0.5" y2="1" gradientUnits="objectBoundingBox">
      <stop offset="0" stop-color="#f7ca2e" stop-opacity="0"/>
      <stop offset="0.091" stop-color="#f7ca2e" stop-opacity="0.129"/>
      <stop offset="0.283" stop-color="#f7ca2e" stop-opacity="0.388"/>
      <stop offset="0.465" stop-color="#f7ca2e" stop-opacity="0.612"/>
      <stop offset="0.633" stop-color="#f7ca2e" stop-opacity="0.78"/>
      <stop offset="0.784" stop-color="#f7ca2e" stop-opacity="0.902"/>
      <stop offset="0.911" stop-color="#f7ca2e" stop-opacity="0.969"/>
      <stop offset="1" stop-color="#f7ca2e"/>
    </linearGradient>
    <linearGradient id="linear-gradient-2" x1="0.5" x2="0.5" y2="1" gradientUnits="objectBoundingBox">
      <stop offset="0" stop-color="#b13e8d" stop-opacity="0"/>
      <stop offset="0.091" stop-color="#b13e8d" stop-opacity="0.129"/>
      <stop offset="0.283" stop-color="#b13e8d" stop-opacity="0.388"/>
      <stop offset="0.465" stop-color="#b13e8d" stop-opacity="0.612"/>
      <stop offset="0.633" stop-color="#b13e8d" stop-opacity="0.78"/>
      <stop offset="0.784" stop-color="#b13e8d"/>
      <stop offset="0.911" stop-color="#b13e8d" stop-opacity="0.969"/>
      <stop offset="1" stop-color="#b13e8d"/>
    </linearGradient>
    <filter id="Rectángulo_40719" x="41" y="5" width="108" height="108" filterUnits="userSpaceOnUse">
      <feOffset dy="3" input="SourceAlpha"/>
      <feGaussianBlur stdDeviation="3" result="blur"/>
      <feFlood flood-opacity="0.161"/>
      <feComposite operator="in" in2="blur"/>
      <feComposite in="SourceGraphic"/>
    </filter>
  </defs>
  <g id="Grupo_131983" data-name="Grupo 131983" transform="translate(7973 11006)">
    <g id="Grupo_131982" data-name="Grupo 131982" transform="translate(-8157 -11910)">
      <rect id="Rectángulo_40586" data-name="Rectángulo 40586" width="190" height="20" transform="translate(184 950)" fill="none"/>
      <g id="Grupo_108405" data-name="Grupo 108405" transform="translate(213.5 968)">
        <path id="Rectángulo_5242" data-name="Rectángulo 5242" d="M0,0H12a0,0,0,0,1,0,0V43.333a3,3,0,0,1-3,3H3a3,3,0,0,1-3-3V0A0,0,0,0,1,0,0Z" transform="translate(0 0)" fill="url(#linear-gradient)"/>
      </g>
      <g id="Grupo_108406" data-name="Grupo 108406" transform="translate(344 956) rotate(180)">
        <path id="Rectángulo_5242-2" data-name="Rectángulo 5242" d="M0,0H12a0,0,0,0,1,0,0V49a3,3,0,0,1-3,3H3a3,3,0,0,1-3-3V0A0,0,0,0,1,0,0Z" transform="translate(0 0)" fill="url(#linear-gradient-2)"/>
      </g>
      <g id="Grupo_128318" data-name="Grupo 128318">
        <g transform="matrix(1, 0, 0, 1, 184, 904)" filter="url(#Rectángulo_40719)">
          <path id="Rectángulo_40719-2" data-name="Rectángulo 40719" d="M10,0H80A10,10,0,0,1,90,10V90a0,0,0,0,1,0,0H10A10,10,0,0,1,0,80V10A10,10,0,0,1,10,0Z" transform="translate(50 11)" fill="#f6f6f6"/>
        </g>
        <g id="Grupo_128317" data-name="Grupo 128317" transform="translate(-389.861 694.733)">
          <path id="Trazado_187982" data-name="Trazado 187982" d="M695.984,289.1v8.484c0,1.382-.307,1.683-1.711,1.683q-24.326,0-48.651,0c-1.392,0-1.694-.3-1.694-1.7V289.1h-.8c-2.288,0-4.574,0-6.86,0-.976,0-1.385-.4-1.386-1.366,0-4.964-.041-9.93.015-14.895a5.394,5.394,0,0,1,3.585-5.187q4.647-1.968,9.323-3.867a.958.958,0,0,0,.68-.955,3.385,3.385,0,0,0-1.616-3.545,9.971,9.971,0,0,1-3.829-6.236c-2.674-.647-3.731-1.663-3.7-3.552.032-1.753,1.163-2.943,3.277-3.378-.472-.952-.895-1.91-1.407-2.818a7.113,7.113,0,0,1,4.108-10.44,6.113,6.113,0,0,0,1.736-1.183,11.44,11.44,0,0,1,7.091-2.409,8.4,8.4,0,0,1,2.919.406,34.177,34.177,0,0,1,6.279,2.829c3.363,2.167,4.456,5.485,3.858,9.332h4.977a3.4,3.4,0,0,0-.048-.417,7.093,7.093,0,0,1,4.668-8.487,7.607,7.607,0,0,0,1.88-1.211,11.5,11.5,0,0,1,7.148-2.453,8.446,8.446,0,0,1,2.919.4,38.259,38.259,0,0,1,6.23,2.775,8.9,8.9,0,0,1,3.455,10.849c-.367.938-.781,1.859-1.2,2.839a3.631,3.631,0,0,1,2.673,1.439,3.357,3.357,0,0,1,.623,2.262c-.113,1.765-1.316,2.829-3.647,3.182a10.267,10.267,0,0,1-2.206,4.642,24,24,0,0,1-2.755,2.5.989.989,0,0,0-.476.91,16.946,16.946,0,0,1,0,1.905.632.632,0,0,0,.483.718c3.048,1.25,6.082,2.531,9.125,3.79a5.714,5.714,0,0,1,3.98,5.929q0,7.058,0,14.118c0,1.208-.353,1.565-1.544,1.567C701.019,289.1,698.548,289.1,695.984,289.1Zm-14.927-23.727a11.512,11.512,0,0,1-5.123,7.332.723.723,0,0,0-.307.48c-.029.868-.014,1.736-.014,2.607.225.069.4.129.585.179,5.212,1.452,10.431,2.883,15.637,4.362a5.392,5.392,0,0,1,4.036,4.448,17.438,17.438,0,0,1,.165,2.008h6.737v-.752q0-6.319,0-12.638a3.505,3.505,0,0,0-2.523-3.8c-3.345-1.4-6.681-2.806-10.037-4.173a1.44,1.44,0,0,1-1.032-1.551q.057-1.869,0-3.741a1.658,1.658,0,0,1,.9-1.525,16.844,16.844,0,0,0,2.75-2.281,7.886,7.886,0,0,0,1.912-4.325c.151-1.039.494-1.313,1.548-1.317.283,0,.567.014.848-.008a1.121,1.121,0,0,0,.011-2.241c-.375-.028-.755,0-1.131-.015a1.069,1.069,0,0,1-1.149-1.155,9.2,9.2,0,0,1,.391-2.248c.284-.89.746-1.723,1.078-2.6a6.79,6.79,0,0,0-3.294-8.522c-1.259-.637-2.547-1.228-3.86-1.74a8.927,8.927,0,0,0-7.9.56c-1.652.92-3.074,2.173-4.851,2.964a4.078,4.078,0,0,0-2.227,4.379c.155,1.709.818,3.116,2.684,3.612a3.557,3.557,0,0,1,1.147.538,16.093,16.093,0,0,1,2.974,2.331,8.786,8.786,0,0,1,1.474,9.443c-.339.858-.722,1.7-1.113,2.615.448,0,.778-.008,1.106,0a3.386,3.386,0,0,1,.036,6.769C682.051,265.387,681.58,265.372,681.057,265.372ZM664.3,275.814c0-.84-.024-1.616.008-2.39a.976.976,0,0,0-.462-.848,19.726,19.726,0,0,1-3.069-2.971,28.056,28.056,0,0,1-2.078-4.019,15.524,15.524,0,0,1-3.051-.823,2.925,2.925,0,0,1-1.53-2.834c.018-2.044,1.33-3.08,4.34-3.387-.573-1.155-1.152-2.276-1.69-3.417a7.009,7.009,0,0,1,4.089-9.715,4.4,4.4,0,0,0,.984-.522c.741-.5,1.473-1.015,2.187-1.553a1.664,1.664,0,0,0,.517-.63,6.807,6.807,0,0,0-3.283-8.861c-1.179-.588-2.381-1.131-3.6-1.635a9.188,9.188,0,0,0-5.543-.47,12.269,12.269,0,0,0-4.868,2.614,4.06,4.06,0,0,1-1.216.675,4.78,4.78,0,0,0-3.009,6.822c.507,1.06,1.014,2.122,1.59,3.146a4,4,0,0,1,.434,2.314,1.115,1.115,0,0,1-1.135,1.113c-.377.024-.756-.011-1.131.014a1.124,1.124,0,1,0,.021,2.247c.283.018.566,0,.848.006,1.005.007,1.35.29,1.506,1.287a8.824,8.824,0,0,0,4.686,6.671,1.533,1.533,0,0,1,.879,1.537c-.032,1.176-.008,2.353-.008,3.529s-.112,1.34-1.2,1.792q-4.952,2.056-9.906,4.113a3.472,3.472,0,0,0-2.477,3.686q0,6.39,0,12.778v.714h6.79c0-.3,0-.55,0-.8a5.659,5.659,0,0,1,4.323-5.727c2.286-.644,4.579-1.267,6.87-1.9Zm29.372,21.157a1.73,1.73,0,0,0,.046-.246c0-3.695.02-7.391-.008-11.085a3.307,3.307,0,0,0-2.562-3.17c-5.257-1.47-10.521-2.918-15.775-4.395a.856.856,0,0,0-.977.28c-1.065,1.1-2.16,2.17-3.244,3.251-.967.963-1.406.969-2.355.024-1.084-1.081-2.181-2.15-3.242-3.254a.909.909,0,0,0-1.039-.29c-5.187,1.457-10.381,2.892-15.571,4.34a3.391,3.391,0,0,0-2.751,3.6q0,5.048,0,10.1v.844h6.822v-8.953h2.248v8.942h29.434V288.02h2.236v8.952ZM662.438,255.85c-.883,1.642-1.837,3.177-1.554,5.123a17.083,17.083,0,0,1,.02,2.257,9.079,9.079,0,0,0,8.162,8.886,8.943,8.943,0,0,0,9.633-6.861,46.714,46.714,0,0,0,.326-4.977c.179-1.749-.916-2.974-1.536-4.431C672.445,259.524,667.474,259.527,662.438,255.85Zm-2.654.19,1-2.006c.631-1.259,1.193-1.4,2.31-.57.587.434,1.158.89,1.765,1.292a8.966,8.966,0,0,0,7.624,1.214,13.509,13.509,0,0,0,4.423-2.576c.974-.727,1.595-.581,2.136.489.322.634.641,1.27.991,1.963a6.708,6.708,0,0,0-1.775-8.817,16.408,16.408,0,0,0-7.51-3.048,8.86,8.86,0,0,0-5.578,1.331,7.8,7.8,0,0,1,4.554,3.639l-1.824,1.214c-.269-.351-.49-.685-.753-.979a5.011,5.011,0,0,0-5.211-1.718,4.567,4.567,0,0,0-3.521,3.739C658.037,252.99,658.9,254.441,659.784,256.041Zm10.158,23.554c1.11-1.107,2.148-2.132,3.171-3.17a.8.8,0,0,0,.225-.48c.025-.655.011-1.31.011-2.047a11.686,11.686,0,0,1-6.79.006c0,.676-.017,1.261.01,1.847a1.04,1.04,0,0,0,.195.633C667.789,277.45,668.843,278.49,669.942,279.594Zm-11.336-18.721c-.771.022-1.614-.276-2.045.571a1.394,1.394,0,0,0,.049,1.162c.462.76,1.264.473,2,.49Zm22.715.029v2.177c1.56.111,2.213-.224,2.208-1.1S682.85,260.763,681.321,260.9Z" transform="translate(0 0)" fill="#6836bf"/>
        </g>
      </g>
    </g>
  </g>
</svg>
