<svg xmlns="http://www.w3.org/2000/svg" xmlns:xlink="http://www.w3.org/1999/xlink" width="190" height="112" viewBox="0 0 190 112">
  <defs>
    <linearGradient id="linear-gradient" x1="0.5" x2="0.5" y2="1" gradientUnits="objectBoundingBox">
      <stop offset="0" stop-color="#f7ca2e" stop-opacity="0"/>
      <stop offset="0.091" stop-color="#f7ca2e" stop-opacity="0.129"/>
      <stop offset="0.283" stop-color="#f7ca2e" stop-opacity="0.388"/>
      <stop offset="0.465" stop-color="#f7ca2e" stop-opacity="0.612"/>
      <stop offset="0.633" stop-color="#f7ca2e" stop-opacity="0.78"/>
      <stop offset="0.784" stop-color="#f7ca2e" stop-opacity="0.902"/>
      <stop offset="0.911" stop-color="#f7ca2e" stop-opacity="0.969"/>
      <stop offset="1" stop-color="#f7ca2e"/>
    </linearGradient>
    <linearGradient id="linear-gradient-2" x1="0.5" x2="0.5" y2="1" gradientUnits="objectBoundingBox">
      <stop offset="0" stop-color="#b13e8d" stop-opacity="0"/>
      <stop offset="0.091" stop-color="#b13e8d" stop-opacity="0.129"/>
      <stop offset="0.283" stop-color="#b13e8d" stop-opacity="0.388"/>
      <stop offset="0.465" stop-color="#b13e8d" stop-opacity="0.612"/>
      <stop offset="0.633" stop-color="#b13e8d" stop-opacity="0.78"/>
      <stop offset="0.784" stop-color="#b13e8d"/>
      <stop offset="0.911" stop-color="#b13e8d" stop-opacity="0.969"/>
      <stop offset="1" stop-color="#b13e8d"/>
    </linearGradient>
    <filter id="Rectángulo_40720" x="41" y="4" width="108" height="108" filterUnits="userSpaceOnUse">
      <feOffset dy="3" input="SourceAlpha"/>
      <feGaussianBlur stdDeviation="3" result="blur"/>
      <feFlood flood-opacity="0.161"/>
      <feComposite operator="in" in2="blur"/>
      <feComposite in="SourceGraphic"/>
    </filter>
  </defs>
  <g id="Grupo_131969" data-name="Grupo 131969" transform="translate(-180 -399)">
    <g id="Grupo_128321" data-name="Grupo 128321">
      <rect id="Rectángulo_40586" data-name="Rectángulo 40586" width="190" height="20" transform="translate(180 444)" fill="none"/>
      <g id="Grupo_108405" data-name="Grupo 108405" transform="translate(209.5 463)">
        <path id="Rectángulo_5242" data-name="Rectángulo 5242" d="M0,0H12a0,0,0,0,1,0,0V43.333a3,3,0,0,1-3,3H3a3,3,0,0,1-3-3V0A0,0,0,0,1,0,0Z" transform="translate(0 0)" fill="url(#linear-gradient)"/>
      </g>
      <g id="Grupo_108406" data-name="Grupo 108406" transform="translate(340 451) rotate(180)">
        <path id="Rectángulo_5242-2" data-name="Rectángulo 5242" d="M0,0H12a0,0,0,0,1,0,0V49a3,3,0,0,1-3,3H3a3,3,0,0,1-3-3V0A0,0,0,0,1,0,0Z" transform="translate(0 0)" fill="url(#linear-gradient-2)"/>
      </g>
      <g transform="matrix(1, 0, 0, 1, 180, 399)" filter="url(#Rectángulo_40720)">
        <path id="Rectángulo_40720-2" data-name="Rectángulo 40720" d="M10,0H80A10,10,0,0,1,90,10V90a0,0,0,0,1,0,0H10A10,10,0,0,1,0,80V10A10,10,0,0,1,10,0Z" transform="translate(50 10)" fill="#f6f6f6"/>
      </g>
      <g id="Grupo_128320" data-name="Grupo 128320" transform="translate(-215.869 369.022)">
        <path id="Trazado_187888" data-name="Trazado 187888" d="M852.637,250.537c-.08.6-.15,1.208-.242,1.81a1.116,1.116,0,0,1-1.239,1.076,1.1,1.1,0,0,1-.992-1.241c.038-1.157.116-2.313.171-3.47.03-.636.1-1.244.838-1.471.7-.216,1.1.2,1.464.7Z" transform="translate(-326.72 -163.407)" fill="#6836bf"/>
        <path id="Trazado_187889" data-name="Trazado 187889" d="M623.958,445.259c-1.007-.137-2.015-.272-3.021-.414a3.684,3.684,0,0,1-.731-.149,1.04,1.04,0,0,1-.751-1.216.985.985,0,0,1,1.065-.941c1.4.111,2.8.281,4.186.473a1.007,1.007,0,0,1,.879.991c.056.681-.395,1.013-.943,1.256Z" transform="translate(-135.537 -325.281)" fill="#6836bf"/>
        <path id="Trazado_187890" data-name="Trazado 187890" d="M666.549,445.193c-.205-.135-.511-.226-.594-.414a2.139,2.139,0,0,1-.222-1.127c.088-.53.57-.72,1.075-.78q1.723-.2,3.446-.4c.857-.1,1.405.229,1.512.894.115.715-.307,1.234-1.173,1.368-1.117.173-2.24.307-3.36.459Z" transform="translate(-173.886 -325.215)" fill="#6836bf"/>
        <path id="Trazado_187891" data-name="Trazado 187891" d="M575.981,206.6c-.166-.019-.255-.027-.344-.039a1.532,1.532,0,0,0-1.758.926,7.487,7.487,0,0,1-6.847,3.879c-1.551.015-3.1,0-4.652,0h-.9c.232.819.421,1.533.64,2.238.165.53.391,1.064-.1,1.526s-1.053.267-1.588.018a9.986,9.986,0,0,1-5.006-4.36,1.57,1.57,0,0,0-.611-.512,8.035,8.035,0,0,1-3.74-8.326,7.58,7.58,0,0,1,6.2-6.306,2.438,2.438,0,0,0,2.319-1.953,8.722,8.722,0,0,1,8.109-6.139,106.4,106.4,0,0,1,12.985.075c4.971.355,8.669,5.163,8.2,10.114a9.316,9.316,0,0,1-5,7.668,1.315,1.315,0,0,0-.55.473,11.058,11.058,0,0,1-4.975,4.721,7.853,7.853,0,0,1-1.74.778,1.8,1.8,0,0,1-1.246-.157c-.442-.258-.354-.765-.2-1.236.3-.928.554-1.868.811-2.808A2.454,2.454,0,0,0,575.981,206.6Zm1.965,1.875a7.827,7.827,0,0,0,3.381-3.265,3.283,3.283,0,0,1,1.67-1.669,7.408,7.408,0,0,0,3.847-7.228,7.6,7.6,0,0,0-7.577-6.789c-3.557-.042-7.114-.017-10.671-.005a7.578,7.578,0,0,0-7.143,10.076c.241.758.026,1.355-.551,1.534-.639.2-1.161-.128-1.395-.94a16.071,16.071,0,0,1-.482-2.123c-.064-.442-.2-.558-.647-.528a5.765,5.765,0,0,0-5.23,4.558A5.912,5.912,0,0,0,556,208.573a2.938,2.938,0,0,1,1.406,1.488,5.257,5.257,0,0,0,2.164,2.246c-.023-.4-.048-.663-.052-.928,0-.3,0-.593.016-.889.042-.813.378-1.162,1.188-1.17,1.55-.015,3.1.005,4.652-.01a21.883,21.883,0,0,0,2.8-.106,5.416,5.416,0,0,0,3.9-2.643c-1.048,0-1.955,0-2.862,0a10.764,10.764,0,0,1-4.03-.608c-.75-.3-1.053-.8-.834-1.4.207-.57.708-.7,1.478-.566a26.212,26.212,0,0,0,3.7.493c2.369.077,4.742.019,7.114.025,1.056,0,1.379.269,1.409,1.3C578.074,206.666,577.987,207.527,577.946,208.479Z" transform="translate(-78.793 -113.869)" fill="#6836bf"/>
        <path id="Trazado_187892" data-name="Trazado 187892" d="M759.943,85.283a6.085,6.085,0,0,0-1.986,3.933c-.1,1.04-.027,2.1-.05,3.145-.01.483.229.635.672.635q6.259-.007,12.518,0c.483,0,.729-.175.693-.684-.1-1.449-.17-2.9-.309-4.345-.074-.772.129-1.271.726-1.4.621-.137,1.072.183,1.284.918a16.192,16.192,0,0,1,.293,5.571,2.368,2.368,0,0,1-2.624,1.993q-6.122.012-12.244,0c-.205,0-.411.007-.616,0a2.389,2.389,0,0,1-2.434-2.5,33.307,33.307,0,0,1,.156-4.159,7.4,7.4,0,0,1,2.555-4.627.809.809,0,0,0,.335-.863,6.012,6.012,0,0,1,8.989-6.4,6,6,0,0,1-2.272,11.081A6.114,6.114,0,0,1,759.943,85.283Zm4.818-7.607a3.968,3.968,0,0,0,.008,7.937,4.018,4.018,0,0,0,3.982-4.016A3.977,3.977,0,0,0,764.761,77.676Z" transform="translate(-248.584 -21.217)" fill="#6836bf"/>
        <path id="Trazado_187893" data-name="Trazado 187893" d="M463.73,85.293a6.045,6.045,0,0,0-2,4.086c-.074.975-.012,1.96-.04,2.94-.014.515.224.678.7.678q6.259-.01,12.517,0c.447,0,.7-.16.664-.639-.1-1.471-.171-2.945-.308-4.413-.071-.763.149-1.263.756-1.382.624-.122,1.056.2,1.265.948a16.448,16.448,0,0,1,.281,5.573,2.356,2.356,0,0,1-2.578,1.965c-2.554.012-5.107,0-7.661,0-1.642,0-3.283.005-4.925,0a2.437,2.437,0,0,1-2.751-2.734,31.177,31.177,0,0,1,.336-4.682,6.828,6.828,0,0,1,2.4-3.889.8.8,0,0,0,.308-.871,6.014,6.014,0,0,1,9.018-6.362,6,6,0,0,1-2.253,11.065A5.922,5.922,0,0,1,464,85.556C463.93,85.475,463.845,85.4,463.73,85.293Zm4.808-7.618a3.968,3.968,0,1,0,4,3.91A3.98,3.98,0,0,0,468.538,77.675Z" transform="translate(-3.135 -21.216)" fill="#6836bf"/>
        <path id="Trazado_187894" data-name="Trazado 187894" d="M463.789,328.6a6.321,6.321,0,0,0-2.078,4.159c-.071.907-.031,1.823-.033,2.735,0,.859.037.9.878.9q3.489.005,6.977,0c1.733,0,3.466-.017,5.2.009.612.009.883-.189.829-.83-.121-1.424-.189-2.853-.319-4.276-.068-.736.145-1.192.739-1.332s1.051.167,1.257.857a15.508,15.508,0,0,1,.3,5.7,2.089,2.089,0,0,1-1.8,1.832,4.62,4.62,0,0,1-1.018.093q-6.088.009-12.176,0c-2.027,0-2.947-.9-2.916-2.918a26.659,26.659,0,0,1,.235-4.151,7.626,7.626,0,0,1,2.518-4.289,1.024,1.024,0,0,0,.265-.794,5.869,5.869,0,0,1,2.514-6.213,5.994,5.994,0,1,1,5.414,10.585,5.75,5.75,0,0,1-6.573-1.7A2.221,2.221,0,0,1,463.789,328.6Zm8.726-3.54a3.968,3.968,0,1,0-7.936-.013,3.968,3.968,0,0,0,7.936.013Z" transform="translate(-3.114 -222.889)" fill="#6836bf"/>
        <path id="Trazado_187895" data-name="Trazado 187895" d="M759.923,329.009a6.178,6.178,0,0,0-1.981,4.029c-.078.952,0,1.916-.047,2.872-.035.658.254.817.849.814,3.694-.016,7.389-.008,11.083-.008,1.957,0,1.989,0,1.944-1.946a27.656,27.656,0,0,0-.287-3.047c-.109-.808.116-1.311.754-1.443.606-.125,1.04.208,1.256.958a17.05,17.05,0,0,1,.3,5.506A2.213,2.213,0,0,1,772,338.671a5.3,5.3,0,0,1-1.086.1q-6.054.01-12.109,0c-2.075,0-2.993-.883-2.946-2.952a29.047,29.047,0,0,1,.32-4.411,6.882,6.882,0,0,1,2.423-3.95.8.8,0,0,0,.294-.879,6.011,6.011,0,1,1,6.616,4.732,5.9,5.9,0,0,1-5.313-2.049C760.126,329.183,760.038,329.114,759.923,329.009Zm4.871-7.606a3.962,3.962,0,0,0-3.983,3.92,3.967,3.967,0,1,0,7.935.035A3.967,3.967,0,0,0,764.794,321.4Z" transform="translate(-248.578 -223.212)" fill="#6836bf"/>
        <path id="Trazado_187896" data-name="Trazado 187896" d="M456.875,206.952c.251-1.316.474-2.639.766-3.946a1.109,1.109,0,0,1,2.18.4c-.2,1.348-.434,2.692-.7,4.028a1.092,1.092,0,0,1-1.243.827A1.246,1.246,0,0,1,456.875,206.952Z" transform="translate(-0.833 -126.078)" fill="#6836bf"/>
        <path id="Trazado_187897" data-name="Trazado 187897" d="M597.843,55.992a1.087,1.087,0,0,1-1.175-.831.94.94,0,0,1,.548-1.248c1.435-.417,2.893-.774,4.36-1.056.576-.111.986.338,1.1.909a.974.974,0,0,1-.663,1.205C600.613,55.361,599.191,55.667,597.843,55.992Z" transform="translate(-116.627 -2.371)" fill="#6836bf"/>
        <path id="Trazado_187898" data-name="Trazado 187898" d="M737.381,68.366c0,.964-.764,1.572-1.46,1.259-1.3-.587-2.581-1.241-3.838-1.927a.986.986,0,0,1-.356-1.381.963.963,0,0,1,1.3-.568q1.954.884,3.841,1.91C737.144,67.808,737.278,68.216,737.381,68.366Z" transform="translate(-228.468 -12.993)" fill="#6836bf"/>
        <path id="Trazado_187899" data-name="Trazado 187899" d="M458.327,252.39c0,.159.01.319,0,.477a1.106,1.106,0,0,1-1.048,1.056,1.059,1.059,0,0,1-1.148-.944c-.127-1.356-.216-2.718-.259-4.079a1.117,1.117,0,0,1,2.232-.113c.072.607.046,1.225.082,1.837C458.219,251.213,458.279,251.8,458.327,252.39Z" transform="translate(0 -163.864)" fill="#6836bf"/>
        <path id="Trazado_187900" data-name="Trazado 187900" d="M644.886,52.25c-.614,0-1.227.011-1.841,0a1.118,1.118,0,0,1-1.218-1.1,1.077,1.077,0,0,1,1.115-1.13c1.293-.042,2.589-.052,3.882-.016A1.094,1.094,0,0,1,648,51.206c-.04.643-.5,1.027-1.273,1.038-.613.009-1.227,0-1.841,0Z" transform="translate(-154.089)" fill="#6836bf"/>
        <path id="Trazado_187901" data-name="Trazado 187901" d="M460.636,294.609a1.26,1.26,0,0,1,.99-1.168.965.965,0,0,1,1.222.615q.676,2.033,1.223,4.107a.958.958,0,0,1-.69,1.18.975.975,0,0,1-1.343-.476C461.516,297.468,461.1,296.03,460.636,294.609Z" transform="translate(-3.95 -201.709)" fill="#6836bf"/>
        <path id="Trazado_187902" data-name="Trazado 187902" d="M843.046,294.375c-.46,1.424-.884,2.86-1.4,4.264a.957.957,0,0,1-1.276.5.992.992,0,0,1-.759-1.206c.152-.708.407-1.393.611-2.09.192-.654.343-1.322.575-1.961a1.016,1.016,0,0,1,1.257-.684A1.263,1.263,0,0,1,843.046,294.375Z" transform="translate(-317.955 -201.513)" fill="#6836bf"/>
        <path id="Trazado_187903" data-name="Trazado 187903" d="M688.9,52.254c1.385.355,2.78.676,4.151,1.08a1.036,1.036,0,0,1,.656,1.331,1.089,1.089,0,0,1-1.265.8q-2-.426-3.977-.947a1.06,1.06,0,0,1-.773-1.271A1.273,1.273,0,0,1,688.9,52.254Z" transform="translate(-192.077 -1.886)" fill="#6836bf"/>
        <path id="Trazado_187904" data-name="Trazado 187904" d="M846.09,202.786a1.094,1.094,0,0,1,.886-1.188,1.036,1.036,0,0,1,1.28.748c.293,1.4.534,2.809.727,4.224a1.1,1.1,0,0,1-2.133.382C846.541,205.557,846.331,204.141,846.09,202.786Z" transform="translate(-323.345 -125.609)" fill="#6836bf"/>
        <path id="Trazado_187905" data-name="Trazado 187905" d="M581.29,431.537c0,1.014-.657,1.585-1.379,1.354-1.3-.415-2.578-.887-3.843-1.392a1.116,1.116,0,0,1,.782-2.09c1.27.427,2.536.872,3.769,1.393C580.952,430.943,581.158,431.386,581.29,431.537Z" transform="translate(-99.001 -314.348)" fill="#6836bf"/>
        <path id="Trazado_187906" data-name="Trazado 187906" d="M555.42,70.1a3.848,3.848,0,0,1-.906-.79.9.9,0,0,1,.266-1.278c1.3-.726,2.637-1.413,4-2.021a.954.954,0,0,1,1.269.63.991.991,0,0,1-.426,1.36c-1.236.673-2.5,1.287-3.761,1.919a1.227,1.227,0,0,1-.332.062Z" transform="translate(-81.611 -13.217)" fill="#6836bf"/>
        <path id="Trazado_187907" data-name="Trazado 187907" d="M716.358,430.6c-.135.16-.335.614-.667.754-1.274.537-2.583,1-3.9,1.438a1.064,1.064,0,0,1-1.311-.7,1,1,0,0,1,.5-1.338c1.344-.548,2.71-1.049,4.1-1.48C715.734,429.074,716.349,429.666,716.358,430.6Z" transform="translate(-210.917 -314.263)" fill="#6836bf"/>
      </g>
    </g>
  </g>
</svg>
