<svg xmlns="http://www.w3.org/2000/svg" xmlns:xlink="http://www.w3.org/1999/xlink" width="131" height="131" viewBox="0 0 131 131">
  <defs>
    <clipPath id="clip-path">
      <ellipse id="Elipse_5167" data-name="Elipse 5167" cx="60.5" cy="61" rx="60.5" ry="61" transform="translate(-0.02 -0.108)" fill="#fff" stroke="#707070" stroke-width="1"/>
    </clipPath>
    <clipPath id="clip-path-2">
      <ellipse id="Elipse_154" data-name="Elipse 154" cx="55" cy="55.5" rx="55" ry="55.5" transform="translate(0.295 -0.113)" fill="#fff" stroke="#707070" stroke-width="1"/>
    </clipPath>
  </defs>
  <g id="Grupo_131996" data-name="Grupo 131996" transform="translate(-7194 12312.428)">
    <g id="Grupo_131899" data-name="Grupo 131899" transform="translate(7203.706 -12302.315)">
      <g id="Elipse_157" data-name="Elipse 157" transform="translate(0.295 -0.112)" fill="#fff" stroke="#8d3170" stroke-linejoin="round" stroke-width="10">
        <ellipse cx="55" cy="55.5" rx="55" ry="55.5" stroke="none"/>
        <ellipse cx="55" cy="55.5" rx="60" ry="60.5" fill="none"/>
      </g>
    </g>
    <path id="Trazado_189438" data-name="Trazado 189438" d="M-1185.7,852.72a19.96,19.96,0,0,0-5.908-12.208,27.99,27.99,0,0,0-18.29-8.356,26.9,26.9,0,0,0-20.51,6.57,21.3,21.3,0,0,0-7.349,13.264c-.191,1.275-.188,1.264-1.143,1.352a28.514,28.514,0,0,0-17.163,7.412,20.082,20.082,0,0,0-6.975,14.668,20.818,20.818,0,0,0,5.392,14.454,2.879,2.879,0,0,1,.627,1.39,8.936,8.936,0,0,1-2.435,7.641,1.555,1.555,0,0,0-.426,1.851,1.6,1.6,0,0,0,1.687.885,16.586,16.586,0,0,0,8.95-2.841c.827-.557,1.543-1.537,2.421-1.692.922-.162,1.967.48,2.975.695a30.044,30.044,0,0,0,17.9-1.176c6.5-2.629,11.4-6.985,13.929-13.656a53.178,53.178,0,0,0,1.463-5.544,1.3,1.3,0,0,1,.277-.051,37.432,37.432,0,0,0,8.242-1.454,1.1,1.1,0,0,1,.814.306,16.825,16.825,0,0,0,10.825,4.227,1.622,1.622,0,0,0,1.513-.666c.459-.663.353-1.342-.341-2.1a9.02,9.02,0,0,1-2.388-7.732,2.459,2.459,0,0,1,.55-1.189,21.443,21.443,0,0,0,4.543-8.027c.415-1.418.631-2.893.938-4.343v-3.329A1.576,1.576,0,0,1-1185.7,852.72Zm-38.523-5.547a1.527,1.527,0,0,1,1.409,1.564,1.528,1.528,0,0,1-1.605,1.446,1.529,1.529,0,0,1-1.409-1.566A1.523,1.523,0,0,1-1224.222,847.173Zm-24.171,25.515a1.593,1.593,0,0,1-1.577,1.611,1.593,1.593,0,0,1-1.571-1.539,1.588,1.588,0,0,1,1.577-1.61A1.593,1.593,0,0,1-1248.393,872.688Zm-1.763,7.958a5.372,5.372,0,0,1,.709-.018q12.589,0,25.177,0a5.61,5.61,0,0,1,.71.017,1.584,1.584,0,0,1,1.4,1.556,1.585,1.585,0,0,1-1.386,1.568,6.087,6.087,0,0,1-.788.019q-6.274,0-12.549,0-6.235,0-12.47,0a6.218,6.218,0,0,1-.788-.018,1.58,1.58,0,0,1-1.4-1.555A1.581,1.581,0,0,1-1250.156,880.646Zm26.292-6.346c-3.288.013-6.575.005-9.862.005-3.235,0-6.47,0-9.7,0a1.471,1.471,0,0,1-1.559-.838,2.4,2.4,0,0,1,.037-1.552c.253-.643.914-.78,1.592-.78q8.837.013,17.673.005c.6,0,1.21-.011,1.815,0a1.6,1.6,0,0,1,1.712,1.573A1.585,1.585,0,0,1-1223.864,874.3Zm24.648-24.118c-1.46.028-2.921.01-4.381.01h-5.214c-3.047,0-6.094.019-9.141-.021a2.529,2.529,0,0,1-1.369-.466,1.253,1.253,0,0,1-.366-1.509,1.453,1.453,0,0,1,1.286-1.016,9.8,9.8,0,0,1,1.057-.016h17.453c.226,0,.454-.009.68,0a1.526,1.526,0,0,1,1.52,1.473A1.5,1.5,0,0,1-1199.216,850.182Z" transform="translate(8483.313 -13113.777)" fill="#6a2554"/>
  </g>
</svg>
