<svg xmlns="http://www.w3.org/2000/svg" xmlns:xlink="http://www.w3.org/1999/xlink" width="1329.927" height="400" viewBox="0 0 1329.927 400">
  <defs>
    <clipPath id="clip-path">
      <path id="Trazado_189511" data-name="Trazado 189511" d="M1329.52,400H.286L0,15.948C0,7.14,8.963,0,20.019,0L1309.908.336c11.056,0,20.019,7.14,20.019,15.948Z" transform="translate(-270.398)" fill="#7fc733"/>
    </clipPath>
    <linearGradient id="linear-gradient" x1="0.927" y1="0.938" x2="0.019" y2="1.029" gradientUnits="objectBoundingBox">
      <stop offset="0" stop-color="#6836bf"/>
      <stop offset="0.256" stop-color="#6836bf"/>
      <stop offset="0.637" stop-color="#6836bf"/>
      <stop offset="1" stop-color="#6836bf"/>
    </linearGradient>
  </defs>
  <g id="Grupo_131998" data-name="Grupo 131998" transform="translate(-6593.653 9183)">
    <g id="Enmascarar_grupo_150" data-name="Enmascarar grupo 150" transform="translate(7653.183 -8783) rotate(180)" clip-path="url(#clip-path)">
      <g id="Grupo_131997" data-name="Grupo 131997" transform="translate(-314.815 -792.482)">
        <path id="Trazado_189507" data-name="Trazado 189507" d="M1106.825,483.33s-196.873,74.318-304.458-80.349S555.6,65.251,343.445,80.331s-277.69,0-277.69,0S7.191,44.863-20.878,16.793,12.475,0,12.475,0H1121.866V472.87Z" transform="translate(267.195 674.863)" fill="url(#linear-gradient)"/>
        <path id="Unión_37" data-name="Unión 37" d="M163.334,548.02A254.035,254.035,0,0,1,109.6,531.78a217.092,217.092,0,0,1-48.674-28.55,166.565,166.565,0,0,1-37.628-40.824,142.043,142.043,0,0,1-20.6-53.066,182.92,182.92,0,0,1-1.648-50.667A155.943,155.943,0,0,1,14.268,310.1c.8-1.748,1.674-3.525,2.668-5.438a134.441,134.441,0,0,1,39.749-46.073A158.942,158.942,0,0,1,82.857,242.92a177.794,177.794,0,0,1,28.833-10.764,197,197,0,0,1,53.641-6.977c27.7,0,54.774,4.616,83.437,9.5l.044.012,2.122.358c19.7,3.359,35.8,4.918,50.664,4.918,15.123,0,28.469-1.635,40.793-5A113.139,113.139,0,0,0,361.6,227.86a103.091,103.091,0,0,0,17.936-10.968A128.9,128.9,0,0,0,399.764,197.6,178.045,178.045,0,0,0,416,174.99c9.81-15.962,17.982-33.707,25.884-50.865l.024-.051c7.107-15.419,14.453-31.363,22.984-46.045a207.069,207.069,0,0,1,13.947-21.15,146.837,146.837,0,0,1,16.871-18.836A142.448,142.448,0,0,1,591.932,0h.449a146.09,146.09,0,0,1,30.664,3.464A148.855,148.855,0,0,1,653.8,13.738c21.534,9.988,37.712,24.293,46.8,41.366a69.411,69.411,0,0,1,6.138,15.96,80.027,80.027,0,0,1,2.24,15.909c.485,10.588-.779,21.369-2.011,31.789v.035c-1.687,14.3-3.426,29.1-.769,43.921a74.006,74.006,0,0,0,4.691,15.955,68.492,68.492,0,0,0,7.568,13.395,83.659,83.659,0,0,0,22.078,20.552c17.223,11.4,38.9,18.933,59.854,26.211l.04.017c11.287,3.919,22.954,7.97,33.552,12.527,11.873,5.1,21.226,10.364,28.594,16.073q2.931,2.272,5.756,4.792h179.46v97.292s6.314,109.269-141.828,73.228c-.049-.011-.1-.023-.143-.035l-.4-.094c-5.172-1.267-10.476-2.694-15.846-4.267a562.648,562.648,0,0,0-80.053-16.881c-.146-.021-.276-.04-.422-.06l-.867-.121q-14.263-1.965-28.424-3.315c-.024,0-.049-.005-.072-.009l-1.036-.1c-.236-.024-.465-.048-.7-.069l-.271-.024c-19.3-1.8-39.357-2.918-59.954-3.335-25.817-.516-50.471.105-72.987,1.339l-.556.031c-.351.017-.712.037-1.064.058-.544.034-1.088.063-1.634.094l-.089.005q-4.164.242-8.329.518c-9.573.635-19.151,1.4-28.671,2.282-15.324,1.427-28.942,3.03-40.358,4.549q-4.379.583-8.67,1.2l-.053,0c-18.887,2.693-29.828,4.855-29.828,4.855l-.07-.007a273.651,273.651,0,0,0-39.65,12.987c-24.679,10.062-47.993,22.952-65.544,33.059-32.723,18.841-67.671,38.434-103.455,52.852a349.157,349.157,0,0,1-54.155,17.2,271.9,271.9,0,0,1-27.922,4.8,246.147,246.147,0,0,1-28.577,1.694A235.943,235.943,0,0,1,163.334,548.02Z" transform="translate(873.76 1176.041) rotate(-111)" fill="#3e2072" stroke="rgba(0,0,0,0)" stroke-miterlimit="10" stroke-width="1" opacity="0.15" style="mix-blend-mode: color-burn;isolation: isolate"/>
      </g>
    </g>
    <circle id="Elipse_5175" data-name="Elipse 5175" cx="25.5" cy="25.5" r="25.5" transform="translate(6953 -8883)" fill="#fff"/>
    <g id="Elipse_5176" data-name="Elipse 5176" transform="translate(6638 -8829)" fill="#fff" stroke="#707070" stroke-width="1">
      <circle cx="11.5" cy="11.5" r="11.5" stroke="none"/>
      <circle cx="11.5" cy="11.5" r="11" fill="none"/>
    </g>
  </g>
</svg>
