<svg xmlns="http://www.w3.org/2000/svg" xmlns:xlink="http://www.w3.org/1999/xlink" width="1328" height="591" viewBox="0 0 1328 591">
  <defs>
    <clipPath id="clip-path">
      <rect id="Rectángulo_40618" data-name="Rectángulo 40618" width="254" height="459" fill="#fff"/>
    </clipPath>
    <linearGradient id="linear-gradient" x1="0.5" y1="1" x2="0.5" gradientUnits="objectBoundingBox">
      <stop offset="0" stop-color="#6836bc"/>
      <stop offset="0.256" stop-color="#6d3dc3"/>
      <stop offset="0.637" stop-color="#7e51d6"/>
      <stop offset="1" stop-color="#936bef"/>
    </linearGradient>
    <linearGradient id="linear-gradient-2" x1="0.666" y1="1.309" x2="0.346" y2="-0.251" gradientUnits="objectBoundingBox">
      <stop offset="0" stop-color="#ffc431"/>
      <stop offset="1" stop-color="#ff8300"/>
    </linearGradient>
    <clipPath id="clip-path-2">
      <path id="Rectángulo_41262" data-name="Rectángulo 41262" d="M0,0H109a20,20,0,0,1,20,20V209a0,0,0,0,1,0,0H0a0,0,0,0,1,0,0V0A0,0,0,0,1,0,0Z" transform="translate(1335 240)" fill="#fff"/>
    </clipPath>
    <clipPath id="clip-path-3">
      <rect id="Rectángulo_41261" data-name="Rectángulo 41261" width="124" height="370" transform="translate(0.14)" fill="#fff"/>
    </clipPath>
  </defs>
  <g id="Grupo_131998" data-name="Grupo 131998" transform="translate(-3550 12473)">
    <g id="Grupo_131996" data-name="Grupo 131996" transform="translate(3392 -13072)">
      <g id="Enmascarar_grupo_120" data-name="Enmascarar grupo 120" transform="translate(158 731)" opacity="0.1" clip-path="url(#clip-path)">
        <path id="Unión_16" data-name="Unión 16" d="M264.654,0S172.278,1.32,161,61.025c-8.283,43.884-54.363,101.447-78.2,128.877C-172.959,437.781,245.438,449.557,245.438,449.557L386.65,307.9S521.833,2.524,390.977,2.36V0Z" transform="translate(208.403 474.026) rotate(180)" fill="url(#linear-gradient)"/>
      </g>
      <ellipse id="Elipse_4788" data-name="Elipse 4788" cx="40.322" cy="40.322" rx="40.322" ry="40.322" transform="matrix(-0.259, 0.966, -0.966, -0.259, 272.629, 769.681)" fill="url(#linear-gradient-2)"/>
      <ellipse id="Elipse_5152" data-name="Elipse 5152" cx="12.653" cy="12.653" rx="12.653" ry="12.653" transform="matrix(-0.259, 0.966, -0.966, -0.259, 202, 838.629)" fill="url(#linear-gradient-2)"/>
      <ellipse id="Elipse_5153" data-name="Elipse 5153" cx="12.653" cy="12.653" rx="12.653" ry="12.653" transform="matrix(-0.259, 0.966, -0.966, -0.259, 287, 1018.629)" fill="url(#linear-gradient-2)"/>
    </g>
    <g id="Enmascarar_grupo_151" data-name="Enmascarar grupo 151" transform="translate(3414 -12713)" clip-path="url(#clip-path-2)">
      <g id="Grupo_131997" data-name="Grupo 131997" transform="translate(1622.14 1192) rotate(180)">
        <g id="Enmascarar_grupo_150" data-name="Enmascarar grupo 150" transform="translate(158 731)" opacity="0.1" clip-path="url(#clip-path-3)">
          <path id="Unión_37" data-name="Unión 37" d="M129.347,0S84.2,1.064,78.689,49.193C74.641,84.568,52.119,130.969,40.467,153.08c-125,199.815,79.488,209.308,79.488,209.308L188.971,248.2S255.04,2.034,191.085,1.9V0Z" transform="translate(101.855 382.112) rotate(180)" fill="url(#linear-gradient)"/>
        </g>
        <ellipse id="Elipse_5175" data-name="Elipse 5175" cx="32.503" cy="32.503" rx="32.503" ry="32.503" transform="matrix(-0.259, 0.966, -0.966, -0.259, 250.402, 762.181)" fill="url(#linear-gradient-2)"/>
      </g>
    </g>
  </g>
</svg>
