<svg xmlns="http://www.w3.org/2000/svg" width="295" height="359.8" viewBox="0 0 295 359.8">
  <g id="Grupo_128457" data-name="Grupo 128457" transform="translate(-180 -807)">
    <path id="Trazado_188532" data-name="Trazado 188532" d="M379.63-46.841c45.077-4.648,92.338,19.565,85.39,54.664s37.14-12.467,54.734.188c12.526,9.009,7.519,36.435,13.578,47.487,13.894,25.339,28.1-6.569,45.787,12.576S560.6,265.9,542.126,266.9l-210.7-2.276-15.12-2.414S274.477,221.567,304.4,184.07c20.23-25.353,5.674-43.763,3.474-55.371-2.526-13.326-8.421-36.6,17.262-53.681s19.052-54.244,18.42-61.94-9-55.271,36.078-59.919Z" transform="translate(-108.856 890.355)" fill="#fef7dc"/>
    <path id="Trazado_188533" data-name="Trazado 188533" d="M447.42,407.409h-2.392l8.915-46.324,1.989.378Z" transform="translate(-186.387 749.063)" fill="#102e35"/>
    <path id="Trazado_188534" data-name="Trazado 188534" d="M622.046-7.3h0l-.036-.012c-.335-.121-.676-.228-1.021-.328-.118-.034-.235-.069-.353-.1s-.251-.063-.377-.093-.255-.061-.385-.089-.244-.05-.366-.073q-.206-.04-.413-.075c-.118-.019-.235-.038-.354-.055q-.225-.031-.451-.057c-.11-.013-.219-.026-.33-.037-.172-.016-.345-.029-.519-.04-.092-.006-.183-.014-.274-.018-.267-.012-.536-.02-.806-.02h-123.9c-.288,0-.575.007-.859.022q-.855.044-1.685.171c-.276.043-.551.092-.822.148a16.756,16.756,0,0,0-13.255,14.71,17.073,17.073,0,0,0-.086,1.714V262.552a16.767,16.767,0,0,0,11.022,15.767h0l.086.029c.319.114.643.216.97.311.118.034.235.069.354.1s.251.063.377.093.256.061.385.089.244.05.367.073.275.051.413.075c.118.019.236.038.354.055q.225.031.451.057c.109.013.219.026.329.037.173.016.346.029.52.04.092.006.182.014.274.018.267.013.535.021.805.021h123.9a16.749,16.749,0,0,0,16.708-16.765V8.463A16.767,16.767,0,0,0,622.046-7.3Z" transform="translate(-243.068 876.828)" fill="#6a2554"/>
    <rect id="Rectángulo_40801" data-name="Rectángulo 40801" width="141.122" height="241.92" transform="translate(240.779 891.375)" fill="#f2fbff"/>
    <rect id="Rectángulo_40802" data-name="Rectángulo 40802" width="60.387" height="3.031" rx="0.868" transform="translate(281.261 880.741)" fill="#fff"/>
    <ellipse id="Elipse_4813" data-name="Elipse 4813" cx="6.931" cy="6.954" rx="6.931" ry="6.954" transform="translate(304.328 1137.997)" fill="#daedf5" opacity="0.3"/>
    <rect id="Rectángulo_40803" data-name="Rectángulo 40803" width="141.122" height="10.15" transform="translate(240.779 1123.146)" fill="#f3e2ee"/>
    <rect id="Rectángulo_40804" data-name="Rectángulo 40804" width="141.122" height="12.838" transform="translate(240.779 891.375)" fill="#f3e2ee"/>
    <g id="Grupo_128449" data-name="Grupo 128449" transform="translate(180 884.128)">
      <path id="Trazado_188535" data-name="Trazado 188535" d="M462.764,35.675H340.2a7.678,7.678,0,0,0-7.666,7.692V94.116a7.678,7.678,0,0,0,7.666,7.692H436.7c3.905,5.468,10.986,15.26,11.611,15.26.585,0-.542-9.248-1.336-15.26h15.794a7.678,7.678,0,0,0,7.665-7.692V43.367A7.678,7.678,0,0,0,462.764,35.675Z" transform="translate(-327.478 -22.511)" fill="#daedf5" opacity="0.3" style="mix-blend-mode: multiply;isolation: isolate"/>
      <path id="Trazado_188536" data-name="Trazado 188536" d="M455.028,15.55H332.468a7.678,7.678,0,0,0-7.666,7.691v50.75a7.679,7.679,0,0,0,7.666,7.692h96.492c3.905,5.468,10.986,15.259,11.61,15.259.585,0-.542-9.249-1.336-15.259h15.794a7.678,7.678,0,0,0,7.665-7.692V23.241A7.678,7.678,0,0,0,455.028,15.55Z" transform="translate(-324.802 -15.55)" fill="#b13e8d"/>
      <rect id="Rectángulo_40805" data-name="Rectángulo 40805" width="60.427" height="3.351" rx="0.959" transform="translate(12.675 16.455)" fill="#fff"/>
      <path id="Rectángulo_40806" data-name="Rectángulo 40806" d="M.959,0H25.072a.959.959,0,0,1,.959.959V2.391a.96.96,0,0,1-.96.96H.959A.959.959,0,0,1,0,2.391V.959A.959.959,0,0,1,.959,0Z" transform="translate(12.675 25.296)" fill="#fff"/>
      <path id="Rectángulo_40807" data-name="Rectángulo 40807" d="M.959,0h79.1a.96.96,0,0,1,.96.96V2.391a.96.96,0,0,1-.96.96H.959A.959.959,0,0,1,0,2.391V.959A.959.959,0,0,1,.959,0Z" transform="translate(41.64 25.296)" fill="#fff"/>
      <rect id="Rectángulo_40808" data-name="Rectángulo 40808" width="43.623" height="3.351" rx="0.959" transform="translate(79.278 16.455)" fill="#fff"/>
      <path id="Rectángulo_40809" data-name="Rectángulo 40809" d="M.959,0H109.266a.959.959,0,0,1,.959.959V2.391a.96.96,0,0,1-.96.96H.959A.959.959,0,0,1,0,2.391V.959A.959.959,0,0,1,.959,0Z" transform="translate(12.675 42.626)" fill="#fff"/>
      <path id="Rectángulo_40810" data-name="Rectángulo 40810" d="M.959,0H55.983a.959.959,0,0,1,.959.959V2.391a.959.959,0,0,1-.959.959H.96A.96.96,0,0,1,0,2.391V.959A.959.959,0,0,1,.959,0Z" transform="translate(12.675 34.137)" fill="#fff"/>
      <path id="Rectángulo_40811" data-name="Rectángulo 40811" d="M.959,0H49.017a.959.959,0,0,1,.959.959V2.391a.96.96,0,0,1-.96.96H.959A.959.959,0,0,1,0,2.391V.959A.959.959,0,0,1,.959,0Z" transform="translate(72.923 34.137)" fill="#fff"/>
    </g>
    <path id="Rectángulo_40812" data-name="Rectángulo 40812" d="M.858,0H36.814a.858.858,0,0,1,.858.858V2.137a.857.857,0,0,1-.857.857H.858A.858.858,0,0,1,0,2.136V.858A.858.858,0,0,1,.858,0Z" transform="translate(402.874 830.178) rotate(180)" fill="#fff"/>
    <path id="Trazado_188537" data-name="Trazado 188537" d="M656.835-24.024H766.329a6.86,6.86,0,0,1,6.849,6.871V28.187a6.86,6.86,0,0,1-6.849,6.871h-86.2c-3.489,4.885-9.814,13.632-10.373,13.632-.523,0,.484-8.262,1.193-13.632h-14.11a6.86,6.86,0,0,1-6.848-6.871V-17.153A6.86,6.86,0,0,1,656.835-24.024Z" transform="translate(-302.698 842.784)" fill="#daedf5" opacity="0.3" style="mix-blend-mode: multiply;isolation: isolate"/>
    <path id="Trazado_188538" data-name="Trazado 188538" d="M663.746-42H773.24a6.86,6.86,0,0,1,6.849,6.871V10.207a6.86,6.86,0,0,1-6.849,6.871h-86.2c-3.488,4.885-9.814,13.633-10.372,13.633-.523,0,.483-8.263,1.193-13.633h-14.11a6.86,6.86,0,0,1-6.848-6.871V-35.133A6.86,6.86,0,0,1,663.746-42Z" transform="translate(-305.088 849.004)" fill="#b13e8d"/>
    <path id="Rectángulo_40813" data-name="Rectángulo 40813" d="M.858,0H32.617a.857.857,0,0,1,.857.857V2.137a.857.857,0,0,1-.857.857H.857A.857.857,0,0,1,0,2.136V.858A.858.858,0,0,1,.858,0Z" transform="translate(460.946 824.693) rotate(180)" fill="#fff"/>
    <path id="Rectángulo_40814" data-name="Rectángulo 40814" d="M.857,0h20.9a.857.857,0,0,1,.857.857v1.28a.857.857,0,0,1-.857.857H.856A.856.856,0,0,1,0,2.137V.857A.857.857,0,0,1,.857,0Z" transform="translate(460.946 834.471) rotate(180)" fill="#fff"/>
    <path id="Rectángulo_40815" data-name="Rectángulo 40815" d="M.857,0H26.969a.856.856,0,0,1,.856.856v1.28a.857.857,0,0,1-.857.857H.857A.857.857,0,0,1,0,2.136V.857A.857.857,0,0,1,.857,0Z" transform="translate(435.604 834.471) rotate(180)" fill="#fff"/>
    <path id="Rectángulo_40816" data-name="Rectángulo 40816" d="M.857,0H38.031a.858.858,0,0,1,.858.858V2.136a.857.857,0,0,1-.857.857H.857A.857.857,0,0,1,0,2.136V.857A.857.857,0,0,1,.857,0Z" transform="translate(404.255 834.471) rotate(180)" fill="#fff"/>
    <path id="Rectángulo_40817" data-name="Rectángulo 40817" d="M.857,0h54.43a.858.858,0,0,1,.858.858V2.136a.857.857,0,0,1-.857.857H.858A.858.858,0,0,1,0,2.136V.857A.857.857,0,0,1,.857,0Z" transform="translate(421.347 824.693) rotate(180)" fill="#fff"/>
    <path id="Rectángulo_40818" data-name="Rectángulo 40818" d="M.857,0h94.03a.857.857,0,0,1,.857.857V2.136a.857.857,0,0,1-.857.857H.858A.858.858,0,0,1,0,2.136V.857A.857.857,0,0,1,.857,0Z" transform="translate(460.946 853.619) rotate(180)" fill="#fff"/>
    <path id="Rectángulo_40819" data-name="Rectángulo 40819" d="M.858,0H48.6a.857.857,0,0,1,.857.857V2.137a.857.857,0,0,1-.857.857H.857A.857.857,0,0,1,0,2.136V.858A.858.858,0,0,1,.858,0Z" transform="translate(460.946 844.157) rotate(180)" fill="#fff"/>
    <path id="Rectángulo_40820" data-name="Rectángulo 40820" d="M.857,0H42.972a.857.857,0,0,1,.857.857V2.136a.857.857,0,0,1-.857.857H.858A.858.858,0,0,1,0,2.136V.857A.857.857,0,0,1,.857,0Z" transform="translate(409.032 844.157) rotate(180)" fill="#fff"/>
    <g id="Grupo_128450" data-name="Grupo 128450" transform="translate(285 921.255)">
      <path id="Trazado_188539" data-name="Trazado 188539" d="M518.478,129.6s-21.744,3.138-18.421,24.123c3.1,19.564,21.744,15.591,26.533,14.611S518.478,129.6,518.478,129.6Z" transform="translate(-499.712 -81.495)" fill="#f6cb84"/>
      <path id="Trazado_188540" data-name="Trazado 188540" d="M527.2,187.687c2.23-.457.624-8.886-1.728-17.764-8,1.569-16.922,3.32-24.492,4.814C504.845,192.409,522.549,188.639,527.2,187.687Z" transform="translate(-500.319 -100.854)" fill="#e6b875"/>
      <path id="Trazado_188541" data-name="Trazado 188541" d="M559.86,204.338s4.776,17.051,3.518,30.3c-1.172,12.355.587,14.414,5.179,14.022s15.734-3.138,15.929-7.551-1.857-27.064-9.577-39.224S559.86,204.338,559.86,204.338Z" transform="translate(-528.584 -113.876)" fill="#b13e8d"/>
      <path id="Trazado_188542" data-name="Trazado 188542" d="M567.282,197.387c-3.062,2.057-7.422,7.112-7.422,7.112s4.776,17.051,3.518,30.3c-1.172,12.355.587,14.414,5.179,14.022a38.7,38.7,0,0,0,6.833-1.348C577.222,217.107,569.389,200.823,567.282,197.387Z" transform="translate(-528.584 -114.037)" fill="#6a2554"/>
      <path id="Trazado_188543" data-name="Trazado 188543" d="M612.136,50.107s-36.061,26.255-47.715,34.2L557.6,94.454l4.837,29.565,11.654,5.736,56.95,11.252-1.319-6.4-10.334-28.682-5.277-32.654L612.576,53.2Z" transform="translate(-527.502 -43.339)" fill="#f3e2ee"/>
      <path id="Trazado_188544" data-name="Trazado 188544" d="M621.952,149.556l-1.384-8.561L562.938,155.03,565,167.647l11.654,5.736,56.95,11.252-1.319-6.4Z" transform="translate(-530.062 -86.967)" fill="#e4bbd7"/>
      <path id="Trazado_188545" data-name="Trazado 188545" d="M552.442,113.733s-4.764,25.078,9.675,45.45a2.524,2.524,0,0,1-.953,3.064l-10.75,2.745s-4.984,1.765-9.186-5.393S529.6,136.36,534,118.611a8.038,8.038,0,0,1,6.939-5.687l7.818-1.471S552.222,110.914,552.442,113.733Z" transform="translate(-515.523 -72.767)" fill="#8d3170"/>
      <path id="Trazado_188546" data-name="Trazado 188546" d="M659.123,43.859s9.382-6.913,14.806-6.766,10.848,7.354,14.366,13.237S701.048,79.307,701.928,94.9s.733,37.8-6.89,40.449-17-.588-17-.588-12.313-10.59-19.5-43.538S659.123,43.859,659.123,43.859Z" transform="translate(-574.489 -37.091)" fill="#6a2554"/>
      <path id="Trazado_188547" data-name="Trazado 188547" d="M696.712,137.319s8.769-11.4,4.3-42.176c-7.036-48.457-24.774-55.785-24.774-55.785s-13.128,10-.586,56.832C685.987,134.776,696.712,137.319,696.712,137.319Z" transform="translate(-581.563 -38.179)" fill="#b13e8d"/>
      <path id="Trazado_188548" data-name="Trazado 188548" d="M672.589,110.621a178.115,178.115,0,0,0,4.2,19.705c1,3.739,2.006,7.136,3,10.228,5.453-1.895,14.273-6.643,10.507-18.686C686.808,110.71,677.723,110.027,672.589,110.621Z" transform="translate(-582.697 -72.315)" fill="#f6cb84"/>
      <path id="Trazado_188549" data-name="Trazado 188549" d="M679.589,141.3c1,3.739,2.006,7.136,3,10.228,5.378-1.869,14.029-6.512,10.655-18.191l-14.822,3.427Q678.967,138.978,679.589,141.3Z" transform="translate(-585.499 -83.294)" fill="#e6b875"/>
      <path id="Trazado_188550" data-name="Trazado 188550" d="M563.743,185.169a55.588,55.588,0,0,1-8.654-19.623l-19.051,3.608a65.459,65.459,0,0,0,6.817,16.432c4.2,7.158,9.186,5.393,9.186,5.393l10.75-2.745A2.524,2.524,0,0,0,563.743,185.169Z" transform="translate(-517.149 -98.753)" fill="#6a2554"/>
    </g>
    <g id="Grupo_128454" data-name="Grupo 128454" transform="translate(394.323 988.5)">
      <path id="Trazado_188551" data-name="Trazado 188551" d="M732.608,251.357l-.5.444a.608.608,0,0,1-.855-.021l-8.782-9.687a.6.6,0,0,1,.066-.85l.5-.444a.607.607,0,0,1,.856.022l8.781,9.686A.6.6,0,0,1,732.608,251.357Z" transform="translate(-722.33 -200.976)" fill="#15385a"/>
      <path id="Trazado_188552" data-name="Trazado 188552" d="M763.431,244.919c-1.174-.958-10.251,3.039-10.136,4.43s-6.334,14.878-6.334,14.878l-11.145-8.916,0,0c-.1-.322-1.155-3.791-1.206-4.411-.054-.651-1.937-1.79-2.811-1.622s.748,1.269.854,1.471c.29.55-.831.756-.831.756s-3.22-1.773-3.288-2.816-.733-3.229-1.429-2.771c-.359.236-.355,1.787-.243,2.523-.207-.835-.5-1.779-.785-1.872-.521-.171-.78.494-.686.82s.936,3.873,1.192,4.272,5.449,4.594,6.2,5.506c0,0,14.415,16.535,15.442,16.968.9.379,4.111-5.319,7.145-9.1S767.1,247.911,763.431,244.919Z" transform="translate(-723.38 -202.408)" fill="#f5a493"/>
      <path id="Trazado_188553" data-name="Trazado 188553" d="M827.4,428s1.98,1.939,2.026,2.651.175,8.337-.633,9.048-3.184,1.217-2.42,2.017c.577.605,5.018.476,7.961.313.859-.048,1.936-6.925,2.276-7.936.495-1.468,1.7-4.775,1.247-5.8a8.582,8.582,0,0,0-2.742-2.479,13.514,13.514,0,0,1-3.037-3.246Z" transform="translate(-758.266 -263.906)" fill="#f28c81"/>
      <path id="Trazado_188554" data-name="Trazado 188554" d="M792.713,437.718s1.773,5.025,1.775,5.038c.132.8.651,2.763.651,3.486,0,2.718-12.219-2.308-9.481-3.513a2.907,2.907,0,0,0,1.107-1.905,6.38,6.38,0,0,0-1.03-3.214Z" transform="translate(-744.096 -269.108)" fill="#f4a392"/>
      <g id="Grupo_128451" data-name="Grupo 128451" transform="translate(26.157 75.043)">
        <path id="Trazado_188555" data-name="Trazado 188555" d="M765.609,294.731s-.89,9.008-.89,9.142c0,14.572-2.879,43.035-2.331,45.774,1.336,6.682,15.709,40.769,15.709,40.769l7.769-.932-10.123-40.811,3.725-16.427,5.271-32.471Z" transform="translate(-762.318 -294.731)" fill="#365486"/>
        <path id="Trazado_188556" data-name="Trazado 188556" d="M794.61,303.378l1.474,8.537,3.988,35.138,15.189,34.341s-2.137,5-5.288,5.7L785.8,351.834l-15.016-45.115.527-10.023Z" transform="translate(-765.246 -295.411)" fill="#15385a"/>
      </g>
      <path id="Trazado_188557" data-name="Trazado 188557" d="M762.613,249.474l10.773,1.1s.495-8.862.495-13.089c0-5.129-.436-11.734-1.053-11.592a9.382,9.382,0,0,0-5.454,3.274C762.567,235.8,762.613,249.474,762.613,249.474Z" transform="translate(-736.263 -195.878)" fill="#659f28"/>
      <path id="Trazado_188558" data-name="Trazado 188558" d="M768.395,236.4c-.226,1.563-4.368,44.072-4.368,44.072,19.616,9.506,30.438,1.693,30.438,1.693s-.642-29.85.128-33.913c.509-2.688,1.143-20.55-.593-21.051a43.337,43.337,0,0,0-7.566-1.614c-2.376-.247-11.609-.391-13.26.165A21.128,21.128,0,0,0,768.395,236.4Z" transform="translate(-736.752 -195.698)" fill="#7fc733"/>
      <path id="Trazado_188559" data-name="Trazado 188559" d="M834.6,427.459s-4.565,12.9-6.352,13.521c-.474.165-2.751.585-3.181,1.6a4.381,4.381,0,0,0,0,1.321h9.516s1.2-5.683,1.679-8.18c0,0,2.519-6.1,2.239-6.656S834.6,427.459,834.6,427.459Z" transform="translate(-757.845 -265.597)" fill="#020e11"/>
      <path id="Trazado_188560" data-name="Trazado 188560" d="M790.827,449.833l-1.4-4.436s-2.939,1.247-4.408,1.04a44.4,44.4,0,0,1-4.339-1.04c-5.865,1.937-10.67,2.877-9.8,4.436h19.941Z" transform="translate(-739.089 -271.801)" fill="#020e11"/>
      <g id="Grupo_128452" data-name="Grupo 128452" transform="translate(23.525 60.643)">
        <path id="Trazado_188561" data-name="Trazado 188561" d="M759.608,283.8a2.528,2.528,0,0,1-.3-.22c.349-4.165.286-8.2-1.016-9.564.031-.065.316-.672.614-1.3,1.509,1.172,2.227,4.284,1.945,9.337a8.622,8.622,0,0,1-.2,1.046C760.218,283.582,759.82,283.893,759.608,283.8Z" transform="translate(-758.295 -272.716)" fill="#f5a493"/>
      </g>
      <path id="Trazado_188562" data-name="Trazado 188562" d="M829.793,286.181a1.158,1.158,0,0,0,0-.273c-.288-2.944-2.725-27.664-3.135-28.715-.37-.948-11.3-16.627-11.3-16.627l-5.37,7.34,10.507,14.063c.236.894,4.026,17.581,4.026,17.581s.777,3.042,1.125,4.863c-.159.439-.315.854-.453,1.194a10.927,10.927,0,0,1-1.132,1.826,12.529,12.529,0,0,0-1.342,2.381c-.111.429-.312,1.321-.425,1.86s-.269,1.166-.3,1.458a2.816,2.816,0,0,1-.339.783.47.47,0,0,0,.553.679c.381-.128.678-.623.861-.932.517-.872.793-2.465.922-2.38s.581,2.786.653,3.091a33.456,33.456,0,0,0,.922,4.016c.306.573.712.477.82.118.093-.309-.338-4.7-.338-4.7s-.054-.56.19-.385.644,4.159.814,4.742.557.892.886.423c.4-.57-.288-4.8-.288-4.8s-.077-.531.149-.481.51,3.445.685,3.738a.445.445,0,0,0,.832-.09c.25-.577-.4-4.344-.4-4.344s.031-.3.173-.2.589,2.977.88,3.243a.309.309,0,0,0,.449.006c.536-.366-.286-3.1-.277-4.464s-.621-2.891-.434-4.511C829.739,286.587,829.773,286.338,829.793,286.181Z" transform="translate(-752.653 -200.953)" fill="#f5a393"/>
      <path id="Trazado_188563" data-name="Trazado 188563" d="M821.383,246.221l-9.332,6.287s-5.26-7.854-8.084-10.65c-3.537-3.5,1.289-14.232,3.568-13.625C812.632,229.592,821.383,246.221,821.383,246.221Z" transform="translate(-750.133 -196.679)" fill="#7fc733"/>
      <path id="Trazado_188564" data-name="Trazado 188564" d="M792.9,211.37l1.4,9.232s-5.1,10.992-8.141,10.038c-2.554-.8-.982-10.525-.982-10.525s1.392-5.223.974-7.837S792.9,211.37,792.9,211.37Z" transform="translate(-743.899 -190.665)" fill="#f4a392"/>
      <path id="Trazado_188565" data-name="Trazado 188565" d="M786.816,212.277c-.417-2.613,6.753-.907,6.753-.907l.116.765a4.262,4.262,0,0,1-.778,1.287,9.427,9.427,0,0,1-6.27,2.847A14.294,14.294,0,0,0,786.816,212.277Z" transform="translate(-744.573 -190.665)" fill="#f1745d"/>
      <g id="Grupo_128453" data-name="Grupo 128453" transform="translate(37.928)">
        <path id="Trazado_188566" data-name="Trazado 188566" d="M792.558,190.167c.2-.074,1.625,10.514-1.073,13.428s-7.955,3.866-9.841,1.573c-2.086-2.538-1.981-13.918,2.214-16.915S792.558,190.167,792.558,190.167Z" transform="translate(-780.314 -182.523)" fill="#f4a392"/>
        <path id="Trazado_188567" data-name="Trazado 188567" d="M786.248,180.071a11.643,11.643,0,0,1,6.114,3.5c1.473.175,3.473.991,5.54,4.424a8.6,8.6,0,0,1-2.293,11.192,6.7,6.7,0,0,0-2.917,4.945l-.467-1.371a7.688,7.688,0,0,1-.371-3.229,6.341,6.341,0,0,1,.479-1.942c.711-1.532-1.529-2.55-2.156-3.825-.484-.981-.508-3.227-1.269-4.85l-.91-1.239s-2.1-1.639-4.152-1.177S782.087,179.22,786.248,180.071Z" transform="translate(-781.106 -180.006)" fill="#1a4654"/>
        <path id="Trazado_188568" data-name="Trazado 188568" d="M794.391,202.7c-.022,1.292.563,2.35,1.307,2.362s1.363-1.024,1.385-2.316-.564-2.349-1.307-2.362S794.412,201.4,794.391,202.7Z" transform="translate(-785.183 -187.053)" fill="#f4a392"/>
      </g>
      <path id="Trazado_188569" data-name="Trazado 188569" d="M785.542,208.372l-4.067-.211a1.784,1.784,0,0,0,1.8,1.7C785.452,210.037,785.542,208.372,785.542,208.372Z" transform="translate(-742.787 -189.744)" fill="#fff"/>
    </g>
    <path id="Trazado_188570" data-name="Trazado 188570" d="M544.985,407.2l1.989-.378-8.594-45.738-1.989.378Z" transform="translate(-217.988 749.063)" fill="#102e35"/>
    <path id="Trazado_188571" data-name="Trazado 188571" d="M514.378,407.409h-2.392l8.915-46.324,1.989.378Z" transform="translate(-209.546 749.063)" fill="#102e35"/>
    <path id="Trazado_188572" data-name="Trazado 188572" d="M477.464,407.519l1.942.023-8.547-46.14-1.989.378Z" transform="translate(-194.633 748.952)" fill="#102e35"/>
    <path id="Trazado_188573" data-name="Trazado 188573" d="M477.066,265.6c-7.876.846-18.068,1.739-28.3,19.162-11.183,19.042-5.3,47.486,3.53,55.39s37.653,17.664,61.886,3.053c0,0,14.633-8.854,7.123-23.549-11.556-22.614-9.924-27.33-15.09-36.192S493.784,263.805,477.066,265.6Z" transform="translate(-185.558 782.157)" fill="#f9dfb5"/>
    <path id="Trazado_188574" data-name="Trazado 188574" d="M448.767,285.581c6.983-11.891,13.948-16.081,20.171-17.813a52.275,52.275,0,0,0-7.289,9.873c-11.183,19.042-5.3,47.485,3.53,55.39,7.828,7.01,31.384,15.476,53.518,7.113a22.493,22.493,0,0,1-4.513,3.88c-24.233,14.611-53.06,4.852-61.886-3.053S437.584,304.623,448.767,285.581Z" transform="translate(-185.558 781.339)" fill="#f6cb84"/>
    <path id="Trazado_188575" data-name="Trazado 188575" d="M531.738,309.954l2.024,6.094-6.169-2.435Z" transform="translate(-214.945 766.748)" fill="#f59c8f"/>
    <path id="Trazado_188576" data-name="Trazado 188576" d="M522.125,282.232c.411.017,1.538.394,3.186,3.509,2.1,3.977,5.18,15.992,5.18,15.992l-9.181,3.419-1.18-2.508-1.942-19.307S522.012,282.227,522.125,282.232Z" transform="translate(-211.692 776.336)" fill="#b13e8d"/>
    <path id="Trazado_188577" data-name="Trazado 188577" d="M497.042,279.584a56.059,56.059,0,0,1,12.137,1.733s2.215,19.038-1.994,33.5c-.942,3.239.78,13.424.78,13.424l-27.206-.359s3.223-24.624,2.009-28.6-1.243-17.839-1.243-17.839.186-.029,6.113-1.054A61.6,61.6,0,0,1,497.042,279.584Z" transform="translate(-198.745 777.252)" fill="#fff"/>
    <path id="Trazado_188578" data-name="Trazado 188578" d="M496.717,407.995s.6,6.947,1.709,8.87-.058,5.194-.116,5.643-2.33,1.09-5.941.705-3.552-1.218-3.261-2.565,2.214-3.078,2.33-4.36-1.107-5.9-1.107-5.9Z" transform="translate(-201.59 732.837)" fill="#f5a493"/>
    <path id="Trazado_188579" data-name="Trazado 188579" d="M504.649,344.985s18.78-1.043,22.974,1.5-.758,7.755-.758,7.755-15.289,6.648-40.885,8.125c-6.062.35-6.584-15.8-5.451-17.142S504.649,344.985,504.649,344.985Z" transform="translate(-198.5 754.778)" fill="#c5a113"/>
    <path id="Trazado_188580" data-name="Trazado 188580" d="M491.8,428.665c-3.719-.4-3.259-2.223-2.958-3.61.188-.868,1.254-1.892,1.89-2.86a6.206,6.206,0,0,0,2.488,1.209c1.677.5,3.976-.485,5.44-1.1a17.951,17.951,0,0,1,.5,4.8C499.1,427.564,495.52,429.061,491.8,428.665Z" transform="translate(-201.473 727.925)" fill="#041519"/>
    <path id="Trazado_188581" data-name="Trazado 188581" d="M489.082,358.519c.75,5.678,4.465,33.943,4.465,33.943l-8.62,1.069S474.327,356.637,474.87,351s4.511-6.118,4.511-6.118S487.1,343.489,489.082,358.519Z" transform="translate(-196.702 754.68)" fill="#f7ca18"/>
    <path id="Trazado_188582" data-name="Trazado 188582" d="M479.233,285.649c2.543-.954,3.788,21.965,4.131,31.4a110.843,110.843,0,0,0,14.311-.143c.919-.069,3.039-.846,3.953-.965a9.167,9.167,0,0,1,2.248-.107,42.48,42.48,0,0,1,5.266,2.371c.5.522,1.845,1.839,1.617,2.408s-2.59-1.587-2.59-1.587l-1.155-.648c1.437,1.4,4.179,3.254,3.784,3.927-.385.657-2.858-1.22-4.621-2.5,1.512,1.365,3.39,3.809,2.958,4.19-.389.343-2.526-2.486-4.809-3.3-.846-.3-1.69.534-2.355.635a4.778,4.778,0,0,1-1.724.1l-2.473-.7c-.842.076-.863.574-1.714.755-.987.21-2.607.432-3.865.738-7.24,1.769-9.655,2.591-11.872,2.59C473.61,324.8,473.221,287.9,479.233,285.649Z" transform="translate(-196.75 775.164)" fill="#f5a493"/>
    <path id="Trazado_188583" data-name="Trazado 188583" d="M474,306.033c-.477-9.663-.407-21.573,5.01-23.6,2.137-.8,5.905,4.019,5.228,23.8A40.7,40.7,0,0,1,474,306.033Z" transform="translate(-196.343 776.297)" fill="#b13e8d"/>
    <path id="Trazado_188584" data-name="Trazado 188584" d="M515.745,312.212h-.552l-8.3,20.4.572-.087Z" transform="translate(-207.784 765.967)" fill="#f59c8f"/>
    <path id="Trazado_188585" data-name="Trazado 188585" d="M535.769,417.079s-.752,2.412.595,4.006,6.943,3.159,7.677,4.023a2.421,2.421,0,0,1,.679,1.6l-15.707-.432.171-4.744.723-3.409Z" transform="translate(-215.436 729.694)" fill="#f5a493"/>
    <path id="Trazado_188586" data-name="Trazado 188586" d="M536.876,424.229s-4.036,1.632-5.985.666-1.891-1.234-2.455-.874-.766,4.807-.766,4.807l17.662.519c1.229-.029,1.85-.933.852-1.709a14.508,14.508,0,0,0-1.926-1.145C542.877,425.7,536.876,424.229,536.876,424.229Z" transform="translate(-214.971 727.347)" fill="#041519"/>
    <path id="Trazado_188587" data-name="Trazado 188587" d="M535.334,349.64c1.214-2.554,3.976-5.88,8.834-3.878,4.633,1.911,5.877,6.607,4.415,11.416s-11.086,33.077-11.422,36.963l-7.684.051s1.4-22.383,1.739-27.793A52.4,52.4,0,0,1,535.334,349.64Z" transform="translate(-215.596 754.574)" fill="#f7ca18"/>
    <path id="Trazado_188588" data-name="Trazado 188588" d="M531.05,312.212H505.364a1.674,1.674,0,0,0-1.55,1.043l-7.909,19.355H481.744a.718.718,0,0,0-.717.719h0a.718.718,0,0,0,.717.719h40.3a2.812,2.812,0,0,0,2.566-1.667l7.964-17.8A1.68,1.68,0,0,0,531.05,312.212Z" transform="translate(-198.838 765.967)"/>
    <path id="Trazado_188589" data-name="Trazado 188589" d="M534.888,328.452a1.414,1.414,0,1,1-1.06-1.85A1.512,1.512,0,0,1,534.888,328.452Z" transform="translate(-216.505 760.997)" fill="#fff"/>
    <g id="Grupo_128455" data-name="Grupo 128455" transform="translate(290.103 1031.615)">
      <path id="Trazado_188590" data-name="Trazado 188590" d="M507.424,243a19.765,19.765,0,0,1-2.272-.91,11.4,11.4,0,0,0-2.591-.977c-1.434-.221-3.9-.073-5.256,1.4-1.694,1.838-4.705.332-4.1,9.958.687,10.9,6.745,9.7,6.892,9.515s5.4-6.971,5.4-6.971,1.838,4.02,1.838,3.873S516.723,246.127,507.424,243Z" transform="translate(-493.127 -241.027)" fill="#102e35"/>
      <path id="Trazado_188591" data-name="Trazado 188591" d="M504.663,271.055l.523,3.893s1.172,5.609-.336,6.691-6.41-6.85-6.41-6.85l.517-9.865Z" transform="translate(-494.965 -249.292)" fill="#f5a493"/>
      <path id="Trazado_188592" data-name="Trazado 188592" d="M498.976,268.12a11.173,11.173,0,0,0,6.315,6.236l-.443-3.3-5.7-6.132Z" transform="translate(-495.15 -249.292)" fill="#f2745d"/>
      <path id="Trazado_188593" data-name="Trazado 188593" d="M504,248.476a5.191,5.191,0,0,1,5.979,5.25,39.486,39.486,0,0,1-.437,4.993c-.695,4.494-3.761,8.452-5.789,8.1s-7.129-4.23-6.23-10.626C498.076,252.243,500.647,249.017,504,248.476Z" transform="translate(-494.61 -243.581)" fill="#f5a493"/>
      <path id="Trazado_188594" data-name="Trazado 188594" d="M498.168,260.384a1.511,1.511,0,1,1-1.149-2.043A1.672,1.672,0,0,1,498.168,260.384Z" transform="translate(-493.85 -247.009)" fill="#f5a493"/>
      <path id="Trazado_188595" data-name="Trazado 188595" d="M497.563,254.123s2.452.609,3.361-.968,4.163-4.978,8.3-3.568-3.639-3.43-3.97-3.43-4.3-.027-4.3-.027-3.061,2.518-3.17,2.794-.992,3.292-.992,3.292Z" transform="translate(-494.393 -242.792)" fill="#102e35"/>
    </g>
    <path id="Trazado_188596" data-name="Trazado 188596" d="M504.819,268.407l4.461.852a1.986,1.986,0,0,1-2.4,1.363C504.477,270.234,504.819,268.407,504.819,268.407Z" transform="translate(-207.062 781.118)" fill="#fff"/>
    <path id="Trazado_188597" data-name="Trazado 188597" d="M434.353,192.442l4.461.853a1.986,1.986,0,0,1-2.4,1.362C434.011,194.269,434.353,192.442,434.353,192.442Z" transform="translate(-182.688 807.394)" fill="#fff"/>
    <g id="Grupo_128456" data-name="Grupo 128456" transform="translate(209.078 956.557)">
      <path id="Trazado_188598" data-name="Trazado 188598" d="M428.141,187.449A26.014,26.014,0,0,0,425.8,175c-1.63-3.418-5.663-5.357-9.341-5.362-11.679-.016-13.164,15.534-20.6,21.532-2.272,1.833-4.811,3.326-6.96,5.3-7.937,7.3-4.362,20.808,2.927,27.206,5.057,4.44,13.006,6.963,19.239,3.492a19.691,19.691,0,0,0,7.483-8.123c2.5-4.683,4.108-10.087,5.884-15.078A56.652,56.652,0,0,0,428.141,187.449Z" transform="translate(-374.495 -141.274)" fill="#102e35"/>
      <path id="Trazado_188599" data-name="Trazado 188599" d="M397.856,174.214s-8.577-15.427-10.665-18.707-7.523-16.311-7.717-16.824,3.744-6.68,2.864-6.892-1.851,3.252-2.789,2.838-3.677-8.749-4.212-8.336c-1,.774,1.476,5.171.944,5.448s-2.148-4.838-3.2-4.687,1.991,4.688,1.7,5.089-3.447-3.875-4.018-2.963c-.309.495,2.9,3.732,2.284,4.035s-3.471-1.786-3.774-1.183,2.64,1.427,3.52,3.052,2.379,2.327,3,5.335,1.553,13.893,4.74,19.324,10.2,17.451,10.2,17.451Z" transform="translate(-369.256 -126.278)" fill="#f59c8f"/>
      <path id="Trazado_188600" data-name="Trazado 188600" d="M470.2,271.449l-13.337-10.208s-1.342-9.523-3.138-17.974c-2.25.638-4.281,2.408-6.534,3.027l3.392,18.925,17.479,9.048L473,280.634l1.122-6.536Z" transform="translate(-396.214 -166.743)" fill="#f28c81"/>
      <path id="Trazado_188601" data-name="Trazado 188601" d="M450.1,222.835c-3.648-11.1-7.728-10.631-7.728-10.631l3.155,23.344c2.253-.618,5.186-1.994,7.436-2.631A101.915,101.915,0,0,0,450.1,222.835Z" transform="translate(-394.546 -155.998)" fill="#f6cb84"/>
      <path id="Trazado_188602" data-name="Trazado 188602" d="M393.01,406.883s-.823,5.739-2.238,7.591a14.644,14.644,0,0,0-1.913,2.532c-.887,1.748-.4,4.353.258,5.786.336.737-.024.734.74.971a4.689,4.689,0,0,0,5.637-2.662,13.578,13.578,0,0,0,1.105-4.891c.242-5.211,1.854-7.861,1.854-7.861Z" transform="translate(-375.87 -223.336)" fill="#f5a493"/>
      <path id="Trazado_188603" data-name="Trazado 188603" d="M432.823,410.9s.508,6.472.1,8.575c-.221,1.126-1.451,3.445-.886,4.5a2.838,2.838,0,0,0,1.208,1.325l14.619.237c.8.013.27-.5-.372-.977a29.458,29.458,0,0,0-5.256-2.924c-.219-.107-1.016-.616-1.3-.793a10.14,10.14,0,0,1-2.091-1.858c-1.049-1.175-1.141-6.875-1.141-6.875Z" transform="translate(-390.919 -224.724)" fill="#f5a493"/>
      <path id="Trazado_188604" data-name="Trazado 188604" d="M443.4,278.518s1.841,10.508.633,17.4-7.01,70.746-7.01,70.746l-6.447.366s-1.351-26.674-1.109-30.384a57.828,57.828,0,0,1,2.155-9.918l-.641-21.536,8.135-28.293Z" transform="translate(-390.072 -178.375)" fill="#8d3170"/>
      <path id="Trazado_188605" data-name="Trazado 188605" d="M412.276,274.735s-5.076,7.685-6.285,14.043.887,25.9-1.438,34.236c-1.258,4.511-6.029,11.478-6.754,17.307s-3.57,21.1-3.57,21.1l6.444,1.285L415.65,324.57,427.4,290.1l3.01-17.751Z" transform="translate(-377.894 -176.803)" fill="#b13e8d"/>
      <path id="Trazado_188606" data-name="Trazado 188606" d="M422.871,209.147s-6.721-.43-9.38,2.484,5.9,25.971,6.382,29.68-2.465,13.573-2.465,13.573,15.788,3.195,20.3.192c0,0,.484-26.674,0-29.324s-4.512-13.426-5.479-14.485S422.871,209.147,422.871,209.147Z" transform="translate(-384.379 -154.934)" fill="#f9dfb5"/>
      <path id="Trazado_188607" data-name="Trazado 188607" d="M430.218,195.271s-.035.2-.1.538c-.3,1.625-1.453,7.015-2.233,8.5-.942,1.791,3.225,7.5,7.236,6.806,1.194-.208-1.009-5.249-.9-5.782.2-1.022.477-2.417.759-3.847l.47-2.393c.429-2.184.779-3.97.779-3.97Z" transform="translate(-389.489 -150.09)" fill="#f4a392"/>
      <path id="Trazado_188608" data-name="Trazado 188608" d="M431.277,195.81c.063-.339.1-.538.1-.538l6.011-.15s-.35,1.786-.779,3.97l-.468,2.38a5.616,5.616,0,0,1-2.87-1.447,7.625,7.625,0,0,1-2.174-3.252C431.169,196.391,431.23,196.062,431.277,195.81Z" transform="translate(-390.645 -150.09)" fill="#f2745d"/>
      <path id="Trazado_188609" data-name="Trazado 188609" d="M434.222,174.337a5.4,5.4,0,0,0-4.609,1.981c-1.775,2.31-3.689,9.453.722,13.336s8.77-.512,9.416-5.173S440.649,174.169,434.222,174.337Z" transform="translate(-389.448 -142.896)" fill="#f4a392"/>
      <path id="Trazado_188610" data-name="Trazado 188610" d="M446.876,188.4c-.527,1.029-1.41,1.6-1.974,1.273s-.594-1.425-.067-2.455,1.41-1.6,1.974-1.273S447.4,187.373,446.876,188.4Z" transform="translate(-395.267 -146.885)" fill="#f4a392"/>
      <path id="Trazado_188611" data-name="Trazado 188611" d="M433.138,173.141s-3.785,6.792-6.493,7.106-3.063,3.923-3.063,3.923.968-8.317,3.649-9.921A9.906,9.906,0,0,1,433.138,173.141Z" transform="translate(-388.047 -142.462)" fill="#102e35"/>
      <path id="Trazado_188612" data-name="Trazado 188612" d="M395.67,425.3a7.186,7.186,0,0,1-7.064-2.969c-.893,1.752-1.328,4.367-.672,5.806.578,1.268,2.268,1.232,3.6,1.281a3.472,3.472,0,0,0,3.193-1.966A11.835,11.835,0,0,0,395.67,425.3Z" transform="translate(-375.607 -228.678)" fill="#b55745"/>
      <path id="Trazado_188613" data-name="Trazado 188613" d="M440.908,425.928a13.162,13.162,0,0,1-8.322-.329c-.413,1.175-.959,2.649-.669,3.5.355,1.041.86,1.276,1.306,1.288,3.532.093,12.936.22,15.628.255a.442.442,0,0,0,.341-.727C448.526,429.112,441.2,426.105,440.908,425.928Z" transform="translate(-390.901 -229.809)" fill="#b55745"/>
      <path id="Trazado_188614" data-name="Trazado 188614" d="M427.853,185.64c.22,1.206-.223,2.312-.99,2.471s-1.566-.691-1.786-1.9.223-2.312.989-2.471S427.633,184.433,427.853,185.64Z" transform="translate(-388.544 -146.148)" fill="#f4a392"/>
      <path id="Trazado_188615" data-name="Trazado 188615" d="M405.79,191.918s9.489,10.26,10.9,14.4-1.375,10.05-5.222,10.309-12.408-18.211-12.408-18.211Z" transform="translate(-379.564 -148.982)" fill="#f6cb84"/>
    </g>
  </g>
</svg>
