<svg xmlns="http://www.w3.org/2000/svg" width="610" height="456.469" viewBox="0 0 610 456.469">
  <g id="Grupo_131986" data-name="Grupo 131986" transform="translate(-588 -844)">
    <g id="Grupo_128242" data-name="Grupo 128242" transform="translate(588 844)">
      <g id="Grupo_128189" data-name="Grupo 128189" transform="translate(8.673 5.017)">
        <path id="Trazado_188114" data-name="Trazado 188114" d="M576.291,518.862c64.912-49.357,93.821-186.22-11.577-253.333-69.778-44.423-113.176-19.081-191.674-48.469-95.83-35.866-110.114-144.231-226.679-90.91C84.605,154.39,41.8,233.982,34.264,324.441,26.883,413.026,58.28,473.81,122.44,515.4,273.108,521.814,424.078,520.653,576.291,518.862Z" transform="translate(-33.205 -75.025)" fill="#fef7dc"/>
        <path id="Trazado_188115" data-name="Trazado 188115" d="M235.866,139.4c-9.8,39.365,26.6,78.334,64.961,94.491s82.343,14.243,123.437,6.534c17.731-3.321,35.956-8,49.732-19.3s21.76-30.932,14.211-46.787c-6.662-13.983-22.881-21.145-38.343-24.822s-31.885-5.18-45.66-12.917c-13.062-7.34-22.328-19.491-33.687-29.114-20.989-17.755-50.474-26.558-77.762-20.94C265.452,92.16,244.2,105.938,235.866,139.4Z" transform="translate(40.549 -84.858)" fill="#fef7dc"/>
      </g>
      <g id="Grupo_128241" data-name="Grupo 128241" transform="translate(0 0)">
        <g id="Grupo_128205" data-name="Grupo 128205" transform="translate(40.332)">
          <g id="Grupo_128190" data-name="Grupo 128190" transform="translate(350.682 157.764)">
            <path id="Trazado_188116" data-name="Trazado 188116" d="M486.778,279.464v-29.78H475.485a57.771,57.771,0,0,0-6.071-14.639l7.984-8-21.059-21.061-8,7.985A57.8,57.8,0,0,0,433.7,207.9V196.608H403.921V207.9a57.784,57.784,0,0,0-14.638,6.073l-8-7.985-21.061,21.061,7.985,8a58.228,58.228,0,0,0-6.073,14.639H350.846v29.78h11.292A58.228,58.228,0,0,0,368.21,294.1l-7.985,8,21.061,21.059,8-7.984a58.235,58.235,0,0,0,14.638,6.073V332.54H433.7V321.249a58.246,58.246,0,0,0,14.639-6.073l8,7.984L477.4,302.1l-7.984-8a57.771,57.771,0,0,0,6.071-14.639ZM418.82,290.376a25.8,25.8,0,1,1,25.794-25.809A25.811,25.811,0,0,1,418.82,290.376Z" transform="translate(-299.018 -196.608)" fill="#f7ca18"/>
            <path id="Trazado_188117" data-name="Trazado 188117" d="M404.069,320.135,398.4,305.366l-5.6,2.149a30.676,30.676,0,0,0-5.8-6.1l2.437-5.485-14.45-6.438-2.447,5.481a30.7,30.7,0,0,0-8.416-.226l-2.147-5.6-14.77,5.666,2.149,5.6a30.68,30.68,0,0,0-6.1,5.8l-5.485-2.438-6.438,14.45,5.482,2.448a30.9,30.9,0,0,0-.227,8.414l-5.6,2.149L336.656,346l5.6-2.149a30.956,30.956,0,0,0,5.8,6.1l-2.438,5.485,14.452,6.438,2.447-5.481a30.963,30.963,0,0,0,8.414.226l2.149,5.6,14.769-5.666-2.147-5.6a30.951,30.951,0,0,0,6.1-5.8l5.485,2.438,6.437-14.45-5.481-2.448a30.689,30.689,0,0,0,.227-8.414Zm-31.626,18.342a13.706,13.706,0,1,1,7.881-17.708A13.712,13.712,0,0,1,372.443,338.477Z" transform="translate(-306.302 -162.661)" fill="#f7ca18"/>
            <path id="Trazado_188118" data-name="Trazado 188118" d="M362.306,279.537l-3.829-9.979-3.783,1.453a20.77,20.77,0,0,0-3.917-4.125l1.648-3.707-9.765-4.349-1.654,3.7a20.745,20.745,0,0,0-5.686-.153l-1.452-3.785-9.978,3.829,1.452,3.785a20.728,20.728,0,0,0-4.125,3.916l-3.707-1.647-4.349,9.765,3.7,1.653a20.906,20.906,0,0,0-.153,5.686l-3.783,1.452,3.827,9.979,3.785-1.452a20.875,20.875,0,0,0,3.916,4.124l-1.647,3.707,9.765,4.349,1.652-3.7a20.912,20.912,0,0,0,5.686.153l1.452,3.783,9.979-3.829-1.452-3.783a20.886,20.886,0,0,0,4.124-3.917l3.707,1.648,4.349-9.765-3.7-1.654a20.745,20.745,0,0,0,.153-5.686ZM340.936,291.93a9.26,9.26,0,1,1,5.325-11.964A9.264,9.264,0,0,1,340.936,291.93Z" transform="translate(-312.928 -173.868)" fill="#f7ca18"/>
          </g>
          <g id="Grupo_128192" data-name="Grupo 128192" transform="translate(302.474 41.655)">
            <path id="Trazado_188119" data-name="Trazado 188119" d="M371.77,158.717a47.055,47.055,0,1,1-47.055-47.055A47.007,47.007,0,0,1,371.77,158.717Z" transform="translate(-277.659 -111.662)" fill="#b13e8d"/>
            <g id="Grupo_128191" data-name="Grupo 128191" transform="translate(17.876 14.394)">
              <circle id="Elipse_4790" data-name="Elipse 4790" cx="15.402" cy="15.402" r="15.402" transform="translate(12.007 3.774) rotate(-7.037)" fill="#fff"/>
              <path id="Trazado_188120" data-name="Trazado 188120" d="M349.1,177.888a47.087,47.087,0,0,1-58.359,0c3.01-13.241,5.779-24.672,8.662-27.569,4.07-4.069,14.88-6.443,20.5-6.443s16.942,2.883,19.033,4.974C343.2,153.1,346.878,164.845,349.1,177.888Z" transform="translate(-290.737 -114.239)" fill="#fff"/>
            </g>
          </g>
          <g id="Grupo_128195" data-name="Grupo 128195" transform="translate(277.394 169.989)">
            <g id="Grupo_128193" data-name="Grupo 128193">
              <path id="Trazado_188121" data-name="Trazado 188121" d="M262.61,240.27V217.034a11.48,11.48,0,0,1,11.482-11.482H347.3a11.48,11.48,0,0,1,11.482,11.482V240.27A11.48,11.48,0,0,1,347.3,251.752h-73.2A11.483,11.483,0,0,1,262.61,240.27Z" transform="translate(-258.1 -205.552)" fill="#b13e8d"/>
              <path id="Trazado_188122" data-name="Trazado 188122" d="M294.739,230.062,259.31,264.575l57.422-29.018" transform="translate(-259.31 -196.56)" fill="#b13e8d"/>
            </g>
            <g id="Grupo_128194" data-name="Grupo 128194" transform="translate(13.395 9.076)">
              <path id="Trazado_188123" data-name="Trazado 188123" d="M269.11,214.024V213.9a1.709,1.709,0,0,1,1.709-1.709h36.194a1.709,1.709,0,0,1,1.709,1.709v.123a1.709,1.709,0,0,1-1.709,1.709H270.819A1.709,1.709,0,0,1,269.11,214.024Z" transform="translate(-269.11 -212.192)" fill="#fff"/>
              <path id="Trazado_188124" data-name="Trazado 188124" d="M299.28,214.024V213.9a1.709,1.709,0,0,1,1.709-1.709h31.588a1.709,1.709,0,0,1,1.709,1.709v.123a1.709,1.709,0,0,1-1.709,1.709H300.989A1.709,1.709,0,0,1,299.28,214.024Z" transform="translate(-258.042 -212.192)" fill="#fff"/>
              <path id="Trazado_188125" data-name="Trazado 188125" d="M289.19,219.714v-.123a1.709,1.709,0,0,1,1.709-1.709h45.38a1.709,1.709,0,0,1,1.709,1.709v.123a1.709,1.709,0,0,1-1.709,1.709H290.9A1.709,1.709,0,0,1,289.19,219.714Z" transform="translate(-261.743 -210.105)" fill="#fff"/>
              <path id="Trazado_188126" data-name="Trazado 188126" d="M269.11,219.714v-.123a1.709,1.709,0,0,1,1.709-1.709h20.27a1.709,1.709,0,0,1,1.709,1.709v.123a1.709,1.709,0,0,1-1.709,1.709h-20.27A1.709,1.709,0,0,1,269.11,219.714Z" transform="translate(-269.11 -210.105)" fill="#fff"/>
              <path id="Trazado_188127" data-name="Trazado 188127" d="M293.8,225.4v-.123a1.709,1.709,0,0,1,1.709-1.709h39.078a1.709,1.709,0,0,1,1.709,1.709v.123a1.709,1.709,0,0,1-1.709,1.709H295.509A1.709,1.709,0,0,1,293.8,225.4Z" transform="translate(-260.052 -208.017)" fill="#fff"/>
              <path id="Trazado_188128" data-name="Trazado 188128" d="M269.11,225.4v-.123a1.709,1.709,0,0,1,1.709-1.709h27a1.709,1.709,0,0,1,1.709,1.709v.123a1.709,1.709,0,0,1-1.709,1.709h-27A1.709,1.709,0,0,1,269.11,225.4Z" transform="translate(-269.11 -208.017)" fill="#fff"/>
              <path id="Trazado_188129" data-name="Trazado 188129" d="M269.11,231.094v-.123a1.709,1.709,0,0,1,1.709-1.709h10.019a1.709,1.709,0,0,1,1.709,1.709v.123a1.709,1.709,0,0,1-1.709,1.709H270.819A1.709,1.709,0,0,1,269.11,231.094Z" transform="translate(-269.11 -205.93)" fill="#fff"/>
              <path id="Trazado_188130" data-name="Trazado 188130" d="M281.53,231.094v-.123a1.709,1.709,0,0,1,1.709-1.709h55.85a1.709,1.709,0,0,1,1.709,1.709v.123a1.709,1.709,0,0,1-1.709,1.709h-55.85A1.709,1.709,0,0,1,281.53,231.094Z" transform="translate(-264.554 -205.93)" fill="#fff"/>
            </g>
          </g>
          <g id="Grupo_128200" data-name="Grupo 128200" transform="translate(0 92.573)">
            <g id="Grupo_128199" data-name="Grupo 128199">
              <circle id="Elipse_4791" data-name="Elipse 4791" cx="45.27" cy="45.27" r="45.27" transform="translate(0 82.089) rotate(-65.047)" fill="#b13e8d"/>
              <g id="Grupo_128198" data-name="Grupo 128198" transform="translate(35.489 23.901)">
                <g id="Grupo_128196" data-name="Grupo 128196" transform="translate(0 44.475)">
                  <circle id="Elipse_4792" data-name="Elipse 4792" cx="10.97" cy="10.97" r="10.97" transform="translate(0 7.271) rotate(-19.353)" fill="#fff"/>
                  <path id="Trazado_188131" data-name="Trazado 188131" d="M88.491,214.975l-.53-6.957,5.76-3.937,6.29,3.02.53,6.957L94.781,218Z" transform="translate(-80.266 -197.052)" fill="#b13e8d"/>
                </g>
                <g id="Grupo_128197" data-name="Grupo 128197" transform="translate(21.299 0)">
                  <circle id="Elipse_4793" data-name="Elipse 4793" cx="10.97" cy="10.97" r="10.97" transform="translate(0 7.386) rotate(-19.671)" fill="#fff"/>
                  <path id="Trazado_188132" data-name="Trazado 188132" d="M104.192,182.992l.377-8.846,6.667-5.826,6.29,3.02-.377,8.846-6.667,5.826Z" transform="translate(-95.61 -165.696)" fill="#b13e8d"/>
                </g>
                <path id="Trazado_188133" data-name="Trazado 188133" d="M100.374,214.8l-8.392-4.029,6.2-14.307q.59-1.361,1.285-2.674L106.754,180l8.392,4.029-5.981,14.088q-.693,1.636-1.536,3.2Z" transform="translate(-78.791 -161.409)" fill="#fff"/>
              </g>
            </g>
            <path id="Trazado_188134" data-name="Trazado 188134" d="M123.374,215.231c1.618-.749,27.591.435,27.591.435l-18.723-17.19Z" transform="translate(-31.785 -130.732)" fill="#b13e8d"/>
          </g>
          <g id="Grupo_128204" data-name="Grupo 128204" transform="translate(106.881)">
            <g id="Grupo_128202" data-name="Grupo 128202" transform="translate(0)">
              <g id="Grupo_128201" data-name="Grupo 128201">
                <circle id="Elipse_4794" data-name="Elipse 4794" cx="44.495" cy="44.495" r="44.495" transform="translate(0 81.675) rotate(-66.607)" fill="#b13e8d"/>
              </g>
            </g>
            <g id="Grupo_128203" data-name="Grupo 128203" transform="translate(25.668 20.585)">
              <rect id="Rectángulo_40627" data-name="Rectángulo 40627" width="2.972" height="37.367" transform="translate(31.349)" fill="#fff"/>
              <rect id="Rectángulo_40628" data-name="Rectángulo 40628" width="2.972" height="37.876" transform="matrix(-0.569, -0.822, 0.822, -0.569, 1.692, 61.368)" fill="#fff"/>
              <path id="Trazado_188135" data-name="Trazado 188135" d="M182.557,125.087a4.1,4.1,0,1,1-4.1-4.1A4.1,4.1,0,0,1,182.557,125.087Z" transform="translate(-145.627 -87.169)" fill="#fff"/>
            </g>
          </g>
        </g>
        <g id="Grupo_128240" data-name="Grupo 128240" transform="translate(0 123.482)">
          <g id="Grupo_128220" data-name="Grupo 128220" transform="translate(0 104.049)">
            <g id="Grupo_128211" data-name="Grupo 128211" transform="translate(260.933 25.399)">
              <g id="Grupo_128206" data-name="Grupo 128206" transform="translate(34.595)">
                <path id="Trazado_188136" data-name="Trazado 188136" d="M265.809,373.093c-2.638-40.678,15.158-82.777,45.134-106.861C311.872,307.115,294.253,348.489,265.809,373.093Z" transform="translate(-234.823 -266.232)" fill="#fcedae"/>
                <path id="Trazado_188137" data-name="Trazado 188137" d="M314.3,274.242A539.555,539.555,0,0,0,281.67,347.82c-11.031,30.85-19.71,63.627-38.6,89.488" transform="translate(-243.07 -263.293)" fill="none" stroke="#94790e" stroke-linecap="round" stroke-miterlimit="10" stroke-width="1"/>
              </g>
              <g id="Grupo_128207" data-name="Grupo 128207" transform="translate(56.123 65.609)">
                <path id="Trazado_188138" data-name="Trazado 188138" d="M258.82,381.071c15.172-33.939,45.284-59.581,78.485-66.839C323.172,350.6,291.379,378.351,258.82,381.071Z" transform="translate(-258.82 -314.232)" fill="#fcedae"/>
                <path id="Trazado_188139" data-name="Trazado 188139" d="M328.847,319.7q-34.014,29.934-69.177,58.173" transform="translate(-258.508 -312.225)" fill="none" stroke="#94790e" stroke-linecap="round" stroke-miterlimit="10" stroke-width="1"/>
              </g>
              <g id="Grupo_128208" data-name="Grupo 128208" transform="translate(43.575 122.227)">
                <path id="Trazado_188140" data-name="Trazado 188140" d="M252.27,395.44c20.27-30.276,57.668-46.077,88.613-37.438C318.125,387.9,280.646,403.737,252.27,395.44Z" transform="translate(-248.675 -355.654)" fill="#fcedae"/>
                <path id="Trazado_188141" data-name="Trazado 188141" d="M334.426,358.972a295.045,295.045,0,0,1-84.786,36.276" transform="translate(-249.64 -354.437)" fill="none" stroke="#6f8bbf" stroke-linecap="round" stroke-miterlimit="10" stroke-width="1"/>
              </g>
              <g id="Grupo_128209" data-name="Grupo 128209" transform="translate(29.828 24.931)">
                <path id="Trazado_188142" data-name="Trazado 188142" d="M267.873,381.7c6.479-34.089-3.239-72.088-24.877-97.224C234.125,317.974,242.586,357.23,267.873,381.7Z" transform="translate(-239.582 -284.472)" fill="#fcedae"/>
                <path id="Trazado_188143" data-name="Trazado 188143" d="M243.71,290.832a369.02,369.02,0,0,0,23.606,90.445" transform="translate(-238.068 -282.139)" fill="none" stroke="#94790e" stroke-linecap="round" stroke-miterlimit="10" stroke-width="1"/>
              </g>
              <g id="Grupo_128210" data-name="Grupo 128210" transform="translate(0 65.062)">
                <path id="Trazado_188144" data-name="Trazado 188144" d="M264.752,399.958c-2.761-35.046-20.722-67.96-46.992-86.126a149.77,149.77,0,0,0,14.284,52.72C241.051,385.236,254.282,397.087,264.752,399.958Z" transform="translate(-217.76 -313.832)" fill="#fcedae"/>
                <path id="Trazado_188145" data-name="Trazado 188145" d="M220.61,319.022a278.417,278.417,0,0,0,43.753,79.77" transform="translate(-216.714 -311.928)" fill="none" stroke="#94790e" stroke-linecap="round" stroke-miterlimit="10" stroke-width="1"/>
              </g>
            </g>
            <g id="Grupo_128217" data-name="Grupo 128217" transform="translate(455.887 82)">
              <g id="Grupo_128212" data-name="Grupo 128212" transform="translate(0 9.404)">
                <path id="Trazado_188146" data-name="Trazado 188146" d="M400.57,391.3c14.338-37.3,47.32-67.564,83.693-76.776C468.325,351.318,435.794,380.978,400.57,391.3Z" transform="translate(-345.65 -314.522)" fill="#fcedae"/>
                <path id="Trazado_188147" data-name="Trazado 188147" d="M490.187,320.192a529.974,529.974,0,0,0-58.993,52.228c-22.389,22.99-43.507,48.633-70.8,63.969" transform="translate(-360.39 -312.442)" fill="none" stroke="#94790e" stroke-linecap="round" stroke-miterlimit="10" stroke-width="1"/>
              </g>
              <g id="Grupo_128213" data-name="Grupo 128213" transform="translate(36.071 75.429)">
                <path id="Trazado_188148" data-name="Trazado 188148" d="M386.78,392.508c27.323-24.043,64.447-34.6,96.76-27.515C456.148,391.634,416.673,403.375,386.78,392.508Z" transform="translate(-386.78 -362.827)" fill="#fcedae"/>
                <path id="Trazado_188149" data-name="Trazado 188149" d="M472.871,366.862q-42.338,12.794-84.991,23.592" transform="translate(-386.376 -361.346)" fill="none" stroke="#94790e" stroke-linecap="round" stroke-miterlimit="10" stroke-width="1"/>
              </g>
              <g id="Grupo_128214" data-name="Grupo 128214" transform="translate(12.452 114.536)">
                <path id="Trazado_188150" data-name="Trazado 188150" d="M372.12,404.7c30.33-18.7,69.86-17.509,93.671,2.816C433.423,424.85,393.8,423.66,372.12,404.7Z" transform="translate(-368.539 -391.438)" fill="#fcedae"/>
                <path id="Trazado_188151" data-name="Trazado 188151" d="M459.3,403.015a285.76,285.76,0,0,1-89.8-2.283" transform="translate(-369.5 -388.028)" fill="none" stroke="#6f8bbf" stroke-linecap="round" stroke-miterlimit="10" stroke-width="1"/>
              </g>
              <g id="Grupo_128215" data-name="Grupo 128215" transform="translate(36.391)">
                <path id="Trazado_188152" data-name="Trazado 188152" d="M392.681,404.4c19.7-27.72,26.681-65.541,17.865-96.76C388.963,333.858,380.352,372.281,392.681,404.4Z" transform="translate(-387.014 -307.642)" fill="#fcedae"/>
                <path id="Trazado_188153" data-name="Trazado 188153" d="M407.407,313.962a363.434,363.434,0,0,0-16.2,90.212" transform="translate(-385.475 -305.323)" fill="none" stroke="#94790e" stroke-linecap="round" stroke-miterlimit="10" stroke-width="1"/>
              </g>
              <g id="Grupo_128216" data-name="Grupo 128216" transform="translate(5.096 22.184)">
                <path id="Trazado_188154" data-name="Trazado 188154" d="M379.347,419.771c11.919-32.34,9.541-69-6.233-95.9a147.866,147.866,0,0,0-8.98,52.788C364.421,396.971,371.255,412.936,379.347,419.771Z" transform="translate(-364.119 -323.872)" fill="#a2c7eb"/>
                <path id="Trazado_188155" data-name="Trazado 188155" d="M371.414,329.652a274.1,274.1,0,0,0,5.973,88.914" transform="translate(-361.899 -321.752)" fill="none" stroke="#6f8bbf" stroke-linecap="round" stroke-miterlimit="10" stroke-width="1"/>
              </g>
            </g>
            <g id="Grupo_128219" data-name="Grupo 128219">
              <path id="Trazado_188156" data-name="Trazado 188156" d="M130.874,347.425c-14.617-44.708-55.408-80.833-102.861-91.086C47.964,295.018,84.148,325.8,130.874,347.425Z" transform="translate(-26.437 -244.462)" fill="#fcedae"/>
              <path id="Trazado_188157" data-name="Trazado 188157" d="M133.773,332.638c-32.017-18.107-72.136-22.1-106.913-10.653A150.975,150.975,0,0,0,133.773,332.638Z" transform="translate(-26.86 -222.74)" fill="#fcedae"/>
              <path id="Trazado_188158" data-name="Trazado 188158" d="M138.113,335.5c-34.6-4.795-70.843,3.734-98.945,23.287C71.035,370.367,109.267,362.855,138.113,335.5Z" transform="translate(-22.345 -215.903)" fill="#fcedae"/>
              <path id="Trazado_188159" data-name="Trazado 188159" d="M143.1,350.64c-34.268-.144-67.961,16.144-88.1,42.587a75.328,75.328,0,0,0,45.438-5.107C114.424,381.784,126.146,370.971,143.1,350.64Z" transform="translate(-16.539 -209.868)" fill="#fcedae"/>
              <path id="Trazado_188160" data-name="Trazado 188160" d="M162.4,376.987c-33.79-5.793-69.793,4.677-94.159,27.388a75.661,75.661,0,0,0,45.706,2.482C128.825,402.934,142.221,394.22,162.4,376.987Z" transform="translate(-11.68 -200.778)" fill="#fcedae"/>
              <path id="Trazado_188161" data-name="Trazado 188161" d="M116.4,352.731c-22.313-30.075-28.369-70.6-15.691-105.081,9.68,16.394,18.032,33.726,21.931,52.147S125.783,337.862,116.4,352.731Z" transform="translate(-2.164 -247.65)" fill="#fcedae"/>
              <path id="Trazado_188162" data-name="Trazado 188162" d="M120.762,369.632c-5.284-31.952,5.641-65.818,28.718-88.959C152.135,313.73,142.02,347.407,120.762,369.632Z" transform="translate(7.108 -235.535)" fill="#a2c7eb"/>
              <g id="Grupo_128218" data-name="Grupo 128218" transform="translate(11.964 15.856)">
                <path id="Trazado_188163" data-name="Trazado 188163" d="M35.613,262.2C103.524,305.652,156.634,370.418,184.67,444" transform="translate(-35.613 -258.167)" fill="none" stroke="#94790e" stroke-linecap="round" stroke-miterlimit="10" stroke-width="1"/>
                <path id="Trazado_188164" data-name="Trazado 188164" d="M100.5,259.25a538.829,538.829,0,0,1,14.986,102.13" transform="translate(-11.809 -259.25)" fill="none" stroke="#94790e" stroke-linecap="round" stroke-miterlimit="10" stroke-width="1"/>
                <path id="Trazado_188165" data-name="Trazado 188165" d="M144.264,290.165A198.973,198.973,0,0,1,119.836,367.5" transform="translate(-4.715 -247.909)" fill="none" stroke="#6f8bbf" stroke-linecap="round" stroke-miterlimit="10" stroke-width="1"/>
                <path id="Trazado_188166" data-name="Trazado 188166" d="M37.318,320.829a549.506,549.506,0,0,0,94.431,9.6" transform="translate(-34.988 -236.659)" fill="none" stroke="#94790e" stroke-linecap="round" stroke-miterlimit="10" stroke-width="1"/>
                <path id="Trazado_188167" data-name="Trazado 188167" d="M51.044,355.73A253.515,253.515,0,0,0,134.1,335.265" transform="translate(-29.952 -231.363)" fill="none" stroke="#94790e" stroke-linecap="round" stroke-miterlimit="10" stroke-width="1"/>
                <path id="Trazado_188168" data-name="Trazado 188168" d="M63.627,388.91q39.734-19.82,79.473-39.657" transform="translate(-25.336 -226.232)" fill="none" stroke="#94790e" stroke-linecap="round" stroke-miterlimit="10" stroke-width="1"/>
                <path id="Trazado_188169" data-name="Trazado 188169" d="M76.232,402.223c34.586-6.673,44.862-14.636,83.248-25.656" transform="translate(-20.712 -216.212)" fill="none" stroke="#94790e" stroke-linecap="round" stroke-miterlimit="10" stroke-width="1"/>
              </g>
            </g>
          </g>
          <g id="Grupo_128239" data-name="Grupo 128239" transform="translate(105.552)">
            <g id="Grupo_128221" data-name="Grupo 128221" transform="translate(135.124 153.532)">
              <path id="Trazado_188170" data-name="Trazado 188170" d="M246.857,348.992s2.993,27.433,6.342,29.633c5.987,3.95,75.286,13.081,75.286,13.081l-2.269,18.029s-94.914,8.529-98.947,3.786c-7-8.228-19.3-47.922-19.3-47.922Z" transform="translate(-201.095 -259.955)" fill="#e06a58"/>
              <path id="Trazado_188171" data-name="Trazado 188171" d="M202.94,302.264l7.668-18.412s20.8,9.773,27.665,21.842c7.34,12.9,16.32,81.506,16.32,81.506s-36.727,8.461-43.48,4.866S202.94,302.264,202.94,302.264Z" transform="translate(-202.94 -283.852)" fill="#f6f6f6"/>
            </g>
            <path id="Trazado_188172" data-name="Trazado 188172" d="M180.8,235.694c-5.372-1.968-11.058-3.69-16.812-3.253s-11.632,3.486-13.587,8.543c-1.394,3.581-.752,7.8-2.952,11.031-2.1,3.089-6.288,4.374-10.2,4.634s-7.873-.246-11.769.26c-12.028,1.6-20.612,14.666-16.662,25.369,1.572,4.265,4.8,8.338,4.06,12.78-.779,4.757-5.768,7.887-7.818,12.3-2.72,5.878.533,13,5.9,17s12.356,5.508,19.136,6.52c9.336,1.394,18.972,2.05,28.2.082s18.042-6.834,22.813-14.434c2.119-3.362,3.4-7.162,5.864-10.32,5.085-6.52,14.092-9.049,21.186-13.669,7.75-5.071,13.436-14.94,8.871-22.662-4.4-7.422-15.856-9.076-20.448-16.389-1.9-3.021-2.351-6.616-3.581-9.91C191.749,240.272,188.742,238.6,180.8,235.694Z" transform="translate(-104.083 -149.206)" fill="#0a2240"/>
            <g id="Grupo_128222" data-name="Grupo 128222" transform="translate(66.439 96.097)">
              <path id="Trazado_188173" data-name="Trazado 188173" d="M194.27,323.269c1.353,1.558,2.952,3.267,5.167,3.417,2.337.164,4.292-1.49,5.8-3.089a58.829,58.829,0,0,0,14.967-28.7c-1.927-1.094-3.786-2.146-5.467-3.13a8.3,8.3,0,0,1-3.4-3.745,7.2,7.2,0,0,1-.506-3.527c1.093-10.279,2.064-16.006,5.672-26.435-17.14-3.868-33.31-8.461-42.6-16.225-1.134,4.784-2.474,14.147-5.331,23.428-3.048,9.828-7.8,19.546-15.869,23.729A170.06,170.06,0,0,1,194.27,323.269Z" transform="translate(-152.69 -241.832)" fill="#f9a07b"/>
              <path id="Trazado_188174" data-name="Trazado 188174" d="M206.563,284.5a7.172,7.172,0,0,0,.506,3.526c-10.142,12.3-32.818-3.772-42.769-22.758,2.857-9.281,4.2-18.644,5.331-23.428,9.281,7.764,25.465,12.37,42.6,16.225C208.627,268.5,207.657,274.209,206.563,284.5Z" transform="translate(-148.431 -241.828)" fill="#e06a58"/>
            </g>
            <g id="Grupo_128223" data-name="Grupo 128223" transform="translate(25.298 138.1)">
              <path id="Trazado_188175" data-name="Trazado 188175" d="M250.1,421.946c-2.242,14.844,13.778,30.823,14.174,38.75-34.021,0-105.289,2.078-141.579-2.857-1.654-9.158,16.266-29.756,16.266-50.1,0-2.693-.109-5.645-.328-8.816-.574-9.076-1.914-19.874-3.4-30.946-4.046-29.7-9.431-61.467-5.454-68.056,7.791-12.835,26.011-21.555,35.046-25.3,3.1-1.285,5.126-1.982,5.276-2.064,11.331,19.327,34.39,35.812,43.1,35.073,2.419-.191,9.6-2.693,14.338-26.572,1.845,1.052,3.691,2.023,5.522,2.966,9.008,4.688,17.455,8.557,19.888,14.584,6.424,15.869,12.725,55.877,11.331,70.107-1.408,14.352-7.176,25.313-11.222,39.719-.943,3.376-1.8,6.957-2.5,10.812C250.377,420.114,250.24,421.016,250.1,421.946Z" transform="translate(-122.591 -272.562)" fill="#fff"/>
              <path id="Trazado_188176" data-name="Trazado 188176" d="M264.278,439.128c-34.021,0-105.289,2.078-141.579-2.857-1.654-9.158,16.266-29.756,16.266-50.1,0-2.693-.109-5.645-.328-8.816-.574-9.076-1.914-19.874-3.4-30.946,6.438,6.793,15.828-21.911,19.983-13.5,22.485,45.38,40.213,57.312,71.022,57.312a118.282,118.282,0,0,0,26.818-3.349c-.943,3.376-1.8,6.957-2.5,10.812q-.246,1.312-.451,2.706C247.862,415.208,263.881,431.187,264.278,439.128Z" transform="translate(-122.591 -250.994)" fill="#fff"/>
              <path id="Trazado_188177" data-name="Trazado 188177" d="M221.723,284.03c-1.463,10.62-5.8,24.931-18.4,28.7-17.031,5.1-41.675-26.722-49.836-38.108,3.1-1.285,5.126-1.982,5.276-2.064,11.331,19.327,34.39,35.812,43.1,35.073,2.419-.191,9.6-2.693,14.338-26.572C218.047,282.1,219.892,283.073,221.723,284.03Z" transform="translate(-111.256 -272.562)" fill="#fff"/>
            </g>
            <g id="Grupo_128227" data-name="Grupo 128227" transform="translate(142.642 198.734)">
              <g id="Grupo_128226" data-name="Grupo 128226">
                <g id="Grupo_128224" data-name="Grupo 128224" transform="translate(0 111.194)">
                  <path id="Trazado_188178" data-name="Trazado 188178" d="M208.563,398.6l-.123,11.851L420.3,411.709l.437-13.436Z" transform="translate(-208.44 -398.272)" fill="#593273"/>
                </g>
                <g id="Grupo_128225" data-name="Grupo 128225" transform="translate(67.236)">
                  <path id="Trazado_188179" data-name="Trazado 188179" d="M494.083,322.718l-4.716-4.784-154.318-1.012L257.63,428.882l4.046,3.253Z" transform="translate(-257.63 -316.922)" fill="#593273"/>
                  <path id="Trazado_188180" data-name="Trazado 188180" d="M336.943,319.952,260.59,431.023l145.843.724L493,321.606Z" transform="translate(-256.544 -315.811)" fill="#420b50"/>
                </g>
              </g>
              <ellipse id="Elipse_4795" data-name="Elipse 4795" cx="16.976" cy="8.488" rx="16.976" ry="8.488" transform="translate(167.508 58.064)" fill="#6d3c8c"/>
            </g>
            <g id="Grupo_128233" data-name="Grupo 128233" transform="translate(59.453)">
              <g id="Grupo_128228" data-name="Grupo 128228" transform="translate(82.09 69.862)">
                <path id="Trazado_188299" data-name="Trazado 188299" d="M23.77,0C36.9,0,47.541,7.019,47.541,15.678S36.9,31.356,23.77,31.356,0,24.337,0,15.678,10.642,0,23.77,0Z" transform="translate(0 46.736) rotate(-79.444)" fill="#f7ca2e"/>
              </g>
              <path id="Trazado_188181" data-name="Trazado 188181" d="M242.646,226.889c-1.586,11.236-6.6,23.619-13.915,37.3-2.57-11.208-4.21-24.863-6.479-38.518-2.31-13.682-5.249-27.364-10.347-38.545a66.915,66.915,0,0,0-3.745-7.026,24.941,24.941,0,0,1,8.994.806,30.133,30.133,0,0,1,12.3,6.711c5.8,5.153,9.677,12.179,11.987,19.587A43.957,43.957,0,0,1,242.646,226.889Z" transform="translate(-125.354 -168.421)" fill="#0b2d50"/>
              <g id="Grupo_128229" data-name="Grupo 128229" transform="translate(12.167 6.018)">
                <path id="Trazado_188182" data-name="Trazado 188182" d="M253.021,240c-.082,2.214-.232,4.47-.437,6.711-3.116,36.358-18.384,61.3-41.744,61.3-32.982,0-54.36-36.987-54.36-73.222,0-35.743,21.9-61.618,47.526-58.624,14.776,1.695,25.574,6.6,33.242,13.792a45.307,45.307,0,0,1,11.236,17.14,74.938,74.938,0,0,1,4.524,24.685c0,.027.027.055.027.082C253.144,234.516,253.117,237.223,253.021,240Z" transform="translate(-156.48 -175.93)" fill="#f9a07b"/>
                <path id="Trazado_188183" data-name="Trazado 188183" d="M248.967,232.9a36.542,36.542,0,0,0-4.442-10.019,103.79,103.79,0,0,1-64.611,10.374c-4.183,3.485-8.269,6.916-12.384,10.347.082-16.539.314-27.734,6.766-35.743,6.055-7.518,16.156-10.347,25.724-11.577a118.989,118.989,0,0,1,32.463.205c4.114.574,8.379,1.463,11.96,3.54a74.939,74.939,0,0,1,4.524,24.685c0,.027.027.055.027.082C249.09,227.421,249.063,230.127,248.967,232.9Z" transform="translate(-152.426 -168.834)" fill="#e06a58"/>
              </g>
              <path id="Trazado_188184" data-name="Trazado 188184" d="M260.4,219.22a60.93,60.93,0,0,1-16.566,9.568c-18.124,7.313-41.675,9.732-60.032,8.844-9.021,19.819-12.671,26.927-14.981,44.218-8.816-8.269-15.992-23.414-18.124-35.32a80.784,80.784,0,0,1,1.408-35.976c5.208-18.384,18.343-28.226,27.446-33.01a51.59,51.59,0,0,1,5.9-2.734c11.632-4.5,24.74-4.087,36.673-.437a43.676,43.676,0,0,1,16.594,9.65c9.308,8.406,15.063,19.792,18.781,28.321C258.68,214.955,259.623,217.32,260.4,219.22Z" transform="translate(-146.938 -171.523)" fill="#0b2d50"/>
              <path id="Trazado_188185" data-name="Trazado 188185" d="M256.109,229.994a55.65,55.65,0,0,0-3.458-11.55,39.8,39.8,0,0,0-3.253-6.11c-4.142-6.506-10.169-11.864-17.455-14.229a64.233,64.233,0,0,0-6.561-7.859,50.631,50.631,0,0,0-28.253-14.9,53.676,53.676,0,0,0-25.67,2.187,51.588,51.588,0,0,1,5.9-2.734c11.632-4.5,24.74-4.087,36.673-.437a43.676,43.676,0,0,1,16.594,9.65,30.133,30.133,0,0,1,12.3,6.711c5.8,5.153,9.677,12.179,11.987,19.587A44.157,44.157,0,0,1,256.109,229.994Z" transform="translate(-138.818 -171.527)" fill="#225570"/>
              <g id="Grupo_128232" data-name="Grupo 128232" transform="translate(0 5.677)">
                <path id="Trazado_188186" data-name="Trazado 188186" d="M165.1,244.49a94.488,94.488,0,0,1,6.807-33.98c8.9-21.255,27.036-30.344,44.628-30.959,21.2-.752,34.472,13.477,34.472,13.477s-6.9-12.179-20.517-15.678c-8.939-2.3-22.43-2.665-33.256,1.736-11.154,4.524-25.054,17.086-30.085,30.358s-7.463,33.939-7.463,33.939Z" transform="translate(-143.136 -175.68)" fill="#f7ca2e"/>
                <g id="Grupo_128230" data-name="Grupo 128230" transform="translate(0 61.67)">
                  <ellipse id="Elipse_4797" data-name="Elipse 4797" cx="16.525" cy="25.04" rx="16.525" ry="25.04" transform="translate(0 3.418) rotate(-5.935)" fill="#f7ca2e"/>
                  <path id="Trazado_188298" data-name="Trazado 188298" d="M10.73,0c5.926,0,10.73,8.451,10.73,18.876s-4.8,18.876-10.73,18.876S0,29.3,0,18.876,4.8,0,10.73,0Z" transform="translate(1.216 11.359) rotate(-8.546)" fill="#fcedae"/>
                </g>
                <g id="Grupo_128231" data-name="Grupo 128231" transform="translate(29.321 109.119)">
                  <ellipse id="Elipse_4799" data-name="Elipse 4799" cx="8.803" cy="5.481" rx="8.803" ry="5.481" transform="translate(35.416 12.849)" fill="#947917"/>
                  <path id="Trazado_188187" data-name="Trazado 188187" d="M169.03,255.512s12.93,16.621,35.415,18.33" transform="translate(-169.03 -255.512)" fill="none" stroke="#f7ca2e" stroke-width="3"/>
                </g>
              </g>
            </g>
            <g id="Grupo_128238" data-name="Grupo 128238" transform="translate(18.288 148.625)">
              <g id="Grupo_128237" data-name="Grupo 128237">
                <g id="Grupo_128236" data-name="Grupo 128236" transform="translate(7.023 74.685)">
                  <g id="Grupo_128234" data-name="Grupo 128234">
                    <path id="Trazado_188188" data-name="Trazado 188188" d="M239.931,390.2l-.847,21.856s-79.045,23.688-92.1,16.2c-6.37-3.663-12.315-23.811-16.758-43.48-4.647-20.667-7.627-40.787-7.627-40.787l46.336-9.076s.027,28.253,1.6,44.587c.56,6.082,1.367,10.511,2.447,11.236C177.069,393.427,239.931,390.2,239.931,390.2Z" transform="translate(-122.6 -334.898)" fill="#f9a07b"/>
                    <path id="Trazado_188189" data-name="Trazado 188189" d="M170.536,379.475c-8.42,2.734-24.672,6.957-40.309,5.29-4.647-20.667-7.627-40.787-7.627-40.787l46.336-9.076C168.936,334.888,168.964,363.141,170.536,379.475Z" transform="translate(-122.6 -334.902)" fill="#e06a58"/>
                  </g>
                  <g id="Grupo_128235" data-name="Grupo 128235" transform="translate(111.03 44.708)">
                    <path id="Trazado_188190" data-name="Trazado 188190" d="M207.876,378.424c11.755-2.515,31.656-8.557,39.912-10.634,5.864-1.476,21.132,6.424,25.164,13.874,1.763,3.253,3.431,21.678-2.679,19.778-3.062-.957-2.556-8.857-3.513-12.083-.779-2.624-3.267-5.167-7.053-7.354,2.529,6.3,2.433,11.8,2.16,18.6a9.645,9.645,0,0,1-.875,4.374c-.738,1.3-2.324,2.228-3.691,1.654-1.394-.574-1.873-2.31-2.187-3.827a124.423,124.423,0,0,1-2.611-16.43c.109,5.836-.014,11.687-.383,17.509-.273,4.456-2.488,6.9-5.208,6.123-1.217-.342-1.709-1.462-2.228-2.939-.82,2.857-2.87,6.014-5.522,4.811-1.613-.724-2.611-6.547-2.324-12.534-5.085,3.157-10.826,4.5-17.441,4.8-5.932.273-12-.834-15.568-4.866A104.863,104.863,0,0,1,207.876,378.424Z" transform="translate(-203.83 -367.611)" fill="#f9a07b"/>
                    <path id="Trazado_188191" data-name="Trazado 188191" d="M234.136,399.6a41.789,41.789,0,0,0-1.217-14.092" transform="translate(-193.158 -361.044)" fill="none" stroke="#cc454e" stroke-linecap="round" stroke-miterlimit="10" stroke-width="1"/>
                  </g>
                </g>
                <path id="Trazado_188192" data-name="Trazado 188192" d="M165.613,309.116c-3.362-9.472-15.678-28.854-15.678-28.854s-18.794,7.818-25.465,21.091c-11.29,22.471-5.549,86.987-5.549,86.987,15.213,6.37,45.749,6.465,58.747,4.634C177.669,392.973,172.352,328.047,165.613,309.116Z" transform="translate(-117.462 -280.262)" fill="#fff"/>
              </g>
              <path id="Trazado_188193" data-name="Trazado 188193" d="M154.44,304.272a417.914,417.914,0,0,1,8.748,69.833" transform="translate(-103.897 -271.454)" fill="none" stroke="#6a2554" stroke-linecap="round" stroke-miterlimit="10" stroke-width="1"/>
            </g>
          </g>
          <rect id="Rectángulo_40629" data-name="Rectángulo 40629" width="538.924" height="13.518" transform="translate(37.726 319.469)" fill="#330827"/>
        </g>
      </g>
    </g>
  </g>
</svg>
