<svg xmlns="http://www.w3.org/2000/svg" width="416.891" height="245.678" viewBox="0 0 416.891 245.678">
  <g id="Grupo_133219" data-name="Grupo 133219" transform="translate(8334.391 8670)">
    <path id="Trazado_189491" data-name="Trazado 189491" d="M0,0H370.262V2H0Z" transform="translate(-8287.762 -8624.893)" fill="#fff"/>
    <path id="Trazado_189492" data-name="Trazado 189492" d="M0,0H370.262V39.893H0Z" transform="translate(-8287.762 -8623)" fill="#e8e1f6"/>
    <path id="Trazado_189493" data-name="Trazado 189493" d="M-14.1-4.088l3.974,1.606v1.244l-5.192-2.406V-4.57l5.192-2.4v1.244ZM-2.914-5.167H-8.208V-6.189h5.294Zm0,2.634H-8.208V-3.548h5.294ZM2.59,0H1.409V-7.827l-2.368.87V-8.023L2.406-9.287H2.59Zm9.045-6.83A2.146,2.146,0,0,1,11.27-5.6a2.483,2.483,0,0,1-.987.844,2.649,2.649,0,0,1,1.146.908,2.284,2.284,0,0,1,.422,1.352,2.415,2.415,0,0,1-.809,1.911,3.109,3.109,0,0,1-2.13.711A3.1,3.1,0,0,1,6.776-.587a2.426,2.426,0,0,1-.8-1.907,2.352,2.352,0,0,1,.409-1.352,2.548,2.548,0,0,1,1.133-.914A2.422,2.422,0,0,1,6.544-5.6,2.177,2.177,0,0,1,6.189-6.83a2.389,2.389,0,0,1,.749-1.854,2.81,2.81,0,0,1,1.974-.686,2.812,2.812,0,0,1,1.971.686A2.384,2.384,0,0,1,11.635-6.83Zm-.958,4.31a1.7,1.7,0,0,0-.492-1.263A1.745,1.745,0,0,0,8.9-4.272a1.714,1.714,0,0,0-1.273.482,1.723,1.723,0,0,0-.479,1.27,1.641,1.641,0,0,0,.467,1.238,1.791,1.791,0,0,0,1.3.451,1.786,1.786,0,0,0,1.295-.454A1.637,1.637,0,0,0,10.677-2.52ZM8.912-8.4a1.515,1.515,0,0,0-1.12.428,1.574,1.574,0,0,0-.428,1.165,1.566,1.566,0,0,0,.422,1.139,1.5,1.5,0,0,0,1.127.435,1.5,1.5,0,0,0,1.127-.435,1.566,1.566,0,0,0,.422-1.139,1.567,1.567,0,0,0-.438-1.149A1.494,1.494,0,0,0,8.912-8.4Z" transform="translate(-8225.5 -8598)" fill="#12263f"/>
    <path id="Trazado_189494" data-name="Trazado 189494" d="M-16.444,0h-1.181V-7.827l-2.368.87V-8.023l3.364-1.263h.184Zm9.5,0H-13V-.844L-9.8-4.4A7.6,7.6,0,0,0-8.823-5.71a2.188,2.188,0,0,0,.27-1.044,1.658,1.658,0,0,0-.438-1.187A1.531,1.531,0,0,0-10.159-8.4a1.814,1.814,0,0,0-1.362.5,1.9,1.9,0,0,0-.486,1.387h-1.174a2.726,2.726,0,0,1,.822-2.063,3.047,3.047,0,0,1,2.2-.787,2.928,2.928,0,0,1,2.038.676,2.306,2.306,0,0,1,.749,1.8,5.287,5.287,0,0,1-1.739,3.25L-11.588-.958h4.64Zm1.39-.616a.735.735,0,0,1,.181-.508.689.689,0,0,1,.543-.2.71.71,0,0,1,.549.2A.721.721,0,0,1-4.1-.616a.681.681,0,0,1-.187.489.723.723,0,0,1-.549.2.7.7,0,0,1-.543-.2A.7.7,0,0,1-5.557-.616ZM3.323-6.83A2.146,2.146,0,0,1,2.958-5.6a2.483,2.483,0,0,1-.987.844,2.649,2.649,0,0,1,1.146.908,2.284,2.284,0,0,1,.422,1.352A2.415,2.415,0,0,1,2.729-.584,3.109,3.109,0,0,1,.6.127,3.1,3.1,0,0,1-1.536-.587a2.426,2.426,0,0,1-.8-1.907A2.352,2.352,0,0,1-1.93-3.847,2.548,2.548,0,0,1-.8-4.761,2.422,2.422,0,0,1-1.768-5.6,2.177,2.177,0,0,1-2.123-6.83a2.389,2.389,0,0,1,.749-1.854A2.81,2.81,0,0,1,.6-9.369a2.812,2.812,0,0,1,1.971.686A2.384,2.384,0,0,1,3.323-6.83ZM2.365-2.52a1.7,1.7,0,0,0-.492-1.263A1.745,1.745,0,0,0,.587-4.272,1.714,1.714,0,0,0-.686-3.79a1.723,1.723,0,0,0-.479,1.27A1.641,1.641,0,0,0-.7-1.282,1.791,1.791,0,0,0,.6-.832a1.786,1.786,0,0,0,1.295-.454A1.637,1.637,0,0,0,2.365-2.52ZM.6-8.4a1.515,1.515,0,0,0-1.12.428A1.574,1.574,0,0,0-.949-6.811,1.566,1.566,0,0,0-.527-5.672,1.5,1.5,0,0,0,.6-5.237a1.5,1.5,0,0,0,1.127-.435,1.566,1.566,0,0,0,.422-1.139A1.567,1.567,0,0,0,1.711-7.96,1.494,1.494,0,0,0,.6-8.4ZM5.557-4.634l.47-4.608h4.735v1.085H7.024l-.279,2.52a2.983,2.983,0,0,1,1.542-.4,2.55,2.55,0,0,1,2.006.835,3.271,3.271,0,0,1,.743,2.257A3.158,3.158,0,0,1,10.264-.7,2.811,2.811,0,0,1,8.109.127a2.921,2.921,0,0,1-2-.679,2.711,2.711,0,0,1-.882-1.879H6.338a1.865,1.865,0,0,0,.565,1.2,1.757,1.757,0,0,0,1.206.4A1.585,1.585,0,0,0,9.395-1.39a2.335,2.335,0,0,0,.467-1.542,2.143,2.143,0,0,0-.5-1.489,1.717,1.717,0,0,0-1.343-.562,1.936,1.936,0,0,0-1.206.336L6.5-4.393Zm6.659-2.831a1.875,1.875,0,0,1,.53-1.371,1.826,1.826,0,0,1,1.362-.54,1.815,1.815,0,0,1,1.368.543A1.94,1.94,0,0,1,16-7.427v.451a1.851,1.851,0,0,1-.53,1.368,1.827,1.827,0,0,1-1.349.53,1.867,1.867,0,0,1-1.365-.53,1.89,1.89,0,0,1-.54-1.412Zm.876.486a1.2,1.2,0,0,0,.279.818.942.942,0,0,0,.749.321.924.924,0,0,0,.727-.312A1.24,1.24,0,0,0,15.123-7v-.464a1.231,1.231,0,0,0-.273-.821.919.919,0,0,0-.743-.324.919.919,0,0,0-.743.324,1.27,1.27,0,0,0-.273.846Zm3.625,4.713a1.865,1.865,0,0,1,.53-1.368,1.832,1.832,0,0,1,1.362-.536,1.848,1.848,0,0,1,1.365.533,1.913,1.913,0,0,1,.533,1.416v.451A1.865,1.865,0,0,1,19.976-.4a1.824,1.824,0,0,1-1.355.536A1.867,1.867,0,0,1,17.256-.4a1.89,1.89,0,0,1-.54-1.412Zm.876.493a1.21,1.21,0,0,0,.279.824.942.942,0,0,0,.749.321.917.917,0,0,0,.73-.315,1.262,1.262,0,0,0,.273-.856V-2.27a1.207,1.207,0,0,0-.276-.821.93.93,0,0,0-.74-.318.939.939,0,0,0-.733.315,1.225,1.225,0,0,0-.282.849ZM14.387-.7l-.667-.419,4.513-7.224.667.419Z" transform="translate(-7977.5 -8598)" fill="#12263f"/>
    <path id="Trazado_189495" data-name="Trazado 189495" d="M-3.64-4.062a2.873,2.873,0,0,1-.879.7,2.385,2.385,0,0,1-1.12.267,2.463,2.463,0,0,1-1.393-.394A2.558,2.558,0,0,1-7.95-4.593,3.776,3.776,0,0,1-8.274-6.17a3.847,3.847,0,0,1,.352-1.669,2.588,2.588,0,0,1,1-1.136,2.851,2.851,0,0,1,1.511-.394A2.581,2.581,0,0,1-3.25-8.344a4.471,4.471,0,0,1,.79,2.8v.343A5.974,5.974,0,0,1-3.526-1.266,4.1,4.1,0,0,1-6.744.006h-.229v-1h.248a3.233,3.233,0,0,0,2.234-.757A3.248,3.248,0,0,0-3.64-4.062Zm-1.809,0a1.813,1.813,0,0,0,1.089-.362,2.133,2.133,0,0,0,.727-.9v-.47a3.232,3.232,0,0,0-.5-1.879,1.5,1.5,0,0,0-1.27-.724A1.508,1.508,0,0,0-6.649-7.8a2.448,2.448,0,0,0-.47,1.565,2.548,2.548,0,0,0,.454,1.558A1.437,1.437,0,0,0-5.449-4.062Zm10.4.121a5.371,5.371,0,0,1-.7,3.066,2.506,2.506,0,0,1-2.2,1A2.524,2.524,0,0,1-.143-.854,5.1,5.1,0,0,1-.879-3.783V-5.351a5.251,5.251,0,0,1,.7-3.028,2.525,2.525,0,0,1,2.209-.99,2.548,2.548,0,0,1,2.2.955,5.068,5.068,0,0,1,.724,2.948ZM3.78-5.548a4.3,4.3,0,0,0-.419-2.174A1.442,1.442,0,0,0,2.034-8.4,1.423,1.423,0,0,0,.72-7.725,4.2,4.2,0,0,0,.3-5.637v1.879A4.372,4.372,0,0,0,.73-1.546a1.439,1.439,0,0,0,1.317.714A1.42,1.42,0,0,0,3.339-1.5a4.214,4.214,0,0,0,.441-2.12Z" transform="translate(-8102.5 -8598)" fill="#12263f"/>
    <g id="Trazado_189496" data-name="Trazado 189496" transform="translate(-8287.762 -8583.107)" fill="#fff">
      <path d="M 369.7616577148438 39 L 0.5000106692314148 39 L 0.5000106692314148 0.5 L 369.7616577148438 0.5 L 369.7616577148438 39 Z" stroke="none"/>
      <path d="M 0.999969482421875 1 L 0.999969482421875 38.5 L 369.2616271972656 38.5 L 369.2616271972656 1 L 0.999969482421875 1 M -3.0517578125e-05 0 L 370.2616271972656 0 L 370.2616271972656 39.5 L -3.0517578125e-05 39.5 L -3.0517578125e-05 0 Z" stroke="none" fill="#e1e1e1"/>
    </g>
    <path id="Trazado_189497" data-name="Trazado 189497" d="M370.5,0H0" transform="translate(-8288 -8543.607)" fill="none" stroke="#e1e1e1" stroke-width="1"/>
    <path id="Trazado_189498" data-name="Trazado 189498" d="M0,0V39.5" transform="translate(-8287.762 -8583.107)" fill="none" stroke="#e1e1e1" stroke-width="1"/>
    <path id="Trazado_189499" data-name="Trazado 189499" d="M24.472,11h-1.09V3.775l-2.186.8V3.594L24.3,2.428h.17ZM31.8,7.25a2.652,2.652,0,0,1-.812.65,2.2,2.2,0,0,1-1.034.246,2.273,2.273,0,0,1-1.286-.363,2.362,2.362,0,0,1-.847-1.022,3.486,3.486,0,0,1-.3-1.456,3.551,3.551,0,0,1,.325-1.541,2.389,2.389,0,0,1,.923-1.049,2.632,2.632,0,0,1,1.395-.363,2.382,2.382,0,0,1,2,.946,4.128,4.128,0,0,1,.729,2.581V6.2a5.515,5.515,0,0,1-.984,3.636,3.782,3.782,0,0,1-2.971,1.175h-.211v-.92h.229a2.984,2.984,0,0,0,2.063-.7A3,3,0,0,0,31.8,7.25Zm-1.67,0a1.674,1.674,0,0,0,1-.334,1.969,1.969,0,0,0,.671-.826V5.656a2.983,2.983,0,0,0-.463-1.734,1.415,1.415,0,0,0-2.32-.12,2.26,2.26,0,0,0-.434,1.444,2.352,2.352,0,0,0,.419,1.438A1.326,1.326,0,0,0,30.132,7.25Zm8.063-.023,3.668,1.482V9.857L37.07,7.637V6.781l4.793-2.215V5.715Zm11.3-1.488,2.045-3.27h1.324l-2.7,4.23,2.76,4.3H51.589l-2.1-3.328L47.382,11h-1.33l2.766-4.3-2.7-4.23h1.318Zm8.268,1.488,3.668,1.482V9.857L56.634,7.637V6.781l4.793-2.215V5.715Zm10.33-1H63.2V5.287h4.887Zm0,2.432H63.2V7.725h4.887Zm6.064-2.455h.814a1.79,1.79,0,0,0,1.207-.4,1.351,1.351,0,0,0,.439-1.061,1.323,1.323,0,0,0-1.494-1.5,1.554,1.554,0,0,0-1.122.4,1.4,1.4,0,0,0-.419,1.063H72.5a2.176,2.176,0,0,1,.741-1.685,2.7,2.7,0,0,1,1.884-.671,2.668,2.668,0,0,1,1.893.639A2.307,2.307,0,0,1,77.7,4.766a1.873,1.873,0,0,1-.36,1.078,2.176,2.176,0,0,1-.981.779,2.1,2.1,0,0,1,1.087.738,2.05,2.05,0,0,1,.384,1.26,2.327,2.327,0,0,1-.75,1.822,2.809,2.809,0,0,1-1.951.674,2.883,2.883,0,0,1-1.954-.65,2.158,2.158,0,0,1-.753-1.717h1.09a1.394,1.394,0,0,0,.439,1.078,1.671,1.671,0,0,0,1.178.4,1.64,1.64,0,0,0,1.2-.41,1.581,1.581,0,0,0,.416-1.178A1.434,1.434,0,0,0,76.287,7.5a1.991,1.991,0,0,0-1.318-.41h-.814Zm6.738,0h.814a1.79,1.79,0,0,0,1.207-.4,1.351,1.351,0,0,0,.439-1.061,1.323,1.323,0,0,0-1.494-1.5,1.554,1.554,0,0,0-1.122.4,1.4,1.4,0,0,0-.419,1.063H79.234a2.176,2.176,0,0,1,.741-1.685,2.7,2.7,0,0,1,1.884-.671,2.668,2.668,0,0,1,1.893.639,2.307,2.307,0,0,1,.686,1.775,1.873,1.873,0,0,1-.36,1.078,2.176,2.176,0,0,1-.981.779,2.1,2.1,0,0,1,1.087.738,2.05,2.05,0,0,1,.384,1.26,2.327,2.327,0,0,1-.75,1.822,2.809,2.809,0,0,1-1.951.674,2.883,2.883,0,0,1-1.954-.65,2.158,2.158,0,0,1-.753-1.717h1.09a1.394,1.394,0,0,0,.439,1.078,1.671,1.671,0,0,0,1.178.4,1.64,1.64,0,0,0,1.2-.41,1.581,1.581,0,0,0,.416-1.178A1.434,1.434,0,0,0,83.025,7.5a1.991,1.991,0,0,0-1.318-.41h-.814Z" transform="translate(-8278.678 -8569.676)" fill="#12263f"/>
    <path id="Trazado_189500" data-name="Trazado 189500" d="M0,0V39.5" transform="translate(-8039.272 -8583.107)" fill="none" stroke="#e1e1e1" stroke-width="1"/>
    <path id="Trazado_189501" data-name="Trazado 189501" d="M39.622,11h-5.59v-.779l2.953-3.281a7.016,7.016,0,0,0,.905-1.21,2.019,2.019,0,0,0,.249-.964,1.531,1.531,0,0,0-.4-1.1,1.414,1.414,0,0,0-1.078-.428A1.674,1.674,0,0,0,35.4,3.7a1.757,1.757,0,0,0-.448,1.28H33.868a2.516,2.516,0,0,1,.759-1.9,2.813,2.813,0,0,1,2.03-.727,2.7,2.7,0,0,1,1.881.624,2.129,2.129,0,0,1,.691,1.661,4.88,4.88,0,0,1-1.605,3l-2.285,2.479h4.283Zm4.711,0h-1.09V3.775l-2.186.8V3.594l3.105-1.166h.17Zm3.311-.568a.679.679,0,0,1,.167-.469.636.636,0,0,1,.5-.187.655.655,0,0,1,.507.188.665.665,0,0,1,.173.469.629.629,0,0,1-.173.451.667.667,0,0,1-.507.182.6.6,0,0,1-.668-.633Zm7.6-2.3h1.184V9.02H55.243V11h-1.09V9.02H50.268V8.381l3.82-5.912h1.154Zm-3.744,0h2.654V3.951l-.129.234ZM62.995,11H57.4v-.779l2.953-3.281a7.016,7.016,0,0,0,.905-1.21,2.019,2.019,0,0,0,.249-.964,1.531,1.531,0,0,0-.4-1.1,1.414,1.414,0,0,0-1.078-.428,1.674,1.674,0,0,0-1.257.46,1.757,1.757,0,0,0-.448,1.28H57.241A2.516,2.516,0,0,1,58,3.078a2.813,2.813,0,0,1,2.03-.727,2.7,2.7,0,0,1,1.881.624A2.129,2.129,0,0,1,62.6,4.637a4.88,4.88,0,0,1-1.605,3l-2.285,2.479h4.283Zm1.055-6.891a1.731,1.731,0,0,1,.489-1.266,1.838,1.838,0,0,1,2.52,0,1.791,1.791,0,0,1,.483,1.3v.416a1.709,1.709,0,0,1-.489,1.263,1.687,1.687,0,0,1-1.245.489,1.724,1.724,0,0,1-1.26-.489,1.745,1.745,0,0,1-.5-1.3Zm.809.449a1.109,1.109,0,0,0,.258.755.87.87,0,0,0,.691.3.853.853,0,0,0,.671-.288,1.145,1.145,0,0,0,.255-.787V4.106a1.136,1.136,0,0,0-.252-.758.934.934,0,0,0-1.371,0,1.172,1.172,0,0,0-.252.781ZM68.2,8.908a1.721,1.721,0,0,1,.489-1.263,1.851,1.851,0,0,1,2.517,0A1.766,1.766,0,0,1,71.7,8.949v.416a1.721,1.721,0,0,1-.489,1.263,1.683,1.683,0,0,1-1.251.5,1.724,1.724,0,0,1-1.26-.489,1.745,1.745,0,0,1-.5-1.3Zm.809.455a1.117,1.117,0,0,0,.258.76.87.87,0,0,0,.691.3.847.847,0,0,0,.674-.291,1.165,1.165,0,0,0,.252-.79V8.9a1.114,1.114,0,0,0-.255-.758.937.937,0,0,0-1.359,0,1.131,1.131,0,0,0-.261.784Zm-2.959.993-.615-.387L69.6,3.3l.615.387Z" transform="translate(-8029.821 -8569.676)" fill="#12263f"/>
    <path id="Trazado_189502" data-name="Trazado 189502" d="M0,0V39.5" transform="translate(-8163.517 -8583.107)" fill="none" stroke="#e1e1e1" stroke-width="1"/>
    <path id="Trazado_189503" data-name="Trazado 189503" d="M46.937,11h-1.09V3.775l-2.186.8V3.594l3.105-1.166h.17Zm3.674-4.277.434-4.254h4.371v1H51.964L51.707,5.8a2.753,2.753,0,0,1,1.424-.369,2.354,2.354,0,0,1,1.852.771,3.02,3.02,0,0,1,.686,2.083,2.915,2.915,0,0,1-.712,2.077,2.6,2.6,0,0,1-1.989.759,2.7,2.7,0,0,1-1.846-.627,2.5,2.5,0,0,1-.814-1.734h1.025a1.722,1.722,0,0,0,.521,1.1,1.621,1.621,0,0,0,1.113.372,1.463,1.463,0,0,0,1.187-.516,2.156,2.156,0,0,0,.431-1.424,1.978,1.978,0,0,0-.466-1.374A1.584,1.584,0,0,0,52.878,6.4a1.787,1.787,0,0,0-1.113.311l-.287.234Zm11.59.639a4.958,4.958,0,0,1-.65,2.83,2.7,2.7,0,0,1-4.055.021,4.706,4.706,0,0,1-.68-2.7V6.061a4.847,4.847,0,0,1,.65-2.795,2.751,2.751,0,0,1,4.066-.032A4.678,4.678,0,0,1,62.2,5.955ZM61.117,5.879a3.972,3.972,0,0,0-.387-2.007,1.331,1.331,0,0,0-1.225-.63,1.314,1.314,0,0,0-1.213.627A3.878,3.878,0,0,0,57.9,5.8V7.531a4.036,4.036,0,0,0,.4,2.042,1.329,1.329,0,0,0,1.216.659,1.31,1.31,0,0,0,1.192-.621,3.89,3.89,0,0,0,.407-1.957Z" transform="translate(-8153.766 -8569.676)" fill="#12263f"/>
    <path id="Trazado_189504" data-name="Trazado 189504" d="M0,0H370.262V45.107H0Z" transform="translate(-8287.762 -8670)" fill="#6836bf"/>
    <path id="Trazado_189505" data-name="Trazado 189505" d="M-14.612-3.269h-1.206V0h-2.228V-9.242h3.637a4.06,4.06,0,0,1,2.571.729,2.471,2.471,0,0,1,.927,2.061,3,3,0,0,1-.39,1.6,2.771,2.771,0,0,1-1.222,1.027L-10.594-.1V0h-2.387Zm-1.206-1.714h1.409a1.265,1.265,0,0,0,.955-.334,1.292,1.292,0,0,0,.321-.932,1.307,1.307,0,0,0-.324-.939,1.253,1.253,0,0,0-.952-.34h-1.409ZM-5.8,0A2.415,2.415,0,0,1-6-.616a1.989,1.989,0,0,1-1.65.743A2.437,2.437,0,0,1-9.3-.46a1.869,1.869,0,0,1-.679-1.476,1.921,1.921,0,0,1,.825-1.688,4.2,4.2,0,0,1,2.4-.571h.66v-.364q0-.95-.819-.95a.669.669,0,0,0-.762.753H-9.813a1.918,1.918,0,0,1,.847-1.617A3.561,3.561,0,0,1-6.8-7a3.122,3.122,0,0,1,2.076.641A2.229,2.229,0,0,1-3.948-4.6v3.041A3.114,3.114,0,0,0-3.656-.108V0ZM-7.135-1.4a1.193,1.193,0,0,0,.663-.171,1.074,1.074,0,0,0,.378-.387v-1.1h-.622q-1.117,0-1.117,1a.612.612,0,0,0,.2.473A.712.712,0,0,0-7.135-1.4ZM-.8-6.868l.07.806A2.329,2.329,0,0,1,1.231-7a1.96,1.96,0,0,1,1.6.641,3.052,3.052,0,0,1,.549,1.93V0H1.238V-4.335A1.159,1.159,0,0,0,1.028-5.1a.969.969,0,0,0-.762-.244,1.02,1.02,0,0,0-.933.5V0H-2.806V-6.868ZM4.316-3.485a4.637,4.637,0,0,1,.343-1.841A2.759,2.759,0,0,1,5.643-6.56,2.594,2.594,0,0,1,7.135-7a2.062,2.062,0,0,1,1.676.724l.076-.6h1.942V-.26a2.9,2.9,0,0,1-.422,1.577A2.709,2.709,0,0,1,9.185,2.345,4.491,4.491,0,0,1,7.332,2.7a3.875,3.875,0,0,1-1.463-.286,2.641,2.641,0,0,1-1.082-.743l.9-1.257a1.961,1.961,0,0,0,1.574.7A1.274,1.274,0,0,0,8.677-.336V-.552A2.009,2.009,0,0,1,7.122.127,2.482,2.482,0,0,1,5.091-.835a3.984,3.984,0,0,1-.774-2.574Zm2.146.133a2.443,2.443,0,0,0,.317,1.336,1,1,0,0,0,.889.492,1.136,1.136,0,0,0,1.009-.463V-4.875a1.108,1.108,0,0,0-1-.47,1.008,1.008,0,0,0-.9.511A2.786,2.786,0,0,0,6.462-3.352ZM11.775-3.5a4.054,4.054,0,0,1,.4-1.831,2.86,2.86,0,0,1,1.149-1.235A3.46,3.46,0,0,1,15.082-7a3.158,3.158,0,0,1,2.431.955,3.666,3.666,0,0,1,.889,2.6v.076A3.557,3.557,0,0,1,17.51-.816a3.166,3.166,0,0,1-2.415.943A3.2,3.2,0,0,1,12.74-.752a3.439,3.439,0,0,1-.958-2.384Zm2.139.133a2.556,2.556,0,0,0,.3,1.4.994.994,0,0,0,.882.444q1.143,0,1.168-1.758V-3.5q0-1.847-1.181-1.847-1.073,0-1.162,1.593Z" transform="translate(-8227.234 -8643)" fill="#fff"/>
    <path id="Trazado_189506" data-name="Trazado 189506" d="M0,86.893V0" transform="translate(-8287.762 -8670)" fill="none" stroke="#fff" stroke-width="1"/>
    <path id="Trazado_189507" data-name="Trazado 189507" d="M0,86.893V0" transform="translate(-8039.272 -8670)" fill="none" stroke="#fff" stroke-width="1"/>
    <path id="Trazado_189508" data-name="Trazado 189508" d="M0,86.893V0" transform="translate(-8163.517 -8670)" fill="none" stroke="#fff" stroke-width="1"/>
    <path id="Trazado_189509" data-name="Trazado 189509" d="M0,0H370.262V39.893H0Z" transform="translate(-8287.762 -8543.607)" fill="#e8e1f6"/>
    <g id="Trazado_189510" data-name="Trazado 189510" transform="translate(-8287.762 -8503.715)" fill="#fff">
      <path d="M 369.7616577148438 39 L 0.5000106692314148 39 L 0.5000106692314148 0.5 L 369.7616577148438 0.5 L 369.7616577148438 39 Z" stroke="none"/>
      <path d="M 0.999969482421875 1 L 0.999969482421875 38.5 L 369.2616271972656 38.5 L 369.2616271972656 1 L 0.999969482421875 1 M -3.0517578125e-05 0 L 370.2616271972656 0 L 370.2616271972656 39.5 L -3.0517578125e-05 39.5 L -3.0517578125e-05 0 Z" stroke="none" fill="#e1e1e1"/>
    </g>
    <path id="Trazado_189511" data-name="Trazado 189511" d="M370.5,0H0" transform="translate(-8288 -8464.215)" fill="none" stroke="#e1e1e1" stroke-width="1"/>
    <path id="Trazado_189512" data-name="Trazado 189512" d="M0,0V39.5" transform="translate(-8287.762 -8503.715)" fill="none" stroke="#e1e1e1" stroke-width="1"/>
    <path id="Trazado_189513" data-name="Trazado 189513" d="M24,8.135h1.184V9.02H24V11h-1.09V9.02H19.026V8.381l3.82-5.912H24Zm-3.744,0h2.654V3.951l-.129.234Zm10.16-5.672v.92h-.2a2.854,2.854,0,0,0-2.016.75,3.121,3.121,0,0,0-.867,2.045,2.314,2.314,0,0,1,1.84-.773,2.212,2.212,0,0,1,1.778.785,3.028,3.028,0,0,1,.665,2.027,3.019,3.019,0,0,1-.718,2.109,2.472,2.472,0,0,1-1.925.791,2.435,2.435,0,0,1-1.986-.94,3.727,3.727,0,0,1-.762-2.423V7.338a5.616,5.616,0,0,1,1-3.6,3.691,3.691,0,0,1,2.991-1.274ZM28.993,6.307a1.822,1.822,0,0,0-1.676,1.172v.4a2.8,2.8,0,0,0,.475,1.7,1.422,1.422,0,0,0,1.184.645,1.378,1.378,0,0,0,1.151-.539,2.237,2.237,0,0,0,.419-1.412,2.238,2.238,0,0,0-.425-1.421A1.362,1.362,0,0,0,28.993,6.307Zm7.717.92,3.668,1.482V9.857L35.585,7.637V6.781l4.793-2.215V5.715Zm11.3-1.488,2.045-3.27h1.324L48.68,6.7,51.44,11H50.1l-2.1-3.328L45.9,11h-1.33l2.766-4.3-2.7-4.23H45.95Zm8.268,1.488,3.668,1.482V9.857L55.149,7.637V6.781l4.793-2.215V5.715Zm10.33-1H61.717V5.287H66.6Zm0,2.432H61.717V7.725H66.6Zm7.957-1.939.434-4.254h4.371v1H75.915L75.657,5.8a2.753,2.753,0,0,1,1.424-.369,2.354,2.354,0,0,1,1.852.771,3.02,3.02,0,0,1,.686,2.083,2.915,2.915,0,0,1-.712,2.077,2.6,2.6,0,0,1-1.989.759,2.7,2.7,0,0,1-1.846-.627,2.5,2.5,0,0,1-.814-1.734h1.025a1.722,1.722,0,0,0,.521,1.1,1.621,1.621,0,0,0,1.113.372A1.463,1.463,0,0,0,78.1,9.717a2.156,2.156,0,0,0,.431-1.424,1.978,1.978,0,0,0-.466-1.374A1.584,1.584,0,0,0,76.829,6.4a1.787,1.787,0,0,0-1.113.311l-.287.234Zm10.395.527a2.652,2.652,0,0,1-.812.65,2.2,2.2,0,0,1-1.034.246,2.273,2.273,0,0,1-1.286-.363,2.362,2.362,0,0,1-.847-1.022,3.486,3.486,0,0,1-.3-1.456A3.551,3.551,0,0,1,81,3.764a2.389,2.389,0,0,1,.923-1.049,2.632,2.632,0,0,1,1.395-.363,2.382,2.382,0,0,1,2,.946,4.128,4.128,0,0,1,.729,2.581V6.2a5.515,5.515,0,0,1-.984,3.636,3.782,3.782,0,0,1-2.971,1.175h-.211v-.92h.229a2.984,2.984,0,0,0,2.063-.7A3,3,0,0,0,84.956,7.25Zm-1.67,0a1.674,1.674,0,0,0,1-.334,1.969,1.969,0,0,0,.671-.826V5.656A2.983,2.983,0,0,0,84.5,3.922a1.415,1.415,0,0,0-2.32-.12,2.26,2.26,0,0,0-.434,1.444,2.352,2.352,0,0,0,.419,1.438A1.326,1.326,0,0,0,83.286,7.25Z" transform="translate(-8278.678 -8490.283)" fill="#12263f"/>
    <path id="Trazado_189514" data-name="Trazado 189514" d="M0,0V39.5" transform="translate(-8039.272 -8503.715)" fill="none" stroke="#e1e1e1" stroke-width="1"/>
    <path id="Trazado_189515" data-name="Trazado 189515" d="M37.594,11H36.5V3.775l-2.186.8V3.594l3.105-1.166h.17Zm8.35-6.3a1.981,1.981,0,0,1-.337,1.137,2.292,2.292,0,0,1-.911.779,2.445,2.445,0,0,1,1.058.838,2.108,2.108,0,0,1,.39,1.248,2.229,2.229,0,0,1-.747,1.764,3.275,3.275,0,0,1-3.937,0A2.24,2.24,0,0,1,40.717,8.7,2.171,2.171,0,0,1,41.1,7.449a2.352,2.352,0,0,1,1.046-.844,2.236,2.236,0,0,1-.9-.779A2.009,2.009,0,0,1,40.917,4.7a2.205,2.205,0,0,1,.691-1.711,2.936,2.936,0,0,1,3.642,0A2.2,2.2,0,0,1,45.944,4.7Zm-.885,3.979a1.572,1.572,0,0,0-.454-1.166,1.61,1.61,0,0,0-1.187-.451A1.525,1.525,0,0,0,41.8,8.674a1.514,1.514,0,0,0,.431,1.143,1.924,1.924,0,0,0,2.394,0A1.511,1.511,0,0,0,45.059,8.674ZM43.43,3.242a1.4,1.4,0,0,0-1.034.4A1.453,1.453,0,0,0,42,4.713a1.446,1.446,0,0,0,.39,1.052,1.548,1.548,0,0,0,2.08,0,1.446,1.446,0,0,0,.39-1.052,1.446,1.446,0,0,0-.4-1.061A1.379,1.379,0,0,0,43.43,3.242Zm4.213,7.189a.679.679,0,0,1,.167-.469.636.636,0,0,1,.5-.187.655.655,0,0,1,.507.188.665.665,0,0,1,.173.469.629.629,0,0,1-.173.451.667.667,0,0,1-.507.182.6.6,0,0,1-.668-.633Zm3.521-3.709L51.6,2.469h4.371v1H52.518L52.26,5.8a2.753,2.753,0,0,1,1.424-.369,2.354,2.354,0,0,1,1.852.771,3.02,3.02,0,0,1,.686,2.083,2.915,2.915,0,0,1-.712,2.077,2.6,2.6,0,0,1-1.989.759,2.7,2.7,0,0,1-1.846-.627,2.5,2.5,0,0,1-.814-1.734h1.025a1.722,1.722,0,0,0,.521,1.1,1.621,1.621,0,0,0,1.113.372,1.463,1.463,0,0,0,1.187-.516,2.156,2.156,0,0,0,.431-1.424,1.978,1.978,0,0,0-.466-1.374A1.584,1.584,0,0,0,53.432,6.4a1.787,1.787,0,0,0-1.113.311l-.287.234ZM62.913,3.078,59.379,11H58.243l3.521-7.641H57.147V2.469h5.766Zm1.137,1.031a1.731,1.731,0,0,1,.489-1.266,1.838,1.838,0,0,1,2.52,0,1.791,1.791,0,0,1,.483,1.3v.416a1.709,1.709,0,0,1-.489,1.263,1.687,1.687,0,0,1-1.245.489,1.724,1.724,0,0,1-1.26-.489,1.745,1.745,0,0,1-.5-1.3Zm.809.449a1.109,1.109,0,0,0,.258.755.87.87,0,0,0,.691.3.853.853,0,0,0,.671-.288,1.145,1.145,0,0,0,.255-.787V4.106a1.136,1.136,0,0,0-.252-.758.934.934,0,0,0-1.371,0,1.172,1.172,0,0,0-.252.781ZM68.2,8.908a1.721,1.721,0,0,1,.489-1.263,1.851,1.851,0,0,1,2.517,0A1.766,1.766,0,0,1,71.7,8.949v.416a1.721,1.721,0,0,1-.489,1.263,1.683,1.683,0,0,1-1.251.5,1.724,1.724,0,0,1-1.26-.489,1.745,1.745,0,0,1-.5-1.3Zm.809.455a1.117,1.117,0,0,0,.258.76.87.87,0,0,0,.691.3.847.847,0,0,0,.674-.291,1.165,1.165,0,0,0,.252-.79V8.9a1.114,1.114,0,0,0-.255-.758.937.937,0,0,0-1.359,0,1.131,1.131,0,0,0-.261.784Zm-2.959.993-.615-.387L69.6,3.3l.615.387Z" transform="translate(-8029.821 -8490.283)" fill="#12263f"/>
    <path id="Trazado_189516" data-name="Trazado 189516" d="M0,0V39.5" transform="translate(-8163.517 -8503.715)" fill="none" stroke="#e1e1e1" stroke-width="1"/>
    <path id="Trazado_189517" data-name="Trazado 189517" d="M46.937,11h-1.09V3.775l-2.186.8V3.594l3.105-1.166h.17Zm4.752-4.793H52.5a1.79,1.79,0,0,0,1.207-.4,1.351,1.351,0,0,0,.439-1.061,1.323,1.323,0,0,0-1.494-1.5,1.554,1.554,0,0,0-1.122.4,1.4,1.4,0,0,0-.419,1.063H50.031a2.176,2.176,0,0,1,.741-1.685,2.7,2.7,0,0,1,1.884-.671,2.668,2.668,0,0,1,1.893.639,2.307,2.307,0,0,1,.686,1.775,1.873,1.873,0,0,1-.36,1.078,2.176,2.176,0,0,1-.981.779,2.1,2.1,0,0,1,1.087.738,2.05,2.05,0,0,1,.384,1.26,2.327,2.327,0,0,1-.75,1.822,2.809,2.809,0,0,1-1.951.674,2.883,2.883,0,0,1-1.954-.65,2.158,2.158,0,0,1-.753-1.717h1.09a1.394,1.394,0,0,0,.439,1.078,1.671,1.671,0,0,0,1.178.4,1.64,1.64,0,0,0,1.2-.41,1.581,1.581,0,0,0,.416-1.178A1.434,1.434,0,0,0,53.822,7.5a1.991,1.991,0,0,0-1.318-.41h-.814ZM62.2,7.361a4.958,4.958,0,0,1-.65,2.83,2.7,2.7,0,0,1-4.055.021,4.706,4.706,0,0,1-.68-2.7V6.061a4.847,4.847,0,0,1,.65-2.795,2.751,2.751,0,0,1,4.066-.032A4.678,4.678,0,0,1,62.2,5.955ZM61.117,5.879a3.972,3.972,0,0,0-.387-2.007,1.331,1.331,0,0,0-1.225-.63,1.314,1.314,0,0,0-1.213.627A3.878,3.878,0,0,0,57.9,5.8V7.531a4.036,4.036,0,0,0,.4,2.042,1.329,1.329,0,0,0,1.216.659,1.31,1.31,0,0,0,1.192-.621,3.89,3.89,0,0,0,.407-1.957Z" transform="translate(-8153.766 -8490.283)" fill="#12263f"/>
    <path id="Trazado_189518" data-name="Trazado 189518" d="M0,39.893V0" transform="translate(-8287.762 -8543.607)" fill="none" stroke="#fff" stroke-width="1"/>
    <path id="Trazado_189519" data-name="Trazado 189519" d="M0,39.893V0" transform="translate(-8039.272 -8543.607)" fill="none" stroke="#fff" stroke-width="1"/>
    <path id="Trazado_189520" data-name="Trazado 189520" d="M0,39.893V0" transform="translate(-8163.517 -8543.607)" fill="none" stroke="#fff" stroke-width="1"/>
    <path id="Trazado_189521" data-name="Trazado 189521" d="M22.486,6.207H23.3a1.79,1.79,0,0,0,1.207-.4,1.351,1.351,0,0,0,.439-1.061,1.323,1.323,0,0,0-1.494-1.5,1.554,1.554,0,0,0-1.122.4,1.4,1.4,0,0,0-.419,1.063H20.828a2.176,2.176,0,0,1,.741-1.685,2.7,2.7,0,0,1,1.884-.671,2.668,2.668,0,0,1,1.893.639,2.307,2.307,0,0,1,.686,1.775,1.873,1.873,0,0,1-.36,1.078,2.176,2.176,0,0,1-.981.779,2.1,2.1,0,0,1,1.087.738,2.05,2.05,0,0,1,.384,1.26,2.327,2.327,0,0,1-.75,1.822,2.809,2.809,0,0,1-1.951.674,2.883,2.883,0,0,1-1.954-.65,2.158,2.158,0,0,1-.753-1.717h1.09a1.394,1.394,0,0,0,.439,1.078,1.671,1.671,0,0,0,1.178.4,1.64,1.64,0,0,0,1.2-.41,1.581,1.581,0,0,0,.416-1.178A1.434,1.434,0,0,0,24.619,7.5a1.991,1.991,0,0,0-1.318-.41h-.814Zm9.738,1.928h1.184V9.02H32.224V11h-1.09V9.02H27.25V8.381l3.82-5.912h1.154Zm-3.744,0h2.654V3.951l-.129.234Zm9.715-.908,3.668,1.482V9.857L37.07,7.637V6.781l4.793-2.215V5.715Zm11.3-1.488,2.045-3.27h1.324l-2.7,4.23,2.76,4.3H51.589l-2.1-3.328L47.382,11h-1.33l2.766-4.3-2.7-4.23h1.318Zm8.268,1.488,3.668,1.482V9.857L56.634,7.637V6.781l4.793-2.215V5.715Zm10.33-1H63.2V5.287h4.887Zm0,2.432H63.2V7.725h4.887Zm9.064-.527h1.184V9.02H77.154V11h-1.09V9.02H72.179V8.381L76,2.469h1.154Zm-3.744,0h2.654V3.951l-.129.234Zm6.4-1.412.434-4.254h4.371v1H81.168L80.91,5.8a2.753,2.753,0,0,1,1.424-.369,2.354,2.354,0,0,1,1.852.771,3.02,3.02,0,0,1,.686,2.083,2.915,2.915,0,0,1-.712,2.077,2.6,2.6,0,0,1-1.989.759,2.7,2.7,0,0,1-1.846-.627,2.5,2.5,0,0,1-.814-1.734h1.025a1.722,1.722,0,0,0,.521,1.1,1.621,1.621,0,0,0,1.113.372,1.463,1.463,0,0,0,1.187-.516,2.156,2.156,0,0,0,.431-1.424,1.978,1.978,0,0,0-.466-1.374A1.584,1.584,0,0,0,82.082,6.4a1.787,1.787,0,0,0-1.113.311l-.287.234Z" transform="translate(-8278.678 -8530.607)" fill="#12263f"/>
    <path id="Trazado_189522" data-name="Trazado 189522" d="M35.608,6.207h.814a1.79,1.79,0,0,0,1.207-.4,1.351,1.351,0,0,0,.439-1.061,1.323,1.323,0,0,0-1.494-1.5,1.554,1.554,0,0,0-1.122.4,1.4,1.4,0,0,0-.419,1.063H33.95a2.176,2.176,0,0,1,.741-1.685,2.7,2.7,0,0,1,1.884-.671,2.668,2.668,0,0,1,1.893.639,2.307,2.307,0,0,1,.686,1.775,1.873,1.873,0,0,1-.36,1.078,2.176,2.176,0,0,1-.981.779,2.1,2.1,0,0,1,1.087.738,2.05,2.05,0,0,1,.384,1.26,2.327,2.327,0,0,1-.75,1.822,2.809,2.809,0,0,1-1.951.674,2.883,2.883,0,0,1-1.954-.65,2.158,2.158,0,0,1-.753-1.717h1.09A1.394,1.394,0,0,0,35.4,9.828a1.671,1.671,0,0,0,1.178.4,1.64,1.64,0,0,0,1.2-.41A1.581,1.581,0,0,0,38.2,8.645,1.434,1.434,0,0,0,37.741,7.5a1.991,1.991,0,0,0-1.318-.41h-.814Zm10.67-3.129L42.745,11H41.608l3.521-7.641H40.512V2.469h5.766Zm1.365,7.354a.679.679,0,0,1,.167-.469.636.636,0,0,1,.5-.187.655.655,0,0,1,.507.188.665.665,0,0,1,.173.469.629.629,0,0,1-.173.451.667.667,0,0,1-.507.182.6.6,0,0,1-.668-.633ZM54.229,11h-1.09V3.775l-2.186.8V3.594l3.105-1.166h.17Zm7.752-2.865h1.184V9.02H61.981V11h-1.09V9.02H57.006V8.381l3.82-5.912h1.154Zm-3.744,0h2.654V3.951l-.129.234Zm5.812-4.025a1.731,1.731,0,0,1,.489-1.266,1.838,1.838,0,0,1,2.52,0,1.791,1.791,0,0,1,.483,1.3v.416a1.709,1.709,0,0,1-.489,1.263,1.687,1.687,0,0,1-1.245.489,1.724,1.724,0,0,1-1.26-.489,1.745,1.745,0,0,1-.5-1.3Zm.809.449a1.109,1.109,0,0,0,.258.755.87.87,0,0,0,.691.3.853.853,0,0,0,.671-.288,1.145,1.145,0,0,0,.255-.787V4.106a1.136,1.136,0,0,0-.252-.758.934.934,0,0,0-1.371,0,1.172,1.172,0,0,0-.252.781ZM68.2,8.908a1.721,1.721,0,0,1,.489-1.263,1.851,1.851,0,0,1,2.517,0A1.766,1.766,0,0,1,71.7,8.949v.416a1.721,1.721,0,0,1-.489,1.263,1.683,1.683,0,0,1-1.251.5,1.724,1.724,0,0,1-1.26-.489,1.745,1.745,0,0,1-.5-1.3Zm.809.455a1.117,1.117,0,0,0,.258.76.87.87,0,0,0,.691.3.847.847,0,0,0,.674-.291,1.165,1.165,0,0,0,.252-.79V8.9a1.114,1.114,0,0,0-.255-.758.937.937,0,0,0-1.359,0,1.131,1.131,0,0,0-.261.784Zm-2.959.993-.615-.387L69.6,3.3l.615.387Z" transform="translate(-8029.821 -8530.607)" fill="#12263f"/>
    <path id="Trazado_189523" data-name="Trazado 189523" d="M48.964,11h-5.59v-.779l2.953-3.281a7.016,7.016,0,0,0,.905-1.21,2.019,2.019,0,0,0,.249-.964,1.531,1.531,0,0,0-.4-1.1A1.414,1.414,0,0,0,46,3.242a1.674,1.674,0,0,0-1.257.46,1.757,1.757,0,0,0-.448,1.28H43.21a2.516,2.516,0,0,1,.759-1.9A2.813,2.813,0,0,1,46,2.352a2.7,2.7,0,0,1,1.881.624,2.129,2.129,0,0,1,.691,1.661,4.88,4.88,0,0,1-1.605,3l-2.285,2.479h4.283Zm5.4-8.537v.92h-.2a2.854,2.854,0,0,0-2.016.75,3.121,3.121,0,0,0-.867,2.045,2.314,2.314,0,0,1,1.84-.773,2.212,2.212,0,0,1,1.778.785,3.028,3.028,0,0,1,.665,2.027,3.019,3.019,0,0,1-.718,2.109,2.472,2.472,0,0,1-1.925.791,2.435,2.435,0,0,1-1.986-.94,3.727,3.727,0,0,1-.762-2.423V7.338a5.616,5.616,0,0,1,1-3.6,3.691,3.691,0,0,1,2.991-1.274ZM52.943,6.307a1.822,1.822,0,0,0-1.676,1.172v.4a2.8,2.8,0,0,0,.475,1.7,1.422,1.422,0,0,0,1.184.645,1.378,1.378,0,0,0,1.151-.539A2.237,2.237,0,0,0,54.5,8.27a2.238,2.238,0,0,0-.425-1.421A1.362,1.362,0,0,0,52.943,6.307ZM62.2,7.361a4.958,4.958,0,0,1-.65,2.83,2.7,2.7,0,0,1-4.055.021,4.706,4.706,0,0,1-.68-2.7V6.061a4.847,4.847,0,0,1,.65-2.795,2.751,2.751,0,0,1,4.066-.032A4.678,4.678,0,0,1,62.2,5.955ZM61.117,5.879a3.972,3.972,0,0,0-.387-2.007,1.331,1.331,0,0,0-1.225-.63,1.314,1.314,0,0,0-1.213.627A3.878,3.878,0,0,0,57.9,5.8V7.531a4.036,4.036,0,0,0,.4,2.042,1.329,1.329,0,0,0,1.216.659,1.31,1.31,0,0,0,1.192-.621,3.89,3.89,0,0,0,.407-1.957Z" transform="translate(-8153.766 -8530.607)" fill="#12263f"/>
    <path id="Trazado_189524" data-name="Trazado 189524" d="M0,0H370.262V39.893H0Z" transform="translate(-8287.762 -8464.215)" fill="#e8e1f6"/>
    <path id="Trazado_189525" data-name="Trazado 189525" d="M0,39.893V0" transform="translate(-8287.762 -8464.215)" fill="none" stroke="#fff" stroke-width="1"/>
    <path id="Trazado_189526" data-name="Trazado 189526" d="M0,39.893V0" transform="translate(-8039.272 -8464.215)" fill="none" stroke="#fff" stroke-width="1"/>
    <path id="Trazado_189527" data-name="Trazado 189527" d="M0,39.893V0" transform="translate(-8163.517 -8464.215)" fill="none" stroke="#fff" stroke-width="1"/>
    <path id="Trazado_189528" data-name="Trazado 189528" d="M47.558,7.191,43.685,5.674V4.561l5,2.215v.855l-5,2.221V8.727Zm6.574-4.729v.92h-.2a2.854,2.854,0,0,0-2.016.75,3.121,3.121,0,0,0-.867,2.045A2.314,2.314,0,0,1,52.89,5.4a2.212,2.212,0,0,1,1.778.785,3.028,3.028,0,0,1,.665,2.027,3.019,3.019,0,0,1-.718,2.109,2.472,2.472,0,0,1-1.925.791,2.435,2.435,0,0,1-1.986-.94,3.727,3.727,0,0,1-.762-2.423V7.338a5.616,5.616,0,0,1,1-3.6,3.691,3.691,0,0,1,2.991-1.274ZM52.709,6.307a1.822,1.822,0,0,0-1.676,1.172v.4a2.8,2.8,0,0,0,.475,1.7,1.422,1.422,0,0,0,1.184.645,1.378,1.378,0,0,0,1.151-.539,2.237,2.237,0,0,0,.419-1.412,2.238,2.238,0,0,0-.425-1.421A1.362,1.362,0,0,0,52.709,6.307Zm9.258,1.055a4.958,4.958,0,0,1-.65,2.83,2.7,2.7,0,0,1-4.055.021,4.706,4.706,0,0,1-.68-2.7V6.061a4.847,4.847,0,0,1,.65-2.795A2.751,2.751,0,0,1,61.3,3.233a4.678,4.678,0,0,1,.668,2.722ZM60.882,5.879A3.972,3.972,0,0,0,60.5,3.872a1.331,1.331,0,0,0-1.225-.63,1.314,1.314,0,0,0-1.213.627A3.878,3.878,0,0,0,57.666,5.8V7.531a4.036,4.036,0,0,0,.4,2.042,1.329,1.329,0,0,0,1.216.659,1.31,1.31,0,0,0,1.192-.621,3.89,3.89,0,0,0,.407-1.957Z" transform="translate(-8278.678 -8451.215)" fill="#12263f"/>
    <path id="Trazado_189529" data-name="Trazado 189529" d="M45.912,11h-1.09V3.775l-2.186.8V3.594l3.105-1.166h.17Zm8.525-3.639a4.958,4.958,0,0,1-.65,2.83,2.7,2.7,0,0,1-4.055.021,4.706,4.706,0,0,1-.68-2.7V6.061a4.847,4.847,0,0,1,.65-2.795,2.751,2.751,0,0,1,4.066-.032,4.678,4.678,0,0,1,.668,2.722ZM53.353,5.879a3.972,3.972,0,0,0-.387-2.007,1.331,1.331,0,0,0-1.225-.63,1.314,1.314,0,0,0-1.213.627A3.878,3.878,0,0,0,50.136,5.8V7.531a4.036,4.036,0,0,0,.4,2.042,1.329,1.329,0,0,0,1.216.659,1.31,1.31,0,0,0,1.192-.621,3.89,3.89,0,0,0,.407-1.957Zm2.379-1.77a1.731,1.731,0,0,1,.489-1.266,1.838,1.838,0,0,1,2.52,0,1.791,1.791,0,0,1,.483,1.3v.416a1.709,1.709,0,0,1-.489,1.263,1.687,1.687,0,0,1-1.245.489,1.724,1.724,0,0,1-1.26-.489,1.745,1.745,0,0,1-.5-1.3Zm.809.449a1.109,1.109,0,0,0,.258.755.87.87,0,0,0,.691.3.853.853,0,0,0,.671-.288,1.145,1.145,0,0,0,.255-.787V4.106a1.136,1.136,0,0,0-.252-.758.934.934,0,0,0-1.371,0,1.172,1.172,0,0,0-.252.781Zm3.346,4.35a1.721,1.721,0,0,1,.489-1.263,1.851,1.851,0,0,1,2.517,0,1.766,1.766,0,0,1,.492,1.307v.416a1.721,1.721,0,0,1-.489,1.263,1.683,1.683,0,0,1-1.251.5,1.724,1.724,0,0,1-1.26-.489,1.745,1.745,0,0,1-.5-1.3Zm.809.455a1.117,1.117,0,0,0,.258.76.87.87,0,0,0,.691.3.847.847,0,0,0,.674-.291,1.165,1.165,0,0,0,.252-.79V8.9a1.114,1.114,0,0,0-.255-.758.937.937,0,0,0-1.359,0,1.131,1.131,0,0,0-.261.784Zm-2.959.993-.615-.387L61.287,3.3l.615.387Z" transform="translate(-8029.821 -8451.215)" fill="#12263f"/>
    <path id="Trazado_189530" data-name="Trazado 189530" d="M52.252,3.078,48.718,11H47.582L51.1,3.359H46.486V2.469h5.766Zm6.58,4.283a4.958,4.958,0,0,1-.65,2.83,2.7,2.7,0,0,1-4.055.021,4.706,4.706,0,0,1-.68-2.7V6.061a4.847,4.847,0,0,1,.65-2.795,2.751,2.751,0,0,1,4.066-.032,4.678,4.678,0,0,1,.668,2.722ZM57.748,5.879a3.972,3.972,0,0,0-.387-2.007,1.331,1.331,0,0,0-1.225-.63,1.314,1.314,0,0,0-1.213.627A3.878,3.878,0,0,0,54.531,5.8V7.531a4.036,4.036,0,0,0,.4,2.042,1.329,1.329,0,0,0,1.216.659,1.31,1.31,0,0,0,1.192-.621,3.89,3.89,0,0,0,.407-1.957Z" transform="translate(-8153.766 -8451.215)" fill="#12263f"/>
    <path id="Trazado_189531" data-name="Trazado 189531" d="M0,0H46.262V200.57H0Z" transform="translate(-8334.391 -8624.893)" fill="#6836bf"/>
    <path id="Trazado_189532" data-name="Trazado 189532" d="M-14.777-3.923h-3.5v2.209h4.139V0h-6.367V-9.242h6.379v1.72h-4.151v1.949h3.5Zm1.054.438a4.2,4.2,0,0,1,.7-2.571A2.319,2.319,0,0,1-11.051-7,1.972,1.972,0,0,1-9.5-6.271V-9.75h2.146V0H-9.28l-.108-.736a2.026,2.026,0,0,1-1.676.863,2.315,2.315,0,0,1-1.942-.939A4.329,4.329,0,0,1-13.724-3.485Zm2.139.133q0,1.828,1.066,1.828A1.053,1.053,0,0,0-9.5-2.12V-4.735a1.025,1.025,0,0,0-1-.609q-.99,0-1.073,1.6ZM-2.272,0a2.415,2.415,0,0,1-.2-.616,1.989,1.989,0,0,1-1.65.743A2.437,2.437,0,0,1-5.776-.46a1.869,1.869,0,0,1-.679-1.476A1.921,1.921,0,0,1-5.63-3.625a4.2,4.2,0,0,1,2.4-.571h.66v-.364q0-.95-.819-.95a.669.669,0,0,0-.762.753H-6.291a1.918,1.918,0,0,1,.847-1.617A3.561,3.561,0,0,1-3.282-7a3.122,3.122,0,0,1,2.076.641A2.229,2.229,0,0,1-.425-4.6v3.041A3.114,3.114,0,0,0-.133-.108V0ZM-3.612-1.4a1.193,1.193,0,0,0,.663-.171,1.074,1.074,0,0,0,.378-.387v-1.1h-.622q-1.117,0-1.117,1a.612.612,0,0,0,.2.473A.712.712,0,0,0-3.612-1.4Zm4.1-2.088a4.2,4.2,0,0,1,.7-2.571A2.319,2.319,0,0,1,3.161-7a1.972,1.972,0,0,1,1.549.724V-9.75H6.855V0H4.932L4.824-.736A2.026,2.026,0,0,1,3.148.127,2.315,2.315,0,0,1,1.206-.812,4.329,4.329,0,0,1,.489-3.485Zm2.139.133q0,1.828,1.066,1.828a1.053,1.053,0,0,0,1.016-.6V-4.735a1.025,1.025,0,0,0-1-.609q-.99,0-1.073,1.6ZM11.394.127A3.531,3.531,0,0,1,8.836-.816a3.255,3.255,0,0,1-.978-2.453v-.178a4.218,4.218,0,0,1,.39-1.86A2.857,2.857,0,0,1,9.388-6.554,3.44,3.44,0,0,1,11.166-7a2.973,2.973,0,0,1,2.285.9,3.53,3.53,0,0,1,.838,2.5v.832H10.036a1.542,1.542,0,0,0,.5.908,1.492,1.492,0,0,0,1,.33,1.923,1.923,0,0,0,1.587-.711L14.1-1.079A2.733,2.733,0,0,1,12.971-.2,3.829,3.829,0,0,1,11.394.127Zm-.241-5.472q-.939,0-1.117,1.244h2.158v-.165a1.06,1.06,0,0,0-.26-.8A1.036,1.036,0,0,0,11.153-5.345ZM18.745-1.93a.494.494,0,0,0-.286-.438,4.345,4.345,0,0,0-1.085-.343,4.95,4.95,0,0,1-1.32-.467,2.212,2.212,0,0,1-.793-.7,1.675,1.675,0,0,1-.273-.946,1.9,1.9,0,0,1,.781-1.558A3.216,3.216,0,0,1,17.812-7,3.563,3.563,0,0,1,20-6.379a1.925,1.925,0,0,1,.825,1.619H18.675q0-.825-.87-.825a.862.862,0,0,0-.565.187.58.58,0,0,0-.229.467.532.532,0,0,0,.279.463,2.639,2.639,0,0,0,.892.292,7.707,7.707,0,0,1,1.076.273,1.955,1.955,0,0,1,1.549,1.911,1.8,1.8,0,0,1-.835,1.53,3.66,3.66,0,0,1-2.161.59A3.735,3.735,0,0,1,16.237-.19a2.632,2.632,0,0,1-1.079-.863A1.955,1.955,0,0,1,14.771-2.2h2a.827.827,0,0,0,.317.7,1.306,1.306,0,0,0,.781.219,1.027,1.027,0,0,0,.657-.178A.569.569,0,0,0,18.745-1.93Z" transform="translate(-8306.76 -8523.607) rotate(-90)" fill="#fff"/>
    <path id="Trazado_189533" data-name="Trazado 189533" d="M-17.986-3.129a3.375,3.375,0,0,1-.521,1.7A3.141,3.141,0,0,1-19.843-.279a4.548,4.548,0,0,1-1.965.406A3.629,3.629,0,0,1-24.677-1.06a4.9,4.9,0,0,1-1.047-3.352v-.457a5.594,5.594,0,0,1,.473-2.377A3.583,3.583,0,0,1-23.889-8.82a3.8,3.8,0,0,1,2.057-.555,3.984,3.984,0,0,1,2.7.885,3.5,3.5,0,0,1,1.162,2.441h-2.222a1.655,1.655,0,0,0-.425-1.212,1.749,1.749,0,0,0-1.219-.368,1.331,1.331,0,0,0-1.219.622,4,4,0,0,0-.406,1.987v.654a4.424,4.424,0,0,0,.371,2.114,1.359,1.359,0,0,0,1.279.635,1.711,1.711,0,0,0,1.174-.362A1.536,1.536,0,0,0-20.2-3.129ZM-13.162,0a2.415,2.415,0,0,1-.2-.616,1.989,1.989,0,0,1-1.65.743,2.437,2.437,0,0,1-1.65-.587,1.869,1.869,0,0,1-.679-1.476,1.921,1.921,0,0,1,.825-1.688,4.2,4.2,0,0,1,2.4-.571h.66v-.364q0-.95-.819-.95a.669.669,0,0,0-.762.753H-17.18a1.918,1.918,0,0,1,.847-1.617A3.561,3.561,0,0,1-14.171-7a3.122,3.122,0,0,1,2.076.641A2.229,2.229,0,0,1-11.315-4.6v3.041a3.114,3.114,0,0,0,.292,1.447V0ZM-14.5-1.4a1.193,1.193,0,0,0,.663-.171,1.074,1.074,0,0,0,.378-.387v-1.1h-.622q-1.117,0-1.117,1a.612.612,0,0,0,.2.473A.712.712,0,0,0-14.5-1.4Zm6.335-5.472.07.806A2.329,2.329,0,0,1-6.135-7a1.96,1.96,0,0,1,1.6.641,3.052,3.052,0,0,1,.549,1.93V0H-6.129V-4.335A1.159,1.159,0,0,0-6.338-5.1.969.969,0,0,0-7.1-5.345a1.02,1.02,0,0,0-.933.5V0h-2.139V-6.868ZM-.308-8.576v1.708H.822v1.485H-.308v3.142a.8.8,0,0,0,.14.54.749.749,0,0,0,.552.152,3.138,3.138,0,0,0,.533-.038v1.53A3.948,3.948,0,0,1-.289.127,2.241,2.241,0,0,1-1.92-.394a2.133,2.133,0,0,1-.527-1.581V-5.383h-.876V-6.868h.876V-8.576ZM3.92,0H1.774V-6.868H3.92ZM1.647-8.646a.963.963,0,0,1,.33-.754,1.241,1.241,0,0,1,.857-.294,1.241,1.241,0,0,1,.857.294.963.963,0,0,1,.33.754.963.963,0,0,1-.33.754,1.241,1.241,0,0,1-.857.294,1.241,1.241,0,0,1-.857-.294A.963.963,0,0,1,1.647-8.646Zm3.32,5.161a4.2,4.2,0,0,1,.7-2.571A2.319,2.319,0,0,1,7.639-7a1.972,1.972,0,0,1,1.549.724V-9.75h2.146V0H9.41L9.3-.736A2.026,2.026,0,0,1,7.627.127,2.315,2.315,0,0,1,5.684-.812,4.329,4.329,0,0,1,4.967-3.485Zm2.139.133q0,1.828,1.066,1.828a1.053,1.053,0,0,0,1.016-.6V-4.735a1.025,1.025,0,0,0-1-.609q-.99,0-1.073,1.6ZM16.418,0a2.415,2.415,0,0,1-.2-.616,1.989,1.989,0,0,1-1.65.743,2.437,2.437,0,0,1-1.65-.587,1.869,1.869,0,0,1-.679-1.476,1.921,1.921,0,0,1,.825-1.688,4.2,4.2,0,0,1,2.4-.571h.66v-.364q0-.95-.819-.95a.669.669,0,0,0-.762.753H12.4a1.918,1.918,0,0,1,.847-1.617A3.561,3.561,0,0,1,15.409-7a3.122,3.122,0,0,1,2.076.641A2.229,2.229,0,0,1,18.265-4.6v3.041a3.114,3.114,0,0,0,.292,1.447V0ZM15.079-1.4a1.193,1.193,0,0,0,.663-.171,1.074,1.074,0,0,0,.378-.387v-1.1H15.5q-1.117,0-1.117,1a.612.612,0,0,0,.2.473A.712.712,0,0,0,15.079-1.4Zm4.1-2.088a4.2,4.2,0,0,1,.7-2.571A2.319,2.319,0,0,1,21.852-7a1.972,1.972,0,0,1,1.549.724V-9.75h2.146V0H23.623l-.108-.736a2.026,2.026,0,0,1-1.676.863A2.315,2.315,0,0,1,19.9-.812,4.329,4.329,0,0,1,19.179-3.485Zm2.139.133q0,1.828,1.066,1.828a1.053,1.053,0,0,0,1.016-.6V-4.735a1.025,1.025,0,0,0-1-.609q-.99,0-1.073,1.6Z" transform="translate(-8100.766 -8643)" fill="#fff"/>
    <path id="Trazado_189534" data-name="Trazado 189534" d="M-28.872-3.136V0H-31.1V-9.242h3.688a4.3,4.3,0,0,1,1.876.39,2.942,2.942,0,0,1,1.263,1.111,3.034,3.034,0,0,1,.448,1.635,2.674,2.674,0,0,1-.968,2.161,4.017,4.017,0,0,1-2.656.809Zm0-1.72h1.46a1.377,1.377,0,0,0,.987-.324,1.2,1.2,0,0,0,.34-.914,1.487,1.487,0,0,0-.349-1.035,1.236,1.236,0,0,0-.952-.394h-1.485ZM-23.09-3.5a4.054,4.054,0,0,1,.4-1.831,2.86,2.86,0,0,1,1.149-1.235A3.46,3.46,0,0,1-19.782-7a3.158,3.158,0,0,1,2.431.955,3.666,3.666,0,0,1,.889,2.6v.076a3.557,3.557,0,0,1-.892,2.549A3.166,3.166,0,0,1-19.77.127a3.2,3.2,0,0,1-2.355-.879,3.439,3.439,0,0,1-.958-2.384Zm2.139.133a2.556,2.556,0,0,0,.3,1.4.994.994,0,0,0,.882.444q1.143,0,1.168-1.758V-3.5q0-1.847-1.181-1.847-1.073,0-1.162,1.593Zm9.585-1.568-.7-.051a1.266,1.266,0,0,0-1.295.635V0H-15.5V-6.868H-13.5l.07.882A1.656,1.656,0,0,1-11.924-7a2.086,2.086,0,0,1,.6.076Zm3.555,3.409a.951.951,0,0,0,.7-.244.9.9,0,0,0,.241-.682h2.006A2.375,2.375,0,0,1-5.675-.6,3.01,3.01,0,0,1-7.76.127a3.048,3.048,0,0,1-2.361-.939,3.7,3.7,0,0,1-.863-2.6V-3.5A4.183,4.183,0,0,1-10.6-5.342,2.8,2.8,0,0,1-9.493-6.567,3.3,3.3,0,0,1-7.779-7a2.972,2.972,0,0,1,2.126.743A2.634,2.634,0,0,1-4.865-4.24H-6.871a1.174,1.174,0,0,0-.26-.819.9.9,0,0,0-.7-.286q-.832,0-.971,1.06a7.48,7.48,0,0,0-.044.927A2.938,2.938,0,0,0-8.6-1.923.857.857,0,0,0-7.811-1.523ZM-.638.127A3.531,3.531,0,0,1-3.2-.816a3.255,3.255,0,0,1-.978-2.453v-.178a4.218,4.218,0,0,1,.39-1.86A2.857,2.857,0,0,1-2.644-6.554,3.44,3.44,0,0,1-.866-7a2.973,2.973,0,0,1,2.285.9,3.53,3.53,0,0,1,.838,2.5v.832H-2a1.542,1.542,0,0,0,.5.908,1.492,1.492,0,0,0,1,.33,1.923,1.923,0,0,0,1.587-.711l.978,1.155A2.733,2.733,0,0,1,.939-.2,3.829,3.829,0,0,1-.638.127ZM-.879-5.345Q-1.819-5.345-2-4.1H.162v-.165a1.06,1.06,0,0,0-.26-.8A1.036,1.036,0,0,0-.879-5.345Zm5.96-1.523.07.806A2.329,2.329,0,0,1,7.113-7a1.96,1.96,0,0,1,1.6.641,3.052,3.052,0,0,1,.549,1.93V0H7.119V-4.335A1.159,1.159,0,0,0,6.909-5.1a.969.969,0,0,0-.762-.244,1.02,1.02,0,0,0-.933.5V0H3.075V-6.868ZM12.94-8.576v1.708h1.13v1.485H12.94v3.142a.8.8,0,0,0,.14.54.749.749,0,0,0,.552.152,3.138,3.138,0,0,0,.533-.038v1.53a3.948,3.948,0,0,1-1.206.184,2.241,2.241,0,0,1-1.631-.521A2.133,2.133,0,0,1,10.8-1.974V-5.383H9.925V-6.868H10.8V-8.576ZM18.78,0a2.415,2.415,0,0,1-.2-.616,1.989,1.989,0,0,1-1.65.743,2.437,2.437,0,0,1-1.65-.587A1.869,1.869,0,0,1,14.6-1.936a1.921,1.921,0,0,1,.825-1.688,4.2,4.2,0,0,1,2.4-.571h.66v-.364q0-.95-.819-.95a.669.669,0,0,0-.762.753H14.761a1.918,1.918,0,0,1,.847-1.617A3.561,3.561,0,0,1,17.77-7a3.122,3.122,0,0,1,2.076.641A2.229,2.229,0,0,1,20.627-4.6v3.041a3.114,3.114,0,0,0,.292,1.447V0ZM17.44-1.4a1.193,1.193,0,0,0,.663-.171,1.074,1.074,0,0,0,.378-.387v-1.1h-.622q-1.117,0-1.117,1a.612.612,0,0,0,.2.473A.712.712,0,0,0,17.44-1.4Zm6.671-5.472v7.1a2.493,2.493,0,0,1-.7,1.879,2.682,2.682,0,0,1-1.93.66,4.556,4.556,0,0,1-1.009-.108V1.047a4.093,4.093,0,0,0,.6.057.783.783,0,0,0,.889-.882v-7.09Zm-2.3-1.777a.963.963,0,0,1,.33-.754,1.241,1.241,0,0,1,.857-.294,1.241,1.241,0,0,1,.857.294.963.963,0,0,1,.33.754.963.963,0,0,1-.33.754,1.241,1.241,0,0,1-.857.294,1.241,1.241,0,0,1-.857-.294A.963.963,0,0,1,21.807-8.646ZM28.644.127a3.531,3.531,0,0,1-2.558-.943,3.255,3.255,0,0,1-.978-2.453v-.178a4.218,4.218,0,0,1,.39-1.86,2.857,2.857,0,0,1,1.139-1.247A3.44,3.44,0,0,1,28.415-7a2.973,2.973,0,0,1,2.285.9,3.53,3.53,0,0,1,.838,2.5v.832H27.285a1.542,1.542,0,0,0,.5.908,1.492,1.492,0,0,0,1,.33,1.923,1.923,0,0,0,1.587-.711l.978,1.155A2.733,2.733,0,0,1,30.221-.2,3.829,3.829,0,0,1,28.644.127ZM28.4-5.345q-.939,0-1.117,1.244h2.158v-.165a1.06,1.06,0,0,0-.26-.8A1.036,1.036,0,0,0,28.4-5.345Z" transform="translate(-7976.821 -8643)" fill="#fff"/>
  </g>
</svg>
