<svg xmlns="http://www.w3.org/2000/svg" xmlns:xlink="http://www.w3.org/1999/xlink" width="185" height="156" viewBox="0 0 185 156">
  <defs>
    <filter id="Rect치ngulo_40592" x="0" y="0" width="185" height="156" filterUnits="userSpaceOnUse">
      <feOffset dy="3" input="SourceAlpha"/>
      <feGaussianBlur stdDeviation="3" result="blur"/>
      <feFlood flood-opacity="0.161"/>
      <feComposite operator="in" in2="blur"/>
      <feComposite in="SourceGraphic"/>
    </filter>
  </defs>
  <g id="Grupo_133223" data-name="Grupo 133223" transform="translate(8546 8436)">
    <g id="Grupo_133221" data-name="Grupo 133221" transform="translate(-9010 -10738)">
      <g transform="matrix(1, 0, 0, 1, 464, 2302)" filter="url(#Rect치ngulo_40592)">
        <rect id="Rect치ngulo_40592-2" data-name="Rect치ngulo 40592" width="167" height="138" rx="20" transform="translate(9 6)" fill="#e8e1f6"/>
      </g>
    </g>
    <path id="Trazado_189535" data-name="Trazado 189535" d="M15.254,11.141V15H12.512V3.625h4.539a5.287,5.287,0,0,1,2.309.48,3.621,3.621,0,0,1,1.555,1.367,3.734,3.734,0,0,1,.551,2.012,3.291,3.291,0,0,1-1.191,2.66,4.943,4.943,0,0,1-3.27,1Zm0-2.117h1.8a1.7,1.7,0,0,0,1.215-.4A1.48,1.48,0,0,0,18.684,7.5a1.83,1.83,0,0,0-.43-1.273,1.522,1.522,0,0,0-1.172-.484H15.254ZM22.371,10.7a4.989,4.989,0,0,1,.492-2.254,3.52,3.52,0,0,1,1.414-1.52,4.259,4.259,0,0,1,2.164-.531,3.887,3.887,0,0,1,2.992,1.176,4.512,4.512,0,0,1,1.094,3.2v.094A4.378,4.378,0,0,1,29.43,14a3.9,3.9,0,0,1-2.973,1.16,3.942,3.942,0,0,1-2.9-1.082,4.232,4.232,0,0,1-1.18-2.934ZM25,10.859a3.145,3.145,0,0,0,.367,1.719,1.223,1.223,0,0,0,1.086.547q1.406,0,1.438-2.164V10.7q0-2.273-1.453-2.273-1.32,0-1.43,1.961Zm14.531-.016a5.152,5.152,0,0,1-.859,3.2,2.878,2.878,0,0,1-2.422,1.117,2.5,2.5,0,0,1-2.078-1.023L34.066,15H31.707V3H34.34V7.227a2.41,2.41,0,0,1,1.9-.836,2.879,2.879,0,0,1,2.438,1.133,5.179,5.179,0,0,1,.859,3.188Zm-2.641-.168a3.437,3.437,0,0,0-.324-1.735,1.093,1.093,0,0,0-1-.519A1.261,1.261,0,0,0,34.34,9.1v3.354a1.268,1.268,0,0,0,1.25.671,1.118,1.118,0,0,0,1.18-.9A6.5,6.5,0,0,0,36.895,10.676ZM43.473,15H40.832V3h2.641Zm6.383,0a2.973,2.973,0,0,1-.25-.758,2.448,2.448,0,0,1-2.031.914,3,3,0,0,1-2.031-.723,2.3,2.3,0,0,1-.836-1.816,2.364,2.364,0,0,1,1.016-2.078,5.174,5.174,0,0,1,2.953-.7h.813V9.388q0-1.17-1.008-1.17a.824.824,0,0,0-.937.926H44.91a2.36,2.36,0,0,1,1.043-1.99,4.383,4.383,0,0,1,2.66-.765,3.843,3.843,0,0,1,2.555.789,2.743,2.743,0,0,1,.961,2.164v3.742a3.832,3.832,0,0,0,.359,1.781V15Zm-1.648-1.719a1.469,1.469,0,0,0,.816-.211,1.322,1.322,0,0,0,.465-.477V11.242h-.766q-1.375,0-1.375,1.234a.754.754,0,0,0,.242.582A.876.876,0,0,0,48.207,13.281Zm8.953-.156a1.171,1.171,0,0,0,.859-.3,1.1,1.1,0,0,0,.3-.84h2.469a2.922,2.922,0,0,1-1,2.281,3.705,3.705,0,0,1-2.566.891A3.751,3.751,0,0,1,54.316,14a4.556,4.556,0,0,1-1.062-3.2v-.109a5.149,5.149,0,0,1,.473-2.262A3.441,3.441,0,0,1,55.09,6.918,4.065,4.065,0,0,1,57.2,6.391a3.658,3.658,0,0,1,2.617.914,3.242,3.242,0,0,1,.969,2.477H58.316A1.445,1.445,0,0,0,58,8.773a1.106,1.106,0,0,0-.859-.352q-1.023,0-1.2,1.3a9.206,9.206,0,0,0-.055,1.141,3.616,3.616,0,0,0,.3,1.766A1.055,1.055,0,0,0,57.16,13.125ZM64.676,15H62.035V6.547h2.641Zm-2.8-10.641a1.186,1.186,0,0,1,.406-.927,1.719,1.719,0,0,1,2.109,0,1.186,1.186,0,0,1,.406.927,1.186,1.186,0,0,1-.406.927,1.719,1.719,0,0,1-2.109,0A1.186,1.186,0,0,1,61.879,4.359ZM65.965,10.7a4.989,4.989,0,0,1,.492-2.254,3.52,3.52,0,0,1,1.414-1.52,4.259,4.259,0,0,1,2.164-.531,3.887,3.887,0,0,1,2.992,1.176,4.512,4.512,0,0,1,1.094,3.2v.094A4.378,4.378,0,0,1,73.023,14a3.9,3.9,0,0,1-2.973,1.16,3.942,3.942,0,0,1-2.9-1.082,4.232,4.232,0,0,1-1.18-2.934Zm2.633.164a3.145,3.145,0,0,0,.367,1.719,1.223,1.223,0,0,0,1.086.547q1.406,0,1.438-2.164V10.7q0-2.273-1.453-2.273-1.32,0-1.43,1.961ZM70.395,3h2.781L71,5.453l-2.148,0Zm7.3,3.547.086.992A2.867,2.867,0,0,1,80.2,6.391a2.412,2.412,0,0,1,1.973.789,3.757,3.757,0,0,1,.676,2.375V15H80.207V9.664a1.426,1.426,0,0,0-.258-.941,1.193,1.193,0,0,0-.937-.3,1.256,1.256,0,0,0-1.148.609V15H75.23V6.547ZM96.152,5.031,91.9,15H89.121l4.258-9.344H87.957V3.625h8.2Zm9.258,5.32a5.431,5.431,0,0,1-1.035,3.555A4.045,4.045,0,0,1,98.52,13.9a5.423,5.423,0,0,1-1.039-3.547V8.273a5.431,5.431,0,0,1,1.035-3.555,4.045,4.045,0,0,1,5.855.008,5.436,5.436,0,0,1,1.039,3.555Zm-2.633-2.414a4.057,4.057,0,0,0-.32-1.832,1.071,1.071,0,0,0-1.016-.605,1.045,1.045,0,0,0-.988.563,3.822,3.822,0,0,0-.332,1.7v2.906a4.088,4.088,0,0,0,.32,1.863,1.075,1.075,0,0,0,1.016.59,1.06,1.06,0,0,0,.992-.574,3.9,3.9,0,0,0,.328-1.8Zm11.9,2.414a5.431,5.431,0,0,1-1.035,3.555,4.045,4.045,0,0,1-5.855-.008,5.423,5.423,0,0,1-1.039-3.547V8.273a5.431,5.431,0,0,1,1.035-3.555,4.045,4.045,0,0,1,5.855.008,5.436,5.436,0,0,1,1.039,3.555Zm-2.633-2.414a4.057,4.057,0,0,0-.32-1.832,1.071,1.071,0,0,0-1.016-.605,1.045,1.045,0,0,0-.988.563,3.822,3.822,0,0,0-.332,1.7v2.906a4.088,4.088,0,0,0,.32,1.863,1.075,1.075,0,0,0,1.016.59,1.06,1.06,0,0,0,.992-.574,3.9,3.9,0,0,0,.328-1.8Z" transform="translate(-8517 -8330)" fill="#12263f"/>
    <g id="Grupo_133222" data-name="Grupo 133222" transform="translate(759.999 168)">
      <g id="Grupo_128171" data-name="Grupo 128171" transform="translate(-9246.999 -8578)">
        <path id="Trazado_188029" data-name="Trazado 188029" d="M640.623,253.937a5.74,5.74,0,0,1-1.007-5.837,5.545,5.545,0,0,1,3.758-3.487.959.959,0,0,0,.759-.8,7.051,7.051,0,0,1,4.669-5.02,5.854,5.854,0,0,1-1.117-5.55,5.718,5.718,0,0,1,2.379-3.128,5.827,5.827,0,0,1,7.308.757c2.125,2.117,2.267,4.946.323,7.939a7.308,7.308,0,0,1,3.724,2.8,7.486,7.486,0,0,1,3.76-2.8,5.868,5.868,0,0,1-1.152-5.5,5.723,5.723,0,0,1,2.338-3.156,5.826,5.826,0,0,1,7.318.666c2.169,2.11,2.328,4.973.374,7.991a7.305,7.305,0,0,1,3.724,2.8,7.484,7.484,0,0,1,3.76-2.8,5.868,5.868,0,0,1-1.152-5.5,5.725,5.725,0,0,1,2.339-3.156,5.828,5.828,0,0,1,7.318.669c2.166,2.108,2.325,4.966.41,7.932.141.077.276.164.42.225a7.1,7.1,0,0,1,4.273,4.936.911.911,0,0,0,.475.585,5.82,5.82,0,0,1,3.125,9.215,1.287,1.287,0,0,0-.1.231c.154.076.3.151.447.218a6.926,6.926,0,0,1,4.407,6.618c.029,1.434.011,2.867,0,4.3-.006.993-.427,1.408-1.434,1.41-3.431.006-6.863,0-10.233,0l-1.32,2.654c.073.035.175.088.281.133a7.11,7.11,0,0,1,4.371,5.025.9.9,0,0,0,.514.55,5.812,5.812,0,0,1,3.076,9.183,1.729,1.729,0,0,0-.12.238c.175.085.34.169.51.246a6.876,6.876,0,0,1,4.348,6.507c.049,2.162.011,4.325.01,6.488,0,1.292-.353,1.644-1.642,1.644H637.377c-1.3,0-1.658-.347-1.659-1.625,0-1.872.077-3.746-.017-5.613a7.33,7.33,0,0,1,4.887-7.638c-.115-.183-.217-.358-.332-.526a5.771,5.771,0,0,1,3.067-8.8,1.02,1.02,0,0,0,.822-.83,6.808,6.808,0,0,1,4.129-4.777c.151-.066.3-.134.44-.2l-1.336-2.657h-9.03c-.487,0-.974.02-1.46-.007a1.079,1.079,0,0,1-1.149-1.085,47.389,47.389,0,0,1,.055-5.536,6.71,6.71,0,0,1,4.312-5.691C640.255,254.109,640.4,254.038,640.623,253.937ZM701.114,296.8a1.98,1.98,0,0,0,.046-.267c0-1.845.021-3.69,0-5.536a4.652,4.652,0,0,0-4.694-4.663c-1.532-.017-3.065-.014-4.6,0a4.466,4.466,0,0,0-4.619,3.917c-.211,2.155-.045,4.346-.045,6.551Zm-30.323-.021h14c0-2.086.071-4.126-.02-6.159a4.581,4.581,0,0,0-4.463-4.278q-2.516-.061-5.034,0a4.585,4.585,0,0,0-4.463,4.278C670.72,292.65,670.792,294.689,670.792,296.777Zm-16.359,0h14.008c0-1.8,0-3.543,0-5.289,0-.291.007-.584-.015-.874a4.659,4.659,0,0,0-4.484-4.273q-2.516-.061-5.034,0a4.566,4.566,0,0,0-4.451,4.21C654.346,292.6,654.433,294.67,654.433,296.775Zm-16.36,0h14.007v-.771c0-1.8.062-3.6-.031-5.389a4.6,4.6,0,0,0-4.539-4.281q-2.444-.044-4.889,0a4.576,4.576,0,0,0-4.526,4.211C637.983,292.6,638.072,294.667,638.072,296.777Zm63.083-32.644c0-1.317.05-2.556-.011-3.791a4.615,4.615,0,0,0-4.423-4.332q-2.589-.076-5.184,0a4.482,4.482,0,0,0-4.21,3.629,5.984,5.984,0,0,1,4.39,4.493Zm-62.993,0h9.345a6.016,6.016,0,0,1,4.41-4.511A4.58,4.58,0,0,0,647.5,256c-1.606-.027-3.213-.022-4.819,0a4.464,4.464,0,0,0-4.486,3.732A31.538,31.538,0,0,0,638.162,264.134Zm21.945-19.67a4.6,4.6,0,0,0-4.424-3.63c-1.628-.027-3.258-.015-4.887,0a4.7,4.7,0,0,0-1.149.168,4.33,4.33,0,0,0-3.191,3.482,5.984,5.984,0,0,1,4.362,4.476h4.872A6,6,0,0,1,660.107,244.464Zm11.939,4.508a6.036,6.036,0,0,1,4.432-4.525,4.607,4.607,0,0,0-4.242-3.6q-2.625-.082-5.253,0a4.472,4.472,0,0,0-4.2,3.629,5.989,5.989,0,0,1,4.388,4.5Zm7.053-4.512a6.013,6.013,0,0,1,4.438,4.512h4.871a6.036,6.036,0,0,1,4.432-4.525,4.64,4.64,0,0,0-4.606-3.619q-2.262-.015-4.523,0A4.65,4.65,0,0,0,679.1,244.46ZM692.821,274.8a4.536,4.536,0,0,0-4.185-3.618c-1.772-.064-3.552-.064-5.324,0a4.394,4.394,0,0,0-4.14,3.64,5.965,5.965,0,0,1,4.371,4.477h4.868A6.005,6.005,0,0,1,692.821,274.8Zm-16.358,0a4.546,4.546,0,0,0-4.193-3.618c-1.772-.064-3.552-.066-5.324,0a4.388,4.388,0,0,0-4.133,3.636,5.985,5.985,0,0,1,4.367,4.48h4.869A6,6,0,0,1,676.463,274.8Zm-16.348-.007a4.608,4.608,0,0,0-4.3-3.618c-1.726-.046-3.455-.05-5.18,0a4.5,4.5,0,0,0-4.224,3.629,5.97,5.97,0,0,1,4.4,4.483h4.882A6.011,6.011,0,0,1,660.115,274.794Zm10.821-15.156a6,6,0,0,1,4.424,4.5h4.871a6.008,6.008,0,0,1,4.406-4.508,4.546,4.546,0,0,0-4.25-3.616q-2.587-.076-5.18,0A4.567,4.567,0,0,0,670.936,259.638Zm-2.675,0a4.5,4.5,0,0,0-4.22-3.622c-1.749-.053-3.5-.057-5.251,0a4.442,4.442,0,0,0-4.173,3.632A5.984,5.984,0,0,1,659,264.137h4.875A5.979,5.979,0,0,1,668.261,259.633Zm1.33,2.2a3.5,3.5,0,1,0,3.522,3.514A3.516,3.516,0,0,0,669.591,261.83Zm-16.362,6.994a3.5,3.5,0,1,0-3.485-3.553A3.518,3.518,0,0,0,653.229,268.824Zm32.753-6.994a3.5,3.5,0,1,0,3.493,3.543A3.515,3.515,0,0,0,685.982,261.83Zm8.176-15.168a3.5,3.5,0,1,0,3.5,3.539A3.513,3.513,0,0,0,694.158,246.662Zm-16.373,7a3.5,3.5,0,1,0-3.5-3.541A3.521,3.521,0,0,0,677.785,253.658Zm-12.852-3.532a3.5,3.5,0,1,0-3.507,3.532A3.516,3.516,0,0,0,664.933,250.126ZM648.57,280.59a3.5,3.5,0,1,0-3.564,3.4A3.518,3.518,0,0,0,648.57,280.59Zm16.363-.126a3.5,3.5,0,1,0-3.511,3.528A3.516,3.516,0,0,0,664.933,280.464Zm16.362.007a3.5,3.5,0,1,0-3.518,3.521A3.515,3.515,0,0,0,681.295,280.471Zm16.362.034a3.5,3.5,0,1,0-3.479,3.487A3.517,3.517,0,0,0,697.656,280.5Zm-49.085-30.362a3.5,3.5,0,1,0-3.524,3.515A3.516,3.516,0,0,0,648.571,250.143Zm37.4-11.652a3.5,3.5,0,1,0-3.507-3.531A3.518,3.518,0,0,0,685.975,238.491Zm-16.345,0a3.5,3.5,0,1,0-3.524-3.514A3.518,3.518,0,0,0,669.63,238.491Zm-12.879-3.511a3.5,3.5,0,1,0-3.527,3.511A3.513,3.513,0,0,0,656.751,234.979Zm15.183,16.37h-4.647l-1.338,2.663a7.312,7.312,0,0,1,3.671,2.768A7.262,7.262,0,0,1,673.264,254Zm-22.343,2.664a7.312,7.312,0,0,1,3.664,2.764A7.262,7.262,0,0,1,656.9,254l-1.322-2.65h-4.662Zm38.7-2.664h-4.645L682.317,254a7.462,7.462,0,0,1,3.665,2.779,7.292,7.292,0,0,1,3.643-2.78Zm-26.863,20.6a7.232,7.232,0,0,1,3.653-2.782l-1.322-2.638h-4.668l-1.32,2.642A7.247,7.247,0,0,1,661.431,271.953Zm12.706-2.782a7.289,7.289,0,0,1,3.654,2.785,7.286,7.286,0,0,1,3.654-2.789l-1.324-2.636h-4.665Zm-20.885,17.951a7.437,7.437,0,0,1,3.646-2.8l-1.323-2.629h-4.662l-1.316,2.649A7.341,7.341,0,0,1,653.253,287.122Zm16.363-.006a7.254,7.254,0,0,1,3.648-2.782l-1.331-2.653h-4.648l-1.33,2.66A7.323,7.323,0,0,1,669.616,287.117Zm12.7-2.776a7.385,7.385,0,0,1,3.658,2.773,7.267,7.267,0,0,1,3.648-2.776l-1.322-2.65h-4.662Z" transform="translate(-635.684 -229.161)" fill="#3e2072"/>
        <path id="Trazado_188030" data-name="Trazado 188030" d="M686.412,280.467H672.5c0-2.2-.167-4.4.045-6.551A4.466,4.466,0,0,1,677.165,270c1.533-.013,3.066-.015,4.6,0a4.652,4.652,0,0,1,4.694,4.663c.022,1.845,0,3.69,0,5.536A1.98,1.98,0,0,1,686.412,280.467Zm-5.849-5.831v-2.269h-2.237v2.269Z" transform="translate(-620.982 -212.83)" fill="#f7f4ff"/>
        <path id="Trazado_188031" data-name="Trazado 188031" d="M660.769,280.449c0-2.087-.071-4.127.018-6.159a4.585,4.585,0,0,1,4.463-4.278q2.516-.061,5.034,0a4.581,4.581,0,0,1,4.463,4.278c.091,2.033.02,4.073.02,6.159Zm5.845-5.83h2.269v-2.226h-2.269Z" transform="translate(-625.661 -212.833)" fill="#f7f4ff"/>
        <path id="Trazado_188032" data-name="Trazado 188032" d="M649.085,280.447c0-2.106-.087-4.171.024-6.226a4.566,4.566,0,0,1,4.451-4.21q2.516-.061,5.034,0a4.659,4.659,0,0,1,4.484,4.273c.022.29.015.582.015.874,0,1.746,0,3.492,0,5.289Zm5.844-5.842H657.2v-2.218h-2.272Z" transform="translate(-630.337 -212.833)" fill="#f7f4ff"/>
        <path id="Trazado_188033" data-name="Trazado 188033" d="M637.4,280.448c0-2.11-.09-4.175.022-6.23a4.576,4.576,0,0,1,4.526-4.211q2.444-.044,4.889,0a4.6,4.6,0,0,1,4.539,4.281c.092,1.792.027,3.592.031,5.389v.771Zm5.877-8.082v2.243h2.248v-2.243Z" transform="translate(-635.011 -212.832)" fill="#f7f4ff"/>
        <path id="Trazado_188034" data-name="Trazado 188034" d="M686.4,256.473h-9.437a5.984,5.984,0,0,0-4.39-4.493,4.482,4.482,0,0,1,4.21-3.629q2.591-.08,5.184,0a4.615,4.615,0,0,1,4.423,4.332C686.45,253.916,686.4,255.155,686.4,256.473Z" transform="translate(-620.929 -221.501)" fill="#f7f4ff"/>
        <path id="Trazado_188035" data-name="Trazado 188035" d="M637.472,256.471a31.538,31.538,0,0,1,.038-4.4A4.464,4.464,0,0,1,642,248.336c1.606-.021,3.213-.025,4.819,0a4.58,4.58,0,0,1,4.413,3.623,6.016,6.016,0,0,0-4.41,4.511Z" transform="translate(-634.994 -221.498)" fill="#f7f4ff"/>
        <path id="Trazado_188036" data-name="Trazado 188036" d="M657.029,241.134a6,6,0,0,0-4.417,4.5H647.74a5.984,5.984,0,0,0-4.362-4.476,4.33,4.33,0,0,1,3.191-3.482,4.7,4.7,0,0,1,1.149-.168c1.63-.018,3.259-.029,4.887,0A4.6,4.6,0,0,1,657.029,241.134Z" transform="translate(-632.607 -225.83)" fill="#f7f4ff"/>
        <path id="Trazado_188037" data-name="Trazado 188037" d="M664.3,245.646h-4.871a5.989,5.989,0,0,0-4.388-4.5,4.472,4.472,0,0,1,4.2-3.629q2.625-.084,5.253,0a4.607,4.607,0,0,1,4.242,3.6A6.036,6.036,0,0,0,664.3,245.646Z" transform="translate(-627.94 -225.835)" fill="#f7f4ff"/>
        <path id="Trazado_188038" data-name="Trazado 188038" d="M666.695,241.129a4.65,4.65,0,0,1,4.612-3.632q2.262-.015,4.523,0a4.64,4.64,0,0,1,4.606,3.619A6.036,6.036,0,0,0,676,245.641h-4.871A6.013,6.013,0,0,0,666.695,241.129Z" transform="translate(-623.28 -225.83)" fill="#f7f4ff"/>
        <path id="Trazado_188039" data-name="Trazado 188039" d="M680.4,262.808a6.005,6.005,0,0,0-4.41,4.5h-4.868a5.965,5.965,0,0,0-4.371-4.477,4.394,4.394,0,0,1,4.14-3.64c1.772-.064,3.552-.064,5.324,0A4.536,4.536,0,0,1,680.4,262.808Z" transform="translate(-623.259 -217.168)" fill="#f7f4ff"/>
        <path id="Trazado_188040" data-name="Trazado 188040" d="M668.712,262.809a6,6,0,0,0-4.414,4.5h-4.869a5.984,5.984,0,0,0-4.367-4.48,4.388,4.388,0,0,1,4.133-3.636c1.772-.066,3.552-.064,5.324,0A4.546,4.546,0,0,1,668.712,262.809Z" transform="translate(-627.933 -217.169)" fill="#f7f4ff"/>
        <path id="Trazado_188041" data-name="Trazado 188041" d="M657.05,262.8a6.011,6.011,0,0,0-4.424,4.5h-4.882a5.97,5.97,0,0,0-4.4-4.483,4.5,4.5,0,0,1,4.224-3.629c1.725-.053,3.454-.049,5.18,0A4.608,4.608,0,0,1,657.05,262.8Z" transform="translate(-632.619 -217.167)" fill="#f7f4ff"/>
        <path id="Trazado_188042" data-name="Trazado 188042" d="M660.864,251.977a4.566,4.566,0,0,1,4.27-3.627q2.589-.071,5.18,0a4.546,4.546,0,0,1,4.25,3.616,6.007,6.007,0,0,0-4.406,4.508h-4.871A6,6,0,0,0,660.864,251.977Z" transform="translate(-625.612 -221.5)" fill="#f7f4ff"/>
        <path id="Trazado_188043" data-name="Trazado 188043" d="M662.851,251.974a5.979,5.979,0,0,0-4.389,4.5h-4.875a5.984,5.984,0,0,0-4.381-4.491,4.442,4.442,0,0,1,4.173-3.632c1.749-.06,3.5-.056,5.251,0A4.5,4.5,0,0,1,662.851,251.974Z" transform="translate(-630.275 -221.501)" fill="#f7f4ff"/>
        <path id="Trazado_188044" data-name="Trazado 188044" d="M660.9,252.5a3.5,3.5,0,1,1-3.485,3.479A3.513,3.513,0,0,1,660.9,252.5Z" transform="translate(-626.992 -219.827)" fill="#f7f4ff"/>
        <path id="Trazado_188045" data-name="Trazado 188045" d="M649.212,259.49a3.5,3.5,0,1,1,3.522-3.444A3.517,3.517,0,0,1,649.212,259.49Z" transform="translate(-631.667 -219.827)" fill="#f7f4ff"/>
        <path id="Trazado_188046" data-name="Trazado 188046" d="M672.615,252.5a3.5,3.5,0,1,1-3.514,3.45A3.513,3.513,0,0,1,672.615,252.5Z" transform="translate(-622.317 -219.827)" fill="#f7f4ff"/>
        <path id="Trazado_188047" data-name="Trazado 188047" d="M678.453,241.662a3.5,3.5,0,1,1-3.508,3.455A3.516,3.516,0,0,1,678.453,241.662Z" transform="translate(-619.98 -224.161)" fill="#f7f4ff"/>
        <path id="Trazado_188048" data-name="Trazado 188048" d="M666.755,248.658a3.5,3.5,0,1,1,3.51-3.457A3.517,3.517,0,0,1,666.755,248.658Z" transform="translate(-624.654 -224.161)" fill="#f7f4ff"/>
        <path id="Trazado_188049" data-name="Trazado 188049" d="M658.578,245.126a3.5,3.5,0,1,1-3.5-3.464A3.52,3.52,0,0,1,658.578,245.126Z" transform="translate(-629.329 -224.161)" fill="#f7f4ff"/>
        <path id="Trazado_188050" data-name="Trazado 188050" d="M646.89,266.923a3.5,3.5,0,1,1-3.368-3.592A3.521,3.521,0,0,1,646.89,266.923Z" transform="translate(-634.004 -215.494)" fill="#f7f4ff"/>
        <path id="Trazado_188051" data-name="Trazado 188051" d="M658.578,266.8a3.5,3.5,0,1,1-3.5-3.468A3.519,3.519,0,0,1,658.578,266.8Z" transform="translate(-629.329 -215.494)" fill="#f7f4ff"/>
        <path id="Trazado_188052" data-name="Trazado 188052" d="M670.265,266.8a3.5,3.5,0,1,1-3.49-3.475A3.518,3.518,0,0,1,670.265,266.8Z" transform="translate(-624.655 -215.494)" fill="#f7f4ff"/>
        <path id="Trazado_188053" data-name="Trazado 188053" d="M681.952,266.837a3.5,3.5,0,1,1-3.457-3.508A3.519,3.519,0,0,1,681.952,266.837Z" transform="translate(-619.98 -215.494)" fill="#f7f4ff"/>
        <path id="Trazado_188054" data-name="Trazado 188054" d="M646.891,245.142a3.5,3.5,0,1,1-3.484-3.48A3.519,3.519,0,0,1,646.891,245.142Z" transform="translate(-634.004 -224.161)" fill="#f7f4ff"/>
        <path id="Trazado_188055" data-name="Trazado 188055" d="M672.608,237.823a3.5,3.5,0,1,1,3.5-3.465A3.516,3.516,0,0,1,672.608,237.823Z" transform="translate(-622.317 -228.494)" fill="#f7f4ff"/>
        <path id="Trazado_188056" data-name="Trazado 188056" d="M660.938,237.823a3.5,3.5,0,1,1,3.483-3.482A3.516,3.516,0,0,1,660.938,237.823Z" transform="translate(-626.992 -228.494)" fill="#f7f4ff"/>
        <path id="Trazado_188057" data-name="Trazado 188057" d="M652.734,234.312a3.5,3.5,0,1,1-3.48-3.483A3.517,3.517,0,0,1,652.734,234.312Z" transform="translate(-631.667 -228.494)" fill="#f7f4ff"/>
        <path id="Trazado_188058" data-name="Trazado 188058" d="M663.287,245.01l1.33,2.652a7.262,7.262,0,0,0-3.644,2.779,7.311,7.311,0,0,0-3.671-2.768l1.338-2.663Z" transform="translate(-627.037 -222.821)" fill="#f7f4ff"/>
        <path id="Trazado_188059" data-name="Trazado 188059" d="M645.618,247.673l1.327-2.66h4.662l1.322,2.65a7.262,7.262,0,0,0-3.647,2.773A7.312,7.312,0,0,0,645.618,247.673Z" transform="translate(-631.711 -222.82)" fill="#f7f4ff"/>
        <path id="Trazado_188060" data-name="Trazado 188060" d="M674.971,245.01l1.33,2.65a7.292,7.292,0,0,0-3.643,2.78,7.462,7.462,0,0,0-3.665-2.779l1.333-2.652Z" transform="translate(-622.36 -222.821)" fill="#f7f4ff"/>
        <path id="Trazado_188061" data-name="Trazado 188061" d="M655.12,261.275a7.247,7.247,0,0,0-3.657-2.778l1.32-2.642h4.668l1.322,2.638A7.232,7.232,0,0,0,655.12,261.275Z" transform="translate(-629.372 -218.483)" fill="#f7f4ff"/>
        <path id="Trazado_188062" data-name="Trazado 188062" d="M663.151,258.494l1.319-2.64h4.665l1.324,2.636a7.287,7.287,0,0,0-3.654,2.789A7.289,7.289,0,0,0,663.151,258.494Z" transform="translate(-624.697 -218.484)" fill="#f7f4ff"/>
        <path id="Trazado_188063" data-name="Trazado 188063" d="M649.277,272.113a7.341,7.341,0,0,0-3.655-2.78l1.316-2.649H651.6l1.323,2.629A7.436,7.436,0,0,0,649.277,272.113Z" transform="translate(-631.709 -214.152)" fill="#f7f4ff"/>
        <path id="Trazado_188064" data-name="Trazado 188064" d="M660.967,272.111a7.323,7.323,0,0,0-3.661-2.775l1.33-2.66h4.648l1.331,2.653A7.254,7.254,0,0,0,660.967,272.111Z" transform="translate(-627.035 -214.155)" fill="#f7f4ff"/>
        <path id="Trazado_188065" data-name="Trazado 188065" d="M668.995,269.333l1.323-2.653h4.662l1.322,2.65a7.267,7.267,0,0,0-3.648,2.776A7.385,7.385,0,0,0,668.995,269.333Z" transform="translate(-622.36 -214.154)" fill="#f7f4ff"/>
      </g>
    </g>
  </g>
</svg>
