<svg xmlns="http://www.w3.org/2000/svg" width="54.585" height="50" viewBox="0 0 54.585 50">
  <g id="Grupo_128124" data-name="Grupo 128124" transform="translate(-500.951 -298.598)" opacity="0.5">
    <path id="Trazado_187976" data-name="Trazado 187976" d="M555.536,323.4a1.155,1.155,0,0,1-1.066.549c-4.05-.015-8.1-.008-12.152-.009a1.606,1.606,0,0,1-.423-.027.77.77,0,0,1-.618-.823.752.752,0,0,1,.688-.759,3.625,3.625,0,0,1,.532-.016h11.361c.018-.195.041-.333.042-.47,0-1.3.016-2.594,0-3.891a3.048,3.048,0,0,0-3.208-3.168c-.923-.006-1.847,0-2.771,0-.713-.006-1-.291-1-1.009-.008-.746-.037-1.494.015-2.237a1.712,1.712,0,0,1,.36-.891c.441-.555.944-1.062,1.426-1.584a2.825,2.825,0,0,0,.787-1.979c0-1.226.025-2.452,0-3.677a3.073,3.073,0,0,0-3.236-3.146c-.693,0-1.386-.01-2.079,0a3.047,3.047,0,0,0-3.055,2.993c-.032,1.313-.01,2.629-.006,3.943a2.692,2.692,0,0,0,.748,1.831c.488.541,1.005,1.057,1.463,1.622a1.58,1.58,0,0,1,.348.841c.048.779.024,1.562.014,2.344a.832.832,0,0,1-.952.946c-.995.01-1.99-.013-2.984.007a2.984,2.984,0,0,0-2.961,2.5c.3.206.619.4.9.631a5.011,5.011,0,0,1,1.929,3.932c.033,1.954.013,3.909.008,5.863,0,.706-.3,1.012-1.007,1.013q-10.419,0-20.839,0c-.681,0-.972-.295-.974-.978q-.009-2.877,0-5.756a5.075,5.075,0,0,1,2.593-4.539c.089-.055.18-.107.262-.156a2.96,2.96,0,0,0-2.945-2.506c-.977-.02-1.954,0-2.931-.006-.721-.005-1-.286-1.009-1-.007-.764-.033-1.53.015-2.291a1.591,1.591,0,0,1,.346-.842c.445-.552.948-1.058,1.428-1.581a2.87,2.87,0,0,0,.793-2.031c-.009-1.208.011-2.416-.006-3.624a3.068,3.068,0,0,0-3.168-3.157c-.711-.006-1.421-.009-2.132,0a3.021,3.021,0,0,0-3.056,2.875c-.063,1.383-.026,2.771-.011,4.156a2.586,2.586,0,0,0,.735,1.726c.488.541,1.007,1.057,1.46,1.624a1.712,1.712,0,0,1,.363.891c.052.743.023,1.492.015,2.238-.007.718-.29,1.005-1,1.011-.959.007-1.919-.01-2.878.005a3,3,0,0,0-3.088,2.951c-.059,1.437-.015,2.878-.014,4.317a1.579,1.579,0,0,0,.055.259H514.1a4.1,4.1,0,0,1,.532.012.747.747,0,0,1,.717.782.76.76,0,0,1-.684.816,2.535,2.535,0,0,1-.478.015q-6.022,0-12.046,0c-.958,0-1.183-.229-1.183-1.2,0-1.6-.007-3.2,0-4.8a4.66,4.66,0,0,1,4.776-4.789c.706-.005,1.413,0,2.141,0,.1-.831.184-1.587-.551-2.167a7.07,7.07,0,0,1-.76-.82,3.97,3.97,0,0,1-1.177-2.563,39.038,39.038,0,0,1,.065-5.052,4.491,4.491,0,0,1,4.176-3.9,18.022,18.022,0,0,1,3.508.054,4.561,4.561,0,0,1,3.853,4.293c.1,1.467.055,2.948.011,4.421a4.167,4.167,0,0,1-1.15,2.688,6.857,6.857,0,0,1-.795.86c-.733.575-.686,1.327-.575,2.182.514,0,1.024.031,1.53-.005a4.858,4.858,0,0,1,5.316,3.625h3.329c0-.6.015-1.142-.011-1.685a.776.776,0,0,0-.231-.4c-.457-.521-.926-1.031-1.389-1.546a4.255,4.255,0,0,1-1.221-2.718,44.461,44.461,0,0,1,.071-5.691,5.093,5.093,0,0,1,4.932-4.345c.589-.017.987.294,1.008.788.019.465-.323.8-.892.862a3.6,3.6,0,0,0-3.534,3.978c0,1.208.007,2.416,0,3.624a3.517,3.517,0,0,0,.991,2.561c.552.579,1.1,1.161,1.615,1.772a1.36,1.36,0,0,1,.309.754c.037.9.024,1.812.011,2.718a.835.835,0,0,1-.952.949c-1.084.008-2.167,0-3.251,0a3.54,3.54,0,0,0-3.659,3.67c-.007,1.492,0,2.985,0,4.477,0,.156.014.312.023.5h19.525v-.543c0-1.439.006-2.878,0-4.317a3.541,3.541,0,0,0-3.8-3.788c-1.03,0-2.061.005-3.091,0-.653,0-.937-.291-.943-.945-.008-.906-.028-1.813.013-2.718a1.436,1.436,0,0,1,.333-.79c.558-.667,1.169-1.289,1.744-1.942a3.146,3.146,0,0,0,.807-2.144c0-1.4.013-2.807,0-4.21a3.558,3.558,0,0,0-3.358-3.6c-.071-.006-.143-.008-.213-.018-.573-.078-.868-.4-.822-.91a.826.826,0,0,1,.939-.736,5.163,5.163,0,0,1,5.02,4.506,54.444,54.444,0,0,1,.013,5.642,4.158,4.158,0,0,1-1.168,2.573,12.576,12.576,0,0,1-1.08,1.177,1.7,1.7,0,0,0-.608,1.6,7.508,7.508,0,0,1,.006.886,19.668,19.668,0,0,1,2.078.014,1.467,1.467,0,0,0,1.783-1.057,4.248,4.248,0,0,1,4.034-2.57c.762-.027,1.526-.005,2.355-.005.013-.728.244-1.434-.44-2.015a6.091,6.091,0,0,1-2.139-5.571c.091-.951-.016-1.923.093-2.871a4.593,4.593,0,0,1,4.278-4.048,17.635,17.635,0,0,1,3.455.061,4.533,4.533,0,0,1,3.835,4.194,40.232,40.232,0,0,1,.008,4.633,4.074,4.074,0,0,1-1.145,2.58,6.994,6.994,0,0,1-.795.859c-.73.58-.653,1.337-.564,2.176.669,0,1.322,0,1.975,0a4.642,4.642,0,0,1,4.865,3.825.478.478,0,0,0,.084.128Z" fill="#727997"/>
    <path id="Trazado_187977" data-name="Trazado 187977" d="M518.575,333.469a3.549,3.549,0,0,1-.413.613c-.9.935-1.828,1.84-2.717,2.784a.938.938,0,0,0-.219.68c.167,1.32.373,2.635.577,3.951.059.385.014.773-.347.919a1.3,1.3,0,0,1-.937-.011c-1.159-.535-2.295-1.121-3.426-1.714a.929.929,0,0,0-.977-.011c-1.128.6-2.28,1.151-3.418,1.732a.878.878,0,0,1-1,.008.923.923,0,0,1-.315-1c.206-1.243.373-2.492.583-3.734a.932.932,0,0,0-.3-.935c-.882-.851-1.724-1.743-2.594-2.606a1.007,1.007,0,0,1-.4-1.076c.153-.471.57-.535.98-.6,1.243-.2,2.489-.39,3.727-.623a.954.954,0,0,0,.583-.423c.588-1.073,1.135-2.169,1.7-3.257.2-.4.372-.828.926-.834.583-.007.752.449.964.859.536,1.041,1.093,2.072,1.6,3.125a.926.926,0,0,0,.8.575c1.246.18,2.488.395,3.732.6A.936.936,0,0,1,518.575,333.469ZM513.96,340.3c-.157-1.053-.263-2.005-.451-2.941a1.344,1.344,0,0,1,.46-1.37c.691-.654,1.343-1.348,2.081-2.1-1.012-.17-1.911-.36-2.819-.46a1.5,1.5,0,0,1-1.331-.958c-.383-.842-.843-1.648-1.311-2.549-.488.946-.95,1.784-1.357,2.649a1.378,1.378,0,0,1-1.18.845c-.94.122-1.873.3-2.809.453l-.087.151c.65.622,1.274,1.275,1.959,1.855a1.6,1.6,0,0,1,.53,1.709c-.173.866-.279,1.745-.429,2.719.846-.423,1.632-.754,2.353-1.194a1.8,1.8,0,0,1,2.075.012C512.352,339.558,513.123,339.884,513.96,340.3Z" fill="#727997"/>
    <path id="Trazado_187978" data-name="Trazado 187978" d="M541.945,337.228a3.207,3.207,0,0,0-.292-.388c-.894-.914-1.789-1.828-2.7-2.729a.979.979,0,0,1-.369-1.037c.14-.449.531-.534.924-.6,1.243-.2,2.486-.413,3.732-.6a.8.8,0,0,0,.676-.491c.566-1.145,1.165-2.273,1.749-3.409.178-.346.385-.642.828-.65.468-.008.682.3.869.666.588,1.153,1.176,2.307,1.795,3.445a.89.89,0,0,0,.544.391c1.22.231,2.447.425,3.673.624.446.072.909.122,1.072.636s-.185.825-.5,1.144c-.865.869-1.736,1.732-2.575,2.625a.947.947,0,0,0-.224.679c.167,1.32.373,2.635.577,3.95.059.383.021.774-.341.923a1.3,1.3,0,0,1-.936-.006c-1.176-.542-2.33-1.131-3.474-1.737a.879.879,0,0,0-.928.011c-1.116.584-2.249,1.134-3.372,1.7a.918.918,0,0,1-1.048.038.958.958,0,0,1-.311-1.05C541.536,340.025,541.728,338.672,541.945,337.228Zm-.767-3.354-.088.168c.6.574,1.178,1.185,1.821,1.71a1.771,1.771,0,0,1,.633,1.975c-.187.815-.259,1.656-.4,2.582.957-.481,1.821-.889,2.66-1.345a1.338,1.338,0,0,1,1.4-.008c.854.46,1.732.876,2.677,1.348-.14-.91-.224-1.741-.405-2.549a1.755,1.755,0,0,1,.615-1.978,13.049,13.049,0,0,0,1.206-1.2c.2-.208.4-.424.645-.686-1.024-.168-1.947-.344-2.877-.463a1.37,1.37,0,0,1-1.19-.829c-.414-.876-.881-1.727-1.366-2.667-.49.945-.962,1.8-1.376,2.676a1.339,1.339,0,0,1-1.142.814C543.055,333.549,542.118,333.72,541.178,333.874Z" fill="#727997"/>
    <path id="Trazado_187979" data-name="Trazado 187979" d="M523.328,347.592c.187-1.236.37-2.572.6-3.9a.88.88,0,0,0-.289-.885c-.9-.882-1.775-1.791-2.665-2.683a.933.933,0,0,1-.365-.986c.14-.433.493-.552.907-.616,1.262-.2,2.523-.4,3.777-.638a1.023,1.023,0,0,0,.624-.448c.617-1.117,1.194-2.256,1.773-3.394.187-.368.405-.686.86-.686s.676.319.862.685c.58,1.138,1.154,2.279,1.77,3.4a1.016,1.016,0,0,0,.627.443c1.307.247,2.628.42,3.931.683a1.1,1.1,0,0,1,.714.59,1.01,1.01,0,0,1-.234.842c-.9.977-1.847,1.919-2.8,2.851a.818.818,0,0,0-.26.8c.208,1.26.4,2.523.6,3.784a.873.873,0,0,1-1.354.994c-1.139-.577-2.288-1.135-3.416-1.731a.84.84,0,0,0-.884.011q-1.746.909-3.52,1.763C523.882,348.81,523.309,348.441,523.328,347.592Zm10.658-7.512-.08-.166c-1.012-.171-2.021-.356-3.036-.507a1.06,1.06,0,0,1-.858-.621c-.406-.806-.824-1.608-1.242-2.409a4.068,4.068,0,0,0-.246-.359c-.434.837-.881,1.587-1.218,2.383a1.7,1.7,0,0,1-1.58,1.107c-.851.082-1.692.268-2.719.439.63.6,1.109,1.128,1.665,1.558a2.232,2.232,0,0,1,.852,2.65,16.242,16.242,0,0,0-.33,2.185,20.244,20.244,0,0,0,2.125-1.089,2.069,2.069,0,0,1,2.5.015c.632.4,1.333.684,2.106,1.072-.162-1.055-.289-1.983-.451-2.9a1.347,1.347,0,0,1,.43-1.384C532.62,341.418,533.294,340.739,533.986,340.08Z" fill="#727997"/>
  </g>
</svg>
