<svg xmlns="http://www.w3.org/2000/svg" xmlns:xlink="http://www.w3.org/1999/xlink" width="610" height="572.684" viewBox="0 0 610 572.684">
  <defs>
    <clipPath id="clip-path">
      <path id="Trazado_188709" data-name="Trazado 188709" d="M-536.938,635.659h-111.8v-133.5a55.9,55.9,0,0,1,55.9-55.9h0a55.9,55.9,0,0,1,55.9,55.9Z" transform="translate(648.734 -446.263)" fill="none"/>
    </clipPath>
  </defs>
  <g id="Grupo_131996" data-name="Grupo 131996" transform="translate(-569 -970)">
    <g id="Grupo_128830" data-name="Grupo 128830" transform="translate(569 970)">
      <g id="Grupo_128777" data-name="Grupo 128777" transform="translate(2.329 7.006)">
        <g id="Grupo_128776" data-name="Grupo 128776">
          <g id="Grupo_128771" data-name="Grupo 128771" opacity="0.41">
            <g id="Grupo_128770" data-name="Grupo 128770">
              <path id="Trazado_188657" data-name="Trazado 188657" d="M-174.935,678.971a181.651,181.651,0,0,0-.831-30.936c-5.462-48.208-30.194-93.667-66.595-125.74-12.988-11.444-27.764-21.695-36.215-36.8-14.234-25.437-13.155-54.672-30.819-79.788a149.411,149.411,0,0,0-72.522-54.825c-86.656-30.027-207.979,18.863-197.056,123.27.039.375.083.919.129,1.608A38.006,38.006,0,0,1-616.077,516.2c-79.953,1.9-148.774,63.54-163.5,141.623-9.47,50.216,6.037,105.258,42.771,140.783,27.42,26.517,64.209,41.084,101.018,51.095,73.8,20.071,151.461,24.277,227.556,16.6,71.23-7.183,146.365-27.661,192.43-82.461C-191.229,754.606-177.151,717.117-174.935,678.971Z" transform="translate(782.297 -342.145)" fill="#fef7dc"/>
            </g>
          </g>
          <g id="Grupo_128774" data-name="Grupo 128774" transform="translate(92.685 95.671)">
            <g id="Grupo_128773" data-name="Grupo 128773">
              <g id="Grupo_128772" data-name="Grupo 128772">
                <path id="Trazado_188658" data-name="Trazado 188658" d="M-259.613,665.67a135.145,135.145,0,0,0-.619-23.034c-4.067-35.893-22.48-69.74-49.584-93.621-9.67-8.52-20.672-16.153-26.964-27.4-10.6-18.938-9.795-40.706-22.947-59.406a111.236,111.236,0,0,0-53.995-40.82c-64.521-22.357-154.852,14.044-146.719,91.782.029.278.061.684.095,1.2a28.3,28.3,0,0,1-27.722,30.106C-647.6,545.889-698.839,591.785-709.8,649.922c-7.051,37.389,4.494,78.37,31.845,104.82,20.415,19.743,47.808,30.59,75.213,38.044,54.948,14.943,112.772,18.075,169.429,12.361,53.033-5.348,108.976-20.594,143.275-61.4C-271.745,721.984-261.262,694.071-259.613,665.67Z" transform="translate(711.827 -414.885)" fill="#fef7dc"/>
              </g>
            </g>
          </g>
          <circle id="Elipse_5114" data-name="Elipse 5114" cx="25.946" cy="25.946" r="25.946" transform="translate(530.724 87.433) rotate(-45)" fill="#fcedae"/>
          <path id="Trazado_188659" data-name="Trazado 188659" d="M-374.39,384.2a9.02,9.02,0,0,1-9.021,9.02,9.019,9.019,0,0,1-9.02-9.02,9.02,9.02,0,0,1,9.02-9.021A9.021,9.021,0,0,1-374.39,384.2Z" transform="translate(905.202 -331.732)" fill="#fcedae"/>
          <g id="Grupo_128775" data-name="Grupo 128775" transform="translate(145.661 37.498)" opacity="0.31">
            <circle id="Elipse_5115" data-name="Elipse 5115" cx="12.088" cy="12.088" r="12.088" transform="translate(0 18.08) rotate(-48.404)" fill="#e0e2fc"/>
          </g>
          <circle id="Elipse_5116" data-name="Elipse 5116" cx="27.524" cy="27.524" r="27.524" transform="translate(49.363 510.629)" fill="#fcedae"/>
        </g>
      </g>
      <g id="Grupo_128781" data-name="Grupo 128781">
        <g id="Grupo_128778" data-name="Grupo 128778" transform="translate(45.696)">
          <path id="Trazado_188660" data-name="Trazado 188660" d="M-406.991,340.836a15.735,15.735,0,0,0-3.128,22.032c5.22,6.947,18.711,13.174,25.658,7.953s-.856-16.385-2.072-24.99C-388.226,333.831-400.044,335.616-406.991,340.836Z" transform="translate(855.264 -336.819)" fill="#fcedae"/>
          <path id="Trazado_188661" data-name="Trazado 188661" d="M-689.151,379.2a29.233,29.233,0,0,0-40.74-7.016c-13.187,9.313-25.488,34.023-16.176,47.21s30.474-.693,46.519-2.477C-677.171,414.429-679.839,392.386-689.151,379.2Z" transform="translate(749.324 -327.358)" fill="#fcedae"/>
        </g>
        <g id="Grupo_128780" data-name="Grupo 128780" transform="translate(0 82.129)">
          <path id="Trazado_188662" data-name="Trazado 188662" d="M-200.875,736.039c8.232-13.092,10.3-29.335,8.582-44.705a147.428,147.428,0,0,0-12.918-45.187c-6.195-13.164-15.161-24.908-17.716-39.573-3.376-19.374,5.466-37.995,7.519-57,4.087-37.833-21.482-71.168-53.2-89.169-25.762-14.62-55.964-20.106-85.582-19.716-26.657.351-53.268,5.081-79.1,11.44-24.892,6.128-49.231,14.2-75.324,11.656-21.7-2.119-41.246-11.134-61.456-17.854-48.251-16.045-106.7-18.308-150.821,6.118-28.316,15.678-48.135,41.137-56.925,68.51-6.438,20.05-8.348,43.1-3.63,63.394,5.3,22.8,15.1,42.884,12.511,66.9-2.123,19.708-9.362,38.921-8.723,58.911.551,17.182,19.253,41.876,38.554,48.263,1.051.347-.775,1.782,0,2.569h510.094C-217.922,754.622-207.575,746.7-200.875,736.039Z" transform="translate(784.068 -388.381)" fill="#fef7dc"/>
          <g id="Grupo_128779" data-name="Grupo 128779" transform="translate(24.821)">
            <path id="Trazado_188663" data-name="Trazado 188663" d="M-204.253,688.54c-6.034-38.065-46.315-43.228-37.581-67.759,11.063-31.065,10.531-65.874-2.9-96.145-6.475-14.587-15.933-28.146-28.849-37.523-19.912-14.453-46-17.624-70.537-15.791-36.517,2.729-75.049,17.918-111.763,13.775-20.26-2.285-26.447-23.354-36.911-37.249-11.835-15.719-27.95-28.063-45.768-36.281-32.818-15.137-72.206-16.57-105.747-2.845-35.809,14.653-67.021,50.436-64.969,90.9.948,18.721,8.749,37.315,5.137,55.71-4.532,23.085-22.637,44.121-35.756,62.931a141.384,141.384,0,0,0-24.98,70.817,141.39,141.39,0,0,0,20.1,82.4h518.622C-219.519,759.919-195,746.92-204.253,688.54Z" transform="translate(765.196 -399.262)" fill="#fef7dc"/>
          </g>
        </g>
      </g>
      <circle id="Elipse_5117" data-name="Elipse 5117" cx="5.919" cy="5.919" r="5.919" transform="translate(527.223 556.849)" fill="#6836bf"/>
      <circle id="Elipse_5118" data-name="Elipse 5118" cx="4.603" cy="4.603" r="4.603" transform="translate(479.081 540.556)" fill="#b13e8d"/>
      <circle id="Elipse_5119" data-name="Elipse 5119" cx="4.603" cy="4.603" r="4.603" transform="translate(140.628 545.159)" fill="#b13e8d"/>
      <circle id="Elipse_5120" data-name="Elipse 5120" cx="4.603" cy="4.603" r="4.603" transform="translate(542.855 505.601)" fill="#b13e8d"/>
      <circle id="Elipse_5121" data-name="Elipse 5121" cx="4.603" cy="4.603" r="4.603" transform="translate(552.699 14.24)" fill="#b13e8d"/>
      <circle id="Elipse_5122" data-name="Elipse 5122" cx="5.919" cy="5.919" r="5.919" transform="translate(47.268 7.006)" fill="#b13e8d"/>
      <circle id="Elipse_5123" data-name="Elipse 5123" cx="4.603" cy="4.603" r="4.603" transform="translate(116.564 2.402)" fill="#6836bf"/>
      <path id="Trazado_188664" data-name="Trazado 188664" d="M-479.405,369.539A7.106,7.106,0,0,1-487.84,375a7.107,7.107,0,0,1-5.466-8.435,7.107,7.107,0,0,1,8.435-5.466A7.107,7.107,0,0,1-479.405,369.539Z" transform="translate(875.68 -329.213)" fill="#b13e8d"/>
      <path id="Trazado_188665" data-name="Trazado 188665" d="M-524.749,385.977a2.369,2.369,0,0,1-2.812,1.822,2.368,2.368,0,0,1-1.822-2.811,2.368,2.368,0,0,1,2.811-1.823A2.371,2.371,0,0,1-524.749,385.977Z" transform="translate(864.341 -322.225)" fill="#3f4a98" opacity="0.58"/>
      <g id="Grupo_128802" data-name="Grupo 128802" transform="translate(38.217 34.231)">
        <g id="Grupo_128783" data-name="Grupo 128783" transform="translate(121.867)">
          <rect id="Rectángulo_40919" data-name="Rectángulo 40919" width="148.66" height="158.379" rx="16.059" transform="translate(29.577)" fill="#fff"/>
          <rect id="Rectángulo_40920" data-name="Rectángulo 40920" width="148.66" height="158.379" rx="16.059" transform="translate(29.577)" fill="#f3e2ee"/>
          <g id="Grupo_128782" data-name="Grupo 128782" transform="translate(0 0)">
            <path id="Trazado_188666" data-name="Trazado 188666" d="M-518.066,362.882v-.037h-119.4a24.883,24.883,0,0,0-24.883,24.883v9.453H-541.6v-9.453A24.885,24.885,0,0,1-518.066,362.882Z" transform="translate(662.354 -362.845)" fill="#b13e8d"/>
          </g>
          <path id="Trazado_188667" data-name="Trazado 188667" d="M-536.218,403.394h-81.7a1.316,1.316,0,0,1-1.315-1.315,1.316,1.316,0,0,1,1.315-1.315h81.7a1.316,1.316,0,0,1,1.315,1.315A1.316,1.316,0,0,1-536.218,403.394Z" transform="translate(675.948 -350.891)" fill="#350728"/>
          <path id="Trazado_188668" data-name="Trazado 188668" d="M-536.218,429.547h-81.7a1.316,1.316,0,0,1-1.315-1.315,1.316,1.316,0,0,1,1.315-1.315h81.7a1.316,1.316,0,0,1,1.315,1.315A1.316,1.316,0,0,1-536.218,429.547Z" transform="translate(675.948 -342.646)" fill="#350728"/>
          <path id="Trazado_188669" data-name="Trazado 188669" d="M-574.516,416.482h-43.4a1.316,1.316,0,0,1-1.315-1.315,1.316,1.316,0,0,1,1.315-1.315h43.4a1.315,1.315,0,0,1,1.315,1.315A1.315,1.315,0,0,1-574.516,416.482Z" transform="translate(675.948 -346.765)" fill="#350728"/>
          <path id="Trazado_188670" data-name="Trazado 188670" d="M-540.092,416.482h-36.827a1.316,1.316,0,0,1-1.315-1.315,1.316,1.316,0,0,1,1.315-1.315h36.827a1.315,1.315,0,0,1,1.315,1.315A1.315,1.315,0,0,1-540.092,416.482Z" transform="translate(688.873 -346.765)" fill="#350728"/>
        </g>
        <g id="Grupo_128801" data-name="Grupo 128801" transform="translate(0 170.86)">
          <g id="Grupo_128788" data-name="Grupo 128788" transform="translate(89.099 168.46)" opacity="0.81">
            <path id="Trazado_188671" data-name="Trazado 188671" d="M-551.586,653.085h-30.366a1.314,1.314,0,0,1-1.315-1.315,1.314,1.314,0,0,1,1.315-1.315h30.366a1.314,1.314,0,0,1,1.315,1.315A1.314,1.314,0,0,1-551.586,653.085Z" transform="translate(720.054 -611.496)" fill="#b13e8d"/>
            <path id="Trazado_188672" data-name="Trazado 188672" d="M-551.586,677.084h-30.366a1.314,1.314,0,0,1-1.315-1.315,1.314,1.314,0,0,1,1.315-1.315h30.366a1.314,1.314,0,0,1,1.315,1.315A1.314,1.314,0,0,1-551.586,677.084Z" transform="translate(720.054 -603.93)" fill="#b13e8d"/>
            <g id="Grupo_128787" data-name="Grupo 128787">
              <g id="Grupo_128785" data-name="Grupo 128785">
                <g id="Grupo_128784" data-name="Grupo 128784">
                  <path id="Trazado_188673" data-name="Trazado 188673" d="M-495.6,725.866H-683.7a3.569,3.569,0,0,1-3.566-3.566V624.4a3.571,3.571,0,0,1,3.566-3.567h188.1a3.572,3.572,0,0,1,3.567,3.567v97.9A3.571,3.571,0,0,1-495.6,725.866Zm-188.1-102.4a.937.937,0,0,0-.935.937v97.9a.936.936,0,0,0,.935.935h188.1a.937.937,0,0,0,.936-.935V624.4a.938.938,0,0,0-.936-.937Z" transform="translate(687.268 -620.834)" fill="#b13e8d"/>
                  <path id="Trazado_188674" data-name="Trazado 188674" d="M-495.6,725.866H-683.7a3.569,3.569,0,0,1-3.566-3.566V624.4a3.571,3.571,0,0,1,3.566-3.567h188.1a3.572,3.572,0,0,1,3.567,3.567v97.9A3.571,3.571,0,0,1-495.6,725.866Zm-188.1-102.4a.937.937,0,0,0-.935.937v97.9a.936.936,0,0,0,.935.935h188.1a.937.937,0,0,0,.936-.935V624.4a.938.938,0,0,0-.936-.937Z" transform="translate(687.268 -620.834)" fill="#b13e8d"/>
                </g>
              </g>
              <g id="Grupo_128786" data-name="Grupo 128786" transform="translate(21.487 17.479)">
                <path id="Rectángulo_40921" data-name="Rectángulo 40921" d="M1.234,0h48.4a1.235,1.235,0,0,1,1.235,1.235v65.2a1.235,1.235,0,0,1-1.235,1.235H1.234A1.234,1.234,0,0,1,0,66.434V1.234A1.234,1.234,0,0,1,1.234,0Z" fill="#b13e8d"/>
              </g>
              <path id="Trazado_188675" data-name="Trazado 188675" d="M-538.846,641.439h-83.518a1.315,1.315,0,0,1-1.315-1.315,1.314,1.314,0,0,1,1.315-1.315h83.518a1.314,1.314,0,0,1,1.315,1.315A1.315,1.315,0,0,1-538.846,641.439Z" transform="translate(707.314 -615.168)" fill="#b13e8d"/>
              <path id="Trazado_188676" data-name="Trazado 188676" d="M-538.846,664.732h-83.518a1.315,1.315,0,0,1-1.315-1.315,1.314,1.314,0,0,1,1.315-1.315h83.518a1.314,1.314,0,0,1,1.315,1.315A1.315,1.315,0,0,1-538.846,664.732Z" transform="translate(707.314 -607.824)" fill="#b13e8d"/>
              <path id="Trazado_188677" data-name="Trazado 188677" d="M-577.337,653.085h-45.028a1.314,1.314,0,0,1-1.315-1.315,1.314,1.314,0,0,1,1.315-1.315h45.028a1.315,1.315,0,0,1,1.315,1.315A1.315,1.315,0,0,1-577.337,653.085Z" transform="translate(707.314 -611.496)" fill="#b13e8d"/>
              <path id="Trazado_188678" data-name="Trazado 188678" d="M-577.337,677.084h-45.028a1.314,1.314,0,0,1-1.315-1.315,1.314,1.314,0,0,1,1.315-1.315h45.028a1.315,1.315,0,0,1,1.315,1.315A1.315,1.315,0,0,1-577.337,677.084Z" transform="translate(707.314 -603.93)" fill="#b13e8d"/>
              <path id="Trazado_188679" data-name="Trazado 188679" d="M-592,688.2h-30.366a1.314,1.314,0,0,1-1.315-1.315,1.315,1.315,0,0,1,1.315-1.315H-592a1.316,1.316,0,0,1,1.315,1.315A1.315,1.315,0,0,1-592,688.2Z" transform="translate(707.314 -600.425)" fill="#b13e8d"/>
            </g>
          </g>
          <g id="Grupo_128793" data-name="Grupo 128793" transform="translate(350.618)" opacity="0.81">
            <path id="Trazado_188680" data-name="Trazado 188680" d="M-352.75,525h-30.366a1.315,1.315,0,0,1-1.315-1.315,1.314,1.314,0,0,1,1.315-1.315h30.366a1.314,1.314,0,0,1,1.315,1.315A1.315,1.315,0,0,1-352.75,525Z" transform="translate(521.218 -483.414)" fill="#b13e8d"/>
            <path id="Trazado_188681" data-name="Trazado 188681" d="M-352.75,549h-30.366a1.315,1.315,0,0,1-1.315-1.315,1.314,1.314,0,0,1,1.315-1.315h30.366a1.314,1.314,0,0,1,1.315,1.315A1.315,1.315,0,0,1-352.75,549Z" transform="translate(521.218 -475.848)" fill="#b13e8d"/>
            <g id="Grupo_128792" data-name="Grupo 128792">
              <g id="Grupo_128790" data-name="Grupo 128790">
                <g id="Grupo_128789" data-name="Grupo 128789">
                  <path id="Trazado_188682" data-name="Trazado 188682" d="M-296.761,597.784h-188.1a3.571,3.571,0,0,1-3.567-3.566v-97.9a3.572,3.572,0,0,1,3.567-3.567h188.1a3.57,3.57,0,0,1,3.566,3.567v97.9A3.569,3.569,0,0,1-296.761,597.784Zm-188.1-102.4a.938.938,0,0,0-.936.936v97.9a.937.937,0,0,0,.936.935h188.1a.937.937,0,0,0,.935-.935v-97.9a.938.938,0,0,0-.935-.936Z" transform="translate(488.432 -492.752)" fill="#b13e8d"/>
                  <path id="Trazado_188683" data-name="Trazado 188683" d="M-296.761,597.784h-188.1a3.571,3.571,0,0,1-3.567-3.566v-97.9a3.572,3.572,0,0,1,3.567-3.567h188.1a3.57,3.57,0,0,1,3.566,3.567v97.9A3.569,3.569,0,0,1-296.761,597.784Zm-188.1-102.4a.938.938,0,0,0-.936.936v97.9a.937.937,0,0,0,.936.935h188.1a.937.937,0,0,0,.935-.935v-97.9a.938.938,0,0,0-.935-.936Z" transform="translate(488.432 -492.752)" fill="#b13e8d" opacity="0.66"/>
                </g>
              </g>
              <g id="Grupo_128791" data-name="Grupo 128791" transform="translate(21.487 17.479)">
                <rect id="Rectángulo_40922" data-name="Rectángulo 40922" width="50.874" height="67.668" rx="1.235" fill="#b13e8d"/>
              </g>
              <path id="Trazado_188684" data-name="Trazado 188684" d="M-340.01,513.356h-83.518a1.315,1.315,0,0,1-1.315-1.315,1.315,1.315,0,0,1,1.315-1.315h83.518a1.315,1.315,0,0,1,1.315,1.315A1.315,1.315,0,0,1-340.01,513.356Z" transform="translate(508.478 -487.086)" fill="#b13e8d"/>
              <path id="Trazado_188685" data-name="Trazado 188685" d="M-340.01,536.651h-83.518a1.315,1.315,0,0,1-1.315-1.315,1.314,1.314,0,0,1,1.315-1.315h83.518a1.314,1.314,0,0,1,1.315,1.315A1.315,1.315,0,0,1-340.01,536.651Z" transform="translate(508.478 -479.742)" fill="#b13e8d"/>
              <path id="Trazado_188686" data-name="Trazado 188686" d="M-378.5,525h-45.027a1.315,1.315,0,0,1-1.315-1.315,1.314,1.314,0,0,1,1.315-1.315H-378.5a1.314,1.314,0,0,1,1.315,1.315A1.315,1.315,0,0,1-378.5,525Z" transform="translate(508.478 -483.414)" fill="#b13e8d"/>
              <path id="Trazado_188687" data-name="Trazado 188687" d="M-378.5,549h-45.027a1.315,1.315,0,0,1-1.315-1.315,1.314,1.314,0,0,1,1.315-1.315H-378.5a1.314,1.314,0,0,1,1.315,1.315A1.315,1.315,0,0,1-378.5,549Z" transform="translate(508.478 -475.848)" fill="#b13e8d"/>
              <path id="Trazado_188688" data-name="Trazado 188688" d="M-393.161,560.12h-30.368a1.314,1.314,0,0,1-1.315-1.315,1.315,1.315,0,0,1,1.315-1.315h30.368a1.315,1.315,0,0,1,1.315,1.315A1.314,1.314,0,0,1-393.161,560.12Z" transform="translate(508.478 -472.343)" fill="#b13e8d"/>
            </g>
          </g>
          <g id="Grupo_128799" data-name="Grupo 128799" transform="translate(350.339 125.225)">
            <rect id="Rectángulo_40923" data-name="Rectángulo 40923" width="119.567" height="48.855" rx="3.333" fill="#b13e8d"/>
            <g id="Grupo_128798" data-name="Grupo 128798" transform="translate(22.546 38.526)">
              <g id="Grupo_128797" data-name="Grupo 128797">
                <g id="Grupo_128794" data-name="Grupo 128794">
                  <rect id="Rectángulo_40924" data-name="Rectángulo 40924" width="134.864" height="50.574" rx="5.075" fill="#b13e8d"/>
                  <rect id="Rectángulo_40925" data-name="Rectángulo 40925" width="134.864" height="50.574" rx="5.075" fill="#6a2554"/>
                </g>
                <g id="Grupo_128796" data-name="Grupo 128796" transform="translate(39.571 19.573)">
                  <g id="Grupo_128795" data-name="Grupo 128795">
                    <path id="Trazado_188689" data-name="Trazado 188689" d="M-400.128,643.693a5.785,5.785,0,0,1-5.779-5.779,5.785,5.785,0,0,1,5.779-5.778,5.785,5.785,0,0,1,5.779,5.778A5.786,5.786,0,0,1-400.128,643.693Zm0-10.242a4.469,4.469,0,0,0-4.464,4.463,4.47,4.47,0,0,0,4.464,4.464,4.47,4.47,0,0,0,4.464-4.464A4.469,4.469,0,0,0-400.128,633.451Z" transform="translate(452.61 -632.136)" fill="#f3e2ee"/>
                    <path id="Trazado_188690" data-name="Trazado 188690" d="M-418.506,643.693a5.784,5.784,0,0,1-5.778-5.779,5.784,5.784,0,0,1,5.778-5.778,5.785,5.785,0,0,1,5.779,5.778A5.785,5.785,0,0,1-418.506,643.693Zm0-10.242a4.468,4.468,0,0,0-4.463,4.463,4.469,4.469,0,0,0,4.463,4.464,4.47,4.47,0,0,0,4.464-4.464A4.469,4.469,0,0,0-418.506,633.451Z" transform="translate(446.817 -632.136)" fill="#f3e2ee"/>
                    <path id="Trazado_188691" data-name="Trazado 188691" d="M-435.638,643.693a5.784,5.784,0,0,1-5.778-5.779,5.784,5.784,0,0,1,5.778-5.778,5.785,5.785,0,0,1,5.779,5.778A5.785,5.785,0,0,1-435.638,643.693Zm0-10.242a4.468,4.468,0,0,0-4.463,4.463,4.469,4.469,0,0,0,4.463,4.464,4.47,4.47,0,0,0,4.464-4.464A4.469,4.469,0,0,0-435.638,633.451Z" transform="translate(441.416 -632.136)" fill="#f3e2ee"/>
                  </g>
                </g>
              </g>
            </g>
          </g>
          <g id="Grupo_128800" data-name="Grupo 128800" transform="translate(0 52.096)">
            <path id="Trazado_188692" data-name="Trazado 188692" d="M-727.422,533.676h-1.315a.656.656,0,0,1-.658-.658.657.657,0,0,1,.658-.658h1.315a.658.658,0,0,1,.658.658A.657.657,0,0,1-727.422,533.676Z" transform="translate(763.086 -532.361)" fill="#b13e8d"/>
            <path id="Trazado_188693" data-name="Trazado 188693" d="M-341.259,749.706h-2.6a.656.656,0,0,1-.658-.658.657.657,0,0,1,.658-.658h2.6a.658.658,0,0,1,.658.658A.657.657,0,0,1-341.259,749.706Zm-28.65,0h-2.605a.657.657,0,0,1-.658-.658.658.658,0,0,1,.658-.658h2.605a.658.658,0,0,1,.658.658A.657.657,0,0,1-369.909,749.706Zm-28.651,0h-2.606a.657.657,0,0,1-.658-.658.658.658,0,0,1,.658-.658h2.606a.658.658,0,0,1,.658.658A.657.657,0,0,1-398.56,749.706Zm-28.651,0h-2.6a.657.657,0,0,1-.658-.658.658.658,0,0,1,.658-.658h2.6a.657.657,0,0,1,.658.658A.656.656,0,0,1-427.212,749.706Zm-28.65,0h-2.6a.656.656,0,0,1-.658-.658.657.657,0,0,1,.658-.658h2.6a.657.657,0,0,1,.658.658A.656.656,0,0,1-455.862,749.706Zm-28.65,0h-2.6a.656.656,0,0,1-.658-.658.657.657,0,0,1,.658-.658h2.6a.658.658,0,0,1,.658.658A.657.657,0,0,1-484.512,749.706Zm-28.651,0h-2.6a.657.657,0,0,1-.658-.658.658.658,0,0,1,.658-.658h2.6a.657.657,0,0,1,.658.658A.656.656,0,0,1-513.163,749.706Zm-28.65,0h-2.606a.657.657,0,0,1-.658-.658.658.658,0,0,1,.658-.658h2.606a.658.658,0,0,1,.658.658A.657.657,0,0,1-541.813,749.706Zm-28.651,0h-.794q-.943,0-1.868-.085a.659.659,0,0,1-.594-.716.66.66,0,0,1,.717-.595q.862.081,1.745.08h.794a.657.657,0,0,1,.658.658A.656.656,0,0,1-570.465,749.706Zm249.408-13.285a.642.642,0,0,1-.208-.034.659.659,0,0,1-.416-.833,18.553,18.553,0,0,0,.633-2.432.659.659,0,0,1,.768-.525.659.659,0,0,1,.525.768,20.126,20.126,0,0,1-.677,2.606A.661.661,0,0,1-321.057,736.421Zm-269.452-3.476a.658.658,0,0,1-.651-.57,20.259,20.259,0,0,1-.187-2.682.658.658,0,0,1,.655-.66h0a.658.658,0,0,1,.658.655,18.838,18.838,0,0,0,.175,2.511.657.657,0,0,1-.563.739A.516.516,0,0,1-590.509,732.945Zm-.276-28.638a.659.659,0,0,1-.654-.595,18.756,18.756,0,0,0-.413-2.478.658.658,0,0,1,.488-.792.652.652,0,0,1,.792.488,20.037,20.037,0,0,1,.442,2.654.658.658,0,0,1-.589.719ZM-610.167,686.8h-2.6a.658.658,0,0,1-.658-.658.658.658,0,0,1,.658-.658h2.6a.657.657,0,0,1,.658.658A.657.657,0,0,1-610.167,686.8Zm-28.65,0h-2.605a.658.658,0,0,1-.658-.658.658.658,0,0,1,.658-.658h2.605a.658.658,0,0,1,.658.658A.658.658,0,0,1-638.817,686.8Zm-28.65,0h-2.606a.658.658,0,0,1-.658-.658.658.658,0,0,1,.658-.658h2.606a.658.658,0,0,1,.658.658A.658.658,0,0,1-667.467,686.8Zm-28.651,0h-2.6a.658.658,0,0,1-.658-.658.658.658,0,0,1,.658-.658h2.6a.658.658,0,0,1,.658.658A.658.658,0,0,1-696.118,686.8Zm-28.65,0h-2.605a.658.658,0,0,1-.658-.658.658.658,0,0,1,.658-.658h2.605a.658.658,0,0,1,.658.658A.658.658,0,0,1-724.768,686.8Zm-25.979-8.153a.655.655,0,0,1-.535-.275,20.189,20.189,0,0,1-1.414-2.29.659.659,0,0,1,.275-.889.657.657,0,0,1,.888.275,18.88,18.88,0,0,0,1.321,2.139.658.658,0,0,1-.153.918A.652.652,0,0,1-750.747,678.647Zm-3.606-27.892a.658.658,0,0,1-.658-.658v-2.606a.658.658,0,0,1,.658-.658.658.658,0,0,1,.658.658V650.1A.658.658,0,0,1-754.353,650.755Zm0-28.651a.658.658,0,0,1-.658-.658v-2.6a.658.658,0,0,1,.658-.658.658.658,0,0,1,.658.658v2.6A.658.658,0,0,1-754.353,622.1Zm0-28.651a.657.657,0,0,1-.658-.658v-2.6a.658.658,0,0,1,.658-.658.658.658,0,0,1,.658.658v2.6A.657.657,0,0,1-754.353,593.452Zm0-28.65a.657.657,0,0,1-.658-.658v-2.6a.657.657,0,0,1,.658-.658.657.657,0,0,1,.658.658v2.6A.657.657,0,0,1-754.353,564.8Zm6.312-26.86a.656.656,0,0,1-.484-.213.659.659,0,0,1,.04-.93,20.361,20.361,0,0,1,2.1-1.681.657.657,0,0,1,.914.164.658.658,0,0,1-.163.915,18.65,18.65,0,0,0-1.964,1.572A.661.661,0,0,1-748.042,537.942Z" transform="translate(755.011 -531.529)" fill="#b13e8d"/>
            <path id="Trazado_188694" data-name="Trazado 188694" d="M-424.157,667.011a.658.658,0,0,1-.658-.658v-1.315a.658.658,0,0,1,.658-.658.657.657,0,0,1,.658.658v1.315A.657.657,0,0,1-424.157,667.011Z" transform="translate(859.105 -490.742)" fill="#b13e8d"/>
          </g>
        </g>
      </g>
      <g id="Grupo_128818" data-name="Grupo 128818" transform="translate(85.93 85.418)">
        <g id="Grupo_128815" data-name="Grupo 128815">
          <g id="Grupo_128805" data-name="Grupo 128805" transform="translate(226.88 232.141)">
            <path id="Trazado_188695" data-name="Trazado 188695" d="M-501.263,781.469h-36.286a8.685,8.685,0,0,1-8.685-8.685V578.263h56.556v191.62A11.585,11.585,0,0,1-501.263,781.469Z" transform="translate(546.234 -578.263)" fill="#6a2554"/>
            <path id="Trazado_188696" data-name="Trazado 188696" d="M-504,781.469h-23.23V578.263h31.566v194.87A8.336,8.336,0,0,1-504,781.469Z" transform="translate(552.224 -578.263)" fill="#b13e8d"/>
          </g>
          <g id="Grupo_128808" data-name="Grupo 128808" transform="translate(85.491 45.376)">
            <path id="Trazado_188697" data-name="Trazado 188697" d="M-584.257,436.263h180.885a73.19,73.19,0,0,1,73.19,73.19v128.6a5.357,5.357,0,0,1-5.357,5.358H-653.134a.6.6,0,0,1-.6-.6V505.738A69.476,69.476,0,0,1-584.257,436.263Z" transform="translate(653.734 -436.263)" fill="#b13e8d"/>
            <g id="Grupo_128806" data-name="Grupo 128806" transform="translate(22.359 28.278)" opacity="0.07">
              <path id="Trazado_188698" data-name="Trazado 188698" d="M-567.257,457.763H-430.54a73.19,73.19,0,0,1,73.19,73.19V631.279a5.357,5.357,0,0,1-5.357,5.358H-636.134a.6.6,0,0,1-.6-.6v-108.8A69.476,69.476,0,0,1-567.257,457.763Z" transform="translate(636.734 -457.763)" fill="#ebf0f6"/>
            </g>
            <g id="Grupo_128807" data-name="Grupo 128807" transform="translate(117.715 190.711)" opacity="0.65">
              <path id="Trazado_188699" data-name="Trazado 188699" d="M-364.432,598.361h-199.8v-17.1H-358.4v11.064A6.034,6.034,0,0,1-364.432,598.361Z" transform="translate(564.234 -581.263)" fill="#4d67b6"/>
            </g>
            <path id="Trazado_188700" data-name="Trazado 188700" d="M-364.432,598.361h-199.8v-17.1H-358.4v11.064A6.034,6.034,0,0,1-364.432,598.361Z" transform="translate(681.949 -390.552)" fill="#6a2554"/>
            <path id="Trazado_188701" data-name="Trazado 188701" d="M-389.406,597.583h-90.945V581.645h95.509v11.373A4.564,4.564,0,0,1-389.406,597.583Z" transform="translate(708.393 -390.432)" fill="#6a2554"/>
            <rect id="Rectángulo_40926" data-name="Rectángulo 40926" width="195.972" height="117.057" transform="translate(127.58 73.654)" fill="#373448" opacity="0.07"/>
          </g>
          <g id="Grupo_128812" data-name="Grupo 128812" transform="translate(85.491 49.322)">
            <path id="Trazado_188702" data-name="Trazado 188702" d="M-534.046,637.866h-111.8a7.893,7.893,0,0,1-7.892-7.891V503.053a63.79,63.79,0,0,1,63.79-63.79h0a63.789,63.789,0,0,1,63.79,63.79V629.974A7.892,7.892,0,0,1-534.046,637.866Z" transform="translate(653.734 -439.263)" fill="#6a2554"/>
            <path id="Trazado_188703" data-name="Trazado 188703" d="M-536.938,635.659h-111.8v-133.5a55.9,55.9,0,0,1,55.9-55.9h0a55.9,55.9,0,0,1,55.9,55.9Z" transform="translate(655.31 -437.056)" fill="#350728"/>
            <g id="Grupo_128811" data-name="Grupo 128811" transform="translate(6.576 9.207)">
              <g id="Grupo_128810" data-name="Grupo 128810" clip-path="url(#clip-path)">
                <g id="Grupo_128809" data-name="Grupo 128809" transform="translate(17.609 102.955)">
                  <path id="Trazado_188704" data-name="Trazado 188704" d="M-536.671,593.884h-92.615a6.061,6.061,0,0,1-6.061-6.061V532.11a7.57,7.57,0,0,1,7.569-7.569h87.994a9.172,9.172,0,0,1,9.172,9.173v54.109A6.061,6.061,0,0,1-536.671,593.884Z" transform="translate(635.346 -524.541)" fill="#fcedae"/>
                  <path id="Trazado_188705" data-name="Trazado 188705" d="M-535.369,593.191h-95.217a4.759,4.759,0,0,1-4.76-4.759V530.51a2.951,2.951,0,0,1,.731-1.944h0a1.54,1.54,0,0,1,2.143-.172l36.4,30.126,7.529,6.23a8.617,8.617,0,0,0,11.069-.068l44.695-37.944c2.8,2.663,2.168,5.332,2.168,5.332v56.362A4.759,4.759,0,0,1-535.369,593.191Z" transform="translate(635.346 -523.848)" fill="#c5a113"/>
                  <path id="Trazado_188706" data-name="Trazado 188706" d="M-633.383,586.718a1.313,1.313,0,0,1-.983-.44,1.316,1.316,0,0,1,.108-1.857l39.267-34.934a1.315,1.315,0,0,1,1.857.109,1.315,1.315,0,0,1-.108,1.856l-39.267,34.934A1.309,1.309,0,0,1-633.383,586.718Z" transform="translate(635.55 -516.782)" fill="#fcedae"/>
                  <path id="Trazado_188707" data-name="Trazado 188707" d="M-549,586.451a1.305,1.305,0,0,1-.872-.331l-38.155-33.82a1.316,1.316,0,0,1-.113-1.857,1.317,1.317,0,0,1,1.858-.112l38.154,33.822a1.315,1.315,0,0,1,.112,1.856A1.307,1.307,0,0,1-549,586.451Z" transform="translate(650.124 -516.515)" fill="#fcedae"/>
                </g>
                <path id="Trazado_188708" data-name="Trazado 188708" d="M-538.329,594.361h-103.9v-6.422a10.677,10.677,0,0,1,10.677-10.676h93.227Z" transform="translate(650.783 -404.965)" fill="#f3e2ee"/>
              </g>
            </g>
          </g>
          <g id="Grupo_128813" data-name="Grupo 128813" transform="translate(0 247.924)">
            <path id="Trazado_188710" data-name="Trazado 188710" d="M-518.042,613.938H-705.929a12.805,12.805,0,0,1-12.805-12.805V590.263h215.7v8.665A15.009,15.009,0,0,1-518.042,613.938Z" transform="translate(718.734 -590.263)" fill="#b13e8d"/>
            <path id="Trazado_188711" data-name="Trazado 188711" d="M-548.936,613.938h-58.993a12.805,12.805,0,0,1-12.805-12.805V590.263h86.807v8.665A15.009,15.009,0,0,1-548.936,613.938Z" transform="translate(749.628 -590.263)" fill="#6a2554"/>
          </g>
          <g id="Grupo_128814" data-name="Grupo 128814" transform="translate(245.952)">
            <circle id="Elipse_5124" data-name="Elipse 5124" cx="18.413" cy="18.413" r="18.413" transform="translate(0 104.562)" fill="#6a2554"/>
            <path id="Trazado_188712" data-name="Trazado 188712" d="M-516.315,530.657h0a5.919,5.919,0,0,1-5.919-5.919V407.682a5.918,5.918,0,0,1,5.919-5.919h0a5.917,5.917,0,0,1,5.919,5.919V524.739A5.918,5.918,0,0,1-516.315,530.657Z" transform="translate(534.728 -401.763)" fill="#6a2554"/>
            <circle id="Elipse_5125" data-name="Elipse 5125" cx="15.783" cy="15.783" r="15.783" transform="translate(5.261 107.192)" fill="#b13e8d"/>
            <path id="Trazado_188713" data-name="Trazado 188713" d="M-511.734,434.744h0V406.263h53.964Z" transform="translate(538.039 -400.344)" fill="#6e6fd0"/>
            <path id="Trazado_188714" data-name="Trazado 188714" d="M-511.734,434.744h0V406.263h53.964Z" transform="translate(538.039 -400.344)" fill="#f3e2ee"/>
            <path id="Trazado_188715" data-name="Trazado 188715" d="M-514.315,530.657h0a5.919,5.919,0,0,1-5.919-5.919V407.682a5.918,5.918,0,0,1,5.919-5.919h0a5.917,5.917,0,0,1,5.919,5.919V524.739A5.918,5.918,0,0,1-514.315,530.657Z" transform="translate(535.359 -401.763)" fill="#b13e8d"/>
            <path id="Trazado_188716" data-name="Trazado 188716" d="M-513.448,506.834a9.547,9.547,0,0,1-9.536-9.536,9.546,9.546,0,0,1,9.536-9.536,9.546,9.546,0,0,1,9.536,9.536A9.547,9.547,0,0,1-513.448,506.834Zm0-17.756a8.229,8.229,0,0,0-8.22,8.22,8.23,8.23,0,0,0,8.22,8.22,8.229,8.229,0,0,0,8.22-8.22A8.228,8.228,0,0,0-513.448,489.078Z" transform="translate(534.492 -374.652)" fill="#350728"/>
          </g>
        </g>
      </g>
      <g id="Grupo_128824" data-name="Grupo 128824" transform="translate(35.146 110.407)">
        <g id="Grupo_128819" data-name="Grupo 128819" transform="translate(0 20.752)">
          <path id="Trazado_188717" data-name="Trazado 188717" d="M-642.326,516.7H-751.285a6.06,6.06,0,0,1-6.061-6.061V444.11a7.57,7.57,0,0,1,7.569-7.569h104.339a9.173,9.173,0,0,1,9.173,9.173v64.93A6.06,6.06,0,0,1-642.326,516.7Z" transform="translate(757.346 -436.541)" fill="#f7ca18"/>
          <path id="Trazado_188718" data-name="Trazado 188718" d="M-641.767,515.9H-751.844a5.5,5.5,0,0,1-5.5-5.5V443.442a3.413,3.413,0,0,1,.846-2.248h0a1.783,1.783,0,0,1,2.477-.2l42.083,34.828,8.7,7.2a9.958,9.958,0,0,0,12.795-.08l51.671-43.864c3.236,3.079,2.506,6.165,2.506,6.165V510.4A5.5,5.5,0,0,1-641.767,515.9Z" transform="translate(757.346 -435.74)" fill="#c5a113"/>
          <path id="Trazado_188719" data-name="Trazado 188719" d="M-754.2,507.077a1.309,1.309,0,0,1-.982-.442,1.315,1.315,0,0,1,.108-1.856l44.173-39.3a1.316,1.316,0,0,1,1.857.109,1.315,1.315,0,0,1-.109,1.857l-44.171,39.3A1.316,1.316,0,0,1-754.2,507.077Z" transform="translate(757.924 -427.522)" fill="#f7ca18"/>
          <path id="Trazado_188720" data-name="Trazado 188720" d="M-657.574,507.117a1.311,1.311,0,0,1-.863-.324l-44.11-38.358a1.313,1.313,0,0,1-.129-1.854,1.312,1.312,0,0,1,1.854-.129l44.111,38.358a1.314,1.314,0,0,1,.129,1.854A1.311,1.311,0,0,1-657.574,507.117Z" transform="translate(774.479 -427.214)" fill="#f7ca18"/>
        </g>
        <g id="Grupo_128822" data-name="Grupo 128822" transform="translate(99.333)">
          <circle id="Elipse_5126" data-name="Elipse 5126" cx="21.102" cy="21.102" r="21.102" fill="#350728"/>
          <g id="Grupo_128821" data-name="Grupo 128821" transform="translate(11.773 12.569)">
            <g id="Grupo_128820" data-name="Grupo 128820">
              <path id="Trazado_188721" data-name="Trazado 188721" d="M-668.212,446.957h-2.314V432.991l-2.345,1.439v-2.391l2.345-1.565h2.314Z" transform="translate(672.871 -430.27)" fill="#f7ca18"/>
              <path id="Trazado_188722" data-name="Trazado 188722" d="M-665.289,445.94a4.752,4.752,0,0,1-1.2-3.446V435a4.733,4.733,0,0,1,1.2-3.453,4.683,4.683,0,0,1,3.5-1.23,4.687,4.687,0,0,1,3.508,1.224,4.744,4.744,0,0,1,1.2,3.458v7.493a4.729,4.729,0,0,1-1.2,3.451,4.677,4.677,0,0,1-3.5,1.23A4.665,4.665,0,0,1-665.289,445.94Zm5.316-1.6a2.637,2.637,0,0,0,.584-1.841V435a2.661,2.661,0,0,0-.579-1.843,2.328,2.328,0,0,0-1.812-.641,2.33,2.33,0,0,0-1.814.641,2.661,2.661,0,0,0-.579,1.843v7.493a2.638,2.638,0,0,0,.584,1.841,2.328,2.328,0,0,0,1.808.641A2.329,2.329,0,0,0-659.973,444.336Z" transform="translate(674.884 -430.319)" fill="#f7ca18"/>
            </g>
          </g>
        </g>
        <g id="Grupo_128823" data-name="Grupo 128823" transform="translate(48.664 72.047)">
          <path id="Trazado_188723" data-name="Trazado 188723" d="M-571.943,578.332H-712.929a7.417,7.417,0,0,1-7.417-7.417V483.9a8.363,8.363,0,0,1,8.362-8.362h136.929a9.964,9.964,0,0,1,9.964,9.964v85.973A6.853,6.853,0,0,1-571.943,578.332Z" transform="translate(720.346 -475.541)" fill="#fcedae"/>
          <path id="Trazado_188724" data-name="Trazado 188724" d="M-572.144,577.3H-713.291a7.055,7.055,0,0,1-7.055-7.055V484.389a4.376,4.376,0,0,1,1.084-2.882h0a2.285,2.285,0,0,1,3.176-.255l53.962,44.658,11.16,9.236a12.769,12.769,0,0,0,16.406-.1L-568.3,478.8c4.15,3.947,3.212,7.9,3.212,7.9V570.25A7.054,7.054,0,0,1-572.144,577.3Z" transform="translate(720.346 -474.514)" fill="#f7ca18"/>
          <path id="Trazado_188725" data-name="Trazado 188725" d="M-716.923,566.048a1.312,1.312,0,0,1-.984-.442,1.317,1.317,0,0,1,.11-1.857l57.333-50.909a1.313,1.313,0,0,1,1.856.11,1.314,1.314,0,0,1-.109,1.856l-57.333,50.909A1.306,1.306,0,0,1-716.923,566.048Z" transform="translate(721.011 -463.887)" fill="#fcedae"/>
          <path id="Trazado_188726" data-name="Trazado 188726" d="M-592.318,565.771a1.308,1.308,0,0,1-.863-.324l-56.742-49.378a1.316,1.316,0,0,1-.13-1.856,1.315,1.315,0,0,1,1.856-.129l56.744,49.378a1.316,1.316,0,0,1,.129,1.856A1.311,1.311,0,0,1-592.318,565.771Z" transform="translate(742.404 -463.492)" fill="#fcedae"/>
        </g>
      </g>
      <g id="Grupo_128829" data-name="Grupo 128829" transform="translate(411.84 72.502)">
        <circle id="Elipse_5127" data-name="Elipse 5127" cx="28.923" cy="28.923" r="28.923" transform="translate(66.65 67.924)" fill="#94790e"/>
        <circle id="Elipse_5128" data-name="Elipse 5128" cx="47.184" cy="47.184" r="47.184" transform="matrix(0.211, -0.977, 0.977, 0.211, 0, 92.243)" fill="#f7ca18"/>
        <g id="Grupo_128827" data-name="Grupo 128827" transform="translate(31.463 31.526)">
          <g id="Grupo_128826" data-name="Grupo 128826">
            <g id="Grupo_128825" data-name="Grupo 128825">
              <path id="Trazado_188727" data-name="Trazado 188727" d="M-425.795,460.791a10.459,10.459,0,0,1-10.392-9.251l-.085-.734h20.955l-.086.734A10.456,10.456,0,0,1-425.795,460.791Zm-8.97-8.67a9.144,9.144,0,0,0,8.97,7.355,9.143,9.143,0,0,0,8.97-7.355Z" transform="translate(450.407 -404.912)" fill="#fff"/>
              <path id="Trazado_188728" data-name="Trazado 188728" d="M-404.3,452.171H-443.03v-17.7a18.575,18.575,0,0,1,18.554-18.554h1.623A18.575,18.575,0,0,1-404.3,434.466Zm-37.416-1.315h36.1V434.466a17.259,17.259,0,0,0-17.239-17.239h-1.623a17.259,17.259,0,0,0-17.239,17.239Z" transform="translate(448.277 -415.912)" fill="#fff"/>
              <path id="Trazado_188729" data-name="Trazado 188729" d="M-403.688,454.746h-37.435a5.9,5.9,0,0,1-5.9-5.895v-.476a5.9,5.9,0,0,1,5.9-5.895h37.435a5.9,5.9,0,0,1,5.895,5.895v.476A5.9,5.9,0,0,1-403.688,454.746ZM-441.115,443.8a4.588,4.588,0,0,0-4.589,4.58v.476a4.586,4.586,0,0,0,4.581,4.58h37.435a4.586,4.586,0,0,0,4.58-4.58v-.476a4.586,4.586,0,0,0-4.58-4.58Z" transform="translate(447.019 -407.537)" fill="#fff"/>
            </g>
            <path id="Trazado_188730" data-name="Trazado 188730" d="M-427.632,439.532h-14.74a.658.658,0,0,1-.658-.658.657.657,0,0,1,.658-.658h14.74a.656.656,0,0,1,.658.658A.657.657,0,0,1-427.632,439.532Z" transform="translate(448.277 -408.88)" fill="#fff"/>
          </g>
          <path id="Trazado_188731" data-name="Trazado 188731" d="M-429.486,439.525a.712.712,0,0,1-.473-.183.707.707,0,0,1-.132-.21.615.615,0,0,1-.053-.25.586.586,0,0,1,.053-.263.713.713,0,0,1,.132-.212,1.542,1.542,0,0,1,.224-.145.681.681,0,0,1,.71.145.527.527,0,0,1,.145.212.586.586,0,0,1,.053.263.615.615,0,0,1-.053.25.523.523,0,0,1-.145.21.945.945,0,0,1-.209.145A.839.839,0,0,1-429.486,439.525Z" transform="translate(452.339 -408.88)" fill="#fff"/>
        </g>
        <g id="Grupo_128828" data-name="Grupo 128828" transform="translate(39.649 16.976)">
          <path id="Trazado_188732" data-name="Trazado 188732" d="M-427.988,415.822a.657.657,0,0,1-.658-.658v-9.657a.657.657,0,0,1,.658-.658.656.656,0,0,1,.658.658v9.657A.656.656,0,0,1-427.988,415.822Z" transform="translate(444.625 -404.85)" fill="#fff"/>
          <path id="Trazado_188733" data-name="Trazado 188733" d="M-418.22,416.588a.649.649,0,0,1-.37-.113.656.656,0,0,1-.175-.913l2.711-3.994a.657.657,0,0,1,.915-.175.657.657,0,0,1,.174.913l-2.711,3.994A.657.657,0,0,1-418.22,416.588Z" transform="translate(447.705 -402.824)" fill="#fff"/>
          <path id="Trazado_188734" data-name="Trazado 188734" d="M-437.425,416.588a.657.657,0,0,1-.545-.288l-2.712-3.994a.656.656,0,0,1,.175-.913.656.656,0,0,1,.914.175l2.712,3.994a.657.657,0,0,1-.174.913A.653.653,0,0,1-437.425,416.588Z" transform="translate(440.795 -402.824)" fill="#fff"/>
        </g>
      </g>
    </g>
  </g>
</svg>
