<svg xmlns="http://www.w3.org/2000/svg" xmlns:xlink="http://www.w3.org/1999/xlink" width="190" height="112" viewBox="0 0 190 112">
  <defs>
    <linearGradient id="linear-gradient" x1="0.5" x2="0.5" y2="1" gradientUnits="objectBoundingBox">
      <stop offset="0" stop-color="#f7ca2e" stop-opacity="0"/>
      <stop offset="0.091" stop-color="#f7ca2e" stop-opacity="0.129"/>
      <stop offset="0.283" stop-color="#f7ca2e" stop-opacity="0.388"/>
      <stop offset="0.465" stop-color="#f7ca2e" stop-opacity="0.612"/>
      <stop offset="0.633" stop-color="#f7ca2e" stop-opacity="0.78"/>
      <stop offset="0.784" stop-color="#f7ca2e" stop-opacity="0.902"/>
      <stop offset="0.911" stop-color="#f7ca2e" stop-opacity="0.969"/>
      <stop offset="1" stop-color="#f7ca2e"/>
    </linearGradient>
    <linearGradient id="linear-gradient-2" x1="0.5" x2="0.5" y2="1" gradientUnits="objectBoundingBox">
      <stop offset="0" stop-color="#b13e8d" stop-opacity="0"/>
      <stop offset="0.091" stop-color="#b13e8d" stop-opacity="0.129"/>
      <stop offset="0.283" stop-color="#b13e8d" stop-opacity="0.388"/>
      <stop offset="0.465" stop-color="#b13e8d" stop-opacity="0.612"/>
      <stop offset="0.633" stop-color="#b13e8d" stop-opacity="0.78"/>
      <stop offset="0.784" stop-color="#b13e8d"/>
      <stop offset="0.911" stop-color="#b13e8d" stop-opacity="0.969"/>
      <stop offset="1" stop-color="#b13e8d"/>
    </linearGradient>
    <filter id="Rectángulo_40718" x="41" y="4" width="108" height="108" filterUnits="userSpaceOnUse">
      <feOffset dy="3" input="SourceAlpha"/>
      <feGaussianBlur stdDeviation="3" result="blur"/>
      <feFlood flood-opacity="0.161"/>
      <feComposite operator="in" in2="blur"/>
      <feComposite in="SourceGraphic"/>
    </filter>
  </defs>
  <g id="Grupo_128316" data-name="Grupo 128316" transform="translate(-180 -1916)">
    <rect id="Rectángulo_40586" data-name="Rectángulo 40586" width="190" height="20" transform="translate(180 1961)" fill="none"/>
    <g id="Grupo_108405" data-name="Grupo 108405" transform="translate(209.5 1980)">
      <path id="Rectángulo_5242" data-name="Rectángulo 5242" d="M0,0H12a0,0,0,0,1,0,0V43.333a3,3,0,0,1-3,3H3a3,3,0,0,1-3-3V0A0,0,0,0,1,0,0Z" transform="translate(0 0)" fill="url(#linear-gradient)"/>
    </g>
    <g id="Grupo_108406" data-name="Grupo 108406" transform="translate(340 1968) rotate(180)">
      <path id="Rectángulo_5242-2" data-name="Rectángulo 5242" d="M0,0H12a0,0,0,0,1,0,0V49a3,3,0,0,1-3,3H3a3,3,0,0,1-3-3V0A0,0,0,0,1,0,0Z" transform="translate(0 0)" fill="url(#linear-gradient-2)"/>
    </g>
    <g transform="matrix(1, 0, 0, 1, 180, 1916)" filter="url(#Rectángulo_40718)">
      <path id="Rectángulo_40718-2" data-name="Rectángulo 40718" d="M10,0H80A10,10,0,0,1,90,10V90a0,0,0,0,1,0,0H10A10,10,0,0,1,0,80V10A10,10,0,0,1,10,0Z" transform="translate(50 10)" fill="#f6f6f6"/>
    </g>
    <g id="Grupo_128315" data-name="Grupo 128315" transform="translate(-65 69)">
      <g id="Grupo_128135" data-name="Grupo 128135" transform="translate(308 1872)">
        <path id="Trazado_187983" data-name="Trazado 187983" d="M468,112.833c.643-1.511,2-1.235,3.314-1.248v-.708q0-3.13,0-6.26c0-1.5.6-2.091,2.106-2.1h.919V79.789c0-.186-.008-.372,0-.558a.936.936,0,0,1,.968-.983.922.922,0,0,1,.887.994c.015.888,0,1.777.012,2.665a.892.892,0,0,0,.156.564c1.62,1.652,3.258,3.286,5.035,5.069,0-.766,0-1.349,0-1.933.005-.748.32-1.152.9-1.165.606-.014.96.407.961,1.179q.006,6.012,0,12.024v.76h1.5q0-.914,0-1.83c0-1.576.593-2.178,2.156-2.2.163,0,.326-.014.57-.026v-.675q0-5.547,0-11.094c0-1.4.628-2.023,2.051-2.033.517,0,1.035-.007,1.552,0,.756.013,1.139.333,1.133.931s-.393.908-1.151.924c-.553.011-1.106,0-1.723,0v.735q0,5.888,0,11.776c0,1.047-.272,1.317-1.318,1.319h-1.408c0,.859,0,1.7,0,2.531,0,1.323-.209,1.528-1.555,1.529-.849,0-1.7.008-2.546,0-.8-.009-1.124-.335-1.125-1.14,0-2.81.011-5.619-.02-8.429a1.533,1.533,0,0,0-.391-.959c-1.393-1.442-2.826-2.847-4.247-4.262-.141-.14-.293-.27-.543-.5v.774q0,8.584,0,17.168c0,1.2-.242,1.431-1.465,1.432h-1.528c-.012.274-.03.493-.03.713q0,3.5,0,7c0,1.073-.284,1.348-1.369,1.351q-.869,0-1.738.007a1.421,1.421,0,0,0-.205.047v.633c0,2.83,0,5.661,0,8.491,0,.521-.031,1.009-.6,1.237s-.931-.111-1.269-.494Z" transform="translate(-468 -77.382)" fill="#6836bf"/>
        <path id="Trazado_187984" data-name="Trazado 187984" d="M468,122.73c.324-.394.663-.754,1.249-.529s.62.7.618,1.223c-.008,2.335,0,4.669,0,7v.7h9.493v-6.185c-.266-.024-.507-.042-.747-.067a1.563,1.563,0,0,1-1.487-1.724c.138-1.791.275-3.584.481-5.368a4.105,4.105,0,0,1,2.208-3.252c.121-.067.24-.139.4-.231a4.271,4.271,0,0,1-.836-3.765,4.106,4.106,0,0,1,3.279-3.182,1.234,1.234,0,0,0,.977-.767,4.062,4.062,0,0,1,2.124-1.949,4.441,4.441,0,0,1-.9-3.581,4.261,4.261,0,0,1,1.573-2.591,4.335,4.335,0,0,1,6.062,6.118,11.713,11.713,0,0,1,1.181.843,10.643,10.643,0,0,1,.9,1.021l2.108-1.917a9.711,9.711,0,0,1-.692-1.56,4.26,4.26,0,0,1,1.191-4.261,1.341,1.341,0,0,0,.359-.835q.03-9.576.015-19.152v-.671c-.584,0-1.1.011-1.609,0-.742-.019-1.134-.361-1.122-.953.012-.573.386-.887,1.1-.9.6-.01,1.2-.021,1.8.01a1.694,1.694,0,0,1,1.686,1.712c.01.185,0,.372,0,.558q0,9.142,0,18.284v.77h1.567V96.79q0-4.37,0-8.739c0-1.353.327-1.793,1.656-2.212,0-1.244,0-2.5,0-3.76,0-.758.308-1.151.893-1.167.605-.017.963.407.967,1.172.006,1.239,0,2.477,0,3.819.39,0,.752.016,1.113,0a2,2,0,0,1,1.6.664c.9.915,1.8,1.829,2.725,2.714A2.343,2.343,0,0,1,510.7,91.1c-.016,1.9-.005,3.8-.005,5.7v.718l1.516.073v-.738q0-10.816,0-21.631c0-1.608.593-2.2,2.207-2.2,1.552,0,3.1,0,4.657,0A1.756,1.756,0,0,1,521.061,75c.008,1.006,0,2.013,0,3.085.858,0,1.639-.005,2.42,0A1.718,1.718,0,0,1,525.4,80c.009.781,0,1.562,0,2.378.212.022.37.041.528.055a1.6,1.6,0,0,1,1.569,1.542c.037,2.52.028,5.04.014,7.56a.891.891,0,0,1-.906.909.916.916,0,0,1-.922-.9c-.037-.908-.018-1.817-.019-2.727,0-1.483,0-2.966,0-4.528h-.716c-1.145,0-1.41-.275-1.411-1.44,0-.944,0-1.889,0-2.9-1.074,0-2.082,0-3.091,0-.916,0-1.24-.319-1.246-1.226-.008-1.255,0-2.51,0-3.8h-5.1c-.01.217-.029.417-.029.617q0,11.249.008,22.5a1.284,1.284,0,0,0,.224.78,4.3,4.3,0,0,1,.38,5.622c-.031.049-.052.1-.1.2a4.49,4.49,0,0,1,2.335,2.369.533.533,0,0,0,.369.236,4.345,4.345,0,0,1,2.907,6.915.488.488,0,0,0-.036.147c.314.2.656.392.959.629a4.243,4.243,0,0,1,1.627,3.088c.146,1.583.287,3.167.406,4.753.111,1.481-.388,2.025-1.883,2.117-.081,0-.16.024-.291.044v6.185h8.706v-26.86c-.969,0-1.916,0-2.862,0-.806-.005-1.144-.318-1.148-1.12q-.018-3.5,0-7c0-.713.384-1.15.947-1.142s.907.434.909,1.167c.006,1.839,0,3.677,0,5.516v.725c.626,0,1.183.038,1.733-.008a2.15,2.15,0,0,1,2.323,1.243V132.4a1.384,1.384,0,0,1-1.314.624q-30.479-.015-60.957,0A1.379,1.379,0,0,1,468,132.4Zm39.77-18.237a4.287,4.287,0,0,1,.784-6.063,1.036,1.036,0,0,0,.263-.691c.02-2.147.023-4.293,0-6.44a1.3,1.3,0,0,0-.322-.8c-.776-.829-1.592-1.621-2.4-2.418-.126-.125-.292-.29-.444-.295-.922-.027-1.846-.014-2.746-.014a1.318,1.318,0,0,0-.05.2c0,3.385-.013,6.77,0,10.155a1.032,1.032,0,0,0,.314.618,4.5,4.5,0,0,1,1.267,2.494,4.364,4.364,0,0,1-.836,3.259l2.082,1.893Zm-8.559,18.539c-.176-1.811-.291-3.539-.528-5.249a2.221,2.221,0,0,0-2.279-1.89q-1.768-.04-3.538,0a2.372,2.372,0,0,0-2.378,2.236q-.126,1.295-.236,2.591c-.063.752-.114,1.5-.175,2.313h.762c1.228,0,1.459.232,1.46,1.444,0,1.983.011,3.966-.006,5.949,0,.523.172.781.719.733.216-.019.435,0,.688,0v-.767q0-2.975,0-5.949c0-.145,0-.289,0-.434a.932.932,0,1,1,1.856-.01c.014,1.818.005,3.635.006,5.453,0,.552,0,1.1,0,1.644,1.318.172,1.389.113,1.389-1.1,0-1.921,0-3.842,0-5.763,0-.871.324-1.183,1.205-1.2C498.469,123.028,498.778,123.033,499.211,123.033Zm11.07,0c-.2-1.885-.321-3.695-.6-5.48a2.153,2.153,0,0,0-2.148-1.656q-1.8-.046-3.6-.005a2.373,2.373,0,0,0-2.394,2.287c-.076.843-.159,1.686-.23,2.529-.064.753-.116,1.507-.178,2.324h.752c1.254,0,1.473.226,1.474,1.494,0,1.962.014,3.925-.008,5.887-.007.573.214.8.77.744.2-.02.4-.023.637-.035,0-.563,0-1.076,0-1.59,0-1.839-.007-3.677,0-5.515a.927.927,0,0,1,1.211-.992,1,1,0,0,1,.651,1.081c-.007,2.128,0,4.255,0,6.383v.64c1.389.073,1.389.073,1.389-1.183,0-1.921-.006-3.842,0-5.763,0-.8.332-1.125,1.13-1.148C509.486,123.025,509.831,123.033,510.281,123.033Zm11.04,0c-.173-1.81-.282-3.52-.516-5.212a2.234,2.234,0,0,0-2.312-1.929q-1.738-.038-3.476,0a2.384,2.384,0,0,0-2.426,2.323c-.074.843-.158,1.686-.229,2.529-.063.749-.113,1.5-.171,2.289.349,0,.6,0,.844,0,1.12.005,1.378.266,1.379,1.4q0,2.944,0,5.887c0,.787.058.839.855.832.16,0,.32-.014.54-.024V124.6c0-.124,0-.248,0-.372,0-.825.334-1.263.945-1.252s.916.442.917,1.284q0,3.1,0,6.2v.649c1.358.124,1.391.1,1.391-1.134,0-1.921-.005-3.842,0-5.763,0-.842.326-1.159,1.163-1.179C520.557,123.026,520.884,123.033,521.321,123.033Zm-33.17,0c-.171-1.8-.284-3.491-.505-5.166a2.238,2.238,0,0,0-2.275-1.972q-1.8-.044-3.6,0a2.284,2.284,0,0,0-2.247,1.788,8.618,8.618,0,0,0-.165,1.286c-.12,1.329-.231,2.659-.351,4.064h.814c1.178,0,1.418.243,1.419,1.422q0,2.819,0,5.639c0,1.071.015,1.085,1.064,1.06.1,0,.194-.022.34-.039v-.766c0-2.107-.005-4.214,0-6.321,0-.706.48-1.16,1.079-1.033a.972.972,0,0,1,.782,1.1q-.006,3.191,0,6.383v.645c1.389.087,1.389.087,1.389-1.171q0-2.757,0-5.515c0-1.152.256-1.4,1.434-1.405Zm-2.924-15.5a4.381,4.381,0,0,1,2.533,2.96,4.331,4.331,0,0,1-.739,3.693l2.064,1.878,2.092-1.868a4.4,4.4,0,0,1,1.773-6.692,2.07,2.07,0,0,0-1.773-1.268c-1.38-.064-2.768-.061-4.148,0A2.111,2.111,0,0,0,485.227,107.535Zm29.837-.03a2.07,2.07,0,0,0-1.772-1.267c-1.38-.064-2.767-.062-4.147,0a2.106,2.106,0,0,0-1.8,1.289,4.456,4.456,0,0,1,2.528,2.965,4.333,4.333,0,0,1-.74,3.7l2.068,1.876,2.089-1.866A4.4,4.4,0,0,1,515.064,107.5ZM504,107.534a2.08,2.08,0,0,0-1.786-1.3c-1.381-.052-2.767-.057-4.148.006a2.131,2.131,0,0,0-1.791,1.293,4.386,4.386,0,0,1,1.744,6.739,12.658,12.658,0,0,1,1.2.861,10.374,10.374,0,0,1,.875.994l2.118-1.913A4.4,4.4,0,0,1,504,107.534Zm-3.873-8.13a2.453,2.453,0,1,0,2.5,2.455A2.452,2.452,0,0,0,500.128,99.4Zm11.068,0a2.453,2.453,0,1,0,2.49,2.466A2.456,2.456,0,0,0,511.2,99.4Zm-22.116,0a2.453,2.453,0,1,0,.034,4.905,2.453,2.453,0,1,0-.034-4.905Zm30.113,12.137a2.456,2.456,0,1,0-2.478,2.477A2.44,2.44,0,0,0,519.194,111.541Zm-33.169.008a2.459,2.459,0,0,0-4.918,0,2.459,2.459,0,1,0,4.918,0Zm11.056.024a2.457,2.457,0,1,0-4.915-.047,2.458,2.458,0,1,0,4.915.047Zm11.056-.037a2.456,2.456,0,1,0-4.913.028,2.456,2.456,0,1,0,4.913-.028Zm-17.742,19.588v-6.245h-2.614v6.245Zm8.444-.012h2.617v-6.235h-2.617Zm11.072-6.233v6.232h2.6v-6.232Z" transform="translate(-468 -73.023)" fill="#6836bf"/>
      </g>
    </g>
  </g>
</svg>
