<svg xmlns="http://www.w3.org/2000/svg" width="55.408" height="50" viewBox="0 0 55.408 50">
  <g id="Grupo_128122" data-name="Grupo 128122" transform="translate(-338.902 -307.761)" opacity="0.5">
    <path id="Trazado_187922" data-name="Trazado 187922" d="M372.133,315.173h.715q6.9,0,13.8,0a3.7,3.7,0,0,1,3.966,3.976q0,6.221,0,12.44a3.615,3.615,0,0,1-3.931,3.918,4.816,4.816,0,0,0-3.952,1.466c-1.034,1.028-2.23,1.892-3.351,2.834a.967.967,0,0,1-1.7-.781c.01-1.135,0-2.27,0-3.484h-.644q-6,0-12.008,0a3.712,3.712,0,0,1-3.978-3.965c0-1.118,0-2.235,0-3.4H355.5v2.861c0,.212-.005.424,0,.636a.952.952,0,0,1-1.657.758c-1.373-1.151-2.783-2.259-4.109-3.461a2.92,2.92,0,0,0-2.372-.855,6.86,6.86,0,0,1-1.892-.094,3.583,3.583,0,0,1-2.9-3.5q-.031-6.567,0-13.133a3.631,3.631,0,0,1,3.611-3.622q11.17-.027,22.341,0a3.647,3.647,0,0,1,3.6,3.636C372.15,312.643,372.133,313.873,372.133,315.173Zm7.393,22.1c1.346-1.125,2.57-2.177,3.832-3.181a1.99,1.99,0,0,1,1.035-.381c.746-.057,1.5-.016,2.25-.018a1.889,1.889,0,0,0,2.121-2.141q0-6.189,0-12.377a1.9,1.9,0,0,0-2.174-2.148H365.066c-1.485,0-2.17.7-2.17,2.206q0,6.1,0,12.2c0,1.575.675,2.257,2.237,2.257H378.29c.939,0,1.233.3,1.236,1.249C379.528,335.672,379.526,336.4,379.526,337.271Zm-9.24-22.1c0-1.27.009-2.446,0-3.622a1.838,1.838,0,0,0-1.925-1.93q-11-.009-22,0a1.832,1.832,0,0,0-1.943,1.967q-.009,6.364,0,12.729a1.849,1.849,0,0,0,1.948,1.966c.75.009,1.5.024,2.251-.005a1.773,1.773,0,0,1,1.311.463c1.077.933,2.182,1.833,3.278,2.744.124.1.259.191.448.33,0-.862-.005-1.633,0-2.4.006-.794.332-1.122,1.126-1.125,1.462-.006,2.925,0,4.387,0h1.877V325.6c0-2.238-.01-4.475,0-6.712a3.636,3.636,0,0,1,2.574-3.524,4.993,4.993,0,0,1,1.363-.181C366.735,315.161,368.481,315.173,370.286,315.173Z" fill="#727997"/>
    <path id="Trazado_187923" data-name="Trazado 187923" d="M344.389,352.229v-9.264h-3.626v-1.84h3.614c.137-.853.718-.97,1.445-.962,2.212.027,4.425.021,6.637,0a1.065,1.065,0,0,1,1.224.932c.654,0,1.3.006,1.952,0a22.594,22.594,0,0,1,9.879,2.187,6.6,6.6,0,0,0,2.492.566c2.171.077,4.347.025,6.521.026a3.254,3.254,0,0,1,3.615,3.38.639.639,0,0,0,.064.152l3.385-1.437c.778-.33,1.555-.663,2.335-.989a3.362,3.362,0,0,1,4.572,1.748,3.414,3.414,0,0,1-2.034,4.564c-3.942,1.525-7.894,3.02-11.842,4.527a27.47,27.47,0,0,1-5.481,1.736,16.12,16.12,0,0,1-8.92-1.115q-3.242-1.357-6.492-2.7c-.231,1.127-.385,1.25-1.539,1.25q-3.261,0-6.522,0c-.82,0-1-.126-1.3-.929H340.75v-1.829Zm19.455-3.723h.7q5.051,0,10.1,0a1.524,1.524,0,0,0,1.369-.584,1.3,1.3,0,0,0,.119-1.421,1.376,1.376,0,0,0-1.316-.776c-2.329,0-4.659.058-6.984-.029a7.622,7.622,0,0,1-2.839-.616,21.368,21.368,0,0,0-7.687-2.078c-1.2-.07-2.408-.011-3.63-.011v8.714c2.579,1.073,5.141,2.164,7.723,3.206a12.785,12.785,0,0,0,7.637.753,35.2,35.2,0,0,0,4.655-1.482c4-1.486,7.977-3.017,11.953-4.56a2.479,2.479,0,0,0,1.028-.776,1.464,1.464,0,0,0-.143-1.82,1.5,1.5,0,0,0-1.842-.359c-2.461,1.039-4.9,2.13-7.383,3.111a7.866,7.866,0,0,1-2.68.551c-3.4.063-6.81.026-10.216.024-.185,0-.37-.017-.564-.026ZM346.3,342.052V353.09h5.474V342.052Z" fill="#727997"/>
    <path id="Trazado_187924" data-name="Trazado 187924" d="M394.309,321.632h-1.851c0-1.268.018-2.514,0-3.759a4.577,4.577,0,0,0-3.4-4.373,6.076,6.076,0,0,0-1.481-.171c-2.345-.017-4.69-.008-7.082-.008v-1.826c.168-.008.353-.024.537-.024q3.288,0,6.576,0a6.478,6.478,0,0,1,6.7,6.7C394.312,319.3,394.309,320.44,394.309,321.632Z" fill="#727997"/>
    <path id="Trazado_187925" data-name="Trazado 187925" d="M340.683,325.33H338.9V311.515h1.781Z" fill="#727997"/>
    <path id="Trazado_187926" data-name="Trazado 187926" d="M376.79,311.48h1.766v1.8H376.79Z" fill="#727997"/>
    <path id="Trazado_187927" data-name="Trazado 187927" d="M384.152,326.217v1.874h-1.835c0-.963-.052-1.941.02-2.91.042-.56.525-.717,1.061-.766a1.844,1.844,0,0,0,1.66-2.055,1.876,1.876,0,0,0-2.041-1.622c-.884.1-1.446.7-1.677,1.817h-1.761a3.585,3.585,0,0,1,2.95-3.607,3.676,3.676,0,0,1,4.188,2.454C387.386,323.395,386.486,325.1,384.152,326.217Z" fill="#727997"/>
    <path id="Trazado_187928" data-name="Trazado 187928" d="M364.769,324.392v-1.781h12.862v1.781Z" fill="#727997"/>
    <path id="Trazado_187929" data-name="Trazado 187929" d="M377.644,328.109H364.788v-1.787h12.856Z" fill="#727997"/>
    <path id="Trazado_187930" data-name="Trazado 187930" d="M364.781,330.017h10.1V331.8h-10.1Z" fill="#727997"/>
    <path id="Trazado_187931" data-name="Trazado 187931" d="M377.656,318.921V320.7h-7.339v-1.774Z" fill="#727997"/>
    <path id="Trazado_187932" data-name="Trazado 187932" d="M366.623,318.9H368.4v1.787h-1.774Z" fill="#727997"/>
    <path id="Trazado_187933" data-name="Trazado 187933" d="M382.309,331.8v-1.768H384.1V331.8Z" fill="#727997"/>
    <path id="Trazado_187934" data-name="Trazado 187934" d="M351.836,313.282V311.5h16.557v1.784Z" fill="#727997"/>
    <path id="Trazado_187935" data-name="Trazado 187935" d="M346.29,316.984V315.2h12.882v1.78Z" fill="#727997"/>
    <path id="Trazado_187936" data-name="Trazado 187936" d="M346.29,320.687v-1.779h12.882v1.779Z" fill="#727997"/>
    <path id="Trazado_187937" data-name="Trazado 187937" d="M346.292,324.393V322.61h12.862v1.783Z" fill="#727997"/>
    <path id="Trazado_187938" data-name="Trazado 187938" d="M348.15,311.481h1.763v1.8H348.15Z" fill="#727997"/>
    <path id="Trazado_187939" data-name="Trazado 187939" d="M348.135,351.239v-1.772h1.8v1.772Z" fill="#727997"/>
  </g>
</svg>
