<svg xmlns="http://www.w3.org/2000/svg" xmlns:xlink="http://www.w3.org/1999/xlink" width="190" height="110.333" viewBox="0 0 190 110.333">
  <defs>
    <linearGradient id="linear-gradient" x1="0.5" x2="0.5" y2="1" gradientUnits="objectBoundingBox">
      <stop offset="0" stop-color="#f7ca2e" stop-opacity="0"/>
      <stop offset="0.091" stop-color="#f7ca2e" stop-opacity="0.129"/>
      <stop offset="0.283" stop-color="#f7ca2e" stop-opacity="0.388"/>
      <stop offset="0.465" stop-color="#f7ca2e" stop-opacity="0.612"/>
      <stop offset="0.633" stop-color="#f7ca2e" stop-opacity="0.78"/>
      <stop offset="0.784" stop-color="#f7ca2e" stop-opacity="0.902"/>
      <stop offset="0.911" stop-color="#f7ca2e" stop-opacity="0.969"/>
      <stop offset="1" stop-color="#f7ca2e"/>
    </linearGradient>
    <linearGradient id="linear-gradient-2" x1="0.5" x2="0.5" y2="1" gradientUnits="objectBoundingBox">
      <stop offset="0" stop-color="#b13e8d" stop-opacity="0"/>
      <stop offset="0.091" stop-color="#b13e8d" stop-opacity="0.129"/>
      <stop offset="0.283" stop-color="#b13e8d" stop-opacity="0.388"/>
      <stop offset="0.465" stop-color="#b13e8d" stop-opacity="0.612"/>
      <stop offset="0.633" stop-color="#b13e8d" stop-opacity="0.78"/>
      <stop offset="0.784" stop-color="#b13e8d"/>
      <stop offset="0.911" stop-color="#b13e8d" stop-opacity="0.969"/>
      <stop offset="1" stop-color="#b13e8d"/>
    </linearGradient>
    <filter id="Rectángulo_40717" x="41" y="1" width="108" height="108" filterUnits="userSpaceOnUse">
      <feOffset dy="3" input="SourceAlpha"/>
      <feGaussianBlur stdDeviation="3" result="blur"/>
      <feFlood flood-opacity="0.161"/>
      <feComposite operator="in" in2="blur"/>
      <feComposite in="SourceGraphic"/>
    </filter>
  </defs>
  <g id="Grupo_131985" data-name="Grupo 131985" transform="translate(-180 -400)">
    <g id="Grupo_128314" data-name="Grupo 128314">
      <rect id="Rectángulo_40586" data-name="Rectángulo 40586" width="190" height="20" transform="translate(180 442)" fill="none"/>
      <g id="Grupo_108405" data-name="Grupo 108405" transform="translate(209.5 464)">
        <path id="Rectángulo_5242" data-name="Rectángulo 5242" d="M0,0H12a0,0,0,0,1,0,0V43.333a3,3,0,0,1-3,3H3a3,3,0,0,1-3-3V0A0,0,0,0,1,0,0Z" transform="translate(0 0)" fill="url(#linear-gradient)"/>
      </g>
      <g id="Grupo_108406" data-name="Grupo 108406" transform="translate(340 452) rotate(180)">
        <path id="Rectángulo_5242-2" data-name="Rectángulo 5242" d="M0,0H12a0,0,0,0,1,0,0V49a3,3,0,0,1-3,3H3a3,3,0,0,1-3-3V0A0,0,0,0,1,0,0Z" transform="translate(0 0)" fill="url(#linear-gradient-2)"/>
      </g>
      <g transform="matrix(1, 0, 0, 1, 180, 400)" filter="url(#Rectángulo_40717)">
        <path id="Rectángulo_40717-2" data-name="Rectángulo 40717" d="M10,0H80A10,10,0,0,1,90,10V90a0,0,0,0,1,0,0H10A10,10,0,0,1,0,80V10A10,10,0,0,1,10,0Z" transform="translate(50 7)" fill="#f6f6f6"/>
      </g>
      <g id="Grupo_128313" data-name="Grupo 128313" transform="translate(-86.578 -265.465)">
        <path id="Trazado_188301" data-name="Trazado 188301" d="M393.877,682.465c.158.076.313.16.474.228a3.169,3.169,0,0,1,2.148,2.973q.072,4.678,0,9.358a3.259,3.259,0,0,1-2.975,3.205,2.229,2.229,0,0,1-.613.037,7.343,7.343,0,0,0-5.393,1.554c-2.5,1.709-5.122,3.237-7.693,4.84-.171.106-.349.2-.652.374l1.148-6.762c-.856,0-1.67,0-2.484,0-2.589,0-3.931-1.333-3.932-3.9,0-2.55.062-5.1-.02-7.65-.067-2.1.685-3.565,2.736-4.254Zm-11.623,18.014c1.555-.968,3.034-1.748,4.349-2.744a8.253,8.253,0,0,1,6.157-1.758c1.135.125,1.518-.344,1.519-1.481q0-4.131,0-8.263c0-1.137-.368-1.5-1.522-1.5q-6.227-.006-12.453,0c-.981,0-1.962-.016-2.942.01a1.063,1.063,0,0,0-1.162,1.148q-.02,4.473,0,8.946a1.079,1.079,0,0,0,1.218,1.162c1.619.012,3.239,0,4.858,0h.729Z" fill="#6836bf"/>
        <path id="Trazado_188302" data-name="Trazado 188302" d="M383.323,743.4H359.152l1.838,1.511c-.27.306-.347.411-.442.5-1.817,1.662-3.629,3.329-5.456,4.978a7.757,7.757,0,0,1-10.628-.049c-4.009-3.855-7.9-7.833-11.838-11.759q-1.769-1.762-3.535-3.527a7.865,7.865,0,0,1-.008-11.519c1.6-1.617,3.222-3.221,4.795-4.792l8.391,8.37c-.913.907-1.863,1.849-2.812,2.793-.517.514-1.047,1.017-1.545,1.55a1.113,1.113,0,0,0-.011,1.649c1.226,1.253,2.48,2.48,3.8,3.795.151-.413.284-.759.4-1.109a7.807,7.807,0,0,1,6.365-5.512q3.361-.617,6.725-1.225c.2-.036.393-.092.784-.185-.223-.316-.332-.611-.544-.75a11.49,11.49,0,0,1-4.974-6.942.9.9,0,0,0-.492-.53,4.536,4.536,0,0,1-3.192-4.52c-.006-2.551-.012-5.1,0-7.653a14.693,14.693,0,0,1,29.316-1.459c.06.7.091,1.409.093,2.114q.012,6.25,0,12.5a3.4,3.4,0,0,1-3.759,3.709,3.191,3.191,0,0,0-3.053,1.242,10.858,10.858,0,0,1-1.831,1.519,5.135,5.135,0,0,0-.594.786c1.983.362,3.753.665,5.513,1.014a24.589,24.589,0,0,1,3.783.884,7.175,7.175,0,0,1,4.381,4.428c.945,2.607,1.785,5.253,2.666,7.884A1.455,1.455,0,0,1,383.323,743.4Zm-21.833-7.44c-.206-.194-.374-.344-.534-.5-1.34-1.335-2.668-2.682-4.03-3.995a1.1,1.1,0,0,0-.818-.28c-2.471.417-4.939.851-7.4,1.331a5.552,5.552,0,0,0-4.389,3.777c-.233.641-.423,1.3-.66,1.936a.67.67,0,0,0,.186.837c.684.636,1.323,1.319,1.992,1.971a1.172,1.172,0,0,0,1.857.035c1.106-.985,2.2-1.985,3.3-2.976.485-.437.974-.868,1.492-1.33,1.332,1.331,2.63,2.609,3.9,3.913a1.435,1.435,0,0,0,1.131.477q10.984-.021,21.969-.01h.768c-.555-1.671-1.052-3.249-1.6-4.808a5.592,5.592,0,0,0-4.56-3.85c-1.9-.347-3.836-.594-5.707-1.076a2.945,2.945,0,0,0-3.426,1.048C363.922,733.708,362.669,734.783,361.49,735.957Zm12.28-23.627a46.544,46.544,0,0,0-.037-5.742,12.379,12.379,0,0,0-24.318-.958,42.578,42.578,0,0,0-.363,6.247,2.911,2.911,0,0,0,.063.485l1.08-.446v-1.259a13.054,13.054,0,0,0,11.269-5,15.953,15.953,0,0,0,5.072,3.936,14.164,14.164,0,0,0,6.251,1.084v1.259Zm-12.248,10.749h.788c2.1,0,4.2-.025,6.3.016a.988.988,0,0,0,1.066-.7,9.444,9.444,0,0,0,.848-3.9c0-1.662-.011-3.325.01-4.986.006-.444-.11-.643-.588-.694a14.341,14.341,0,0,1-8.156-3.656c-.1-.085-.209-.152-.332-.241a14.9,14.9,0,0,1-8.639,3.953c-.149.016-.373.359-.376.553-.027,1.776-.06,3.553,0,5.328a9.026,9.026,0,0,0,11.4,8.532,8.363,8.363,0,0,0,3.569-1.938h-5.879ZM349.211,742.8c-1.816,1.314-3.484,1.3-4.882-.088q-4.01-3.967-7.985-7.967a3.258,3.258,0,0,1-.79-3.759,7.477,7.477,0,0,1,.622-1.067l-5.12-5.145c-2.9,2.6-2.989,6.068-.2,8.857l7.693,7.678c2.4,2.4,4.792,4.812,7.216,7.19,2.509,2.461,6.736,2.145,8.538-.573Zm8.284,2.331-5.168-5.189-1.259,1.144,5.191,5.184ZM339.006,727.1l-5.1-5.1-1.079,1.029,5.13,5.12Zm19.227,2.292,3.194,3.177,3.1-3.123A11.423,11.423,0,0,1,358.233,729.4Zm15.609-9.2c-.5.3-1.082.443-1.283.8a9.368,9.368,0,0,0-.624,2C373.665,723.326,374.119,722.7,373.842,720.2Zm-23.689-5.8a2.2,2.2,0,0,0-1.069,2.237,2,2,0,0,0,1.069,1.572Zm22.655,3.832a2.162,2.162,0,0,0,1.08-2.149,1.967,1.967,0,0,0-1.08-1.636Z" fill="#6836bf"/>
        <path id="Trazado_188303" data-name="Trazado 188303" d="M370.835,687.32l-.625,2.034c-10.391-2.763-19.809-.965-28.041,6.015a28.47,28.47,0,0,0-9.208,15.038l3.062-1.812,1.16,1.922-6.619,3.967-3.969-6.6,1.93-1.17,2.1,3.477c3.027-10.953,9.671-18.57,20.3-22.519A30.748,30.748,0,0,1,370.835,687.32Z" fill="#6836bf"/>
        <path id="Trazado_188304" data-name="Trazado 188304" d="M389.342,707.922l-2.013,3.326-1.936-1.151,3.969-6.608,6.617,3.961-1.157,1.932-3.252-1.932c3.237,10.908,1.421,20.82-5.447,29.921l-1.759-1.414C390.761,727.486,392.453,718.22,389.342,707.922Z" fill="#6836bf"/>
        <path id="Trazado_188305" data-name="Trazado 188305" d="M378.455,689.2v-2.171h13.493V689.2Z" fill="#6836bf"/>
        <path id="Trazado_188306" data-name="Trazado 188306" d="M378.464,693.71v-2.178h8.956v2.178Z" fill="#6836bf"/>
        <path id="Trazado_188307" data-name="Trazado 188307" d="M391.954,693.718H389.8v-2.194h2.153Z" fill="#6836bf"/>
      </g>
    </g>
  </g>
</svg>
