<svg xmlns="http://www.w3.org/2000/svg" xmlns:xlink="http://www.w3.org/1999/xlink" width="190" height="111" viewBox="0 0 190 111">
  <defs>
    <linearGradient id="linear-gradient" x1="0.5" x2="0.5" y2="1" gradientUnits="objectBoundingBox">
      <stop offset="0" stop-color="#f7ca2e" stop-opacity="0"/>
      <stop offset="0.091" stop-color="#f7ca2e" stop-opacity="0.129"/>
      <stop offset="0.283" stop-color="#f7ca2e" stop-opacity="0.388"/>
      <stop offset="0.465" stop-color="#f7ca2e" stop-opacity="0.612"/>
      <stop offset="0.633" stop-color="#f7ca2e" stop-opacity="0.78"/>
      <stop offset="0.784" stop-color="#f7ca2e" stop-opacity="0.902"/>
      <stop offset="0.911" stop-color="#f7ca2e" stop-opacity="0.969"/>
      <stop offset="1" stop-color="#f7ca2e"/>
    </linearGradient>
    <linearGradient id="linear-gradient-2" x1="0.5" x2="0.5" y2="1" gradientUnits="objectBoundingBox">
      <stop offset="0" stop-color="#b13e8d" stop-opacity="0"/>
      <stop offset="0.091" stop-color="#b13e8d" stop-opacity="0.129"/>
      <stop offset="0.283" stop-color="#b13e8d" stop-opacity="0.388"/>
      <stop offset="0.465" stop-color="#b13e8d" stop-opacity="0.612"/>
      <stop offset="0.633" stop-color="#b13e8d" stop-opacity="0.78"/>
      <stop offset="0.784" stop-color="#b13e8d"/>
      <stop offset="0.911" stop-color="#b13e8d" stop-opacity="0.969"/>
      <stop offset="1" stop-color="#b13e8d"/>
    </linearGradient>
    <filter id="Rectángulo_40715" x="41" y="3" width="108" height="108" filterUnits="userSpaceOnUse">
      <feOffset dy="3" input="SourceAlpha"/>
      <feGaussianBlur stdDeviation="3" result="blur"/>
      <feFlood flood-opacity="0.161"/>
      <feComposite operator="in" in2="blur"/>
      <feComposite in="SourceGraphic"/>
    </filter>
  </defs>
  <g id="Grupo_128762" data-name="Grupo 128762" transform="translate(-184 -1312)">
    <rect id="Rectángulo_40586" data-name="Rectángulo 40586" width="190" height="20" transform="translate(184 1357)" fill="none"/>
    <g id="Grupo_108405" data-name="Grupo 108405" transform="translate(213.5 1376)">
      <path id="Rectángulo_5242" data-name="Rectángulo 5242" d="M0,0H12a0,0,0,0,1,0,0V43.333a3,3,0,0,1-3,3H3a3,3,0,0,1-3-3V0A0,0,0,0,1,0,0Z" transform="translate(0 0)" fill="url(#linear-gradient)"/>
    </g>
    <g id="Grupo_108406" data-name="Grupo 108406" transform="translate(344 1364) rotate(180)">
      <path id="Rectángulo_5242-2" data-name="Rectángulo 5242" d="M0,0H12a0,0,0,0,1,0,0V49a3,3,0,0,1-3,3H3a3,3,0,0,1-3-3V0A0,0,0,0,1,0,0Z" transform="translate(0 0)" fill="url(#linear-gradient-2)"/>
    </g>
    <g transform="matrix(1, 0, 0, 1, 184, 1312)" filter="url(#Rectángulo_40715)">
      <path id="Rectángulo_40715-2" data-name="Rectángulo 40715" d="M10,0H80A10,10,0,0,1,90,10V90a0,0,0,0,1,0,0H10A10,10,0,0,1,0,80V10A10,10,0,0,1,10,0Z" transform="translate(50 9)" fill="#f6f6f6"/>
    </g>
    <g id="Grupo_128761" data-name="Grupo 128761" transform="translate(-85.23 1237.571)">
      <path id="Trazado_188652" data-name="Trazado 188652" d="M334.23,151.535a13.654,13.654,0,0,0,.913-1.64,3.128,3.128,0,0,0,.277-1.517,10.773,10.773,0,0,1,.84-6.342.923.923,0,0,1,1.065-.641.856.856,0,0,1,.6,1.243,9.311,9.311,0,0,0-.695,5.763,3.609,3.609,0,0,1-.822,2.813,2.22,2.22,0,0,0-.2,2.6,2.153,2.153,0,0,0,1.819,1.146c.568.035,1.14.007,1.8.007-.9-1.695-.622-3.492-.685-5.264-.133-.055-.259-.1-.383-.158a.824.824,0,0,1-.532-1,.81.81,0,0,1,.894-.687,20.485,20.485,0,0,0,2.535-.009,9.605,9.605,0,0,0,2.446-.611,4.29,4.29,0,0,0,2.66-3.372c.041-.212.023-.5.154-.617.253-.23.611-.526.89-.493s.528.421.745.69c.079.1.025.3.033.484a7.632,7.632,0,0,1,.851.193,3,3,0,0,1,2.237,2.763c.087,2.023.027,4.056-.051,6.081a9.89,9.89,0,0,1-.478,1.957,11.088,11.088,0,0,0,2-.02,2.234,2.234,0,0,0,1.446-3.455,5.126,5.126,0,0,1-.871-3.894,8.3,8.3,0,0,0-7.156-9.433,8.041,8.041,0,0,0-5.794,1.337c-.082.054-.162.112-.243.168-.646.449-1.173.434-1.5-.041s-.185-.961.5-1.416c.586-.393,1.206-.736,1.846-1.122-.252-.868-.544-1.759-.769-2.667a24.186,24.186,0,0,1,.786-14.458.828.828,0,0,0-.264-1.089,6.089,6.089,0,0,1-1.708-2.719.956.956,0,0,0-.516-.523,4.159,4.159,0,0,1-2.254-1.895,10.158,10.158,0,1,1,18.3-8.664c.076.2.155.4.243.621a24.759,24.759,0,0,1,18.4,0c.079-.193.164-.383.237-.578a10.147,10.147,0,0,1,14.069-5.554c.414.212.744.473.712.981-.043.678-.728.995-1.43.643a8.526,8.526,0,0,0-3.985-.929,8.393,8.393,0,0,0-7.082,12.589,3.357,3.357,0,0,0,.852.9c-.038-.766.435-1.549-.3-2.235a1.09,1.09,0,0,1-.087-.913c.133-.429.554-.479.975-.493a21.614,21.614,0,0,0,3.052-.18A4.647,4.647,0,0,0,384.7,105.9c.136-.73.455-1.053.991-1s.78.405.814,1.21c.171.04.354.089.54.127a3.121,3.121,0,0,1,2.536,2.885c.059,1.3.025,2.6.031,3.9,0,.211,0,.422,0,.633l.165.092a5.564,5.564,0,0,0,.765-.882,8.227,8.227,0,0,0-.168-8.793c-.081-.135-.182-.258-.263-.392a.888.888,0,1,1,1.478-.97A10.165,10.165,0,0,1,391.944,114a4.105,4.105,0,0,1-2.063,1.6.965.965,0,0,0-.521.516A6.343,6.343,0,0,1,387.483,119a.525.525,0,0,0-.174.7,24.314,24.314,0,0,1,1.542,10.492,23.905,23.905,0,0,1-1.233,6.117l-.243.72a22.11,22.11,0,0,1,1.955,1.223,9.9,9.9,0,0,1,4.02,9.746,3.083,3.083,0,0,0,.567,2.37A4.047,4.047,0,0,1,391.1,156.7c-.992.119-2.008.016-3.011.058a1.588,1.588,0,0,0-.848.285,6.306,6.306,0,0,1-7.833-.019,1.475,1.475,0,0,0-.793-.266c-.806-.035-1.615,0-2.423-.014a4.05,4.05,0,0,1-4.142-4.434c.009-.171,0-.342,0-.568a24.789,24.789,0,0,1-15.3.012,12.941,12.941,0,0,1-.165,1.9,3.993,3.993,0,0,1-3.849,3.084c-.315.008-.632.023-.946,0a5.2,5.2,0,0,0-3.364.824,6.009,6.009,0,0,1-6.87-.49,1.714,1.714,0,0,0-.9-.317c-.786-.044-1.576-.008-2.364-.017a4.051,4.051,0,0,1-3.9-2.559,2.707,2.707,0,0,0-.175-.286Zm8.924-31.369a23.026,23.026,0,0,0-.059,16.35l1.1-.167A10.157,10.157,0,0,1,355.5,145.3a22.136,22.136,0,0,1-.115,3.115c-.038.57-.016.959.667,1.213a22.857,22.857,0,0,0,16.564.008c.822-.31.845-.367.747-1.256-.011-.1-.028-.195-.046-.292a10.174,10.174,0,0,1,7.752-11.576,10.81,10.81,0,0,1,4.548,0c2.033-4.239,1.969-13.289-.1-16.294-3.985,1.009-6.795-.441-8.244-4.246a.559.559,0,0,0-.281-.326c-1.694-.458-2.479-1.765-3.081-3.252a10.264,10.264,0,0,1-.68-4.916c-.112-.057-.2-.11-.285-.145a22.7,22.7,0,0,0-16.942-.081.59.59,0,0,0-.462.719,9.824,9.824,0,0,1-1.512,6.023,3.462,3.462,0,0,1-1.956,1.538.967.967,0,0,0-.705.739,6.124,6.124,0,0,1-3.811,3.928A6.342,6.342,0,0,1,343.154,120.166ZM389,154.972c.534,0,1.044.007,1.554,0a2.216,2.216,0,0,0,2.058-1.252,2.114,2.114,0,0,0-.189-2.394,4.473,4.473,0,0,1-.8-3.73,8.373,8.373,0,1,0-16.576,0,5.056,5.056,0,0,1-.865,3.84,2.247,2.247,0,0,0,1.48,3.482,13.311,13.311,0,0,0,2.071.018c-.92-1.694-.638-3.495-.7-5.24-.748-.308-1.023-.65-.925-1.131.108-.53.5-.7,1.307-.7a17.828,17.828,0,0,0,3.056-.147A4.648,4.648,0,0,0,384.635,144c.046-.211.066-.43.13-.635a.878.878,0,0,1,1.726.158c.013.132,0,.267,0,.41.267.055.5.095.723.152a3.014,3.014,0,0,1,2.352,2.783C389.542,149.566,390.042,152.3,389,154.972Zm-37.286-41.329.159.092a5.5,5.5,0,0,0,.687-.75,7.875,7.875,0,0,0,1.237-4.723,8.38,8.38,0,1,0-15.529,4.7,6,6,0,0,0,.72.782l.155-.085c0-.545.008-1.089-.007-1.634a.423.423,0,0,0-.156-.29.863.863,0,0,1-.378-1.123c.213-.5.648-.532,1.133-.543a18.143,18.143,0,0,0,2.934-.184,4.639,4.639,0,0,0,4.06-3.681,5.5,5.5,0,0,1,.162-.748.805.805,0,0,1,.939-.542.794.794,0,0,1,.729.734c.022.153.017.31.024.458,2.446.641,3.132,1.535,3.132,4.058Zm-10.774-1.595c0,.8-.04,1.683.008,2.563a4.451,4.451,0,0,0,4.151,4.175,4.338,4.338,0,0,0,4.717-3.713,50.909,50.909,0,0,0,.091-5.841,1.345,1.345,0,0,0-1.433-1.287.846.846,0,0,0-.628.354,5.966,5.966,0,0,1-3.328,2.866C343.4,111.551,342.207,111.744,340.944,112.048Zm8.91,37.735h.089c0-.826.013-1.653,0-2.479a1.471,1.471,0,0,0-1.266-1.539.717.717,0,0,0-.893.422,5.417,5.417,0,0,1-3.065,2.714,16.7,16.7,0,0,1-3.137.731c-.534.08-.7.226-.665.747.046.686,0,1.378.036,2.064a4.48,4.48,0,0,0,4.156,4.17,4.419,4.419,0,0,0,4.725-3.713A23.29,23.29,0,0,0,349.854,149.783Zm28.98-.017c0,.893-.048,1.761.009,2.622a4.5,4.5,0,0,0,4.593,4.233,4.446,4.446,0,0,0,4.381-4.312c.062-1.691.036-3.385.013-5.078a1.4,1.4,0,0,0-1.5-1.47.725.725,0,0,0-.536.3,6.615,6.615,0,0,1-4.636,3.336C380.417,149.567,379.652,149.639,378.834,149.766Zm-.054-37.814a30.06,30.06,0,0,0,.163,3.227,4.478,4.478,0,0,0,8.858-.484c.08-1.768.049-3.541.027-5.312a1.408,1.408,0,0,0-1.523-1.446.678.678,0,0,0-.5.273,6.616,6.616,0,0,1-4.729,3.385C380.347,111.755,379.6,111.827,378.78,111.952Z" transform="translate(0)" fill="#6836bf"/>
      <path id="Trazado_188653" data-name="Trazado 188653" d="M500.38,268.674c-.021.275-.036.449-.048.623a2.021,2.021,0,0,1-1.323,1.862,2.042,2.042,0,0,1-2.291-.453c-.583-.53-1.159-1.067-1.74-1.6-.139-.127-.282-.249-.514-.453-.016.317-.033.507-.033.7q0,2.837,0,5.673c0,.768.048.813.792.817.394,0,.788-.009,1.182,0a.879.879,0,1,1,.055,1.756,12.739,12.739,0,0,1-1.83-.01,2.1,2.1,0,0,1-1.967-2.244c-.018-1.97-.005-3.94-.006-5.91v-.758c-.9,0-1.725,0-2.548,0a2.146,2.146,0,0,1-2.415-2.394q-.012-3.191,0-6.382a2.145,2.145,0,0,1,2.391-2.366q6.028-.005,12.056,0a2.157,2.157,0,0,1,2.364,2.342c.011,1.792,0,3.583,0,5.461h1.307c1.221,0,2.443-.008,3.664,0a2.071,2.071,0,0,1,2.2,2.125q.049,4.018,0,8.037a2.085,2.085,0,0,1-2.053,2.105.425.425,0,0,1-.118,0c-1.639-.336-2.784.447-3.847,1.581a1.989,1.989,0,0,1-2.533.445,2.242,2.242,0,0,1-1.175-2.024c-.45,0-.861.013-1.271,0-.647-.025-1.013-.372-1-.919.012-.528.365-.838.992-.847q1.034-.015,2.068,0c.7.011.982.308,1,1.02a6.237,6.237,0,0,0,.015.767.6.6,0,0,0,.236.422.563.563,0,0,0,.455-.145c.639-.556,1.238-1.159,1.9-1.69a1.822,1.822,0,0,1,.945-.361,19.84,19.84,0,0,1,2.008-.013c.411.008.623-.14.622-.58q-.01-3.782,0-7.564c0-.42-.162-.6-.6-.594q-2.245.025-4.491,0a.538.538,0,0,0-.565.377,2.011,2.011,0,0,1-1.891,1.189C501.73,268.682,501.082,268.674,500.38,268.674Zm-4.257-9.366c-1.99,0-3.98.013-5.97-.009-.516-.006-.7.18-.693.687q.024,3.1,0,6.206c0,.528.165.735.717.722,1.418-.031,2.837.005,4.255-.018a1.718,1.718,0,0,1,1.326.506c.632.621,1.29,1.217,1.959,1.8a2.54,2.54,0,0,0,.644.3,4.348,4.348,0,0,0,.2-.688c.036-.271,0-.551.011-.826.024-.769.32-1.068,1.09-1.077.808-.01,1.616-.022,2.423,0,.5.016.655-.2.652-.668q-.019-3.133,0-6.265c0-.517-.2-.684-.707-.678C500.064,259.321,498.094,259.309,496.123,259.309Z" transform="translate(-135.311 -140.291)" fill="#6836bf"/>
      <path id="Trazado_188654" data-name="Trazado 188654" d="M609.232,369.533c-.668,0-1.337.012-2,0a.875.875,0,0,1-.937-.85.864.864,0,0,1,.9-.9q2.063-.041,4.127,0a.847.847,0,0,1,.9.891c0,.533-.35.853-.972.865C610.569,369.543,609.9,369.533,609.232,369.533Z" transform="translate(-239.89 -237.48)" fill="#6836bf"/>
      <path id="Trazado_188655" data-name="Trazado 188655" d="M528.49,297.279c.708,0,1.417-.012,2.125,0a.881.881,0,1,1,.041,1.758q-2.154.033-4.309,0a.882.882,0,1,1,.018-1.758C527.073,297.268,527.782,297.279,528.49,297.279Z" transform="translate(-168.569 -175.333)" fill="#6836bf"/>
    </g>
  </g>
</svg>
