<svg xmlns="http://www.w3.org/2000/svg" xmlns:xlink="http://www.w3.org/1999/xlink" width="190" height="111" viewBox="0 0 190 111">
  <defs>
    <linearGradient id="linear-gradient" x1="0.5" x2="0.5" y2="1" gradientUnits="objectBoundingBox">
      <stop offset="0" stop-color="#f7ca2e" stop-opacity="0"/>
      <stop offset="0.091" stop-color="#f7ca2e" stop-opacity="0.129"/>
      <stop offset="0.283" stop-color="#f7ca2e" stop-opacity="0.388"/>
      <stop offset="0.465" stop-color="#f7ca2e" stop-opacity="0.612"/>
      <stop offset="0.633" stop-color="#f7ca2e" stop-opacity="0.78"/>
      <stop offset="0.784" stop-color="#f7ca2e" stop-opacity="0.902"/>
      <stop offset="0.911" stop-color="#f7ca2e" stop-opacity="0.969"/>
      <stop offset="1" stop-color="#f7ca2e"/>
    </linearGradient>
    <linearGradient id="linear-gradient-2" x1="0.5" x2="0.5" y2="1" gradientUnits="objectBoundingBox">
      <stop offset="0" stop-color="#b13e8d" stop-opacity="0"/>
      <stop offset="0.091" stop-color="#b13e8d" stop-opacity="0.129"/>
      <stop offset="0.283" stop-color="#b13e8d" stop-opacity="0.388"/>
      <stop offset="0.465" stop-color="#b13e8d" stop-opacity="0.612"/>
      <stop offset="0.633" stop-color="#b13e8d" stop-opacity="0.78"/>
      <stop offset="0.784" stop-color="#b13e8d"/>
      <stop offset="0.911" stop-color="#b13e8d" stop-opacity="0.969"/>
      <stop offset="1" stop-color="#b13e8d"/>
    </linearGradient>
    <filter id="Rectángulo_40715" x="41" y="3" width="108" height="108" filterUnits="userSpaceOnUse">
      <feOffset dy="3" input="SourceAlpha"/>
      <feGaussianBlur stdDeviation="3" result="blur"/>
      <feFlood flood-opacity="0.161"/>
      <feComposite operator="in" in2="blur"/>
      <feComposite in="SourceGraphic"/>
    </filter>
  </defs>
  <g id="Grupo_128760" data-name="Grupo 128760" transform="translate(-184 -1312)">
    <rect id="Rectángulo_40586" data-name="Rectángulo 40586" width="190" height="20" transform="translate(184 1357)" fill="none"/>
    <g id="Grupo_108405" data-name="Grupo 108405" transform="translate(213.5 1376)">
      <path id="Rectángulo_5242" data-name="Rectángulo 5242" d="M0,0H12a0,0,0,0,1,0,0V43.333a3,3,0,0,1-3,3H3a3,3,0,0,1-3-3V0A0,0,0,0,1,0,0Z" transform="translate(0 0)" fill="url(#linear-gradient)"/>
    </g>
    <g id="Grupo_108406" data-name="Grupo 108406" transform="translate(344 1364) rotate(180)">
      <path id="Rectángulo_5242-2" data-name="Rectángulo 5242" d="M0,0H12a0,0,0,0,1,0,0V49a3,3,0,0,1-3,3H3a3,3,0,0,1-3-3V0A0,0,0,0,1,0,0Z" transform="translate(0 0)" fill="url(#linear-gradient-2)"/>
    </g>
    <g transform="matrix(1, 0, 0, 1, 184, 1312)" filter="url(#Rectángulo_40715)">
      <path id="Rectángulo_40715-2" data-name="Rectángulo 40715" d="M10,0H80A10,10,0,0,1,90,10V90a0,0,0,0,1,0,0H10A10,10,0,0,1,0,80V10A10,10,0,0,1,10,0Z" transform="translate(50 9)" fill="#f6f6f6"/>
    </g>
    <g id="Grupo_128495" data-name="Grupo 128495" transform="translate(-376.935 1115.816)">
      <path id="Trazado_188637" data-name="Trazado 188637" d="M692.8,249.492l-1.387,1.338a9.121,9.121,0,0,0-12.652.037l-1.392-1.356A10.886,10.886,0,0,1,692.8,249.492Z" transform="translate(-5.959 -3.081)" fill="#6836bf"/>
      <path id="Trazado_188638" data-name="Trazado 188638" d="M690.37,252.846l-1.4,1.353a5.084,5.084,0,0,0-3.519-1.39,5.138,5.138,0,0,0-3.518,1.436l-1.306-1.386C682.6,250.412,687.539,249.85,690.37,252.846Z" transform="translate(-6.33 -3.594)" fill="#6836bf"/>
      <path id="Trazado_188639" data-name="Trazado 188639" d="M686.564,257.441H685l-1.213-1.259a2.867,2.867,0,0,1,4.142.027Z" transform="translate(-6.689 -4.106)" fill="#6836bf"/>
      <path id="Trazado_188640" data-name="Trazado 188640" d="M652.638,281.36,651.3,280a10.87,10.87,0,0,1,15.427-.029l-1.365,1.352A9.173,9.173,0,0,0,652.638,281.36Z" transform="translate(-2.997 -6.545)" fill="#6836bf"/>
      <path id="Trazado_188641" data-name="Trazado 188641" d="M664.261,283.323l-1.316,1.376a5.171,5.171,0,0,0-7.132,0l-1.3-1.357C656.625,280.816,661.539,280.406,664.261,283.323Z" transform="translate(-3.362 -7.059)" fill="#6836bf"/>
      <path id="Trazado_188642" data-name="Trazado 188642" d="M660.227,287.928h-1.308l-1.223-1.245a2.941,2.941,0,0,1,4.056-.089Z" transform="translate(-3.723 -7.575)" fill="#6836bf"/>
      <path id="Trazado_188643" data-name="Trazado 188643" d="M639.241,248.565a9.15,9.15,0,0,0-12.692.049l-1.253-1.448c3.632-4,11.08-4.38,15.364.078Z" transform="translate(-0.041 -2.824)" fill="#6836bf"/>
      <path id="Trazado_188644" data-name="Trazado 188644" d="M638.2,250.6l-1.392,1.376a5.049,5.049,0,0,0-7.056.01l-1.378-1.378A6.93,6.93,0,0,1,638.2,250.6Z" transform="translate(-0.39 -3.339)" fill="#6836bf"/>
      <path id="Trazado_188645" data-name="Trazado 188645" d="M635.732,253.958l-1.246,1.212H632.8l-1.166-1.223C632.408,252.8,634.544,252.757,635.732,253.958Z" transform="translate(-0.762 -3.851)" fill="#6836bf"/>
      <path id="Trazado_188646" data-name="Trazado 188646" d="M663.249,247.424a1,1,0,0,1,1.014.987,1.01,1.01,0,0,1-1.006,1,.989.989,0,0,1-.975-.962A.974.974,0,0,1,663.249,247.424Z" transform="translate(-4.245 -3.21)" fill="#6836bf"/>
      <path id="Trazado_188647" data-name="Trazado 188647" d="M656.492,247.424a.976.976,0,0,1,.971,1.021.99.99,0,0,1-.971.966,1.007,1.007,0,0,1-1.01-1A.993.993,0,0,1,656.492,247.424Z" transform="translate(-3.472 -3.21)" fill="#6836bf"/>
      <path id="Trazado_188648" data-name="Trazado 188648" d="M685.733,282.406v1.973h-1.986c0-.565-.019-1.1.014-1.639a.455.455,0,0,1,.3-.319C684.6,282.388,685.143,282.406,685.733,282.406Z" transform="translate(-6.684 -7.185)" fill="#6836bf"/>
      <path id="Trazado_188649" data-name="Trazado 188649" d="M690.245,284.4h-1.93v-1.926h1.93Z" transform="translate(-7.204 -7.193)" fill="#6836bf"/>
      <path id="Trazado_188650" data-name="Trazado 188650" d="M681.2,284.392H679.26v-1.926H681.2Z" transform="translate(-6.174 -7.192)" fill="#6836bf"/>
      <path id="Trazado_188651" data-name="Trazado 188651" d="M684.666,281.228H671.433a3.386,3.386,0,0,1-2.4-3.846c.06-.885.01-1.776.011-2.665,0-2.328,1.176-3.5,3.5-3.506h2.434a.781.781,0,0,0,.078-.184c.008-.2.02-.4.012-.605a2.923,2.923,0,0,1,1.7-2.955.743.743,0,0,0,.279-.568c.02-2.14.017-4.28.011-6.421,0-.935-.345-1.267-1.293-1.27-1.557-.006-3.116.017-4.674-.013a.939.939,0,0,0-.98.576,16,16,0,0,1-22.564,6.028c-.149-.092-.3-.176-.546-.318v.733c0,2.585.006,5.17,0,7.755a3.039,3.039,0,0,1-3.256,3.261c-.905,0-1.809,0-2.722,0v2.014h2v1.985H628.941v-2.021H630.9v-1.978h-.652c-.745,0-1.492.011-2.238,0a3.139,3.139,0,0,1-3.078-2.42V261.6a3.384,3.384,0,0,1,3.786-2.407c1.514.068,3.033.014,4.55.014h.679c0-1.021-.013-1.947,0-2.874a3,3,0,0,1,3.146-3.109c.565,0,1.132,0,1.7,0h1.2c0-.2,0-.3,0-.4a15.794,15.794,0,0,1,4.145-11.359,1.8,1.8,0,0,0,.342-.624,11.858,11.858,0,0,1,8.082-8.093A.549.549,0,0,0,653,232.1c-.017-1.171-.005-2.342-.007-3.513,0-1.1-.3-1.393-1.4-1.393H638.98v.768c0,2.685.012,5.369-.005,8.053a3,3,0,0,1-3.2,3.178c-2.568,0-5.137.034-7.7-.023a4.46,4.46,0,0,1-1.821-.52,3.049,3.049,0,0,1-1.314-1.889V221.611c.83-1.949,1.552-2.423,3.694-2.423h6.858q3.493,0,3.493,3.506v2.5h.823q5.948,0,11.895,0a3.037,3.037,0,0,1,3.325,3.309c0,.97,0,1.938,0,2.908v.8h1.985c0-1.2,0-2.384,0-3.57,0-2.263,1.172-3.443,3.429-3.447,2.832,0,5.664-.013,8.5.011a.8.8,0,0,0,.886-.582,9,9,0,0,1,16.934,1.158c.129.464.228.936.341,1.4v2.06a3.869,3.869,0,0,0-.119.394,8.7,8.7,0,0,1-6.59,7.224,9.017,9.017,0,0,1-11.3-9.591c-.053-.028-.089-.064-.123-.064-2.993-.006-5.986-.019-8.978,0a.865.865,0,0,0-.931.859c-.036,1.509-.012,3.019-.012,4.519.2.066.357.115.51.167a11.974,11.974,0,0,1,7.933,7.88,3.282,3.282,0,0,0,.585,1.03,15.763,15.763,0,0,1,3.626,13.824c-.11.565-.266,1.122-.415,1.739,1.563,0,3.058,0,4.552,0a3.009,3.009,0,0,1,3.241,3.256c0,2.18-.01,4.36.017,6.539a1.252,1.252,0,0,0,.352.656,13.477,13.477,0,0,1,1.064,1.21,13.838,13.838,0,0,1,.955,1.887.667.667,0,0,0,.744.448c.605-.027,1.214-.024,1.82,0a3.009,3.009,0,0,1,2.95,2.18,1.174,1.174,0,0,0,.118.2v5.21A3.453,3.453,0,0,1,684.666,281.228Zm-39.687-10.05c0-2.225-.02-4.383.013-6.541a1.751,1.751,0,0,0-.579-1.427,10.506,10.506,0,0,1-1.29-1.524,1.021,1.021,0,0,0-.951-.471c-4.613.016-9.225.01-13.838.01-1.109,0-1.391.282-1.391,1.4q-.005,3.967,0,7.935c0,.195.023.39.037.614Zm19.76-13.991a6.81,6.81,0,0,0,1.307-4.257c.005-2.826.029-5.652-.014-8.478a12.245,12.245,0,0,0-.34-2.812,10,10,0,0,0-19.637,1.747c-.133,1.991-.069,3.995-.067,5.993,0,1.573-.005,3.15.084,4.72a5.719,5.719,0,0,0,1.217,3.1,7.441,7.441,0,0,1,3.262-4.094,5.722,5.722,0,0,1-2.512-4.375c-.1-2.459-.025-4.924-.022-7.386,0-.033.041-.066.1-.159,2.572.314,3.832-1.134,4.321-3.562.39.255.675.437.956.627a10.619,10.619,0,0,0,4.76,1.833c.88.1,1.775.082,2.664.1a3.031,3.031,0,0,1,3.213,3.239c0,1.595.009,3.189,0,4.784a5.862,5.862,0,0,1-2.05,4.483c-.145.131-.292.26-.485.431A7.4,7.4,0,0,1,664.739,257.187Zm-4.7-5.545a3.923,3.923,0,0,0,1.992-3.5c.023-1.572.015-3.146,0-4.719-.007-.89-.363-1.189-1.28-1.223a20.367,20.367,0,0,1-3.255-.215c-1.369-.275-2.694-.763-4.117-1.182a5.366,5.366,0,0,1-3.147,2.268c-.113.032-.224.3-.226.467q-.024,2.329,0,4.659a3.8,3.8,0,0,0,1.018,2.646,12.222,12.222,0,0,0,1,.864c.58-2.2,1.916-3.384,3.81-3.486C657.792,248.114,659.116,249.181,660.036,251.642ZM636.929,225.25h-9.987c0,2.476.013,4.9-.01,7.317-.005.5.134.651.643.647,2.931-.022,5.862-.01,8.794-.012.177,0,.354-.019.56-.033Zm40.132,47.976h-.669c-1.374,0-2.749,0-4.122,0-.861,0-1.2.35-1.208,1.216q-.008,1.784,0,3.569c0,.84.336,1.2,1.16,1.2q5.85.013,11.7,0c.8,0,1.15-.354,1.16-1.146q.025-1.845,0-3.691c-.011-.819-.373-1.147-1.217-1.151-.97-.006-1.94-.022-2.909.008a.675.675,0,0,1-.73-.459c-.429-.911-.9-1.8-1.344-2.707-.242-.5-.51-.974-1.166-.81s-.66.726-.657,1.269C677.066,271.395,677.061,272.261,677.061,273.226Zm-24.055-9c-.706,0-1.329.016-1.951,0a4.011,4.011,0,0,1-4.06-3.9,1.253,1.253,0,0,0-.34-.715,8.966,8.966,0,0,1-2.665-6.486q0-3.634,0-7.267v-.659a13.61,13.61,0,0,0-.29,13.721,14.006,14.006,0,0,0,9.307,6.987Zm6.022,1.579c3.476.035,8.551-4.347,10.18-8.8,1.4-3.825.784-10.107-1.166-11.729,0,2.578-.014,5.142,0,7.7a9.041,9.041,0,0,1-2.7,6.653,1.1,1.1,0,0,0-.306.61,4.023,4.023,0,0,1-4.349,3.984c-.537,0-1.074,0-1.659,0Zm-32.009,7.456c-.269,1.544.166,1.992,1.561,1.981,4.955-.039,9.91-.015,14.865-.017.242,0,.54.064.714-.051a2.023,2.023,0,0,0,.777-.8,3.112,3.112,0,0,0,.028-1.112Zm-.041-38.037c-.015.206-.032.345-.035.485-.02,1.2.278,1.505,1.489,1.507q1.183,0,2.366,0c1.637,0,3.275.007,4.912,0,.9-.006,1.243-.363,1.251-1.256,0-.236,0-.471,0-.733Zm9,23.942h5.486c-.385-1.248-.756-2.474-1.15-3.693a.453.453,0,0,0-.329-.258c-1.028-.016-2.059-.035-3.085.014a.9.9,0,0,0-.916.943C635.959,257.15,635.976,258.134,635.976,259.162Zm-9-36.012h9.989c0-.276,0-.515,0-.753-.011-.833-.344-1.174-1.168-1.2-.142,0-.283,0-.425,0q-3.547,0-7.093,0c-1.021,0-1.33.318-1.33,1.345C626.943,222.737,626.961,222.933,626.972,223.149Zm32.088,39.059c.7,0,1.323.009,1.948,0a1.99,1.99,0,0,0,2.024-1.92,8.817,8.817,0,0,0,0-1.271,4.977,4.977,0,0,0-3.045-4.386,3.671,3.671,0,0,0-.513-.14c2.406,2.292,2.188,4.883-.41,5.8Zm-3.068-8c.364,0,.729.022,1.089-.011a.623.623,0,0,0,.423-.227,2.861,2.861,0,0,0,.481-2.066,2,2,0,0,0-3.866-.336,2.413,2.413,0,0,0,.441,2.39c.245.273.9.178,1.371.25A.45.45,0,0,0,655.992,254.206Zm-17.048,23.056H633v1.918h5.942Zm20.083-19.075c0-.364.02-.666,0-.963a.961.961,0,0,0-1.008-.994q-2-.037-4,0a.96.96,0,0,0-1.007.994c-.023.313,0,.628,0,.963ZM652.4,254.53a1,1,0,0,0-.245.051,5.251,5.251,0,0,0-3.039,6.225c.24,1.135,1.347,1.59,2.863,1.329v-1.771l-1.53.732-.886-1.77a9.928,9.928,0,0,1,.954-.481.729.729,0,0,0,.519-.81,5.47,5.47,0,0,1,.242-1.949A7.433,7.433,0,0,1,652.4,254.53Zm27.647-27.366c-.1-.569-.163-1.09-.3-1.592a.6.6,0,0,0-.425-.361c-.826-.035-1.655-.028-2.482-.006-.143,0-.378.126-.405.235-.137.554-.221,1.121-.33,1.724Zm.006,2.078H676.1c.11.6.195,1.146.323,1.685a.433.433,0,0,0,.323.247c.963.02,1.927.012,2.938.012Zm1.712-4.046.307,1.961h2.974c-.17-.564-.306-1.086-.494-1.588a.6.6,0,0,0-.4-.356C683.375,225.178,682.6,225.2,681.762,225.2Zm-.011,5.989c.83,0,1.633.006,2.434-.007a.359.359,0,0,0,.278-.163c.2-.571.379-1.15.592-1.811-.822,0-1.487.032-2.148-.01-.606-.038-1,.042-.96.8A5.591,5.591,0,0,1,681.751,231.186ZM674.37,225.2c-.83,0-1.611-.012-2.39.012a.473.473,0,0,0-.342.256c-.2.539-.355,1.091-.542,1.687h2.982Zm.006,5.989-.307-1.946h-2.981c.2.631.376,1.2.58,1.751a.415.415,0,0,0,.319.187C672.769,231.194,673.55,231.187,674.376,231.187Zm-17.381,32.43-1.962.724c0,.293-.024.635.005.972a.951.951,0,0,0,.964.893.938.938,0,0,0,.984-.87C657.023,264.76,656.995,264.179,656.995,263.617Zm-2.942-3.4V262.2c.671-.023,1.408.242,1.785-.48a1.269,1.269,0,0,0-.037-1.057C655.4,259.99,654.695,260.285,654.053,260.219Zm19.212-37.231.1.169c1.73.124,1.928,0,2.384-1.688Zm9.5.177.105-.183-2.358-1.422C681.075,223.256,681.075,223.256,682.767,223.165ZM680.4,234.681l.13.16,2.325-1.447-.1-.19c-.443,0-.889-.025-1.328.013a.665.665,0,0,0-.451.28C680.757,233.874,680.59,234.285,680.4,234.681Zm-4.822.128c-.31-1.561-.89-1.9-2.387-1.447Zm3.312-11.65-.826-1.39-.8,1.39Zm-1.63,10.075.81,1.383.8-1.383Z" transform="translate(0 0)" fill="#6836bf"/>
    </g>
  </g>
</svg>
