<svg xmlns="http://www.w3.org/2000/svg" width="32.597" height="50" viewBox="0 0 32.597 50">
  <g id="Grupo_131984" data-name="Grupo 131984" transform="translate(-109.98 -116.83)" style="isolation: isolate">
    <path id="Trazado_187919" data-name="Trazado 187919" d="M122.757,166.83a4.111,4.111,0,0,1-1.859-1,3.728,3.728,0,0,1-.951-1.888.816.816,0,0,0-.319-.467,2.174,2.174,0,0,1-1.067-1.91c0-2.132-.006-4.263.005-6.4a.644.644,0,0,0-.322-.632,2.445,2.445,0,0,1-1.113-1.914,17.567,17.567,0,0,0-2.78-7.623c-.584-.957-1.2-1.894-1.791-2.847a16.509,16.509,0,0,1,4.479-22.426,15.815,15.815,0,0,1,7.681-2.815,3.147,3.147,0,0,0,.376-.082h2.437c.969.181,1.95.313,2.9.553a15.721,15.721,0,0,1,6.744,3.643c.5.448.589.846.273,1.212s-.738.338-1.229-.1a14.809,14.809,0,0,0-24.5,8.188,15.53,15.53,0,0,0,2.115,11.137c1.167,1.949,2.335,3.9,3.385,5.915a13.567,13.567,0,0,1,1.339,4.962,1.185,1.185,0,0,0,1.342,1.216q6.358,0,12.716,0c.867,0,1.267-.338,1.353-1.19a19.317,19.317,0,0,1,2.95-8.079,41.821,41.821,0,0,0,2.807-4.84,14.754,14.754,0,0,0-1.292-14.8,1.128,1.128,0,0,1-.245-.745.864.864,0,0,1,.552-.567.985.985,0,0,1,.768.345,14.092,14.092,0,0,1,2.139,4.084,16.8,16.8,0,0,1-1.75,14.554c-1.006,1.668-2.034,3.326-2.958,5.04a13.891,13.891,0,0,0-1.521,5.259,2.716,2.716,0,0,1-1.126,1.969.845.845,0,0,0-.289.586c-.021,2.034-.029,4.068-.006,6.1a2.289,2.289,0,0,1-1.2,2.271.456.456,0,0,0-.193.3,3.316,3.316,0,0,1-2.625,2.916.426.426,0,0,0-.116.079Zm-2.716-7.653h12.467v-1.319h-7.522a3.345,3.345,0,0,1-.486-.014.719.719,0,0,1-.12-1.4,1.812,1.812,0,0,1,.528-.052q3.532,0,7.064,0h.53v-1.348H120.056v1.348c.517,0,1-.007,1.487,0,.536.009.848.285.849.731s-.3.72-.843.729c-.5.008-.995,0-1.508,0Zm0,1.51c-.009.115-.018.193-.02.271-.032,1.221.059,1.315,1.259,1.315h10.179a1.171,1.171,0,0,0,.527-.03c.2-.116.455-.3.506-.5a4.413,4.413,0,0,0,.023-1.055Zm1.4,3.079a1.805,1.805,0,0,0,1.714,1.587q3.117.038,6.234,0a1.769,1.769,0,0,0,1.706-1.588Z" fill="#6836bf"/>
    <path id="Trazado_187920" data-name="Trazado 187920" d="M185.512,213.836a5.96,5.96,0,0,1-1.168-.694.68.68,0,0,0-.966-.129,5.491,5.491,0,0,1-1.074.45.451.451,0,0,0-.361.487c-.04,1.417-.637,1.98-2.062,1.981-.179,0-.357,0-.536,0a1.7,1.7,0,0,1-1.841-1.814.562.562,0,0,0-.475-.65,6.959,6.959,0,0,1-1.21-.5.448.448,0,0,0-.6.089,1.719,1.719,0,0,1-2.784-.063c-.173-.172-.349-.341-.515-.52a1.639,1.639,0,0,1,.014-2.4.666.666,0,0,0,.143-.959,5.507,5.507,0,0,1-.45-1.128.442.442,0,0,0-.487-.357c-1.344-.043-1.932-.666-1.935-2.018,0-.2,0-.391,0-.586a1.7,1.7,0,0,1,1.853-1.847.577.577,0,0,0,.656-.475c.126-.4.354-.769.478-1.169a.712.712,0,0,0-.078-.583c-.971-1.107-.961-1.859.083-2.9a2.509,2.509,0,0,1,1.379-.941,1.687,1.687,0,0,1,1.61.609c.251.3.5.386.834.153a.543.543,0,0,1,.175-.083c.852-.212,1.425-.562,1.394-1.635-.021-.726.769-1.244,1.551-1.278.34-.015.682-.008,1.023,0a1.664,1.664,0,0,1,1.767,1.776.852.852,0,0,0,.635.947c.792.344,1.416.6,2.139-.223a1.473,1.473,0,0,1,2,.153c.289.262.563.541.829.826a1.614,1.614,0,0,1-.016,2.36c-.474.437-.557.81-.2,1.312a.129.129,0,0,1,.022.043c.181.752.5,1.2,1.431,1.158a1.542,1.542,0,0,1,1.449,1.613c.012.358.01.716,0,1.074a1.638,1.638,0,0,1-1.687,1.7c-.6-.013-.8.218-1.013.743-.31.756-.55,1.345.206,2.033a1.3,1.3,0,0,1,.04,1.723,8.277,8.277,0,0,1-1.368,1.37,2.458,2.458,0,0,1-.809.284ZM173.85,198.485c-.243.235-.446.462-.681.651-.338.273-.309.48,0,.781a1.712,1.712,0,0,1,.341,2.3,4.859,4.859,0,0,0-.373.845,1.857,1.857,0,0,1-2.077,1.572c-.268-.018-.39.112-.387.376,0,.163,0,.325,0,.488,0,.654,0,.654.631.675a1.7,1.7,0,0,1,1.676,1.236c.172.472.364.937.572,1.394a1.646,1.646,0,0,1-.293,1.982c-.551.562-.4.539.03.986a1.921,1.921,0,0,1,.171.174c.267.357.495.349.815.017a1.632,1.632,0,0,1,2.126-.333,11.142,11.142,0,0,0,1.12.471,1.729,1.729,0,0,1,1.431,1.921c.013.335.133.481.467.455a2.146,2.146,0,0,1,.438,0c.478.062.662-.107.646-.618a1.656,1.656,0,0,1,1.221-1.73c.394-.148.787-.3,1.164-.49a1.719,1.719,0,0,1,2.329.355c.289.292.5.309.743-.012a2.256,2.256,0,0,1,.205-.208c.492-.493.492-.493.018-.985a1.7,1.7,0,0,1-.357-2.094c.154-.339.306-.682.427-1.034a1.759,1.759,0,0,1,2.031-1.479c.388,0,.536-.146.493-.521a2.585,2.585,0,0,1,0-.293c0-.723,0-.723-.707-.732a1.71,1.71,0,0,1-1.792-1.282c-.152-.41-.329-.812-.51-1.21a1.692,1.692,0,0,1,.314-2.022,2.554,2.554,0,0,1,.241-.241c.27-.222.31-.439.016-.676a3.58,3.58,0,0,1-.276-.275c-.468-.469-.468-.469-.945,0a1.733,1.733,0,0,1-2.252.368c-.409-.194-.837-.35-1.258-.519a1.652,1.652,0,0,1-1.113-1.565,3.43,3.43,0,0,1,0-.439c.024-.31-.1-.46-.421-.436-.129.01-.26,0-.39,0-.706,0-.706,0-.724.722a1.691,1.691,0,0,1-1.285,1.736,11.142,11.142,0,0,0-1.04.41,1.755,1.755,0,0,1-2.407-.394C174.121,198.7,174.008,198.619,173.85,198.485Z" transform="translate(-53.443 -70.408)" fill="#6836bf"/>
    <path id="Trazado_187921" data-name="Trazado 187921" d="M222.34,253.382a5.331,5.331,0,1,1,5.348,5.327A5.36,5.36,0,0,1,222.34,253.382Zm1.463-.072a3.869,3.869,0,1,0,3.932-3.827A3.889,3.889,0,0,0,223.8,253.311Z" transform="translate(-101.386 -118.377)" fill="#6836bf"/>
  </g>
</svg>
