<svg xmlns="http://www.w3.org/2000/svg" width="49.976" height="50" viewBox="0 0 49.976 50">
  <g id="Grupo_128123" data-name="Grupo 128123" transform="translate(-260.351 -455.132)" opacity="0.5">
    <path id="Trazado_187940" data-name="Trazado 187940" d="M296.329,476.324a13.564,13.564,0,0,1,1.235,1.028,3.888,3.888,0,0,1,1.093,2.738c.012,1.319-.011,2.639.011,3.958a.974.974,0,0,1-.68,1.1c-.862.255-1.055.81-1.016,1.664.075,1.594.025,3.194.021,4.791,0,.746-.3,1.037-1.044,1.039q-2.292.006-4.584,0c-.745,0-1.035-.295-1.037-1.044q0-2.736,0-5.47a.922.922,0,0,0-.823-.86.946.946,0,0,0-.843.84q0,2.709,0,5.417c0,.849-.27,1.117-1.123,1.118q-2.239,0-4.479,0c-.78,0-1.063-.286-1.064-1.071,0-1.823,0-3.646,0-5.469a.833.833,0,0,0-1.666-.02q0,2.734,0,5.469c0,.815-.279,1.09-1.1,1.092q-2.265,0-4.531,0c-.745,0-1.036-.295-1.037-1.045,0-1.823-.01-3.646.006-5.469,0-.337-.058-.574-.4-.673a1.7,1.7,0,0,1-1.289-2.086c.093-1,.025-2.012.019-3.019a4.142,4.142,0,0,1,2.2-3.862,1.775,1.775,0,0,0,.162-.119c-1.035-1.828-.836-3.527.537-4.642a3.329,3.329,0,0,1,4.76,4.589l1.514,1.238,1.506-1.239a3.332,3.332,0,1,1,5.318,0l1.508,1.238,1.51-1.237a3.35,3.35,0,0,1-.6-2.7,3.331,3.331,0,0,1,5.4-1.855C297.141,472.875,297.324,474.53,296.329,476.324Zm-1,14.637c0-1.6-.006-3.162,0-4.719.009-1.7-.2-1.539,1.341-2.3a.685.685,0,0,0,.31-.5c.027-1.109.028-2.22.009-3.33a2.489,2.489,0,0,0-2.5-2.47c-.52-.01-1.041-.006-1.561,0a2.5,2.5,0,0,0-2.6,2.581c-.007.832.057,1.67-.018,2.5-.071.8.138,1.307.944,1.545a1.064,1.064,0,0,1,.749,1.209c-.028,1.647-.009,3.3-.009,4.943v.55Zm-8.334-.013c0-1.621,0-3.181,0-4.741.005-1.687-.168-1.51,1.328-2.26a.685.685,0,0,0,.323-.493q.042-1.691.008-3.381a2.484,2.484,0,0,0-2.429-2.433c-.572-.016-1.144-.011-1.716,0A2.491,2.491,0,0,0,282,480.149c-.012.868.06,1.741-.021,2.6a1.214,1.214,0,0,0,.931,1.5,1.068,1.068,0,0,1,.764,1.2c-.029,1.647-.01,3.3-.01,4.943v.553Zm-11.667-.012h3.334c0-1.577-.008-3.118,0-4.659.01-1.73-.217-1.575,1.357-2.346a.628.628,0,0,0,.294-.459c.024-1.144.034-2.29,0-3.434a2.476,2.476,0,0,0-2.409-2.4c-.571-.019-1.144-.012-1.716,0a2.491,2.491,0,0,0-2.53,2.546c-.01.884.056,1.774-.02,2.652a1.125,1.125,0,0,0,.869,1.381,1.16,1.16,0,0,1,.828,1.321C275.3,487.323,275.326,489.108,275.326,490.936Zm1.657-14.969a1.666,1.666,0,1,0-1.655-1.662A1.68,1.68,0,0,0,276.983,475.967Zm10.008-1.622a1.665,1.665,0,1,0-1.7,1.622A1.679,1.679,0,0,0,286.991,474.345Zm8.334-.038a1.665,1.665,0,1,0-1.657,1.66A1.679,1.679,0,0,0,295.325,474.307Z" fill="#727997"/>
    <path id="Trazado_187941" data-name="Trazado 187941" d="M293.661,463.437a8.333,8.333,0,1,1,8.278,8.364A8.345,8.345,0,0,1,293.661,463.437Zm8.351-6.638a6.668,6.668,0,1,0,6.649,6.672A6.686,6.686,0,0,0,302.012,456.8Z" fill="#727997"/>
    <path id="Trazado_187942" data-name="Trazado 187942" d="M308.661,493.674a8.547,8.547,0,0,1-.554.718.867.867,0,0,1-.424.182,3.819,3.819,0,0,0-2.931,2.92c-.19.694-.579.986-1.112.975-.516-.01-.886-.291-1.067-.966a3.927,3.927,0,0,0-2.97-2.957c-.664-.183-.943-.559-.939-1.082s.277-.885.954-1.072a3.938,3.938,0,0,0,2.961-2.967c.181-.67.556-.948,1.077-.951a1.07,1.07,0,0,1,1.082.941,3.947,3.947,0,0,0,3.006,2.986A1.143,1.143,0,0,1,308.661,493.674Zm-4.906,1.891a4.671,4.671,0,0,1,2.19-2.094,4.823,4.823,0,0,1-2.286-2.284,4.662,4.662,0,0,1-2.09,2.19Z" fill="#727997"/>
    <path id="Trazado_187943" data-name="Trazado 187943" d="M306.568,497.649a.947.947,0,0,1,.946.678,2.8,2.8,0,0,0,2.162,2.149.878.878,0,0,1,.644.913.9.9,0,0,1-.677.942,2.761,2.761,0,0,0-2.123,2.119.983.983,0,0,1-1.873-.006,2.756,2.756,0,0,0-2.126-2.115.9.9,0,0,1-.671-.948.911.911,0,0,1,.7-.928,2.7,2.7,0,0,0,2.087-2.084A.974.974,0,0,1,306.568,497.649Zm-.008,4.608.9-.809-.852-.919-.894.864Z" fill="#727997"/>
    <path id="Trazado_187944" data-name="Trazado 187944" d="M265.307,458.478h3.327v1.636h-3.3v3.327h-1.654v-3.3h-3.327v-1.654h3.3v-3.327h1.655Z" fill="#727997"/>
    <path id="Trazado_187945" data-name="Trazado 187945" d="M269.5,462.666v2.447h2.463v1.673h-2.447v2.482H267.84v-2.447h-2.482v-1.673H267.8v-2.482Z" fill="#727997"/>
    <path id="Trazado_187946" data-name="Trazado 187946" d="M306.994,480.056h1.6v1.807l-1.6-.109Z" fill="#727997"/>
    <path id="Trazado_187947" data-name="Trazado 187947" d="M285.374,501.807h1.586l.133,1.609h-1.719Z" fill="#727997"/>
    <path id="Trazado_187948" data-name="Trazado 187948" d="M264.591,473.789l-1.584-.491.565-1.636,1.548.6Z" fill="#727997"/>
    <path id="Trazado_187949" data-name="Trazado 187949" d="M277.355,459.973l-.612-1.542,1.625-.587.5,1.581Z" fill="#727997"/>
    <path id="Trazado_187950" data-name="Trazado 187950" d="M307.64,487.006l-.579,1.643-1.543-.6.526-1.511Z" fill="#727997"/>
    <path id="Trazado_187951" data-name="Trazado 187951" d="M270.606,496.048l1.223,1.056-1.033,1.3-1.319-1.129Z" fill="#727997"/>
    <path id="Trazado_187952" data-name="Trazado 187952" d="M280.522,501.28l-.36,1.608-1.673-.42.47-1.6Z" fill="#727997"/>
    <path id="Trazado_187953" data-name="Trazado 187953" d="M275.867,460.622l-1.418.761-.84-1.43,1.519-.82Z" fill="#727997"/>
    <path id="Trazado_187954" data-name="Trazado 187954" d="M264.175,475.363l-.293,1.572-1.64-.23.315-1.706Z" fill="#727997"/>
    <path id="Trazado_187955" data-name="Trazado 187955" d="M263.89,483.411l-1.642.24-.188-1.709,1.652-.133Z" fill="#727997"/>
    <path id="Trazado_187956" data-name="Trazado 187956" d="M297.015,500.347l-1.541.816-.72-1.489,1.41-.76Z" fill="#727997"/>
    <path id="Trazado_187957" data-name="Trazado 187957" d="M308.069,474.85l-1.621.368-.424-1.541,1.576-.507Z" fill="#727997"/>
    <path id="Trazado_187958" data-name="Trazado 187958" d="M264.2,485.013l.422,1.54-1.578.509-.462-1.677Z" fill="#727997"/>
    <path id="Trazado_187959" data-name="Trazado 187959" d="M265.128,491.849l1.434-.832.872,1.353-1.37.945Z" fill="#727997"/>
    <path id="Trazado_187960" data-name="Trazado 187960" d="M269.458,494.9l-1.218,1.132-1.138-1.3,1.29-1.046Z" fill="#727997"/>
    <path id="Trazado_187961" data-name="Trazado 187961" d="M272.2,499.444l.937-1.372,1.367.853-.829,1.44Z" fill="#727997"/>
    <path id="Trazado_187962" data-name="Trazado 187962" d="M291.741,500.856l1.519-.536.608,1.548-1.632.573Z" fill="#727997"/>
    <path id="Trazado_187963" data-name="Trazado 187963" d="M288.826,503.212l-.233-1.637,1.572-.3.374,1.613Z" fill="#727997"/>
    <path id="Trazado_187964" data-name="Trazado 187964" d="M282.125,501.581l1.587.178-.1,1.643-1.731-.167Z" fill="#727997"/>
    <path id="Trazado_187965" data-name="Trazado 187965" d="M306.764,483.361l1.629.252-.294,1.694-1.626-.35Z" fill="#727997"/>
    <path id="Trazado_187966" data-name="Trazado 187966" d="M291.643,459.39l-1.553-.414.362-1.616,1.675.439Z" fill="#727997"/>
    <path id="Trazado_187967" data-name="Trazado 187967" d="M280.069,457.39l1.7-.324.255,1.633-1.569.314Z" fill="#727997"/>
    <path id="Trazado_187968" data-name="Trazado 187968" d="M288.491,458.686l-1.61-.178.124-1.64,1.7.162Z" fill="#727997"/>
    <path id="Trazado_187969" data-name="Trazado 187969" d="M308.587,478.3l-1.647.106-.183-1.584,1.643-.252Z" fill="#727997"/>
    <path id="Trazado_187970" data-name="Trazado 187970" d="M263.613,488.716l1.544-.61.648,1.467-1.49.727Z" fill="#727997"/>
    <path id="Trazado_187971" data-name="Trazado 187971" d="M299.888,498.383l-1.4,1.035-.936-1.365,1.287-.971Z" fill="#727997"/>
    <path id="Trazado_187972" data-name="Trazado 187972" d="M275.227,501.184l.722-1.494,1.479.642-.606,1.542Z" fill="#727997"/>
    <path id="Trazado_187973" data-name="Trazado 187973" d="M285.219,458.47h-1.565l-.138-1.6,1.7-.08Z" fill="#727997"/>
    <path id="Trazado_187974" data-name="Trazado 187974" d="M262.049,478.441l1.6.129v1.551h-1.6Z" fill="#727997"/>
    <path id="Trazado_187975" data-name="Trazado 187975" d="M302,461.027a3.006,3.006,0,0,1,2.917-.784,2.694,2.694,0,0,1,1.308,4.5c-1.16,1.194-2.4,2.312-3.615,3.45a.808.808,0,0,1-1.249-.009c-1.2-1.128-2.411-2.25-3.581-3.411a2.634,2.634,0,0,1-.138-3.634,2.936,2.936,0,0,1,3.824-.51C301.641,460.741,301.8,460.873,302,461.027Zm-.055,5.412a.663.663,0,0,0,.149-.06c.92-.868,1.842-1.733,2.756-2.607.551-.527.619-1.081.213-1.554a1.232,1.232,0,0,0-1.73-.121c-.229.184-.43.4-.648.6a.878.878,0,0,1-1.4-.013,8.275,8.275,0,0,0-.733-.659,1.217,1.217,0,0,0-1.643.207,1.033,1.033,0,0,0,.2,1.515C300.049,464.647,301,465.536,301.949,466.439Z" fill="#727997"/>
  </g>
</svg>
