<svg xmlns="http://www.w3.org/2000/svg" xmlns:xlink="http://www.w3.org/1999/xlink" width="190" height="111" viewBox="0 0 190 111">
  <defs>
    <linearGradient id="linear-gradient" x1="0.5" x2="0.5" y2="1" gradientUnits="objectBoundingBox">
      <stop offset="0" stop-color="#f7ca2e" stop-opacity="0"/>
      <stop offset="0.091" stop-color="#f7ca2e" stop-opacity="0.129"/>
      <stop offset="0.283" stop-color="#f7ca2e" stop-opacity="0.388"/>
      <stop offset="0.465" stop-color="#f7ca2e" stop-opacity="0.612"/>
      <stop offset="0.633" stop-color="#f7ca2e" stop-opacity="0.78"/>
      <stop offset="0.784" stop-color="#f7ca2e" stop-opacity="0.902"/>
      <stop offset="0.911" stop-color="#f7ca2e" stop-opacity="0.969"/>
      <stop offset="1" stop-color="#f7ca2e"/>
    </linearGradient>
    <linearGradient id="linear-gradient-2" x1="0.5" x2="0.5" y2="1" gradientUnits="objectBoundingBox">
      <stop offset="0" stop-color="#b13e8d" stop-opacity="0"/>
      <stop offset="0.091" stop-color="#b13e8d" stop-opacity="0.129"/>
      <stop offset="0.283" stop-color="#b13e8d" stop-opacity="0.388"/>
      <stop offset="0.465" stop-color="#b13e8d" stop-opacity="0.612"/>
      <stop offset="0.633" stop-color="#b13e8d" stop-opacity="0.78"/>
      <stop offset="0.784" stop-color="#b13e8d"/>
      <stop offset="0.911" stop-color="#b13e8d" stop-opacity="0.969"/>
      <stop offset="1" stop-color="#b13e8d"/>
    </linearGradient>
    <filter id="Rectángulo_40715" x="41" y="3" width="108" height="108" filterUnits="userSpaceOnUse">
      <feOffset dy="3" input="SourceAlpha"/>
      <feGaussianBlur stdDeviation="3" result="blur"/>
      <feFlood flood-opacity="0.161"/>
      <feComposite operator="in" in2="blur"/>
      <feComposite in="SourceGraphic"/>
    </filter>
  </defs>
  <g id="Grupo_131878" data-name="Grupo 131878" transform="translate(-180 -448)">
    <rect id="Rectángulo_40586" data-name="Rectángulo 40586" width="190" height="20" transform="translate(180 493)" fill="none"/>
    <g id="Grupo_108405" data-name="Grupo 108405" transform="translate(209.5 512)">
      <path id="Rectángulo_5242" data-name="Rectángulo 5242" d="M0,0H12a0,0,0,0,1,0,0V43.333a3,3,0,0,1-3,3H3a3,3,0,0,1-3-3V0A0,0,0,0,1,0,0Z" transform="translate(0 0)" fill="url(#linear-gradient)"/>
    </g>
    <g id="Grupo_108406" data-name="Grupo 108406" transform="translate(340 500) rotate(180)">
      <path id="Rectángulo_5242-2" data-name="Rectángulo 5242" d="M0,0H12a0,0,0,0,1,0,0V49a3,3,0,0,1-3,3H3a3,3,0,0,1-3-3V0A0,0,0,0,1,0,0Z" transform="translate(0 0)" fill="url(#linear-gradient-2)"/>
    </g>
    <g transform="matrix(1, 0, 0, 1, 180, 448)" filter="url(#Rectángulo_40715)">
      <path id="Rectángulo_40715-2" data-name="Rectángulo 40715" d="M10,0H80A10,10,0,0,1,90,10V90a0,0,0,0,1,0,0H10A10,10,0,0,1,0,80V10A10,10,0,0,1,10,0Z" transform="translate(50 9)" fill="#f6f6f6"/>
    </g>
    <g id="Grupo_128858" data-name="Grupo 128858" transform="translate(-221 -165)">
      <g id="Grupo_128860" data-name="Grupo 128860" transform="translate(469 637)">
        <path id="Trazado_188744" data-name="Trazado 188744" d="M-1119.826,1501a1.323,1.323,0,0,1,.584,1.244q-.014,25.249-.009,50.5c0,.942-.281,1.223-1.219,1.223q-5.538,0-11.074,0h-.7v.68c0,1.777,0,3.554,0,5.331,0,.688-.319,1.016-1,1.017-5.976,0-11.953.016-17.929-.015a5.846,5.846,0,0,1-4.175-1.853q-7.979-7.971-15.949-15.951a6.189,6.189,0,0,1-1.849-4.537q0-9.49,0-18.981a1.878,1.878,0,0,1,.063-.577.806.806,0,0,1,.895-.6.816.816,0,0,1,.782.744,4.347,4.347,0,0,1,.015.644q0,9.256,0,18.512a4.44,4.44,0,0,0,4.823,4.805q5.009,0,10.019,0c.949,0,1.214.265,1.214,1.216q0,5.039,0,10.077a4.432,4.432,0,0,0,4.75,4.761H-1134v-.669q0-9.315-.014-18.629a1.973,1.973,0,0,0-.313-1.018c-1.9-2.906-3.832-5.794-5.753-8.689a4.435,4.435,0,0,1-.005-5.5q2.461-3.707,4.923-7.413c.114-.173.219-.352.385-.619h-37.035c-1.1,0-1.334-.232-1.334-1.338q0-4.8,0-9.608c0-.976.272-1.245,1.254-1.245h14.8c0-.77.024-1.522-.009-2.272a1.272,1.272,0,0,1,.585-1.243Zm-1.221,51.209v-49.45a4.552,4.552,0,0,0-3.806,2.217q-6.852,10.346-13.724,20.677a2.756,2.756,0,0,0,0,3.658l8.256,12.434q2.769,4.168,5.537,8.338A4.48,4.48,0,0,0-1121.047,1552.207Zm-50.309-45.915v8.622h37.32v-8.622Zm16.043-1.78h21.88c.915,0,1.191.273,1.192,1.178q0,3.279,0,6.558c0,.155.021.31.043.6l6.7-10.049h-29.815Zm-11.466,40.451,9.656,9.657v-9.657Zm34.581-2.863v10.078h6.705Z" transform="translate(1173.144 -1500.998)" fill="#6836bf"/>
        <path id="Trazado_188745" data-name="Trazado 188745" d="M-1151.531,1543.769H-1163.6c-.156,0-.313.009-.468-.005a.893.893,0,0,1-.867-.862.891.891,0,0,1,.843-.885,4.055,4.055,0,0,1,.41-.005h24.31a2.612,2.612,0,0,1,.525.016.829.829,0,0,1,.737.849.824.824,0,0,1-.714.868,2.63,2.63,0,0,1-.583.022Z" transform="translate(1171.971 -1506.856)" fill="#6836bf"/>
        <path id="Trazado_188746" data-name="Trazado 188746" d="M-1151.531,1546.114h12.067c.176,0,.353-.01.527.006a.868.868,0,0,1,.833.884.874.874,0,0,1-.857.863c-.155.013-.312,0-.468,0h-24.193a4.462,4.462,0,0,1-.468-.006.891.891,0,0,1-.843-.885.892.892,0,0,1,.866-.861c.155-.014.313-.005.469-.005Z" transform="translate(1171.971 -1507.443)" fill="#6836bf"/>
        <path id="Trazado_188747" data-name="Trazado 188747" d="M-1157.792,1527.232c-2.049,0-4.1.019-6.147-.021a1.2,1.2,0,0,1-.845-.47.93.93,0,0,1,.045-.849,1.072,1.072,0,0,1,.777-.4c4.119-.025,8.237-.021,12.356-.014a.875.875,0,0,1,.972.867c.007.537-.371.881-1.008.883C-1153.693,1527.236-1155.743,1527.232-1157.792,1527.232Z" transform="translate(1171.961 -1504.495)" fill="#6836bf"/>
        <path id="Trazado_188748" data-name="Trazado 188748" d="M-1157.771,1531.334q-3.015,0-6.032,0c-.723,0-1.142-.337-1.129-.891.012-.533.422-.863,1.106-.864q6.031-.005,12.063,0c.732,0,1.13.328,1.12.9-.01.547-.4.855-1.1.856Q-1154.756,1531.337-1157.771,1531.334Z" transform="translate(1171.971 -1505.08)" fill="#6836bf"/>
        <path id="Trazado_188749" data-name="Trazado 188749" d="M-1157.838,1539.668c-2.011,0-4.022-.005-6.032,0a.927.927,0,0,1-1.029-.678c-.164-.572.276-1.072.963-1.079,1.249-.011,2.5,0,3.747,0,2.811,0,5.622.005,8.433,0,.521,0,.938.134,1.088.677.165.6-.288,1.08-1.023,1.083C-1153.74,1539.672-1155.789,1539.668-1157.838,1539.668Z" transform="translate(1171.971 -1506.271)" fill="#6836bf"/>
        <path id="Trazado_188750" data-name="Trazado 188750" d="M-1143.115,1562.5c-2.049,0-4.1.006-6.148,0-.817,0-1.317-.711-.9-1.3a1.167,1.167,0,0,1,.819-.435c4.119-.027,8.237-.022,12.356-.016a.871.871,0,0,1,.971.865c.005.535-.375.884-1.011.886C-1139.055,1562.5-1141.085,1562.5-1143.115,1562.5Z" transform="translate(1169.882 -1509.532)" fill="#6836bf"/>
      </g>
    </g>
  </g>
</svg>
