<svg xmlns="http://www.w3.org/2000/svg" xmlns:xlink="http://www.w3.org/1999/xlink" width="569.464" height="156" viewBox="0 0 569.464 156">
  <defs>
    <filter id="Rectángulo_40592" x="282" y="0" width="125" height="156" filterUnits="userSpaceOnUse">
      <feOffset dy="3" input="SourceAlpha"/>
      <feGaussianBlur stdDeviation="3" result="blur"/>
      <feFlood flood-opacity="0.161"/>
      <feComposite operator="in" in2="blur"/>
      <feComposite in="SourceGraphic"/>
    </filter>
    <filter id="Rectángulo_40592-2" x="409" y="0" width="125" height="156" filterUnits="userSpaceOnUse">
      <feOffset dy="3" input="SourceAlpha"/>
      <feGaussianBlur stdDeviation="3" result="blur-2"/>
      <feFlood flood-opacity="0.161"/>
      <feComposite operator="in" in2="blur-2"/>
      <feComposite in="SourceGraphic"/>
    </filter>
    <filter id="Trazado_189540" x="0" y="0" width="185" height="156" filterUnits="userSpaceOnUse">
      <feOffset dy="3" input="SourceAlpha"/>
      <feGaussianBlur stdDeviation="3" result="blur-3"/>
      <feFlood flood-opacity="0.161"/>
      <feComposite operator="in" in2="blur-3"/>
      <feComposite in="SourceGraphic"/>
    </filter>
  </defs>
  <g id="Grupo_133220" data-name="Grupo 133220" transform="translate(8546 8462)">
    <g id="Grupo_128161" data-name="Grupo 128161" transform="translate(-8728 -10764)">
      <g transform="matrix(1, 0, 0, 1, 182, 2302)" filter="url(#Rectángulo_40592)">
        <rect id="Rectángulo_40592-3" data-name="Rectángulo 40592" width="107" height="138" rx="10" transform="translate(291 6)" fill="#ecf7e0"/>
      </g>
    </g>
    <path id="Trazado_189535" data-name="Trazado 189535" d="M10.949,15H8.223V10.25H4.184V15H1.441V3.625H4.184V8.141H8.223V3.625h2.727Zm1.281-4.3a4.989,4.989,0,0,1,.492-2.254,3.52,3.52,0,0,1,1.414-1.52A4.259,4.259,0,0,1,16.3,6.391a3.887,3.887,0,0,1,2.992,1.176,4.512,4.512,0,0,1,1.094,3.2v.094A4.378,4.378,0,0,1,19.289,14a3.9,3.9,0,0,1-2.973,1.16,3.942,3.942,0,0,1-2.9-1.082,4.232,4.232,0,0,1-1.18-2.934Zm2.633.164a3.145,3.145,0,0,0,.367,1.719,1.223,1.223,0,0,0,1.086.547q1.406,0,1.438-2.164V10.7q0-2.273-1.453-2.273-1.32,0-1.43,1.961Zm9.172-4.312.086.992a2.906,2.906,0,0,1,2.414-1.148A2.14,2.14,0,0,1,28.7,7.664a2.813,2.813,0,0,1,2.484-1.273q2.57,0,2.641,3.109V15H31.184V9.664a1.611,1.611,0,0,0-.219-.945.931.931,0,0,0-.8-.3,1.247,1.247,0,0,0-1.164.7l.008.109V15H26.371V9.68a1.694,1.694,0,0,0-.211-.961.929.929,0,0,0-.8-.3,1.263,1.263,0,0,0-1.156.7V15H21.566V6.547Zm19.141,4.3a5.152,5.152,0,0,1-.859,3.2,2.878,2.878,0,0,1-2.422,1.117,2.5,2.5,0,0,1-2.078-1.023L37.707,15H35.348V3H37.98V7.227a2.41,2.41,0,0,1,1.9-.836,2.879,2.879,0,0,1,2.438,1.133,5.179,5.179,0,0,1,.859,3.188Zm-2.641-.168a3.437,3.437,0,0,0-.324-1.735,1.093,1.093,0,0,0-1-.519A1.261,1.261,0,0,0,37.98,9.1v3.354a1.268,1.268,0,0,0,1.25.671,1.118,1.118,0,0,0,1.18-.9A6.5,6.5,0,0,0,40.535,10.676ZM49.449,8.93l-.867-.062a1.558,1.558,0,0,0-1.594.781V15H44.355V6.547h2.469l.086,1.086a2.039,2.039,0,0,1,1.852-1.242,2.567,2.567,0,0,1,.734.094Zm4.891,6.227A4.345,4.345,0,0,1,51.191,14a4.006,4.006,0,0,1-1.2-3.02v-.219a5.191,5.191,0,0,1,.48-2.289,3.516,3.516,0,0,1,1.4-1.535,4.233,4.233,0,0,1,2.188-.543A3.659,3.659,0,0,1,56.871,7.5,4.344,4.344,0,0,1,57.9,10.578V11.6H52.668a1.9,1.9,0,0,0,.617,1.117,1.836,1.836,0,0,0,1.234.406,2.366,2.366,0,0,0,1.953-.875l1.2,1.422a3.363,3.363,0,0,1-1.395,1.082A4.713,4.713,0,0,1,54.34,15.156Zm-.3-6.734q-1.156,0-1.375,1.531h2.656v-.2A1.3,1.3,0,0,0,55,8.77,1.275,1.275,0,0,0,54.043,8.422Zm9.344,4.2a.608.608,0,0,0-.352-.539,5.348,5.348,0,0,0-1.336-.422,6.092,6.092,0,0,1-1.625-.574,2.722,2.722,0,0,1-.977-.863,2.061,2.061,0,0,1-.336-1.164,2.336,2.336,0,0,1,.961-1.918,3.958,3.958,0,0,1,2.516-.754,4.386,4.386,0,0,1,2.688.758,2.37,2.37,0,0,1,1.016,1.992H63.3q0-1.016-1.07-1.016a1.061,1.061,0,0,0-.7.23.714.714,0,0,0-.281.574.655.655,0,0,0,.344.57,3.248,3.248,0,0,0,1.1.359,9.485,9.485,0,0,1,1.324.336,2.406,2.406,0,0,1,1.906,2.352A2.214,2.214,0,0,1,64.9,14.43a4.505,4.505,0,0,1-2.66.727,4.6,4.6,0,0,1-1.937-.391A3.24,3.24,0,0,1,58.973,13.7a2.406,2.406,0,0,1-.477-1.414h2.461a1.017,1.017,0,0,0,.391.855,1.607,1.607,0,0,0,.961.27,1.264,1.264,0,0,0,.809-.219A.7.7,0,0,0,63.387,12.625Z" transform="translate(-8235 -8356)" fill="#12263f"/>
    <g id="Grupo_128167" data-name="Grupo 128167" transform="translate(750.008 422)">
      <g id="Grupo_128166" data-name="Grupo 128166" transform="translate(-9442.117 -8952.238)">
        <path id="Trazado_188019" data-name="Trazado 188019" d="M499.208,201.659v1.019q0,10.436,0,20.872a4.322,4.322,0,0,1-.77,2.748,3.672,3.672,0,0,1-4,1.3,3.632,3.632,0,0,1-2.6-3.471c-.029-3.255-.012-6.511-.012-9.767q0-5,0-10c0-.184,0-.368,0-.551a.735.735,0,0,0-.755-.827c-.534-.012-.812.3-.812.846q0,2.205,0,4.411,0,7.8,0,15.6a3.66,3.66,0,0,1-3.248,3.89,3.622,3.622,0,0,1-4-2.789,7.033,7.033,0,0,1-.132-1.485q-.012-10.4-.006-20.794v-1c-.392,0-.7.011-1.008,0a3.686,3.686,0,0,1-3.729-3.775c-.025-5.645-.035-11.29,0-16.934a5.108,5.108,0,0,1,5.192-5.295q7.717-.1,15.437,0a5.082,5.082,0,0,1,5.173,5.23c.052,5.671.036,11.342.006,17.013a3.68,3.68,0,0,1-3.745,3.76C499.909,201.669,499.622,201.659,499.208,201.659Zm-16.34-1.808v-.976q0-7.956,0-15.912c0-1.108.264-1.566.889-1.551.6.015.831.425.831,1.511q0,20.4,0,40.8a2.077,2.077,0,0,0,2.009,2.332,2.055,2.055,0,0,0,1.93-2.319q.006-5.317,0-10.634c0-3.072-.008-6.144,0-9.216a2.431,2.431,0,0,1,1.891-2.558,2.483,2.483,0,0,1,3.119,2.661q.012,9.689,0,19.378c0,.289-.009.579.013.866a1.914,1.914,0,0,0,1.177,1.643,1.761,1.761,0,0,0,1.923-.239,2.349,2.349,0,0,0,.832-2.094q-.013-20.4-.005-40.8c0-.92.269-1.334.851-1.331s.862.444.87,1.338c0,.184,0,.368,0,.551v16.565c1.942.37,3.081-.657,3.05-2.6-.083-5.3-.027-10.608-.029-15.912,0-2.612-1.367-4-3.96-4.008q-7.247-.013-14.494,0c-2.553.005-3.925,1.4-3.927,3.957,0,5.357.05,10.714-.029,16.069A2.3,2.3,0,0,0,482.867,199.852Z" transform="translate(0 -63.525)" fill="#4c771e"/>
        <path id="Trazado_188020" data-name="Trazado 188020" d="M516.7,102.227a7.946,7.946,0,1,1-7.953-7.989A7.985,7.985,0,0,1,516.7,102.227Zm-7.967,6.187a6.228,6.228,0,1,0,.009-12.455,6.228,6.228,0,0,0-.009,12.455Z" transform="translate(-17.719 0)" fill="#4c771e"/>
        <path id="Trazado_188021" data-name="Trazado 188021" d="M488.955,206.023a2.3,2.3,0,0,1-3.049-2.48c.08-5.355.027-10.713.029-16.069,0-2.558,1.374-3.951,3.927-3.957q7.247-.016,14.494,0c2.593,0,3.959,1.4,3.96,4.008,0,5.3-.054,10.609.029,15.912.03,1.944-1.108,2.971-3.05,2.6V189.473c0-.184,0-.367,0-.551-.008-.894-.3-1.335-.87-1.338s-.851.411-.851,1.331q0,20.4.005,40.8a2.349,2.349,0,0,1-.832,2.094,1.761,1.761,0,0,1-1.923.239,1.914,1.914,0,0,1-1.177-1.643c-.021-.287-.013-.577-.013-.866q0-9.689,0-19.378a2.484,2.484,0,0,0-3.119-2.661,2.431,2.431,0,0,0-1.891,2.558c-.012,3.072,0,6.144,0,9.216q0,5.317,0,10.634a2.055,2.055,0,0,1-1.93,2.319,2.078,2.078,0,0,1-2.009-2.332q0-20.4,0-40.8c0-1.087-.226-1.5-.831-1.511-.625-.015-.889.443-.889,1.551q0,7.956,0,15.912Z" transform="translate(-6.088 -69.697)" fill="#ecf7e0"/>
        <path id="Trazado_188022" data-name="Trazado 188022" d="M514.843,114.542a6.228,6.228,0,1,1,6.249-6.173A6.248,6.248,0,0,1,514.843,114.542Z" transform="translate(-23.832 -6.127)" fill="#ecf7e0"/>
      </g>
    </g>
    <g id="Grupo_128168" data-name="Grupo 128168" transform="translate(-8601 -10764)">
      <g transform="matrix(1, 0, 0, 1, 55, 2302)" filter="url(#Rectángulo_40592-2)">
        <rect id="Rectángulo_40592-4" data-name="Rectángulo 40592" width="107" height="138" rx="10" transform="translate(418 6)" fill="#f3e2ee"/>
      </g>
    </g>
    <path id="Trazado_189536" data-name="Trazado 189536" d="M8.512,3.625l2.539,7.914,2.531-7.914h3.609V15h-2.75V12.344l.266-5.437L11.957,15H10.145L7.387,6.9l.266,5.445V15H4.91V3.625ZM23.848,14.086a2.714,2.714,0,0,1-2.258,1.07,2.662,2.662,0,0,1-2.105-.809,3.4,3.4,0,0,1-.715-2.324V6.547H21.4v5.492a.946.946,0,0,0,1.055,1.086,1.376,1.376,0,0,0,1.289-.648V6.547h2.648V15H23.926Zm6.82-7.539v8.742a3.068,3.068,0,0,1-.859,2.313,3.3,3.3,0,0,1-2.375.813,5.607,5.607,0,0,1-1.242-.133V16.289a5.037,5.037,0,0,0,.742.07.963.963,0,0,0,1.094-1.086V6.547ZM27.832,4.359a1.186,1.186,0,0,1,.406-.927,1.719,1.719,0,0,1,2.109,0,1.186,1.186,0,0,1,.406.927,1.186,1.186,0,0,1-.406.927,1.719,1.719,0,0,1-2.109,0A1.186,1.186,0,0,1,27.832,4.359Zm8.414,10.8A4.345,4.345,0,0,1,33.1,14a4.006,4.006,0,0,1-1.2-3.02v-.219a5.191,5.191,0,0,1,.48-2.289,3.516,3.516,0,0,1,1.4-1.535,4.233,4.233,0,0,1,2.188-.543A3.659,3.659,0,0,1,38.777,7.5a4.344,4.344,0,0,1,1.031,3.082V11.6H34.574a1.9,1.9,0,0,0,.617,1.117,1.836,1.836,0,0,0,1.234.406,2.366,2.366,0,0,0,1.953-.875l1.2,1.422a3.363,3.363,0,0,1-1.395,1.082A4.713,4.713,0,0,1,36.246,15.156Zm-.3-6.734q-1.156,0-1.375,1.531H37.23v-.2a1.3,1.3,0,0,0-.32-.98A1.275,1.275,0,0,0,35.949,8.422ZM45.98,8.93l-.867-.062a1.558,1.558,0,0,0-1.594.781V15H40.887V6.547h2.469l.086,1.086a2.039,2.039,0,0,1,1.852-1.242,2.567,2.567,0,0,1,.734.094Zm4.891,6.227A4.345,4.345,0,0,1,47.723,14a4.006,4.006,0,0,1-1.2-3.02v-.219A5.191,5.191,0,0,1,47,8.469a3.516,3.516,0,0,1,1.4-1.535,4.233,4.233,0,0,1,2.188-.543A3.659,3.659,0,0,1,53.4,7.5a4.344,4.344,0,0,1,1.031,3.082V11.6H49.2a1.9,1.9,0,0,0,.617,1.117,1.836,1.836,0,0,0,1.234.406A2.366,2.366,0,0,0,53,12.25l1.2,1.422a3.363,3.363,0,0,1-1.395,1.082A4.713,4.713,0,0,1,50.871,15.156Zm-.3-6.734q-1.156,0-1.375,1.531h2.656v-.2a1.3,1.3,0,0,0-.32-.98A1.275,1.275,0,0,0,50.574,8.422Zm9.344,4.2a.608.608,0,0,0-.352-.539,5.348,5.348,0,0,0-1.336-.422,6.092,6.092,0,0,1-1.625-.574,2.722,2.722,0,0,1-.977-.863,2.061,2.061,0,0,1-.336-1.164,2.336,2.336,0,0,1,.961-1.918,3.958,3.958,0,0,1,2.516-.754,4.386,4.386,0,0,1,2.688.758,2.37,2.37,0,0,1,1.016,1.992H59.832q0-1.016-1.07-1.016a1.061,1.061,0,0,0-.7.23.714.714,0,0,0-.281.574.655.655,0,0,0,.344.57,3.248,3.248,0,0,0,1.1.359,9.485,9.485,0,0,1,1.324.336,2.406,2.406,0,0,1,1.906,2.352A2.214,2.214,0,0,1,61.43,14.43a4.505,4.505,0,0,1-2.66.727,4.6,4.6,0,0,1-1.937-.391A3.24,3.24,0,0,1,55.5,13.7a2.406,2.406,0,0,1-.477-1.414h2.461a1.017,1.017,0,0,0,.391.855,1.607,1.607,0,0,0,.961.27,1.264,1.264,0,0,0,.809-.219A.7.7,0,0,0,59.918,12.625Z" transform="translate(-8108 -8356)" fill="#12263f"/>
    <g id="Grupo_128169" data-name="Grupo 128169" transform="translate(-8853.736 -8654.882)">
      <path id="Trazado_188023" data-name="Trazado 188023" d="M779.415,288.2a10.128,10.128,0,0,1-2.509.623A3,3,0,0,1,774,285.78c-.286-4.4-.547-8.8-.822-13.2-.113-1.8-.235-3.608-.361-5.522-1,0-1.986,0-2.974,0-1.357,0-1.6-.321-1.314-1.676.3-1.432.6-2.866.906-4.3a14.784,14.784,0,0,1-1.517-.729,4.834,4.834,0,0,1-2.062-5.215q1.476-7.083,2.974-14.161a4.84,4.84,0,0,1,5.226-4.222q5.277-.012,10.554,0c2.989,0,4.689,1.39,5.3,4.3.95,4.515,1.821,9.048,2.88,13.538.687,2.913-.506,5.494-3.481,6.45.306,1.491.614,2.994.922,4.5.246,1.2-.008,1.514-1.248,1.518-.994,0-1.988,0-3.061,0-.1,1.44-.192,2.82-.28,4.2-.3,4.793-.619,9.586-.9,14.381a3.14,3.14,0,0,1-1.859,2.954,3.037,3.037,0,0,1-3.375-.542.443.443,0,0,0-.142-.05Zm9.52-28.934a2.992,2.992,0,0,0,2.286-3.688q-1.491-7.159-3.019-14.311a3.086,3.086,0,0,0-3.471-2.808q-5.354-.012-10.709,0a3.148,3.148,0,0,0-3.509,2.875c-.55,2.643-1.12,5.282-1.668,7.925-.469,2.258-.977,4.51-1.36,6.783a2.731,2.731,0,0,0,2.323,3.153,2.244,2.244,0,0,0,.069-.22q1.632-7.731,3.261-15.464c.126-.6.361-1.1,1.078-.939s.721.692.591,1.3q-1.728,8.154-3.429,16.313c-.353,1.683-.7,3.365-1.063,5.082h18.09c-.046-.3-.073-.531-.121-.76q-1.68-7.964-3.365-15.925c-.341-1.616-.706-3.227-.992-4.853a1.427,1.427,0,0,1,.329-1.029.851.851,0,0,1,.84-.031,1.64,1.64,0,0,1,.517.911c.767,3.561,1.5,7.129,2.254,10.695C788.217,255.944,788.579,257.6,788.935,259.268ZM774.6,267.1c0,.279-.011.487,0,.694q.557,8.947,1.121,17.894a1.43,1.43,0,0,0,1.359,1.466,1.45,1.45,0,0,0,1.436-1.47c.016-.182.007-.367.007-.55V267.1Zm5.685-.014c-.015.293-.038.524-.038.755q0,8.729,0,17.458a5.289,5.289,0,0,0,.019.55,1.356,1.356,0,0,0,2.7.136c.084-.515.111-1.041.145-1.564q.453-7.1.9-14.2c.064-1.032.11-2.066.165-3.133Z" fill="#6a2554"/>
      <path id="Trazado_188024" data-name="Trazado 188024" d="M779.344,234.778a7.948,7.948,0,0,1,.058-15.9,7.948,7.948,0,1,1-.058,15.9Zm.066-1.72a6.228,6.228,0,1,0-6.252-6.16A6.269,6.269,0,0,0,779.41,233.058Z" fill="#6a2554"/>
      <path id="Trazado_188025" data-name="Trazado 188025" d="M788.935,259.268c-.356-1.664-.718-3.324-1.068-4.986-.75-3.566-1.487-7.134-2.254-10.695a1.64,1.64,0,0,0-.517-.911.851.851,0,0,0-.84.031,1.427,1.427,0,0,0-.329,1.029c.286,1.626.651,3.237.992,4.853q1.681,7.962,3.365,15.925c.048.229.075.464.121.76h-18.09c.359-1.717.71-3.4,1.063-5.082q1.711-8.157,3.429-16.313c.13-.613.113-1.146-.591-1.3s-.952.337-1.078.939q-1.625,7.734-3.261,15.464a2.244,2.244,0,0,1-.069.22,2.731,2.731,0,0,1-2.323-3.153c.383-2.273.891-4.525,1.36-6.783.548-2.643,1.118-5.282,1.668-7.925a3.148,3.148,0,0,1,3.509-2.875q5.355-.012,10.709,0a3.086,3.086,0,0,1,3.471,2.808q1.528,7.152,3.019,14.311A2.992,2.992,0,0,1,788.935,259.268Z" fill="#f3e2ee"/>
      <path id="Trazado_188026" data-name="Trazado 188026" d="M774.6,267.1h3.925v18.034c0,.183.009.368-.007.55a1.45,1.45,0,0,1-1.436,1.47,1.43,1.43,0,0,1-1.359-1.466q-.572-8.946-1.121-17.894C774.589,267.588,774.6,267.38,774.6,267.1Z" fill="#f3e2ee"/>
      <path id="Trazado_188027" data-name="Trazado 188027" d="M780.285,267.087h3.887c-.055,1.067-.1,2.1-.165,3.133q-.444,7.1-.9,14.2c-.034.523-.061,1.049-.145,1.564a1.356,1.356,0,0,1-2.7-.136,5.289,5.289,0,0,1-.019-.55q0-8.729,0-17.458C780.247,267.611,780.27,267.38,780.285,267.087Z" fill="#f3e2ee"/>
      <path id="Trazado_188028" data-name="Trazado 188028" d="M779.41,233.058a6.228,6.228,0,1,1-.033-12.455,6.228,6.228,0,0,1,.033,12.455Z" fill="#f3e2ee"/>
    </g>
    <path id="Trazado_189537" data-name="Trazado 189537" d="M11.783,4.194v1.38h-.3A4.281,4.281,0,0,0,8.461,6.7a4.681,4.681,0,0,0-1.3,3.067,3.471,3.471,0,0,1,2.76-1.16,3.319,3.319,0,0,1,2.667,1.178,4.543,4.543,0,0,1,1,3.041,4.528,4.528,0,0,1-1.077,3.164,3.707,3.707,0,0,1-2.887,1.187,3.653,3.653,0,0,1-2.979-1.411A5.591,5.591,0,0,1,5.5,12.131v-.624a8.424,8.424,0,0,1,1.507-5.4,5.536,5.536,0,0,1,4.487-1.912ZM9.647,9.96a2.733,2.733,0,0,0-2.514,1.758v.6a4.2,4.2,0,0,0,.712,2.549,2.133,2.133,0,0,0,1.775.967,2.067,2.067,0,0,0,1.727-.809,3.355,3.355,0,0,0,.628-2.118,3.356,3.356,0,0,0-.637-2.131A2.042,2.042,0,0,0,9.647,9.96Zm6.609.624.65-6.381h6.557v1.5H18.287L17.9,9.2a4.13,4.13,0,0,1,2.136-.554A3.531,3.531,0,0,1,22.813,9.8a4.53,4.53,0,0,1,1.028,3.125,4.372,4.372,0,0,1-1.068,3.116,3.892,3.892,0,0,1-2.984,1.138,4.045,4.045,0,0,1-2.769-.94,3.754,3.754,0,0,1-1.222-2.6h1.538a2.582,2.582,0,0,0,.782,1.657,2.432,2.432,0,0,0,1.67.558,2.194,2.194,0,0,0,1.78-.773,3.233,3.233,0,0,0,.646-2.136,2.968,2.968,0,0,0-.7-2.061,2.377,2.377,0,0,0-1.859-.778,2.681,2.681,0,0,0-1.67.466l-.431.352Zm17.385.958a7.436,7.436,0,0,1-.976,4.245,3.47,3.47,0,0,1-3.05,1.389,3.5,3.5,0,0,1-3.032-1.358,7.058,7.058,0,0,1-1.02-4.056V9.591A7.271,7.271,0,0,1,26.54,5.4,3.5,3.5,0,0,1,29.6,4.027,3.528,3.528,0,0,1,32.64,5.35a7.017,7.017,0,0,1,1,4.083ZM32.016,9.318a5.958,5.958,0,0,0-.58-3.01A2,2,0,0,0,29.6,5.363a1.97,1.97,0,0,0-1.819.94A5.817,5.817,0,0,0,27.19,9.2v2.6a6.053,6.053,0,0,0,.6,3.063,1.993,1.993,0,0,0,1.824.989,1.966,1.966,0,0,0,1.789-.932,5.834,5.834,0,0,0,.611-2.936ZM12.336,19.944v1.627h-.191a3.356,3.356,0,0,0-2.157.7,2.833,2.833,0,0,0-.981,1.88,2.691,2.691,0,0,1,2-.807,2.535,2.535,0,0,1,2.064.93,3.727,3.727,0,0,1,.766,2.447,3.666,3.666,0,0,1-.42,1.757A3.015,3.015,0,0,1,12.23,29.7a3.456,3.456,0,0,1-1.74.438,3.227,3.227,0,0,1-2.54-1.094,4.246,4.246,0,0,1-.967-2.919v-.711A6.389,6.389,0,0,1,7.6,22.552a4.486,4.486,0,0,1,1.757-1.921,5.148,5.148,0,0,1,2.656-.687Zm-1.928,4.99a1.578,1.578,0,0,0-.868.249,1.5,1.5,0,0,0-.574.658v.6a2.66,2.66,0,0,0,.39,1.545,1.259,1.259,0,0,0,1.094.556,1.245,1.245,0,0,0,1.029-.5,2.354,2.354,0,0,0,0-2.61A1.292,1.292,0,0,0,10.408,24.935Zm4.895.171.574-5.059h5.578v1.647H17.5l-.246,2.14a3.132,3.132,0,0,1,1.5-.376,2.869,2.869,0,0,1,2.229.882,3.522,3.522,0,0,1,.807,2.468,3.609,3.609,0,0,1-.407,1.726,2.871,2.871,0,0,1-1.166,1.183,3.639,3.639,0,0,1-1.791.42,3.864,3.864,0,0,1-1.675-.366,2.971,2.971,0,0,1-1.22-1.029,2.8,2.8,0,0,1-.475-1.511H17a1.46,1.46,0,0,0,.434.967,1.376,1.376,0,0,0,.974.345,1.215,1.215,0,0,0,1.032-.482,2.233,2.233,0,0,0,.362-1.364,1.846,1.846,0,0,0-.417-1.3,1.53,1.53,0,0,0-1.183-.451,1.71,1.71,0,0,0-1.142.369l-.191.178Zm7.711-3.145a1.968,1.968,0,0,1,.595-1.487,2.157,2.157,0,0,1,1.559-.571,2.191,2.191,0,0,1,1.572.564A2.005,2.005,0,0,1,27.334,22v.492a1.943,1.943,0,0,1-.595,1.483,2.456,2.456,0,0,1-3.127,0,1.991,1.991,0,0,1-.6-1.521Zm1.313.535a.929.929,0,0,0,.236.663.81.81,0,0,0,.619.251.772.772,0,0,0,.608-.254.989.989,0,0,0,.226-.681v-.509a.968.968,0,0,0-.226-.667.875.875,0,0,0-1.23,0,.988.988,0,0,0-.232.7Zm3.445,5.064a1.943,1.943,0,0,1,.6-1.487,2.187,2.187,0,0,1,1.559-.564,2.209,2.209,0,0,1,1.569.557,1.994,1.994,0,0,1,.6,1.535v.492a1.957,1.957,0,0,1-.588,1.48,2.167,2.167,0,0,1-1.565.564,2.193,2.193,0,0,1-1.579-.567,1.982,1.982,0,0,1-.595-1.5Zm1.313.542a.922.922,0,0,0,.246.646.8.8,0,0,0,.615.268q.834,0,.834-.928v-.523a.938.938,0,0,0-.232-.663.88.88,0,0,0-1.23,0,.968.968,0,0,0-.232.684ZM25.57,29.255l-.964-.52,4.86-7.779.964.52Z" transform="translate(-8010.178 -8394)" fill="#12263f"/>
    <path id="Trazado_189538" data-name="Trazado 189538" d="M7.767,9.811H8.988A2.685,2.685,0,0,0,10.8,9.2a2.026,2.026,0,0,0,.659-1.591,1.985,1.985,0,0,0-2.241-2.25,2.331,2.331,0,0,0-1.683.6,2.107,2.107,0,0,0-.628,1.6H5.279A3.264,3.264,0,0,1,6.391,5.034,4.05,4.05,0,0,1,9.217,4.027a4,4,0,0,1,2.839.958,3.461,3.461,0,0,1,1.028,2.663,2.809,2.809,0,0,1-.541,1.617,3.264,3.264,0,0,1-1.472,1.169,3.145,3.145,0,0,1,1.63,1.107,3.076,3.076,0,0,1,.576,1.89,3.491,3.491,0,0,1-1.125,2.733,4.213,4.213,0,0,1-2.927,1.011A4.324,4.324,0,0,1,6.294,16.2a3.236,3.236,0,0,1-1.129-2.575H6.8a2.092,2.092,0,0,0,.659,1.617,2.507,2.507,0,0,0,1.767.606,2.46,2.46,0,0,0,1.8-.615,2.371,2.371,0,0,0,.624-1.767,2.151,2.151,0,0,0-.686-1.714,2.987,2.987,0,0,0-1.978-.615H7.767Zm8.49.773.65-6.381h6.557v1.5H18.287L17.9,9.2a4.13,4.13,0,0,1,2.136-.554A3.531,3.531,0,0,1,22.813,9.8a4.53,4.53,0,0,1,1.028,3.125,4.372,4.372,0,0,1-1.068,3.116,3.892,3.892,0,0,1-2.984,1.138,4.045,4.045,0,0,1-2.769-.94,3.754,3.754,0,0,1-1.222-2.6h1.538a2.582,2.582,0,0,0,.782,1.657,2.432,2.432,0,0,0,1.67.558,2.194,2.194,0,0,0,1.78-.773,3.233,3.233,0,0,0,.646-2.136,2.968,2.968,0,0,0-.7-2.061,2.377,2.377,0,0,0-1.859-.778,2.681,2.681,0,0,0-1.67.466l-.431.352Zm17.385.958a7.436,7.436,0,0,1-.976,4.245,3.47,3.47,0,0,1-3.05,1.389,3.5,3.5,0,0,1-3.032-1.358,7.058,7.058,0,0,1-1.02-4.056V9.591A7.271,7.271,0,0,1,26.54,5.4,3.5,3.5,0,0,1,29.6,4.027,3.528,3.528,0,0,1,32.64,5.35a7.017,7.017,0,0,1,1,4.083ZM32.016,9.318a5.958,5.958,0,0,0-.58-3.01A2,2,0,0,0,29.6,5.363a1.97,1.97,0,0,0-1.819.94A5.817,5.817,0,0,0,27.19,9.2v2.6a6.053,6.053,0,0,0,.6,3.063,1.993,1.993,0,0,0,1.824.989,1.966,1.966,0,0,0,1.789-.932,5.834,5.834,0,0,0,.611-2.936ZM8.986,24.148h1.053a1.483,1.483,0,0,0,1.114-.376,1.378,1.378,0,0,0,.362-1,1.218,1.218,0,0,0-.359-.937,1.391,1.391,0,0,0-.988-.335,1.458,1.458,0,0,0-.95.311,1,1,0,0,0-.383.81H6.86a2.43,2.43,0,0,1,.42-1.4,2.8,2.8,0,0,1,1.176-.967,3.924,3.924,0,0,1,1.665-.349,3.722,3.722,0,0,1,2.475.755,2.577,2.577,0,0,1,.9,2.082A2.094,2.094,0,0,1,13.074,24a2.709,2.709,0,0,1-1.094.882,2.473,2.473,0,0,1,1.254.9,2.448,2.448,0,0,1,.414,1.422,2.62,2.62,0,0,1-.967,2.126,3.889,3.889,0,0,1-2.56.8,3.688,3.688,0,0,1-2.437-.786,2.567,2.567,0,0,1-.947-2.078H8.713a1.145,1.145,0,0,0,.42.916,1.549,1.549,0,0,0,1.036.355,1.556,1.556,0,0,0,1.1-.373,1.286,1.286,0,0,0,.4-.988q0-1.49-1.641-1.49H8.986Zm6.316.957.574-5.059h5.578v1.647H17.5l-.246,2.14a3.132,3.132,0,0,1,1.5-.376,2.869,2.869,0,0,1,2.229.882,3.522,3.522,0,0,1,.807,2.468,3.609,3.609,0,0,1-.407,1.726,2.871,2.871,0,0,1-1.166,1.183,3.639,3.639,0,0,1-1.791.42,3.864,3.864,0,0,1-1.675-.366,2.971,2.971,0,0,1-1.22-1.029,2.8,2.8,0,0,1-.475-1.511H17a1.46,1.46,0,0,0,.434.967,1.376,1.376,0,0,0,.974.345,1.215,1.215,0,0,0,1.032-.482,2.233,2.233,0,0,0,.362-1.364,1.846,1.846,0,0,0-.417-1.3,1.53,1.53,0,0,0-1.183-.451,1.71,1.71,0,0,0-1.142.369l-.191.178Zm7.711-3.145a1.968,1.968,0,0,1,.595-1.487,2.157,2.157,0,0,1,1.559-.571,2.191,2.191,0,0,1,1.572.564A2.005,2.005,0,0,1,27.334,22v.492a1.943,1.943,0,0,1-.595,1.483,2.456,2.456,0,0,1-3.127,0,1.991,1.991,0,0,1-.6-1.521Zm1.313.535a.929.929,0,0,0,.236.663.81.81,0,0,0,.619.251.772.772,0,0,0,.608-.254.989.989,0,0,0,.226-.681v-.509a.968.968,0,0,0-.226-.667.875.875,0,0,0-1.23,0,.988.988,0,0,0-.232.7Zm3.445,5.064a1.943,1.943,0,0,1,.6-1.487,2.187,2.187,0,0,1,1.559-.564,2.209,2.209,0,0,1,1.569.557,1.994,1.994,0,0,1,.6,1.535v.492a1.957,1.957,0,0,1-.588,1.48,2.167,2.167,0,0,1-1.565.564,2.193,2.193,0,0,1-1.579-.567,1.982,1.982,0,0,1-.595-1.5Zm1.313.542a.922.922,0,0,0,.246.646.8.8,0,0,0,.615.268q.834,0,.834-.928v-.523a.938.938,0,0,0-.232-.663.88.88,0,0,0-1.23,0,.968.968,0,0,0-.232.684ZM25.57,29.255l-.964-.52,4.86-7.779.964.52Z" transform="translate(-8304.5 -8394)" fill="#12263f"/>
    <path id="Trazado_189539" data-name="Trazado 189539" d="M51.692,59.746H6.478v-12.7H51.692Zm0,21.436H6.478v-12.7H51.692Z" transform="translate(-8363 -8448)" fill="#12263f"/>
    <g transform="matrix(1, 0, 0, 1, -8546, -8462)" filter="url(#Trazado_189540)">
      <path id="Trazado_189540-2" data-name="Trazado 189540" d="M20,0H147a20,20,0,0,1,20,20v98a20,20,0,0,1-20,20H20A20,20,0,0,1,0,118V20A20,20,0,0,1,20,0Z" transform="translate(9 6)" fill="#e8e1f6"/>
    </g>
    <path id="Trazado_189541" data-name="Trazado 189541" d="M10.621,11.141V15H7.879V3.625h4.539a5.287,5.287,0,0,1,2.309.48,3.621,3.621,0,0,1,1.555,1.367,3.734,3.734,0,0,1,.551,2.012,3.291,3.291,0,0,1-1.191,2.66,4.943,4.943,0,0,1-3.27,1Zm0-2.117h1.8a1.7,1.7,0,0,0,1.215-.4A1.48,1.48,0,0,0,14.051,7.5a1.83,1.83,0,0,0-.43-1.273,1.522,1.522,0,0,0-1.172-.484H10.621ZM17.738,10.7a4.989,4.989,0,0,1,.492-2.254,3.52,3.52,0,0,1,1.414-1.52,4.259,4.259,0,0,1,2.164-.531A3.887,3.887,0,0,1,24.8,7.566a4.512,4.512,0,0,1,1.094,3.2v.094A4.378,4.378,0,0,1,24.8,14a3.9,3.9,0,0,1-2.973,1.16,3.942,3.942,0,0,1-2.9-1.082,4.232,4.232,0,0,1-1.18-2.934Zm2.633.164a3.145,3.145,0,0,0,.367,1.719,1.223,1.223,0,0,0,1.086.547q1.406,0,1.438-2.164V10.7q0-2.273-1.453-2.273-1.32,0-1.43,1.961ZM34.9,10.844a5.152,5.152,0,0,1-.859,3.2,2.878,2.878,0,0,1-2.422,1.117,2.5,2.5,0,0,1-2.078-1.023L29.434,15H27.074V3h2.633V7.227a2.41,2.41,0,0,1,1.9-.836,2.879,2.879,0,0,1,2.438,1.133,5.179,5.179,0,0,1,.859,3.188Zm-2.641-.168a3.437,3.437,0,0,0-.324-1.735,1.093,1.093,0,0,0-1-.519,1.261,1.261,0,0,0-1.234.679v3.354a1.268,1.268,0,0,0,1.25.671,1.118,1.118,0,0,0,1.18-.9A6.5,6.5,0,0,0,32.262,10.676ZM38.84,15H36.2V3H38.84Zm6.383,0a2.973,2.973,0,0,1-.25-.758,2.448,2.448,0,0,1-2.031.914,3,3,0,0,1-2.031-.723,2.3,2.3,0,0,1-.836-1.816,2.364,2.364,0,0,1,1.016-2.078,5.174,5.174,0,0,1,2.953-.7h.813V9.388q0-1.17-1.008-1.17a.824.824,0,0,0-.937.926H40.277a2.36,2.36,0,0,1,1.043-1.99,4.383,4.383,0,0,1,2.66-.765,3.843,3.843,0,0,1,2.555.789A2.743,2.743,0,0,1,47.5,9.344v3.742a3.832,3.832,0,0,0,.359,1.781V15Zm-1.648-1.719a1.469,1.469,0,0,0,.816-.211,1.322,1.322,0,0,0,.465-.477V11.242H44.09q-1.375,0-1.375,1.234a.754.754,0,0,0,.242.582A.876.876,0,0,0,43.574,13.281Zm8.953-.156a1.171,1.171,0,0,0,.859-.3,1.1,1.1,0,0,0,.3-.84h2.469a2.922,2.922,0,0,1-1,2.281,3.705,3.705,0,0,1-2.566.891A3.751,3.751,0,0,1,49.684,14a4.556,4.556,0,0,1-1.062-3.2v-.109a5.149,5.149,0,0,1,.473-2.262,3.441,3.441,0,0,1,1.363-1.508,4.065,4.065,0,0,1,2.109-.527,3.658,3.658,0,0,1,2.617.914,3.242,3.242,0,0,1,.969,2.477H53.684a1.445,1.445,0,0,0-.32-1.008,1.106,1.106,0,0,0-.859-.352q-1.023,0-1.2,1.3a9.206,9.206,0,0,0-.055,1.141,3.616,3.616,0,0,0,.3,1.766A1.055,1.055,0,0,0,52.527,13.125ZM60.043,15H57.4V6.547h2.641Zm-2.8-10.641a1.186,1.186,0,0,1,.406-.927,1.719,1.719,0,0,1,2.109,0,1.186,1.186,0,0,1,.406.927,1.186,1.186,0,0,1-.406.927,1.719,1.719,0,0,1-2.109,0A1.186,1.186,0,0,1,57.246,4.359ZM61.332,10.7a4.989,4.989,0,0,1,.492-2.254,3.52,3.52,0,0,1,1.414-1.52A4.259,4.259,0,0,1,65.4,6.391a3.887,3.887,0,0,1,2.992,1.176,4.512,4.512,0,0,1,1.094,3.2v.094A4.378,4.378,0,0,1,68.391,14a3.9,3.9,0,0,1-2.973,1.16,3.942,3.942,0,0,1-2.9-1.082,4.232,4.232,0,0,1-1.18-2.934Zm2.633.164a3.145,3.145,0,0,0,.367,1.719,1.223,1.223,0,0,0,1.086.547q1.406,0,1.438-2.164V10.7q0-2.273-1.453-2.273-1.32,0-1.43,1.961ZM65.762,3h2.781L66.371,5.453l-2.148,0Zm7.3,3.547.086.992a2.867,2.867,0,0,1,2.414-1.148,2.412,2.412,0,0,1,1.973.789,3.757,3.757,0,0,1,.676,2.375V15H75.574V9.664a1.426,1.426,0,0,0-.258-.941,1.193,1.193,0,0,0-.937-.3,1.256,1.256,0,0,0-1.148.609V15H70.6V6.547ZM89.449,15H86.809V6.594l-2.594.758v-2l4.992-1.727h.242Zm11.328-4.648a5.431,5.431,0,0,1-1.035,3.555,4.045,4.045,0,0,1-5.855-.008,5.423,5.423,0,0,1-1.039-3.547V8.273a5.431,5.431,0,0,1,1.035-3.555,4.045,4.045,0,0,1,5.855.008,5.436,5.436,0,0,1,1.039,3.555ZM98.145,7.938a4.057,4.057,0,0,0-.32-1.832A1.071,1.071,0,0,0,96.809,5.5a1.045,1.045,0,0,0-.988.563,3.822,3.822,0,0,0-.332,1.7v2.906a4.088,4.088,0,0,0,.32,1.863,1.075,1.075,0,0,0,1.016.59,1.06,1.06,0,0,0,.992-.574,3.9,3.9,0,0,0,.328-1.8Zm11.9,2.414a5.431,5.431,0,0,1-1.035,3.555,4.045,4.045,0,0,1-5.855-.008,5.423,5.423,0,0,1-1.039-3.547V8.273a5.431,5.431,0,0,1,1.035-3.555A4.045,4.045,0,0,1,109,4.727a5.436,5.436,0,0,1,1.039,3.555ZM107.41,7.938a4.057,4.057,0,0,0-.32-1.832,1.071,1.071,0,0,0-1.016-.605,1.045,1.045,0,0,0-.988.563,3.822,3.822,0,0,0-.332,1.7v2.906a4.088,4.088,0,0,0,.32,1.863,1.075,1.075,0,0,0,1.016.59,1.06,1.06,0,0,0,.992-.574,3.9,3.9,0,0,0,.328-1.8Zm11.9,2.414a5.431,5.431,0,0,1-1.035,3.555,4.045,4.045,0,0,1-5.855-.008,5.423,5.423,0,0,1-1.039-3.547V8.273a5.431,5.431,0,0,1,1.035-3.555,4.045,4.045,0,0,1,5.855.008,5.436,5.436,0,0,1,1.039,3.555Zm-2.633-2.414a4.057,4.057,0,0,0-.32-1.832A1.071,1.071,0,0,0,115.34,5.5a1.045,1.045,0,0,0-.988.563,3.822,3.822,0,0,0-.332,1.7v2.906a4.088,4.088,0,0,0,.32,1.863,1.075,1.075,0,0,0,1.016.59,1.06,1.06,0,0,0,.992-.574,3.9,3.9,0,0,0,.328-1.8Z" transform="translate(-8517 -8356)" fill="#12263f"/>
    <g id="Grupo_128171" data-name="Grupo 128171" transform="translate(-8487 -8436)">
      <path id="Trazado_188029" data-name="Trazado 188029" d="M640.623,253.937a5.74,5.74,0,0,1-1.007-5.837,5.545,5.545,0,0,1,3.758-3.487.959.959,0,0,0,.759-.8,7.051,7.051,0,0,1,4.669-5.02,5.854,5.854,0,0,1-1.117-5.55,5.718,5.718,0,0,1,2.379-3.128,5.827,5.827,0,0,1,7.308.757c2.125,2.117,2.267,4.946.323,7.939a7.308,7.308,0,0,1,3.724,2.8,7.486,7.486,0,0,1,3.76-2.8,5.868,5.868,0,0,1-1.152-5.5,5.723,5.723,0,0,1,2.338-3.156,5.826,5.826,0,0,1,7.318.666c2.169,2.11,2.328,4.973.374,7.991a7.305,7.305,0,0,1,3.724,2.8,7.484,7.484,0,0,1,3.76-2.8,5.868,5.868,0,0,1-1.152-5.5,5.725,5.725,0,0,1,2.339-3.156,5.828,5.828,0,0,1,7.318.669c2.166,2.108,2.325,4.966.41,7.932.141.077.276.164.42.225a7.1,7.1,0,0,1,4.273,4.936.911.911,0,0,0,.475.585,5.82,5.82,0,0,1,3.125,9.215,1.287,1.287,0,0,0-.1.231c.154.076.3.151.447.218a6.926,6.926,0,0,1,4.407,6.618c.029,1.434.011,2.867,0,4.3-.006.993-.427,1.408-1.434,1.41-3.431.006-6.863,0-10.233,0l-1.32,2.654c.073.035.175.088.281.133a7.11,7.11,0,0,1,4.371,5.025.9.9,0,0,0,.514.55,5.812,5.812,0,0,1,3.076,9.183,1.729,1.729,0,0,0-.12.238c.175.085.34.169.51.246a6.876,6.876,0,0,1,4.348,6.507c.049,2.162.011,4.325.01,6.488,0,1.292-.353,1.644-1.642,1.644H637.377c-1.3,0-1.658-.347-1.659-1.625,0-1.872.077-3.746-.017-5.613a7.33,7.33,0,0,1,4.887-7.638c-.115-.183-.217-.358-.332-.526a5.771,5.771,0,0,1,3.067-8.8,1.02,1.02,0,0,0,.822-.83,6.808,6.808,0,0,1,4.129-4.777c.151-.066.3-.134.44-.2l-1.336-2.657h-9.03c-.487,0-.974.02-1.46-.007a1.079,1.079,0,0,1-1.149-1.085,47.389,47.389,0,0,1,.055-5.536,6.71,6.71,0,0,1,4.312-5.691C640.255,254.109,640.4,254.038,640.623,253.937ZM701.114,296.8a1.98,1.98,0,0,0,.046-.267c0-1.845.021-3.69,0-5.536a4.652,4.652,0,0,0-4.694-4.663c-1.532-.017-3.065-.014-4.6,0a4.466,4.466,0,0,0-4.619,3.917c-.211,2.155-.045,4.346-.045,6.551Zm-30.323-.021h14c0-2.086.071-4.126-.02-6.159a4.581,4.581,0,0,0-4.463-4.278q-2.516-.061-5.034,0a4.585,4.585,0,0,0-4.463,4.278C670.72,292.65,670.792,294.689,670.792,296.777Zm-16.359,0h14.008c0-1.8,0-3.543,0-5.289,0-.291.007-.584-.015-.874a4.659,4.659,0,0,0-4.484-4.273q-2.516-.061-5.034,0a4.566,4.566,0,0,0-4.451,4.21C654.346,292.6,654.433,294.67,654.433,296.775Zm-16.36,0h14.007v-.771c0-1.8.062-3.6-.031-5.389a4.6,4.6,0,0,0-4.539-4.281q-2.444-.044-4.889,0a4.576,4.576,0,0,0-4.526,4.211C637.983,292.6,638.072,294.667,638.072,296.777Zm63.083-32.644c0-1.317.05-2.556-.011-3.791a4.615,4.615,0,0,0-4.423-4.332q-2.589-.076-5.184,0a4.482,4.482,0,0,0-4.21,3.629,5.984,5.984,0,0,1,4.39,4.493Zm-62.993,0h9.345a6.016,6.016,0,0,1,4.41-4.511A4.58,4.58,0,0,0,647.5,256c-1.606-.027-3.213-.022-4.819,0a4.464,4.464,0,0,0-4.486,3.732A31.538,31.538,0,0,0,638.162,264.134Zm21.945-19.67a4.6,4.6,0,0,0-4.424-3.63c-1.628-.027-3.258-.015-4.887,0a4.7,4.7,0,0,0-1.149.168,4.33,4.33,0,0,0-3.191,3.482,5.984,5.984,0,0,1,4.362,4.476h4.872A6,6,0,0,1,660.107,244.464Zm11.939,4.508a6.036,6.036,0,0,1,4.432-4.525,4.607,4.607,0,0,0-4.242-3.6q-2.625-.082-5.253,0a4.472,4.472,0,0,0-4.2,3.629,5.989,5.989,0,0,1,4.388,4.5Zm7.053-4.512a6.013,6.013,0,0,1,4.438,4.512h4.871a6.036,6.036,0,0,1,4.432-4.525,4.64,4.64,0,0,0-4.606-3.619q-2.262-.015-4.523,0A4.65,4.65,0,0,0,679.1,244.46ZM692.821,274.8a4.536,4.536,0,0,0-4.185-3.618c-1.772-.064-3.552-.064-5.324,0a4.394,4.394,0,0,0-4.14,3.64,5.965,5.965,0,0,1,4.371,4.477h4.868A6.005,6.005,0,0,1,692.821,274.8Zm-16.358,0a4.546,4.546,0,0,0-4.193-3.618c-1.772-.064-3.552-.066-5.324,0a4.388,4.388,0,0,0-4.133,3.636,5.985,5.985,0,0,1,4.367,4.48h4.869A6,6,0,0,1,676.463,274.8Zm-16.348-.007a4.608,4.608,0,0,0-4.3-3.618c-1.726-.046-3.455-.05-5.18,0a4.5,4.5,0,0,0-4.224,3.629,5.97,5.97,0,0,1,4.4,4.483h4.882A6.011,6.011,0,0,1,660.115,274.794Zm10.821-15.156a6,6,0,0,1,4.424,4.5h4.871a6.008,6.008,0,0,1,4.406-4.508,4.546,4.546,0,0,0-4.25-3.616q-2.587-.076-5.18,0A4.567,4.567,0,0,0,670.936,259.638Zm-2.675,0a4.5,4.5,0,0,0-4.22-3.622c-1.749-.053-3.5-.057-5.251,0a4.442,4.442,0,0,0-4.173,3.632A5.984,5.984,0,0,1,659,264.137h4.875A5.979,5.979,0,0,1,668.261,259.633Zm1.33,2.2a3.5,3.5,0,1,0,3.522,3.514A3.516,3.516,0,0,0,669.591,261.83Zm-16.362,6.994a3.5,3.5,0,1,0-3.485-3.553A3.518,3.518,0,0,0,653.229,268.824Zm32.753-6.994a3.5,3.5,0,1,0,3.493,3.543A3.515,3.515,0,0,0,685.982,261.83Zm8.176-15.168a3.5,3.5,0,1,0,3.5,3.539A3.513,3.513,0,0,0,694.158,246.662Zm-16.373,7a3.5,3.5,0,1,0-3.5-3.541A3.521,3.521,0,0,0,677.785,253.658Zm-12.852-3.532a3.5,3.5,0,1,0-3.507,3.532A3.516,3.516,0,0,0,664.933,250.126ZM648.57,280.59a3.5,3.5,0,1,0-3.564,3.4A3.518,3.518,0,0,0,648.57,280.59Zm16.363-.126a3.5,3.5,0,1,0-3.511,3.528A3.516,3.516,0,0,0,664.933,280.464Zm16.362.007a3.5,3.5,0,1,0-3.518,3.521A3.515,3.515,0,0,0,681.295,280.471Zm16.362.034a3.5,3.5,0,1,0-3.479,3.487A3.517,3.517,0,0,0,697.656,280.5Zm-49.085-30.362a3.5,3.5,0,1,0-3.524,3.515A3.516,3.516,0,0,0,648.571,250.143Zm37.4-11.652a3.5,3.5,0,1,0-3.507-3.531A3.518,3.518,0,0,0,685.975,238.491Zm-16.345,0a3.5,3.5,0,1,0-3.524-3.514A3.518,3.518,0,0,0,669.63,238.491Zm-12.879-3.511a3.5,3.5,0,1,0-3.527,3.511A3.513,3.513,0,0,0,656.751,234.979Zm15.183,16.37h-4.647l-1.338,2.663a7.312,7.312,0,0,1,3.671,2.768A7.262,7.262,0,0,1,673.264,254Zm-22.343,2.664a7.312,7.312,0,0,1,3.664,2.764A7.262,7.262,0,0,1,656.9,254l-1.322-2.65h-4.662Zm38.7-2.664h-4.645L682.317,254a7.462,7.462,0,0,1,3.665,2.779,7.292,7.292,0,0,1,3.643-2.78Zm-26.863,20.6a7.232,7.232,0,0,1,3.653-2.782l-1.322-2.638h-4.668l-1.32,2.642A7.247,7.247,0,0,1,661.431,271.953Zm12.706-2.782a7.289,7.289,0,0,1,3.654,2.785,7.286,7.286,0,0,1,3.654-2.789l-1.324-2.636h-4.665Zm-20.885,17.951a7.437,7.437,0,0,1,3.646-2.8l-1.323-2.629h-4.662l-1.316,2.649A7.341,7.341,0,0,1,653.253,287.122Zm16.363-.006a7.254,7.254,0,0,1,3.648-2.782l-1.331-2.653h-4.648l-1.33,2.66A7.323,7.323,0,0,1,669.616,287.117Zm12.7-2.776a7.385,7.385,0,0,1,3.658,2.773,7.267,7.267,0,0,1,3.648-2.776l-1.322-2.65h-4.662Z" transform="translate(-635.684 -229.161)" fill="#3e2072"/>
      <path id="Trazado_188030" data-name="Trazado 188030" d="M686.412,280.467H672.5c0-2.2-.167-4.4.045-6.551A4.466,4.466,0,0,1,677.165,270c1.533-.013,3.066-.015,4.6,0a4.652,4.652,0,0,1,4.694,4.663c.022,1.845,0,3.69,0,5.536A1.98,1.98,0,0,1,686.412,280.467Zm-5.849-5.831v-2.269h-2.237v2.269Z" transform="translate(-620.982 -212.83)" fill="#f7f4ff"/>
      <path id="Trazado_188031" data-name="Trazado 188031" d="M660.769,280.449c0-2.087-.071-4.127.018-6.159a4.585,4.585,0,0,1,4.463-4.278q2.516-.061,5.034,0a4.581,4.581,0,0,1,4.463,4.278c.091,2.033.02,4.073.02,6.159Zm5.845-5.83h2.269v-2.226h-2.269Z" transform="translate(-625.661 -212.833)" fill="#f7f4ff"/>
      <path id="Trazado_188032" data-name="Trazado 188032" d="M649.085,280.447c0-2.106-.087-4.171.024-6.226a4.566,4.566,0,0,1,4.451-4.21q2.516-.061,5.034,0a4.659,4.659,0,0,1,4.484,4.273c.022.29.015.582.015.874,0,1.746,0,3.492,0,5.289Zm5.844-5.842H657.2v-2.218h-2.272Z" transform="translate(-630.337 -212.833)" fill="#f7f4ff"/>
      <path id="Trazado_188033" data-name="Trazado 188033" d="M637.4,280.448c0-2.11-.09-4.175.022-6.23a4.576,4.576,0,0,1,4.526-4.211q2.444-.044,4.889,0a4.6,4.6,0,0,1,4.539,4.281c.092,1.792.027,3.592.031,5.389v.771Zm5.877-8.082v2.243h2.248v-2.243Z" transform="translate(-635.011 -212.832)" fill="#f7f4ff"/>
      <path id="Trazado_188034" data-name="Trazado 188034" d="M686.4,256.473h-9.437a5.984,5.984,0,0,0-4.39-4.493,4.482,4.482,0,0,1,4.21-3.629q2.591-.08,5.184,0a4.615,4.615,0,0,1,4.423,4.332C686.45,253.916,686.4,255.155,686.4,256.473Z" transform="translate(-620.929 -221.501)" fill="#f7f4ff"/>
      <path id="Trazado_188035" data-name="Trazado 188035" d="M637.472,256.471a31.538,31.538,0,0,1,.038-4.4A4.464,4.464,0,0,1,642,248.336c1.606-.021,3.213-.025,4.819,0a4.58,4.58,0,0,1,4.413,3.623,6.016,6.016,0,0,0-4.41,4.511Z" transform="translate(-634.994 -221.498)" fill="#f7f4ff"/>
      <path id="Trazado_188036" data-name="Trazado 188036" d="M657.029,241.134a6,6,0,0,0-4.417,4.5H647.74a5.984,5.984,0,0,0-4.362-4.476,4.33,4.33,0,0,1,3.191-3.482,4.7,4.7,0,0,1,1.149-.168c1.63-.018,3.259-.029,4.887,0A4.6,4.6,0,0,1,657.029,241.134Z" transform="translate(-632.607 -225.83)" fill="#f7f4ff"/>
      <path id="Trazado_188037" data-name="Trazado 188037" d="M664.3,245.646h-4.871a5.989,5.989,0,0,0-4.388-4.5,4.472,4.472,0,0,1,4.2-3.629q2.625-.084,5.253,0a4.607,4.607,0,0,1,4.242,3.6A6.036,6.036,0,0,0,664.3,245.646Z" transform="translate(-627.94 -225.835)" fill="#f7f4ff"/>
      <path id="Trazado_188038" data-name="Trazado 188038" d="M666.695,241.129a4.65,4.65,0,0,1,4.612-3.632q2.262-.015,4.523,0a4.64,4.64,0,0,1,4.606,3.619A6.036,6.036,0,0,0,676,245.641h-4.871A6.013,6.013,0,0,0,666.695,241.129Z" transform="translate(-623.28 -225.83)" fill="#f7f4ff"/>
      <path id="Trazado_188039" data-name="Trazado 188039" d="M680.4,262.808a6.005,6.005,0,0,0-4.41,4.5h-4.868a5.965,5.965,0,0,0-4.371-4.477,4.394,4.394,0,0,1,4.14-3.64c1.772-.064,3.552-.064,5.324,0A4.536,4.536,0,0,1,680.4,262.808Z" transform="translate(-623.259 -217.168)" fill="#f7f4ff"/>
      <path id="Trazado_188040" data-name="Trazado 188040" d="M668.712,262.809a6,6,0,0,0-4.414,4.5h-4.869a5.984,5.984,0,0,0-4.367-4.48,4.388,4.388,0,0,1,4.133-3.636c1.772-.066,3.552-.064,5.324,0A4.546,4.546,0,0,1,668.712,262.809Z" transform="translate(-627.933 -217.169)" fill="#f7f4ff"/>
      <path id="Trazado_188041" data-name="Trazado 188041" d="M657.05,262.8a6.011,6.011,0,0,0-4.424,4.5h-4.882a5.97,5.97,0,0,0-4.4-4.483,4.5,4.5,0,0,1,4.224-3.629c1.725-.053,3.454-.049,5.18,0A4.608,4.608,0,0,1,657.05,262.8Z" transform="translate(-632.619 -217.167)" fill="#f7f4ff"/>
      <path id="Trazado_188042" data-name="Trazado 188042" d="M660.864,251.977a4.566,4.566,0,0,1,4.27-3.627q2.589-.071,5.18,0a4.546,4.546,0,0,1,4.25,3.616,6.007,6.007,0,0,0-4.406,4.508h-4.871A6,6,0,0,0,660.864,251.977Z" transform="translate(-625.612 -221.5)" fill="#f7f4ff"/>
      <path id="Trazado_188043" data-name="Trazado 188043" d="M662.851,251.974a5.979,5.979,0,0,0-4.389,4.5h-4.875a5.984,5.984,0,0,0-4.381-4.491,4.442,4.442,0,0,1,4.173-3.632c1.749-.06,3.5-.056,5.251,0A4.5,4.5,0,0,1,662.851,251.974Z" transform="translate(-630.275 -221.501)" fill="#f7f4ff"/>
      <path id="Trazado_188044" data-name="Trazado 188044" d="M660.9,252.5a3.5,3.5,0,1,1-3.485,3.479A3.513,3.513,0,0,1,660.9,252.5Z" transform="translate(-626.992 -219.827)" fill="#f7f4ff"/>
      <path id="Trazado_188045" data-name="Trazado 188045" d="M649.212,259.49a3.5,3.5,0,1,1,3.522-3.444A3.517,3.517,0,0,1,649.212,259.49Z" transform="translate(-631.667 -219.827)" fill="#f7f4ff"/>
      <path id="Trazado_188046" data-name="Trazado 188046" d="M672.615,252.5a3.5,3.5,0,1,1-3.514,3.45A3.513,3.513,0,0,1,672.615,252.5Z" transform="translate(-622.317 -219.827)" fill="#f7f4ff"/>
      <path id="Trazado_188047" data-name="Trazado 188047" d="M678.453,241.662a3.5,3.5,0,1,1-3.508,3.455A3.516,3.516,0,0,1,678.453,241.662Z" transform="translate(-619.98 -224.161)" fill="#f7f4ff"/>
      <path id="Trazado_188048" data-name="Trazado 188048" d="M666.755,248.658a3.5,3.5,0,1,1,3.51-3.457A3.517,3.517,0,0,1,666.755,248.658Z" transform="translate(-624.654 -224.161)" fill="#f7f4ff"/>
      <path id="Trazado_188049" data-name="Trazado 188049" d="M658.578,245.126a3.5,3.5,0,1,1-3.5-3.464A3.52,3.52,0,0,1,658.578,245.126Z" transform="translate(-629.329 -224.161)" fill="#f7f4ff"/>
      <path id="Trazado_188050" data-name="Trazado 188050" d="M646.89,266.923a3.5,3.5,0,1,1-3.368-3.592A3.521,3.521,0,0,1,646.89,266.923Z" transform="translate(-634.004 -215.494)" fill="#f7f4ff"/>
      <path id="Trazado_188051" data-name="Trazado 188051" d="M658.578,266.8a3.5,3.5,0,1,1-3.5-3.468A3.519,3.519,0,0,1,658.578,266.8Z" transform="translate(-629.329 -215.494)" fill="#f7f4ff"/>
      <path id="Trazado_188052" data-name="Trazado 188052" d="M670.265,266.8a3.5,3.5,0,1,1-3.49-3.475A3.518,3.518,0,0,1,670.265,266.8Z" transform="translate(-624.655 -215.494)" fill="#f7f4ff"/>
      <path id="Trazado_188053" data-name="Trazado 188053" d="M681.952,266.837a3.5,3.5,0,1,1-3.457-3.508A3.519,3.519,0,0,1,681.952,266.837Z" transform="translate(-619.98 -215.494)" fill="#f7f4ff"/>
      <path id="Trazado_188054" data-name="Trazado 188054" d="M646.891,245.142a3.5,3.5,0,1,1-3.484-3.48A3.519,3.519,0,0,1,646.891,245.142Z" transform="translate(-634.004 -224.161)" fill="#f7f4ff"/>
      <path id="Trazado_188055" data-name="Trazado 188055" d="M672.608,237.823a3.5,3.5,0,1,1,3.5-3.465A3.516,3.516,0,0,1,672.608,237.823Z" transform="translate(-622.317 -228.494)" fill="#f7f4ff"/>
      <path id="Trazado_188056" data-name="Trazado 188056" d="M660.938,237.823a3.5,3.5,0,1,1,3.483-3.482A3.516,3.516,0,0,1,660.938,237.823Z" transform="translate(-626.992 -228.494)" fill="#f7f4ff"/>
      <path id="Trazado_188057" data-name="Trazado 188057" d="M652.734,234.312a3.5,3.5,0,1,1-3.48-3.483A3.517,3.517,0,0,1,652.734,234.312Z" transform="translate(-631.667 -228.494)" fill="#f7f4ff"/>
      <path id="Trazado_188058" data-name="Trazado 188058" d="M663.287,245.01l1.33,2.652a7.262,7.262,0,0,0-3.644,2.779,7.311,7.311,0,0,0-3.671-2.768l1.338-2.663Z" transform="translate(-627.037 -222.821)" fill="#f7f4ff"/>
      <path id="Trazado_188059" data-name="Trazado 188059" d="M645.618,247.673l1.327-2.66h4.662l1.322,2.65a7.262,7.262,0,0,0-3.647,2.773A7.312,7.312,0,0,0,645.618,247.673Z" transform="translate(-631.711 -222.82)" fill="#f7f4ff"/>
      <path id="Trazado_188060" data-name="Trazado 188060" d="M674.971,245.01l1.33,2.65a7.292,7.292,0,0,0-3.643,2.78,7.462,7.462,0,0,0-3.665-2.779l1.333-2.652Z" transform="translate(-622.36 -222.821)" fill="#f7f4ff"/>
      <path id="Trazado_188061" data-name="Trazado 188061" d="M655.12,261.275a7.247,7.247,0,0,0-3.657-2.778l1.32-2.642h4.668l1.322,2.638A7.232,7.232,0,0,0,655.12,261.275Z" transform="translate(-629.372 -218.483)" fill="#f7f4ff"/>
      <path id="Trazado_188062" data-name="Trazado 188062" d="M663.151,258.494l1.319-2.64h4.665l1.324,2.636a7.287,7.287,0,0,0-3.654,2.789A7.289,7.289,0,0,0,663.151,258.494Z" transform="translate(-624.697 -218.484)" fill="#f7f4ff"/>
      <path id="Trazado_188063" data-name="Trazado 188063" d="M649.277,272.113a7.341,7.341,0,0,0-3.655-2.78l1.316-2.649H651.6l1.323,2.629A7.436,7.436,0,0,0,649.277,272.113Z" transform="translate(-631.709 -214.152)" fill="#f7f4ff"/>
      <path id="Trazado_188064" data-name="Trazado 188064" d="M660.967,272.111a7.323,7.323,0,0,0-3.661-2.775l1.33-2.66h4.648l1.331,2.653A7.254,7.254,0,0,0,660.967,272.111Z" transform="translate(-627.035 -214.155)" fill="#f7f4ff"/>
      <path id="Trazado_188065" data-name="Trazado 188065" d="M668.995,269.333l1.323-2.653h4.662l1.322,2.65a7.267,7.267,0,0,0-3.648,2.776A7.385,7.385,0,0,0,668.995,269.333Z" transform="translate(-622.36 -214.154)" fill="#f7f4ff"/>
    </g>
  </g>
</svg>
