<svg xmlns="http://www.w3.org/2000/svg" width="610" height="594.184" viewBox="0 0 610 594.184">
  <g id="Grupo_131849" data-name="Grupo 131849" transform="translate(-474.881 -450.031)">
    <path id="Trazado_188429" data-name="Trazado 188429" d="M529.267,975.168s-103.587-88.447-24.84-172.277c83.837-89.25,9.56-203.831,123.366-250.059,123.041-49.98,154.7,38.049,206.208,24.531,102.738-26.96,233.055-13.685,211.372,117.274-27.219,164.391,84.451,143.423,18.126,281.08Z" transform="translate(0 67.792)" fill="#fef7dc"/>
    <g id="Grupo_128385" data-name="Grupo 128385" transform="translate(832.386 680.204)">
      <path id="Trazado_188430" data-name="Trazado 188430" d="M677.022,669.214s17.192-72.872,75.194-80.884c0,0,11.285-1.386,15.042,11.042s-18.679,12.516-32.549,17.514S688.508,643.074,677.022,669.214Z" transform="translate(-675.407 -572.84)" fill="#fcedae"/>
      <path id="Trazado_188431" data-name="Trazado 188431" d="M676.41,662.326s-6.03-60.359,36.3-81.781c0,0,8.281-4.036,14.433,4.495s-11.013,14.511-20.322,21.994S678.321,639.274,676.41,662.326Z" transform="translate(-676.113 -579.591)" fill="#fcedae"/>
    </g>
    <g id="Grupo_128387" data-name="Grupo 128387" transform="translate(611.008 754.853)" opacity="0.8">
      <path id="Trazado_188432" data-name="Trazado 188432" d="M642.754,686.03s24.877-13.93,13.268-32.837c0,0-9.288-11.61-19.239-14.595,0,0,5.308,28.194,0,28.857s-3.647-31.842-3.647-31.842-26.2-12.6-36.487-11.61c0,0,16.254,27.53,10.946,26.867s-23.549-28.527-23.549-28.527-26.867-4.974-31.181,10.947,2.654,23.881,6.635,24.876,29.52.664,28.857,3.981-17.911,8.624-27.532,5.639c0,0,10.615,26.2,24.545,24.876s18.244-9.951,26.867-10.613,14.927,1.659,10.615,3.979-18.906.762-25.872,6.683-12.6,9.57.332,12.223,36.153,1,40.8-8.954Z" transform="translate(-551.504 -621.609)" fill="#fcedae"/>
      <g id="Grupo_128386" data-name="Grupo 128386" transform="translate(13.633 16.657)">
        <path id="Trazado_188433" data-name="Trazado 188433" d="M559.178,630.985s69.656,22.556,77.617,47.763c0,0-.332,11.278,6.634,24.215v4.974s-7.3-16.917-11.278-19.237C632.151,688.7,647.741,666.808,559.178,630.985Z" transform="translate(-559.178 -630.985)" fill="#f7ca18"/>
        <path id="Trazado_188434" data-name="Trazado 188434" d="M608.056,672.854s10.743,16.313,4.617,36.167l-2.763-.741s2.683-21.871-2.938-32.872S608.056,672.854,608.056,672.854Z" transform="translate(-523.805 -600.876)" fill="#aac3ff"/>
      </g>
    </g>
    <g id="Grupo_128389" data-name="Grupo 128389" transform="translate(529.268 870.684)" opacity="0.5">
      <path id="Trazado_188435" data-name="Trazado 188435" d="M692.3,747.875s16.3-48.824-22.174-59.969c0,0-26.5-4.219-43.42,3.882,0,0,41.337,31.2,35.055,38.536s-43.555-38.09-43.555-38.09-50.3,15-62.825,28.822c0,0,55.149,17.02,47.255,22.58s-66.1-9.483-66.1-9.483-41.922,25.993-28.338,52.493,32.554,28.667,39.079,25.162,40.225-34.977,43.37-29.742-13.442,33.275-29.914,40.975c0,0,46.006,22.1,63,3.4s12.273-35.45,22.984-46.813,21.946-15.916,19.01-7.579S641.406,796.034,639.3,812.4s-5.205,28.091,15.291,15.92,49.489-42.59,43.6-61.519Z" transform="translate(-505.494 -686.808)" fill="#fcedae"/>
      <g id="Grupo_128388" data-name="Grupo 128388" transform="translate(25.142 54.964)">
        <path id="Trazado_188436" data-name="Trazado 188436" d="M519.646,754.354s120.415-54.5,161.669-30.505c0,0,14.023,17.194,5.888,18.929C687.2,742.778,681.425,694.606,519.646,754.354Z" transform="translate(-519.646 -717.746)" fill="#f7ca18"/>
      </g>
    </g>
    <g id="Grupo_128391" data-name="Grupo 128391" transform="translate(831.257 911.911)">
      <path id="Trazado_188437" data-name="Trazado 188437" d="M716.03,735.069s4.8-29.2,27.352-24.554c0,0,14.612,4.96,21.042,13.614,0,0-29.388,4.788-28.159,10.2s32.362-7.694,32.362-7.694,21.561,21.115,24.225,31.5c0,0-32.611-6.127-30.086-1.183s36.159,12.9,36.159,12.9,14.351,24.458.339,34.293-24.241,5.852-26.62,2.32-11.081-28.573-14.083-26.753-2.086,20.527,4.228,28.859c0,0-29.321-1.1-32.95-15.16s3.262-21.319.86-29.969-6.893-13.978-7.636-8.95S729,773.207,725.688,782.1s-4.884,15.684-12.045,4-13.751-34.928-5.681-42.977Z" transform="translate(-653.13 -710.014)" fill="#fcedae"/>
      <g id="Grupo_128390" data-name="Grupo 128390" transform="translate(0 25.039)">
        <path id="Trazado_188438" data-name="Trazado 188438" d="M798.4,782.98s-46.63-60-74.042-58.856c0,0-10.889,4.31-25.974,2.086l-4.855,1.759s19.088,1.141,22.76,4.2C716.29,732.172,732.142,709.222,798.4,782.98Z" transform="translate(-661.459 -724.108)" fill="#f7ca18"/>
        <path id="Trazado_188439" data-name="Trazado 188439" d="M712.4,725.656s-19.715-4.717-36.926,8.277l1.7,2.434s20.4-10.347,33.115-8.751S712.4,725.656,712.4,725.656Z" transform="translate(-675.478 -723.554)" fill="#b7d0ff"/>
      </g>
    </g>
    <g id="Grupo_128393" data-name="Grupo 128393" transform="translate(865.4 737.288)">
      <path id="Trazado_188440" data-name="Trazado 188440" d="M714.688,690.469s-30.41-17.029-16.218-40.14c0,0,11.352-14.191,23.517-17.84,0,0-6.488,34.464,0,35.276s4.459-38.923,4.459-38.923,32.032-15.408,44.6-14.191c0,0-19.867,33.652-13.381,32.842s28.788-34.869,28.788-34.869,32.842-6.083,38.113,13.38-3.244,29.193-8.11,30.41-36.084.81-35.274,4.864,21.895,10.542,33.652,6.893c0,0-12.974,32.03-30,30.41s-22.3-12.164-32.842-12.976-18.245,2.029-12.974,4.866,23.112.931,31.625,8.169,15.408,11.7-.405,14.943-44.194,1.215-49.87-10.947Z" transform="translate(-694.696 -611.722)" fill="#fcedae"/>
      <g id="Grupo_128392" data-name="Grupo 128392" transform="translate(3.931 20.361)">
        <path id="Trazado_188441" data-name="Trazado 188441" d="M804.371,623.183s-85.146,27.571-94.877,58.385c0,0,.405,13.786-8.11,29.6v6.083s8.92-20.679,13.786-23.517C715.17,693.733,696.115,666.972,804.371,623.183Z" transform="translate(-693.433 -623.183)" fill="#f7ca18"/>
        <path id="Trazado_188442" data-name="Trazado 188442" d="M704.86,674.361s-13.131,19.941-5.644,44.212l3.377-.906s-3.278-26.736,3.592-40.181S704.86,674.361,704.86,674.361Z" transform="translate(-696.908 -586.378)" fill="#cfe0ff"/>
      </g>
    </g>
    <g id="Grupo_128395" data-name="Grupo 128395" transform="translate(615.505 584.706)">
      <g id="Grupo_128394" data-name="Grupo 128394">
        <rect id="Rectángulo_40762" data-name="Rectángulo 40762" width="334.218" height="457.049" fill="#b13e8d"/>
        <rect id="Rectángulo_40763" data-name="Rectángulo 40763" width="305.736" height="432.123" transform="translate(14.241 12.333)" fill="#f3e2ee"/>
        <path id="Trazado_188443" data-name="Trazado 188443" d="M612.42,525.837v15.568a15.563,15.563,0,0,0,15.556,15.57h83.549a15.564,15.564,0,0,0,15.556-15.57V525.837Z" transform="translate(-508.696 -525.837)" fill="#6a2554"/>
      </g>
    </g>
    <g id="Grupo_128397" data-name="Grupo 128397" transform="translate(665.069 1003.885)">
      <path id="Trazado_188444" data-name="Trazado 188444" d="M581.934,781.313a14.417,14.417,0,0,0,.117,1.867,15.3,15.3,0,0,0,15.2,13.45H812.69a15.32,15.32,0,0,0,0-30.641H597.253A15.321,15.321,0,0,0,581.934,781.313Z" transform="translate(-581.934 -758.518)" fill="#8d277b"/>
      <path id="Trazado_188445" data-name="Trazado 188445" d="M592.211,766.487h73.867a2.358,2.358,0,0,0,2.35-2.352h0a2.357,2.357,0,0,0-2.35-2.35H592.211a2.356,2.356,0,0,0-2.35,2.35h0A2.358,2.358,0,0,0,592.211,766.487Z" transform="translate(-575.778 -761.784)" fill="#8d277b"/>
      <rect id="Rectángulo_40764" data-name="Rectángulo 40764" width="8.007" height="2.773" transform="translate(28.52 7.475) rotate(180)" fill="#64205b"/>
      <path id="Trazado_188446" data-name="Trazado 188446" d="M582.981,778.739a15.333,15.333,0,0,0,13.459,7.991h45.633v-7.991Z" transform="translate(-581.121 -748.617)" fill="#64205b"/>
      <path id="Trazado_188447" data-name="Trazado 188447" d="M844.062,776.823V785.8a10.821,10.821,0,0,1-10.828,10.832H608.816A10.829,10.829,0,0,1,597.988,785.8v-8.975a10.829,10.829,0,0,1,10.828-10.832H833.234A10.829,10.829,0,0,1,844.062,776.823Z" transform="translate(-569.467 -758.517)" fill="#ffc73b"/>
      <path id="Trazado_188448" data-name="Trazado 188448" d="M843.52,778.739a10.827,10.827,0,0,1-10.452,7.991H608.651a10.823,10.823,0,0,1-10.45-7.991Z" transform="translate(-569.301 -748.617)" fill="#fbb72e"/>
      <g id="Grupo_128396" data-name="Grupo 128396" transform="translate(252.306 7.472)">
        <path id="Trazado_188449" data-name="Trazado 188449" d="M723.952,781.366a17.034,17.034,0,0,0,4.456,11.83c.062.062.121.124.183.187a10.876,10.876,0,0,0,7.687,3.356c4.544,0,15.8-6.854,22.783-11.406,3.477-2.269,5.891-3.967,5.891-3.967s-2.414-1.7-5.891-3.965c-6.978-4.557-18.238-11.411-22.783-11.411a10.169,10.169,0,0,0-3.77.73,12.363,12.363,0,0,0-5.195,4.1,16.89,16.89,0,0,0-3.12,7.5.643.643,0,0,0-.012.1A19.04,19.04,0,0,0,723.952,781.366Z" transform="translate(-723.952 -765.99)" fill="#f78ace"/>
        <path id="Trazado_188450" data-name="Trazado 188450" d="M723.952,775.934a17.034,17.034,0,0,0,4.456,11.83l34.54-11.884-38.767-2.9A19.04,19.04,0,0,0,723.952,775.934Z" transform="translate(-723.952 -760.558)" fill="#e568ba"/>
        <path id="Trazado_188451" data-name="Trazado 188451" d="M725.844,770.5l34.457,9.411L731.039,766.4A12.363,12.363,0,0,0,725.844,770.5Z" transform="translate(-722.483 -765.671)" fill="#ff9ddf"/>
        <path id="Trazado_188452" data-name="Trazado 188452" d="M742.448,776.378a4.254,4.254,0,0,0,2.249,3.967c3.477-2.269,5.891-3.967,5.891-3.967s-2.414-1.7-5.891-3.965A4.242,4.242,0,0,0,742.448,776.378Z" transform="translate(-709.589 -761.002)" fill="#4d144a"/>
      </g>
    </g>
    <g id="Grupo_128399" data-name="Grupo 128399" transform="translate(906.97 744.983)">
      <path id="Trazado_188453" data-name="Trazado 188453" d="M786.273,617.73a13,13,0,0,0-10.279-1.1c-17.462-2.05-22.556,18.313-22.319,25.32s1.037,14.532-6.762,23.636c-22.524,26.293,24.65,27.453,24.65,27.453.4-21.008,25.583-13.342,24.478-11.214C828.323,689.573,799.251,624.463,786.273,617.73Z" transform="translate(-700.447 -616.053)" fill="#0e3662"/>
      <path id="Trazado_188454" data-name="Trazado 188454" d="M736.566,666.357s-3.072-4.676-5.547-4.767-7.057-1.375-6.691-.458,3.208,1.007,3.484,1.558-4.218,1.375-5.5,1.466-4.308,0-4.216.643,5.451,3.3,9.233,2.933a25.615,25.615,0,0,1,8.456,1.1Z" transform="translate(-718.095 -581.302)" fill="#ffad78"/>
      <path id="Trazado_188455" data-name="Trazado 188455" d="M773.717,681.1a46.136,46.136,0,0,1-4.7,7.1c-3.649,4.571-9.275,9.849-16.339,10.892a17.547,17.547,0,0,1-9.707-1.576l-.011,0c-8.579-3.807-15.03-12.566-15.03-12.566a7.051,7.051,0,0,1,.961-6.922s17.325,3.9,18.974,3.072,11.795-23.328,13.621-27.077c3.884-7.966,10.047-10.251,10.047-10.251Z" transform="translate(-710.836 -594.53)" fill="#f3e2ee"/>
      <path id="Trazado_188456" data-name="Trazado 188456" d="M762.23,672.791c-3.649,4.571-9.275,9.849-16.339,10.892a17.547,17.547,0,0,1-9.707-1.576c.336.044,8.9,1.1,12.319-5.008,3.484-6.232,7.252-16.133,12.427-12.832C763.163,665.692,763.064,669.231,762.23,672.791Z" transform="translate(-704.047 -579.121)" fill="#e2aad4"/>
      <path id="Trazado_188457" data-name="Trazado 188457" d="M798.24,771.038s5.285,4.823,4.253,8.25-5.8,5.714-6.445,9.9-3.223,6.474-5.545,6.474H779.44s-1.709-2.947,2.416-3.836,5.682-5.811,5.424-10.382a80.535,80.535,0,0,1,.387-10.663l8.767-2.032Z" transform="translate(-670.728 -497.471)" fill="#1c2935"/>
      <path id="Trazado_188458" data-name="Trazado 188458" d="M777.851,771.192s1.9,20.436-.419,21.578l-29.7-.06s0-3.429,4.77-4.189,13.15-3.555,14.57-9.777S777.851,771.192,777.851,771.192Z" transform="translate(-695.08 -495.576)" fill="#1c2935"/>
      <path id="Trazado_188459" data-name="Trazado 188459" d="M801,668.385a118.343,118.343,0,0,1,0,13.728c-.295,4.964-5.316,11.612-6.028,13.255-1.787,4.125-3.8,4.8-3.8,4.8l-15.593,3.821-5.484,1.343-17.29-5.165s-7.875-21.982-4.713-34.355a95.145,95.145,0,0,1,7.993-20.967s11.722-4.626,32.481-1.172Z" transform="translate(-695.383 -595.602)" fill="#f3e2ee"/>
      <path id="Trazado_188460" data-name="Trazado 188460" d="M787.054,668.083c-.293,4.964-.75,9.586-1.462,11.23-1.787,4.125-3.8,4.8-3.8,4.8L766.2,687.931l-6.774-1.99s22.609-3.427,20.1-22.879Z" transform="translate(-686.002 -579.547)" fill="#f7c9a6"/>
      <path id="Trazado_188461" data-name="Trazado 188461" d="M755.023,676.787s-8.563,26.652-9.112,35.727S762.278,841.423,762.959,845.6c.641,3.94,5.536,6.453,5.536,6.453a7.4,7.4,0,0,0,5.463.421c4.457-1.258,5.866-2.766,5.866-2.766s6.666-85.464,2.54-115.995a483.328,483.328,0,0,1-4.173-56.931Z" transform="translate(-696.504 -568.889)" fill="#6880e5"/>
      <path id="Trazado_188462" data-name="Trazado 188462" d="M786.08,676.34s13.062,17.524,14.28,29.372,1.91,53.459,4.5,65.009,12.127,33.775,12.127,69.8a7.2,7.2,0,0,1-4.051,3.166,33.328,33.328,0,0,1-3.562.984,5.6,5.6,0,0,1-6.262-2.972c-6.444-12.974-26.97-54.82-28.022-63.507-.745-6.147-7.225-46.831-21.364-70.7-3.4-5.731,2.082-28.523,2.082-28.523Z" transform="translate(-691.283 -569.236)" fill="#8a9df7"/>
      <path id="Trazado_188463" data-name="Trazado 188463" d="M750.477,674.471s3.438,2.72,10.267,2.857c8.156.165,28.368-2.08,28.368-2.08a16.757,16.757,0,0,1,.862,5.159s-24.685,6.227-38.989.91A9.034,9.034,0,0,1,750.477,674.471Z" transform="translate(-693.326 -570.687)" fill="#203964"/>
      <g id="Grupo_128398" data-name="Grupo 128398" transform="translate(61.738 105.244)">
        <path id="Trazado_188464" data-name="Trazado 188464" d="M756.568,683.717a4.244,4.244,0,1,1,3.722-4.212A3.994,3.994,0,0,1,756.568,683.717Zm0-7.19a3.027,3.027,0,1,0,2.489,2.978A2.77,2.77,0,0,0,756.568,676.528Z" transform="translate(-752.846 -675.293)" fill="#fff"/>
      </g>
      <path id="Rectángulo_40765" data-name="Rectángulo 40765" d="M1.957,0h29.62a1.957,1.957,0,0,1,1.957,1.957v41.99A1.958,1.958,0,0,1,31.578,45.9H1.957A1.957,1.957,0,0,1,0,43.947V1.957A1.957,1.957,0,0,1,1.957,0Z" transform="matrix(0.754, -0.657, 0.657, 0.754, 66.925, 96.009)" fill="#27488d"/>
      <path id="Trazado_188465" data-name="Trazado 188465" d="M773.455,677.23c-.284.076-10.647,1.293-10.649,3.436,0,2.475,3.036,5.793,5.9,5.635,1.16-.062,6.506-4.98,6.506-4.98Z" transform="translate(-683.373 -568.545)" fill="#ffad78"/>
      <path id="Trazado_188466" data-name="Trazado 188466" d="M772.781,647.981c-1.18-2.86-1.867-7.215-1.848-12.6l-.784.153-13.164,2.608s.3,4.143.309,8.044v.1c.016,3.39-2.29,6.79,3.146,8.135C762.121,654.83,775.256,653.986,772.781,647.981Z" transform="translate(-688.02 -601.048)" fill="#ffad78"/>
      <path id="Trazado_188467" data-name="Trazado 188467" d="M756.914,638.07s.3,4.143.309,8.044c7.366-.208,11.26-6.927,12.855-10.652Z" transform="translate(-687.949 -600.981)" fill="#f28f55"/>
      <path id="Trazado_188468" data-name="Trazado 188468" d="M758.066,651.866s17.43.286,17.441-10.569,2.271-18.132-8.856-18.775-13.294,3.5-14.181,7.12S753.534,651.51,758.066,651.866Z" transform="translate(-691.562 -611.081)" fill="#ffad78"/>
      <path id="Trazado_188469" data-name="Trazado 188469" d="M755.892,623.308s4.772,12.736,12.1,14.62,10.5-.078,10.5-.078a20.738,20.738,0,0,1-6.783-12.253S759.493,617.247,755.892,623.308Z" transform="translate(-688.742 -612.133)" fill="#0e3662"/>
      <path id="Trazado_188470" data-name="Trazado 188470" d="M760.415,623.834s-3.539,1.322-4.994,3.9a17.551,17.551,0,0,0-2.358,9.967s-3.594-8.657.446-13.554C757.795,618.957,760.415,623.834,760.415,623.834Z" transform="translate(-692.082 -611.624)" fill="#0e3662"/>
      <path id="Trazado_188471" data-name="Trazado 188471" d="M771.874,677.5a11.844,11.844,0,0,0-4.143-.565c-1.659.233-2.889-.034-2.889.432s2.143.682,2.6.9S771.874,677.5,771.874,677.5Z" transform="translate(-681.792 -568.81)" fill="#ffad78"/>
      <path id="Trazado_188472" data-name="Trazado 188472" d="M773,643.109s12.372.869,17.114,12.4,13.74,30.884,13.74,34.141-5.026,13.294-32.019,19.064c0,0-2.791-2.937-2.622-5.259,0,0,16.849-14.474,16.8-16.165-.085-3.2-2.763-7.423-17.556-22.221C764.437,661.042,773,643.109,773,643.109Z" transform="translate(-679.818 -595.042)" fill="#f3e2ee"/>
    </g>
    <g id="Grupo_128403" data-name="Grupo 128403" transform="translate(600.335 450.031)">
      <g id="Grupo_128400" data-name="Grupo 128400">
        <path id="Trazado_188473" data-name="Trazado 188473" d="M585.242,450.318s-9.926-1.677-16.218,3.077-7.3,3.216-10.851,6.152.083,6.433-1.874,8.391-2.034,5.733.872,6.712.947,6.294,7.24,6.993,3.473,3.612,9.441,4.056,10.9.648,14.051,1.967,6-.043,6.9-2.439,3.418.695,4.152-2.581-1.889-4.568-.419-7.224S603.628,453.886,585.242,450.318Z" transform="translate(-538.196 -450.031)" fill="#203964"/>
        <path id="Trazado_188474" data-name="Trazado 188474" d="M581.912,567.083a2.449,2.449,0,0,0-.417,2.626l.005.014c.647,1.743,2.75,3.681,5.191,5.612.311.249.59.474.831.684q.1.083.187.165c.05.043.1.087.144.128,2.278,2.07,1.43,2.555,5.527,6.76,4.671,4.793,7.865,4.857,8.769,4.411.767-.38-.812-2.928-2.564-5.792-.083-.139-.167-.279-.254-.419-.233-.38-.465-.766-.7-1.149-2.052-3.447-1.542-5.076-1.1-10.23.361-4.189,6.348-23.435,6.348-23.435l-8.9-1.467s-2.567,15.309-5.5,17.684c-1.567,1.267-3.333,1.293-4.841,2.235q-.16.1-.314.2A11.682,11.682,0,0,0,581.912,567.083Z" transform="translate(-517.699 -376.288)" fill="#ffad78"/>
        <path id="Trazado_188475" data-name="Trazado 188475" d="M581.912,558.376a2.449,2.449,0,0,0-.417,2.626l.005.014c.787,1.739,2.839,3.669,5.2,5.594.307.252.579.485.823.7q.1.083.187.165c.05.043.1.087.144.128,2.278,2.07,1.43,2.555,5.527,6.76,4.671,4.793,7.865,4.857,8.769,4.411.767-.38-.812-2.928-2.564-5.792a19.781,19.781,0,0,1-8.309-6.033c-2.818-3.544-4.711-8.108-6.632-10.748q-.16.1-.314.2A11.68,11.68,0,0,0,581.912,558.376Z" transform="translate(-517.699 -367.581)" fill="#203964"/>
        <path id="Trazado_188476" data-name="Trazado 188476" d="M625.119,562.394c.569,2.74,4.475,2.254,8.837,1.157s3.331.178,9.544-.554,8.08-3.063,8.263-3.99c.165-.821-2.91-1.089-6.207-1.444-.414-.044-.831-.092-1.247-.14-3.725-.441-6.467-2.823-9.86-4.77-3.214-1.846-8.044-9.421-8.044-9.421l-8.522.736s4.523,6.765,6.273,9.707c1.031,1.732.993,4.029.879,5.806A10.914,10.914,0,0,0,625.119,562.394Z" transform="translate(-489.284 -377.655)" fill="#ffad78"/>
        <path id="Trazado_188477" data-name="Trazado 188477" d="M630.853,557.286c4.361-1.1,3.331.178,9.544-.554s8.08-3.063,8.263-3.99c.165-.821-2.91-1.089-6.207-1.444l-.03.064a17.54,17.54,0,0,1-8.885,2.83c-4.218.131-8.695-1.045-11.606-.977a10.914,10.914,0,0,0,.085,2.915C622.585,558.869,626.492,558.384,630.853,557.286Z" transform="translate(-486.182 -371.391)" fill="#203964"/>
        <path id="Trazado_188478" data-name="Trazado 188478" d="M615.989,529.4l-7.819,21.5-10.21,28.081a16.842,16.842,0,0,1-5.531-.465,24.033,24.033,0,0,1-5.367-2.565s2.679-30.092,7.947-47.392c1.35-4.44,2.873-8.036,4.568-10.064C607.865,508.56,615.989,529.4,615.989,529.4Z" transform="translate(-513.217 -398.949)" fill="#532b98"/>
        <path id="Trazado_188479" data-name="Trazado 188479" d="M632.212,505.971c-5.234-1.649-20.113.62-35.054,3.654l-3.169-5.145-32.334-2.3s-10.125,22.4-4.553,38.751c1.082,3.173,6.257,3.285,6.259,3.287s18.944.206,25.188.162c16.073-.114,33.936-11.287,36.253-11.768,3.795-.785,5.367,6.8,9.222,14.753s35.96,35.077,35.96,35.077,4.905.014,6.925-.76a6.824,6.824,0,0,0,2.963-1.9S644.015,509.686,632.212,505.971Z" transform="translate(-537.784 -409.53)" fill="#6836bf"/>
        <path id="Trazado_188480" data-name="Trazado 188480" d="M578.3,483.305c.051.032-5.648,2.024-9.48.359-3.6-1.563-6.369-7.456-6.316-7.46,1.634-.087,3.418-1.528,4.735-10.917l.7.245,11.734,4.129s-.823,3.763-1.345,7.341C577.89,480.008,577.661,482.886,578.3,483.305Z" transform="translate(-532.286 -438.184)" fill="#ffad78"/>
        <path id="Trazado_188481" data-name="Trazado 188481" d="M577.3,469.554s-.5,2.636-1.2,6.4c-6.73-1.164-9.567-6.906-10.539-10.533Z" transform="translate(-529.911 -438.077)" fill="#f79257"/>
        <path id="Trazado_188482" data-name="Trazado 188482" d="M579.591,482.137s-16.03-2.038-14.607-12,.309-16.934,10.6-16.057,11.734,4.964,12.068,8.4S583.8,482.409,579.591,482.137Z" transform="translate(-530.432 -446.944)" fill="#ffad78"/>
        <path id="Trazado_188483" data-name="Trazado 188483" d="M589.062,457.426s-10.189,8.906-17.156,9.666-9.622-1.457-9.622-1.457a27.218,27.218,0,0,0,6.52-8.966,4.9,4.9,0,0,1,4.02-2.919C577.8,453.286,587.238,453.023,589.062,457.426Z" transform="translate(-532.46 -447.334)" fill="#203964"/>
        <path id="Trazado_188484" data-name="Trazado 188484" d="M573.747,456.141s3.454,3.292,4.55,5.744c1.061,2.365,1.412,8.039.6,10.3,0,0,5.269-10.429,2.208-15.454C577.858,451.4,573.747,456.141,573.747,456.141Z" transform="translate(-523.558 -446.795)" fill="#203964"/>
        <path id="Trazado_188485" data-name="Trazado 188485" d="M597.873,502.2c-.256,32.417.048,25.641-3.477,28.743-.849.746-3.248,1.2-6.408,1.435-9.935.73-27.418-.785-28.1-2.617-2.336-6.339-.732-8.325-2.713-18.043-.208-1.034-.462-2.151-.76-3.37-1.642-6.671-3.21-8.934,2.372-19.711,5.063-9.762,10.338-17.693,10.819-17.412,13.594,7.941,14.637,1.178,14.637,1.178S598,486.383,597.873,502.2Z" transform="translate(-538.204 -433.581)" fill="#f8faff"/>
        <path id="Trazado_188486" data-name="Trazado 188486" d="M608.17,545.328l-10.21,28.081a16.844,16.844,0,0,1-5.531-.465,24.033,24.033,0,0,1-5.367-2.565s2.679-30.092,7.947-47.392Z" transform="translate(-513.217 -393.376)" fill="#6836bf"/>
        <path id="Trazado_188487" data-name="Trazado 188487" d="M571.414,471.881s13.946,2.263,15.623,8.25,11.553,41.176,11.553,41.176-7.073,1.322-10.366-1.926-11.6-30.271-11.6-30.271Z" transform="translate(-525.37 -433.064)" fill="#f8faff"/>
        <path id="Trazado_188488" data-name="Trazado 188488" d="M586.986,520.588c-9.935.73-27.418-.785-28.1-2.617-2.336-6.339-.732-8.325-2.713-18.043l4.7-13.534s-.686,15.039,3.775,18.961,18.2,7.5,20.384,10.793A12.1,12.1,0,0,1,586.986,520.588Z" transform="translate(-537.202 -421.793)" fill="#d3d3d3"/>
        <path id="Trazado_188489" data-name="Trazado 188489" d="M567.084,502.821s9.791-2.253,11.379-1.393,5.477,4,5.969,5.1-3.528-.812-4.834-1.153c-.846-.22-3.061.567-4.159.942-4.617,1.576-7.458.8-7.458.8Z" transform="translate(-528.732 -410.27)" fill="#ffad78"/>
        <path id="Trazado_188490" data-name="Trazado 188490" d="M576.893,471.215s-13.161.9-17.673,7.293c-6.353,8.995-18.812,47.223-11.482,52.258,8.256,5.671,37.4,1.235,37.4,1.235s.938-4.544-.428-6.73-23.341-5.577-24.36-6.582,12.523-19.844,12.5-22.884S576.893,471.215,576.893,471.215Z" transform="translate(-545.497 -433.581)" fill="#f8faff"/>
        <path id="Trazado_188491" data-name="Trazado 188491" d="M573.767,502.877a18.957,18.957,0,0,0,2.748,2.947,2,2,0,0,0,1.11.229l-1.4-2.482Z" transform="translate(-523.542 -408.993)" fill="#ffad78"/>
        <path id="Trazado_188492" data-name="Trazado 188492" d="M573.489,501.343l5.994,2.859a1.067,1.067,0,0,1-.988.389,14.267,14.267,0,0,1-2.6-.693Z" transform="translate(-523.758 -410.184)" fill="#ffad78"/>
      </g>
      <g id="Grupo_128402" data-name="Grupo 128402" transform="translate(37.095 65.328)">
        <g id="Grupo_128401" data-name="Grupo 128401">
          <path id="Trazado_188493" data-name="Trazado 188493" d="M574.595,522.585l47.254-.333L635.814,486.8l-47.181.333Z" transform="translate(-559.994 -486.803)" fill="#203964"/>
          <path id="Trazado_188494" data-name="Trazado 188494" d="M628.775,505.979l-62.4.44.01,1.377,61.845-.436Z" transform="translate(-566.376 -471.912)" fill="#203964"/>
        </g>
        <path id="Trazado_188495" data-name="Trazado 188495" d="M596.412,497.834a1.637,1.637,0,0,0-1.62-2.238,3.225,3.225,0,0,0-2.878,2.27,1.637,1.637,0,0,0,1.62,2.238A3.222,3.222,0,0,0,596.412,497.834Z" transform="translate(-546.612 -479.976)" fill="#e9f2f9"/>
      </g>
    </g>
    <g id="Grupo_128404" data-name="Grupo 128404" transform="translate(665.237 967.994)">
      <rect id="Rectángulo_40766" data-name="Rectángulo 40766" width="37.826" height="3.829" fill="#6a2554"/>
      <rect id="Rectángulo_40767" data-name="Rectángulo 40767" width="37.826" height="3.829" transform="translate(46.587)" fill="#6a2554"/>
      <rect id="Rectángulo_40768" data-name="Rectángulo 40768" width="52.461" height="3.829" transform="translate(0 8.496)" fill="#6a2554"/>
    </g>
    <g id="Grupo_128407" data-name="Grupo 128407" transform="translate(849.606 692.839)">
      <g id="Grupo_128405" data-name="Grupo 128405" transform="translate(0 9.482)">
        <path id="Trazado_188496" data-name="Trazado 188496" d="M741.1,647.334h-55.3V592.04h55.3Zm-52.692-2.6H738.5V594.644H688.41Z" transform="translate(-685.806 -592.04)" fill="#b13e8d"/>
      </g>
      <g id="Grupo_128406" data-name="Grupo 128406" transform="translate(8.052)">
        <path id="Trazado_188497" data-name="Trazado 188497" d="M711.308,640.365a3.9,3.9,0,0,1-3.011-1.418l-17.062-20.64a3.906,3.906,0,1,1,6.021-4.978L710.788,629.7l24.481-41.087a3.906,3.906,0,1,1,6.712,4l-27.317,45.848a3.911,3.911,0,0,1-3.058,1.9Q711.458,640.365,711.308,640.365Z" transform="translate(-690.338 -586.703)" fill="#f7ca18"/>
      </g>
    </g>
    <g id="Grupo_128414" data-name="Grupo 128414" transform="translate(649.963 709.852)">
      <g id="Grupo_128411" data-name="Grupo 128411" transform="translate(34.13 0.63)">
        <g id="Grupo_128408" data-name="Grupo 128408">
          <rect id="Rectángulo_40769" data-name="Rectángulo 40769" width="122.841" height="5.395" fill="#6a2554"/>
        </g>
        <g id="Grupo_128409" data-name="Grupo 128409" transform="translate(0 24.097)">
          <rect id="Rectángulo_40770" data-name="Rectángulo 40770" width="113.209" height="5.395" fill="#6a2554"/>
        </g>
        <g id="Grupo_128410" data-name="Grupo 128410" transform="translate(0 12.048)">
          <rect id="Rectángulo_40771" data-name="Rectángulo 40771" width="33.486" height="5.395" transform="translate(89.355)" fill="#6a2554"/>
          <rect id="Rectángulo_40772" data-name="Rectángulo 40772" width="80.076" height="5.395" fill="#6a2554"/>
        </g>
      </g>
      <g id="Grupo_128413" data-name="Grupo 128413">
        <g id="Grupo_128412" data-name="Grupo 128412">
          <path id="Trazado_188498" data-name="Trazado 188498" d="M580.061,601.731l-5.495,1.526-1.135-4.361,8.2-2.617h3.75V627.03h-5.321Z" transform="translate(-573.431 -596.279)" fill="#6a2554"/>
        </g>
        <path id="Trazado_188499" data-name="Trazado 188499" d="M582.136,613.344a1.942,1.942,0,1,1,1.942,1.942A1.941,1.941,0,0,1,582.136,613.344Z" transform="translate(-566.671 -584.535)" fill="#6a2554"/>
      </g>
    </g>
    <g id="Grupo_128417" data-name="Grupo 128417" transform="translate(850.034 775.442)">
      <g id="Grupo_128415" data-name="Grupo 128415" transform="translate(0 9.482)">
        <path id="Trazado_188500" data-name="Trazado 188500" d="M741.343,693.829h-55.3V638.535h55.3Zm-52.692-2.6h50.087V641.14H688.652Z" transform="translate(-686.047 -638.535)" fill="#b13e8d"/>
      </g>
      <g id="Grupo_128416" data-name="Grupo 128416" transform="translate(8.052)">
        <path id="Trazado_188501" data-name="Trazado 188501" d="M711.549,686.86a3.91,3.91,0,0,1-3.011-1.416L691.476,664.8a3.906,3.906,0,1,1,6.021-4.978l13.532,16.369,24.481-41.087a3.906,3.906,0,1,1,6.712,4l-27.317,45.848a3.906,3.906,0,0,1-3.056,1.9C711.748,686.856,711.649,686.86,711.549,686.86Z" transform="translate(-690.579 -633.198)" fill="#f7ca18"/>
      </g>
    </g>
    <g id="Grupo_128425" data-name="Grupo 128425" transform="translate(649.726 792.454)">
      <g id="Grupo_128419" data-name="Grupo 128419">
        <g id="Grupo_128418" data-name="Grupo 128418">
          <path id="Trazado_188502" data-name="Trazado 188502" d="M573.3,669.323l10.437-8.878c4.159-3.509,5.675-5.458,5.675-8.187a4.545,4.545,0,0,0-4.895-4.72c-2.771,0-4.678,1.515-7.016,4.548l-3.768-2.946c2.9-4.072,5.76-6.367,11.175-6.367,5.932,0,10,3.639,10,9.139,0,4.765-2.555,7.32-7.883,11.738l-6.236,5.2h14.422v4.678H573.3Z" transform="translate(-573.298 -642.774)" fill="#6a2554"/>
        </g>
        <path id="Trazado_188503" data-name="Trazado 188503" d="M587.664,659.841a1.928,1.928,0,1,1,1.928,1.928A1.928,1.928,0,0,1,587.664,659.841Z" transform="translate(-562.142 -631.018)" fill="#6a2554"/>
      </g>
      <g id="Grupo_128424" data-name="Grupo 128424" transform="translate(35.382 0.63)">
        <g id="Grupo_128423" data-name="Grupo 128423">
          <g id="Grupo_128420" data-name="Grupo 128420">
            <rect id="Rectángulo_40773" data-name="Rectángulo 40773" width="129.084" height="5.395" fill="#6a2554"/>
          </g>
          <g id="Grupo_128421" data-name="Grupo 128421" transform="translate(0 24.097)">
            <rect id="Rectángulo_40774" data-name="Rectángulo 40774" width="118.963" height="5.395" fill="#6a2554"/>
          </g>
          <g id="Grupo_128422" data-name="Grupo 128422" transform="translate(0 12.049)">
            <rect id="Rectángulo_40775" data-name="Rectángulo 40775" width="35.188" height="5.395" transform="translate(93.896)" fill="#6a2554"/>
            <rect id="Rectángulo_40776" data-name="Rectángulo 40776" width="84.146" height="5.395" fill="#6a2554"/>
          </g>
        </g>
      </g>
    </g>
    <g id="Grupo_128428" data-name="Grupo 128428" transform="translate(850.034 858.654)">
      <g id="Grupo_128426" data-name="Grupo 128426" transform="translate(0 9.481)">
        <path id="Trazado_188504" data-name="Trazado 188504" d="M741.343,740.669h-55.3v-55.3h55.3Zm-52.692-2.6h50.087V687.977H688.652Z" transform="translate(-686.047 -685.373)" fill="#b13e8d"/>
      </g>
      <g id="Grupo_128427" data-name="Grupo 128427" transform="translate(8.052)">
        <path id="Trazado_188505" data-name="Trazado 188505" d="M711.549,733.7a3.911,3.911,0,0,1-3.011-1.418l-17.062-20.642a3.906,3.906,0,0,1,6.021-4.978l13.532,16.371,24.481-41.089a3.906,3.906,0,0,1,6.712,4l-27.317,45.848a3.9,3.9,0,0,1-3.056,1.9C711.748,733.7,711.649,733.7,711.549,733.7Z" transform="translate(-690.579 -680.037)" fill="#f7ca18"/>
      </g>
    </g>
    <g id="Grupo_128433" data-name="Grupo 128433" transform="translate(685.109 876.296)">
      <g id="Grupo_128432" data-name="Grupo 128432">
        <g id="Grupo_128429" data-name="Grupo 128429">
          <rect id="Rectángulo_40777" data-name="Rectángulo 40777" width="129.084" height="5.395" fill="#6a2554"/>
        </g>
        <g id="Grupo_128430" data-name="Grupo 128430" transform="translate(0 24.096)">
          <rect id="Rectángulo_40778" data-name="Rectángulo 40778" width="118.963" height="5.395" fill="#6a2554"/>
        </g>
        <g id="Grupo_128431" data-name="Grupo 128431" transform="translate(0 12.048)">
          <rect id="Rectángulo_40779" data-name="Rectángulo 40779" width="35.188" height="5.395" transform="translate(93.896)" fill="#6a2554"/>
          <rect id="Rectángulo_40780" data-name="Rectángulo 40780" width="84.146" height="5.395" fill="#6a2554"/>
        </g>
      </g>
    </g>
    <g id="Grupo_128435" data-name="Grupo 128435" transform="translate(649.343 875.953)">
      <g id="Grupo_128434" data-name="Grupo 128434">
        <path id="Trazado_188506" data-name="Trazado 188506" d="M573.082,714.739l3.646-3.391a9.674,9.674,0,0,0,7.8,3.9c2.924,0,5.127-1.78,5.127-4.578,0-2.924-2.668-4.576-6.822-4.576h-2.416l-.847-3.264,8.011-8.519H574.734v-4.536h19.624v3.9l-8.265,8.476c4.7.679,8.73,3.095,8.73,8.435,0,5.467-4.239,9.366-10.384,9.366A14.066,14.066,0,0,1,573.082,714.739Z" transform="translate(-573.082 -689.774)" fill="#6a2554"/>
      </g>
      <path id="Trazado_188507" data-name="Trazado 188507" d="M586.161,706.523a1.887,1.887,0,1,1,1.887,1.887A1.887,1.887,0,0,1,586.161,706.523Z" transform="translate(-562.925 -678.233)" fill="#6a2554"/>
    </g>
    <g id="Grupo_128440" data-name="Grupo 128440" transform="translate(771.781 923.431)">
      <g id="Grupo_128436" data-name="Grupo 128436" transform="translate(10.33 36.135)">
        <path id="Trazado_188508" data-name="Trazado 188508" d="M670.824,757.495a23.524,23.524,0,0,1-22.976-18.729,1.607,1.607,0,0,1,3.148-.643,20.246,20.246,0,0,0,39.618.19,1.606,1.606,0,1,1,3.141.675A23.567,23.567,0,0,1,670.824,757.495Z" transform="translate(-647.815 -736.838)" fill="#6a2554"/>
      </g>
      <g id="Grupo_128437" data-name="Grupo 128437" transform="translate(10.285 9.887)">
        <path id="Trazado_188509" data-name="Trazado 188509" d="M649.4,742.945a1.656,1.656,0,0,1-.307-.03,1.606,1.606,0,0,1-1.272-1.883,23.458,23.458,0,0,1,45.772-1.244,1.606,1.606,0,0,1-3.116.782,20.246,20.246,0,0,0-39.5,1.073A1.607,1.607,0,0,1,649.4,742.945Z" transform="translate(-647.789 -722.063)" fill="#6a2554"/>
      </g>
      <g id="Grupo_128438" data-name="Grupo 128438">
        <path id="Trazado_188510" data-name="Trazado 188510" d="M675.339,783.177a33.339,33.339,0,1,1,33.339-33.339A33.377,33.377,0,0,1,675.339,783.177Zm0-62.113a28.773,28.773,0,1,0,28.772,28.773A28.807,28.807,0,0,0,675.339,721.064Z" transform="translate(-642 -716.498)" fill="#6a2554"/>
      </g>
      <g id="Grupo_128439" data-name="Grupo 128439" transform="translate(23.621 29.162)">
        <rect id="Rectángulo_40781" data-name="Rectángulo 40781" width="13.205" height="2.113" transform="translate(3.116)" fill="#6a2554"/>
        <rect id="Rectángulo_40782" data-name="Rectángulo 40782" width="13.205" height="2.114" transform="translate(3.116 8.649)" fill="#6a2554"/>
        <rect id="Rectángulo_40783" data-name="Rectángulo 40783" width="19.436" height="2.114" transform="translate(0 4.176)" fill="#6a2554"/>
      </g>
    </g>
    <g id="Grupo_128444" data-name="Grupo 128444" transform="translate(530.082 742.747)">
      <path id="Trazado_188511" data-name="Trazado 188511" d="M564.9,657.7s1.039-2.334,1.711-3.441,3.546-4.346,4.035-3.612,2.446,5.671,1.407,7.053.066,3.788-5.1,5.245Z" transform="translate(-460.18 -587.04)" fill="#ffad78"/>
      <path id="Trazado_188512" data-name="Trazado 188512" d="M532.563,646.265s26.459,22.088,36.777,20.043c8.067-1.6,20.448-5.845,20.448-5.845l2.477,6.333s-11.1,15.062-22.682,15.161a65.953,65.953,0,0,1-31.465-7.835Z" transform="translate(-485.288 -590.356)" fill="#848484"/>
      <path id="Trazado_188513" data-name="Trazado 188513" d="M506.443,779.141s.768,12.39,3.166,12.568c.318.023,12.159.023,12.159.023l15.113-.087s-.1-3.642-4.518-4.411-11.813-3.875-14.488-9.714C515.059,771.377,506.443,779.141,506.443,779.141Z" transform="translate(-505.572 -490.264)" fill="#091623"/>
      <path id="Trazado_188514" data-name="Trazado 188514" d="M505.953,844.749a31.514,31.514,0,0,0,8.181,1.537,30.06,30.06,0,0,0,7.637-1.089s.865-8.366,5.625-26.8c2.5-9.661,6.06-22.083,11.13-37.518,14.019-42.657,18.283-67.611,18.672-69.974.021-.124.029-.187.029-.187l-.046-.021-43.1-18.924s5.328,58.792-1.469,81.359a95.143,95.143,0,0,0-2.466,10.81C505.854,808.457,505.953,844.749,505.953,844.749Z" transform="translate(-505.953 -555.013)" fill="#f7ca18"/>
      <path id="Trazado_188515" data-name="Trazado 188515" d="M524.5,818.4c2.5-9.661,6.06-22.083,11.13-37.518,14.019-42.657,18.283-67.611,18.672-69.974-.005-.071-.009-.137-.018-.208l-43.1-18.924s5.328,58.792-1.469,81.359C508.767,776.289,524.5,818.4,524.5,818.4Z" transform="translate(-503.06 -555.013)" fill="#c5a113"/>
      <path id="Trazado_188516" data-name="Trazado 188516" d="M525.391,779.141s.769,12.39,3.166,12.568c.32.023,12.159.023,12.159.023l15.113-.087s-.1-3.642-4.516-4.411-11.812-3.875-14.49-9.714C534.009,771.377,525.391,779.141,525.391,779.141Z" transform="translate(-490.858 -490.264)" fill="#091623"/>
      <path id="Trazado_188517" data-name="Trazado 188517" d="M559.177,692.557a613.635,613.635,0,0,1-6.032,84.874c-6.591,46.777-4.358,66.632-4.358,66.632a44.914,44.914,0,0,1-6.357,1.617A28.819,28.819,0,0,1,533,844.59s-9.434-46.8-6.73-70.207-12.919-80.34-12.919-80.34Z" transform="translate(-500.207 -554.407)" fill="#f7ca18"/>
      <path id="Trazado_188518" data-name="Trazado 188518" d="M521.944,650.607l8.412,5.516,7.664-2.167c1.4-2,1.771-5.85,1.793-9.187a57.226,57.226,0,0,0-.3-6.119l-11.351-5.01-4.235-1.865c.012.066.33,3.477.375,3.974A28.984,28.984,0,0,1,521.944,650.607Z" transform="translate(-493.535 -601.609)" fill="#ffad78"/>
      <path id="Trazado_188519" data-name="Trazado 188519" d="M562.473,743.517c-10.473,10.111-50.1,8.41-52.546-2.731s2.663-94.827,20.551-100.085c3.711-1.091,23.557,5.324,23.557,5.324a125.991,125.991,0,0,1,5.156,18.516c.4,2.02,1.553,23.406,2.42,43.414.4,9.357.744,18.416.92,25.048C562.69,739.214,562.7,743.295,562.473,743.517Z" transform="translate(-503.309 -594.775)" fill="#a1a1a1"/>
      <path id="Trazado_188520" data-name="Trazado 188520" d="M523.889,635.093c2.3,3.892,10.382,7.3,14.664,8.862a57.226,57.226,0,0,0-.3-6.119l-11.351-5.01C524.392,632.792,522.864,633.353,523.889,635.093Z" transform="translate(-492.275 -600.794)" fill="#ffa065"/>
      <path id="Trazado_188521" data-name="Trazado 188521" d="M545.391,648.414s-18.288,5.7-21.665-5.738-8.014-18.416,3.521-22.543,15.1-.432,17.158,3.115S550.061,646.635,545.391,648.414Z" transform="translate(-495.133 -612.064)" fill="#ffad78"/>
      <path id="Trazado_188522" data-name="Trazado 188522" d="M547.165,624.875s-1.167,13.317-3.921,12.74-5.786-1.816-5.383,2.2-2.677,10.9-6.648,10.88c-8.519-.036-17.771-21.891-15.44-26.036C522.5,612.7,556.888,610.288,547.165,624.875Z" transform="translate(-498.611 -614.795)" fill="#0e3662"/>
      <path id="Trazado_188523" data-name="Trazado 188523" d="M539.939,643.264c-.236-.1-13.614-6.1-15.179-5.584s-3.514,5.294-3.514,5.294L544.8,648.3S542.949,644.53,539.939,643.264Z" transform="translate(-494.077 -597.048)" fill="#8d3170"/>
      <g id="Grupo_128442" data-name="Grupo 128442" transform="translate(47.143 8.434)">
        <path id="Trazado_188524" data-name="Trazado 188524" d="M614.5,680.426l-75,70.61c-1.471,1.384-3.324,1.826-4.12.981l-2.532-2.69c-.8-.844-.243-2.668,1.226-4.052l75-70.61c1.469-1.384,3.322-1.826,4.118-.981l2.532,2.69C616.523,677.217,615.972,679.042,614.5,680.426Z" transform="translate(-532.489 -577.831)" fill="#6a2554"/>
        <path id="Trazado_188525" data-name="Trazado 188525" d="M572.414,702.113,539.5,733.1c-1.471,1.384-3.324,1.826-4.12.981l-2.532-2.69c-.8-.844-.243-2.668,1.226-4.052l32.911-30.985Z" transform="translate(-532.489 -559.894)" fill="#f3d26d"/>
        <path id="Trazado_188526" data-name="Trazado 188526" d="M570.063,695.476A58.784,58.784,0,1,0,667.495,636.4c-.3-.3-.609-.6-.922-.89a58.787,58.787,0,0,0-96.509,59.963Zm16.8-54.251a54.144,54.144,0,1,1,2.331,76.533A54.073,54.073,0,0,1,586.866,641.225Z" transform="translate(-505.289 -619.543)" fill="#6a2554"/>
        <g id="Grupo_128441" data-name="Grupo 128441" transform="translate(66.865 4.642)" opacity="0.4">
          <path id="Trazado_188527" data-name="Trazado 188527" d="M663.7,713.393a54.146,54.146,0,1,1-2.334-76.53A53.913,53.913,0,0,1,663.7,713.393Z" transform="translate(-570.126 -622.155)" fill="#b13e8d" opacity="0.3"/>
        </g>
      </g>
      <path id="Trazado_188528" data-name="Trazado 188528" d="M555.881,722.649c-41.325-29.447-37.889-68.741-37.889-68.741,15.1,8.519,30.092,27.354,36.969,43.693C555.364,706.958,555.7,716.017,555.881,722.649Z" transform="translate(-496.658 -584.421)" fill="#848484"/>
      <g id="Grupo_128443" data-name="Grupo 128443" transform="translate(20.472 51.252)">
        <path id="Trazado_188529" data-name="Trazado 188529" d="M564.408,686.479a11.28,11.28,0,0,0,5.278-3.262s1.242.085-.2,2.736c-.121.222-.389.792-.592,1.2a.257.257,0,0,0,.215.37c1.682.128,3.372-.538,6.613.137.448.094.577,1.164.56,1.62a4.134,4.134,0,0,1-.871,2.823c-.522.688-1.979,1.43-5.221,2.734-1.237.5-4.768.123-8.08-1.014l-2.645-1.226.821-4.916.664.139C562,688.037,563.308,686.747,564.408,686.479Z" transform="translate(-484.872 -612.912)" fill="#ffad78"/>
        <path id="Trazado_188530" data-name="Trazado 188530" d="M531.163,643.644s-37.131,7.071,10.924,60.841c7.686,8.6,49.208,19.8,49.208,19.8s4.212-3.583,2.089-6.485c0,0-28.591-20.761-34.88-24.062-2.83-1.485-10.983-33.137-15.6-40.76A20.8,20.8,0,0,0,531.163,643.644Z" transform="translate(-517.476 -643.644)" fill="#a1a1a1"/>
      </g>
      <path id="Trazado_188531" data-name="Trazado 188531" d="M565.462,658.888a18.963,18.963,0,0,0,1.451-3.544,19.564,19.564,0,0,1,2.4-5.424c.252-.252,1.084.075,1.182,1.157a6.276,6.276,0,0,1-.6,2.347c-.664,1.663-.554,3.916-.785,4.667C568.534,659.961,565.462,658.888,565.462,658.888Z" transform="translate(-459.739 -587.58)" fill="#ffad78"/>
    </g>
  </g>
</svg>
