<svg xmlns="http://www.w3.org/2000/svg" width="505" height="331.686" viewBox="0 0 505 331.686">
  <g id="Grupo_128292" data-name="Grupo 128292" transform="translate(225.146 -464.816)">
    <path id="Trazado_188194" data-name="Trazado 188194" d="M-208.231,697.758l28.154,36.751A50.718,50.718,0,0,0-139.829,754.5H209.527a50.574,50.574,0,0,0,35.224-14.347l6.015-5.836c33.44-32.452,39.972-84.269,15.661-124.243h0a52.551,52.551,0,0,1-7.365-32.474h0c4.208-42.4-23.512-81.266-64.458-90.387l-78-17.375A210.709,210.709,0,0,0-55.8,507.233c-9.038,6.779-15.469,11.314-16.463,11.286-2-.056-32.074,4.789-60.912,9.525-31.094,5.105-54.122,32.122-54.665,64.135h0a52.267,52.267,0,0,1-15.572,36.411h0A52.486,52.486,0,0,0-208.231,697.758Z" transform="translate(-1.195)" fill="#fef7dc"/>
    <g id="Grupo_128257" data-name="Grupo 128257" transform="translate(-163.129 487.278)">
      <path id="Trazado_188195" data-name="Trazado 188195" d="M-48.822,546.335V538.4a2.948,2.948,0,0,0-2.947-2.948H-59.32a37.807,37.807,0,0,0-6.794-15.692l5.549-5.549a2.947,2.947,0,0,0,0-4.169l-5.608-5.608a2.947,2.947,0,0,0-4.168,0l-5.846,5.846a37.89,37.89,0,0,0-15.4-5.7v-8.943a2.948,2.948,0,0,0-2.948-2.947h-7.931a2.947,2.947,0,0,0-2.947,2.947v9.545a37.986,37.986,0,0,0-14.043,6.439l-7.2-7.191a2.947,2.947,0,0,0-4.167,0l-5.61,5.61a2.949,2.949,0,0,0,0,4.169l7.5,7.495a38.1,38.1,0,0,0-5.441,13.746h-10.848a2.947,2.947,0,0,0-2.947,2.948v7.931a2.947,2.947,0,0,0,2.947,2.947h10.848a38.054,38.054,0,0,0,5.441,13.736l-7.5,7.5a2.949,2.949,0,0,0,0,4.169l5.61,5.61a2.947,2.947,0,0,0,4.167,0l7.2-7.191a37.851,37.851,0,0,0,14.043,6.449V589.1a2.947,2.947,0,0,0,2.947,2.947h7.931a2.947,2.947,0,0,0,2.948-2.947v-8.943a37.9,37.9,0,0,0,15.4-5.708l5.846,5.846a2.947,2.947,0,0,0,4.168,0l5.608-5.608a2.947,2.947,0,0,0,0-4.169l-5.549-5.549a37.947,37.947,0,0,0,6.794-15.682h7.551A2.947,2.947,0,0,0-48.822,546.335Zm-30.829,7.021a20.384,20.384,0,0,1-7.8,7.121,19.752,19.752,0,0,1-5.381,1.9,20.124,20.124,0,0,1-4.016.4,20.169,20.169,0,0,1-6.534-1.078,19.753,19.753,0,0,1-4.461-2.14,20.336,20.336,0,0,1-7.129-7.792,19.878,19.878,0,0,1-1.6-4.122,20.3,20.3,0,0,1-.693-5.275,20.3,20.3,0,0,1,.693-5.275,19.682,19.682,0,0,1,1.606-4.13,20.419,20.419,0,0,1,7.121-7.792,19.754,19.754,0,0,1,4.461-2.14,20.169,20.169,0,0,1,6.534-1.078,20.124,20.124,0,0,1,4.016.4,19.805,19.805,0,0,1,5.381,1.9,20.442,20.442,0,0,1,7.8,7.121,20.183,20.183,0,0,1,2.517,5.72,20.3,20.3,0,0,1,.694,5.275,20.3,20.3,0,0,1-.694,5.275A20.143,20.143,0,0,1-79.651,553.356Z" transform="translate(148.169 -492.696)" fill="#c5a113"/>
      <path id="Trazado_188196" data-name="Trazado 188196" d="M-49.145,535.456H-56.7a37.807,37.807,0,0,0-6.794-15.692l5.549-5.549a2.947,2.947,0,0,0,0-4.169l-5.608-5.608a2.947,2.947,0,0,0-4.168,0l-5.846,5.846a37.89,37.89,0,0,0-15.4-5.7v-8.943a2.948,2.948,0,0,0-2.948-2.947h-7.931a2.947,2.947,0,0,0-2.947,2.947v9.545a37.986,37.986,0,0,0-14.043,6.439l-7.2-7.191a2.947,2.947,0,0,0-4.167,0l-5.61,5.61a2.949,2.949,0,0,0,0,4.169l7.5,7.495a38.1,38.1,0,0,0-5.441,13.746h-1.008a57.812,57.812,0,0,0,21.529,18.19,20.113,20.113,0,0,1-1.119-1.881,19.88,19.88,0,0,1-1.6-4.122,20.3,20.3,0,0,1-.693-5.275,20.294,20.294,0,0,1,.693-5.275,19.683,19.683,0,0,1,1.606-4.13,20.414,20.414,0,0,1,7.121-7.792,19.754,19.754,0,0,1,4.461-2.14,20.169,20.169,0,0,1,6.534-1.078,20.124,20.124,0,0,1,4.016.4,19.748,19.748,0,0,1,5.381,1.9,20.442,20.442,0,0,1,7.8,7.121,20.183,20.183,0,0,1,2.517,5.72,20.3,20.3,0,0,1,.694,5.275,20.3,20.3,0,0,1-.694,5.275,20.143,20.143,0,0,1-2.517,5.712,20.409,20.409,0,0,1-5.964,6.034,57.239,57.239,0,0,0,25.739-7.613c.209-.823.4-1.652.555-2.494h3.4a57.794,57.794,0,0,0,7.1-5.794V538.4A2.948,2.948,0,0,0-49.145,535.456Z" transform="translate(145.545 -492.696)" fill="#f7ca18"/>
    </g>
    <g id="Grupo_128276" data-name="Grupo 128276" transform="translate(-124.272 491.671)">
      <g id="Grupo_128267" data-name="Grupo 128267" transform="translate(0 45.28)">
        <rect id="Rectángulo_40659" data-name="Rectángulo 40659" width="64.811" height="42.307" transform="translate(122.725 190.549)" fill="#6a2554"/>
        <rect id="Rectángulo_40660" data-name="Rectángulo 40660" width="64.811" height="18.777" transform="translate(122.725 190.549)" fill="#6a2554"/>
        <path id="Rectángulo_40661" data-name="Rectángulo 40661" d="M19.27,0H290.992a19.27,19.27,0,0,1,19.27,19.27V176.056a0,0,0,0,1,0,0H0a0,0,0,0,1,0,0V19.27A19.27,19.27,0,0,1,19.27,0Z" fill="#6a2554"/>
        <rect id="Rectángulo_40662" data-name="Rectángulo 40662" width="288.629" height="149.506" transform="translate(10.816 18.31)" fill="#f3e2ee"/>
        <path id="Rectángulo_40663" data-name="Rectángulo 40663" d="M0,0H310.262a0,0,0,0,1,0,0V11.926a19.27,19.27,0,0,1-19.27,19.27H19.27A19.27,19.27,0,0,1,0,11.926V0A0,0,0,0,1,0,0Z" transform="translate(0 167.816)" fill="#b13e8d"/>
        <circle id="Elipse_4802" data-name="Elipse 4802" cx="5.871" cy="5.871" r="5.871" transform="translate(149.26 178.807)" fill="#6a2554"/>
        <path id="Trazado_188197" data-name="Trazado 188197" d="M180.366,849.183H-53.416a3.9,3.9,0,0,1-3.9-3.9h0a11.4,11.4,0,0,1,11.4-11.4H172.861a11.4,11.4,0,0,1,11.4,11.4h0A3.9,3.9,0,0,1,180.366,849.183Z" transform="translate(91.655 -608.675)" fill="#b13e8d"/>
        <g id="Grupo_128266" data-name="Grupo 128266" transform="translate(23.467 31.475)">
          <g id="Grupo_128259" data-name="Grupo 128259" transform="translate(199.344 9.302)">
            <rect id="Rectángulo_40664" data-name="Rectángulo 40664" width="63.984" height="16.004" rx="2.192" transform="translate(0)" fill="#f7ca18"/>
            <g id="Grupo_128258" data-name="Grupo 128258" transform="translate(5.052 4.233)">
              <path id="Trazado_188198" data-name="Trazado 188198" d="M186.851,616.636l-2.449,1.121.309-2.676-1.823-1.983,2.64-.533,1.322-2.346,1.323,2.346,2.64.533-1.823,1.983.309,2.676Z" transform="translate(-182.889 -610.219)" fill="#8d3170"/>
              <path id="Trazado_188199" data-name="Trazado 188199" d="M201.111,616.636l-2.449,1.121.309-2.676-1.823-1.983,2.64-.533,1.322-2.346,1.323,2.346,2.64.533-1.823,1.983.309,2.676Z" transform="translate(-185.66 -610.219)" fill="#8d3170"/>
              <path id="Trazado_188200" data-name="Trazado 188200" d="M215.371,616.636l-2.449,1.121.309-2.676-1.823-1.983,2.64-.533,1.323-2.346,1.322,2.346,2.64.533-1.823,1.983.309,2.676Z" transform="translate(-188.431 -610.219)" fill="#8d3170"/>
              <path id="Trazado_188201" data-name="Trazado 188201" d="M229.632,616.636l-2.449,1.121.309-2.676-1.823-1.983,2.64-.533,1.323-2.346,1.322,2.346,2.64.533-1.823,1.983.309,2.676Z" transform="translate(-191.202 -610.219)" fill="#8d3170"/>
              <path id="Trazado_188202" data-name="Trazado 188202" d="M243.892,616.636l-2.449,1.121.309-2.676-1.823-1.983,2.64-.533,1.323-2.346,1.322,2.346,2.64.533-1.823,1.983.309,2.676Z" transform="translate(-193.974 -610.219)" fill="#f6f6f6"/>
            </g>
          </g>
          <g id="Grupo_128263" data-name="Grupo 128263">
            <rect id="Rectángulo_40665" data-name="Rectángulo 40665" width="71.516" height="22.242" rx="4.384" fill="#b13e8d"/>
            <g id="Grupo_128262" data-name="Grupo 128262" transform="translate(3.747 2.967)">
              <g id="Grupo_128260" data-name="Grupo 128260" transform="translate(0 0)">
                <circle id="Elipse_4803" data-name="Elipse 4803" cx="6.236" cy="6.236" r="6.236" transform="matrix(0.384, -0.923, 0.923, 0.384, 0, 11.512)" fill="#f7ca18"/>
                <path id="Trazado_188203" data-name="Trazado 188203" d="M-61.236,610.964a6.205,6.205,0,0,0,4.186,1.624,6.205,6.205,0,0,0,4.186-1.624,4.2,4.2,0,0,0-2.621-3.567,2.581,2.581,0,0,0,1.028-2.056,2.593,2.593,0,0,0-2.593-2.593,2.593,2.593,0,0,0-2.593,2.593,2.581,2.581,0,0,0,1.028,2.056A4.2,4.2,0,0,0-61.236,610.964Z" transform="translate(65.204 -598.199)" fill="#fff"/>
              </g>
              <g id="Grupo_128261" data-name="Grupo 128261" transform="translate(18.914 4.899)">
                <rect id="Rectángulo_40666" data-name="Rectángulo 40666" width="33.236" height="1.19" fill="#fff"/>
                <rect id="Rectángulo_40667" data-name="Rectángulo 40667" width="43.189" height="1.19" transform="translate(0 2.66)" fill="#fff"/>
                <rect id="Rectángulo_40668" data-name="Rectángulo 40668" width="43.189" height="1.19" transform="translate(0 5.319)" fill="#fff"/>
              </g>
            </g>
          </g>
          <g id="Grupo_128264" data-name="Grupo 128264" transform="translate(0 31.032)">
            <rect id="Rectángulo_40669" data-name="Rectángulo 40669" width="40.786" height="10.202" rx="2.192" fill="#b13e8d"/>
            <rect id="Rectángulo_40670" data-name="Rectángulo 40670" width="40.786" height="10.202" rx="2.192" transform="translate(0 14.414)" fill="#e4bbd7"/>
            <rect id="Rectángulo_40671" data-name="Rectángulo 40671" width="40.786" height="10.202" rx="2.192" transform="translate(0 28.828)" fill="#e4bbd7"/>
            <rect id="Rectángulo_40672" data-name="Rectángulo 40672" width="40.786" height="10.202" rx="2.192" transform="translate(46.987 14.414)" fill="#6a2554"/>
            <rect id="Rectángulo_40673" data-name="Rectángulo 40673" width="40.786" height="10.202" rx="2.192" transform="translate(46.987 28.828)" fill="#e4bbd7"/>
          </g>
          <g id="Grupo_128265" data-name="Grupo 128265" transform="translate(222.543 50.547)">
            <rect id="Rectángulo_40674" data-name="Rectángulo 40674" width="40.786" height="10.202" rx="2.192" fill="#b13e8d"/>
            <rect id="Rectángulo_40675" data-name="Rectángulo 40675" width="40.786" height="10.202" rx="2.192" transform="translate(0 14.414)" fill="#e4bbd7"/>
            <rect id="Rectángulo_40676" data-name="Rectángulo 40676" width="40.786" height="10.202" rx="2.192" transform="translate(0 28.828)" fill="#e4bbd7"/>
          </g>
        </g>
      </g>
      <g id="Grupo_128275" data-name="Grupo 128275" transform="translate(63.654)">
        <g id="Grupo_128268" data-name="Grupo 128268" transform="translate(31.702 65.41)">
          <path id="Trazado_188204" data-name="Trazado 188204" d="M29.271,587.534c-1.841,46.509-23.469,51.218,0,84.768s104.3,21.663,105.678-3.736-15.7-40.7-4.513-72.488S29.271,587.534,29.271,587.534Z" transform="translate(-18.419 -579.337)" fill="#0b2d50"/>
          <path id="Trazado_188205" data-name="Trazado 188205" d="M37.6,600.823c-2.726,21.138-9.979,41.986-6.254,53.443,0,0,.408-12.891,2.822-16,0,0-2.41,18.094,4.972,32.771S126.2,682.923,126.2,682.923s1.631-16.075,0-27.724-4.736-16.174-5.629-22.415c0,0,4.912,10.145,6.824,14.028s2.17,9.575,2.17,9.575.519-10.351-3.519-18.272-1.616-29.763-.42-38.256-56.2-18.566-62.448-15.16S37.6,600.823,37.6,600.823Z" transform="translate(-20.73 -580.246)" fill="#050432"/>
        </g>
        <g id="Grupo_128269" data-name="Grupo 128269" transform="translate(0 108.197)">
          <path id="Trazado_188206" data-name="Trazado 188206" d="M46.153,675.743c-27.694,9.381-47.56,12.912-53.3,31.012s-13.785,38.68-13.785,38.68H166.346s-9.271-42.654-19.424-49.717-49.884-18.9-62.024-20.927S46.153,675.743,46.153,675.743Z" transform="translate(20.93 -640.537)" fill="#fff"/>
          <path id="Trazado_188207" data-name="Trazado 188207" d="M156.659,727.031s.707,16.981-1.775,28.694h6.349Z" transform="translate(-13.238 -650.827)" fill="#f3e2ee"/>
          <path id="Trazado_188208" data-name="Trazado 188208" d="M33.931,735.337s-.542,13.02,1.361,22H30.424Z" transform="translate(10.95 -652.441)" fill="#f3e2ee"/>
          <path id="Trazado_188209" data-name="Trazado 188209" d="M1.684,704.862c2.427-6.4,10.259-13.908,10.267-13.916-9.5,4.37-16.158,9.816-19.1,19.086-5.739,18.1-13.785,38.681-13.785,38.681H-5.821C-6.483,729.436-.744,711.263,1.684,704.862Z" transform="translate(20.93 -643.814)" fill="#f3e2ee"/>
          <path id="Trazado_188210" data-name="Trazado 188210" d="M95.351,709.394s-13.464-.883-21.631-7.063-7.063-12.36-7.063-12.36-5.959.442-8.167,0,.962-23.441,13.835-23.86,39.838,4.92,43.15,5.1,14.233,9.968,11.477,22.37c-.441,1.987-5.774-3.608-8.2-.738S114.333,707.85,95.351,709.394Z" transform="translate(5.621 -638.983)" fill="#e4bbd7"/>
          <path id="Trazado_188211" data-name="Trazado 188211" d="M93.116,706.087a67.9,67.9,0,0,1-23.455-32.151c-1.152-3.37.794-5.254,4.37-5.827Z" transform="translate(3.389 -639.376)" fill="#b13e8d"/>
          <path id="Trazado_188212" data-name="Trazado 188212" d="M105.247,710.511c9.47-6.06,18.189-20.959,20.837-25.925s2.755-9.641-5.354-10.505S105.247,710.511,105.247,710.511Z" transform="translate(-3.591 -640.534)" fill="#b13e8d"/>
          <path id="Trazado_188213" data-name="Trazado 188213" d="M115.6,635.776c-2.439,19.69-3.837,30.219,2.749,38.386,0,0-11.735,23.839-20.123,28.694,0,0-20.086-14.347-25.6-37.3a28,28,0,0,0,3.752-12.581c.442-7.5-.662-20.527-.662-20.527Z" transform="translate(2.75 -632.445)" fill="#ffd9cc"/>
          <path id="Trazado_188214" data-name="Trazado 188214" d="M112.456,700.751c-12.248,14.831-24.872,2.313-29.56-4.046a76.834,76.834,0,0,0,17.323,18.64C104.08,713.11,108.648,706.853,112.456,700.751Z" transform="translate(0.752 -644.933)" fill="#fcc8cc"/>
          <path id="Trazado_188215" data-name="Trazado 188215" d="M76.417,653.042A28.531,28.531,0,0,1,72.858,665.3c9.086-1.613,28.58-5.35,40.8-9.706.192-5.4,1-11.834,1.984-19.752L91.31,633.814,75.779,632.8C75.936,634.748,76.819,646.192,76.417,653.042Z" transform="translate(2.703 -632.515)" fill="#fcc8cc"/>
        </g>
        <g id="Grupo_128274" data-name="Grupo 128274" transform="translate(36.676)">
          <g id="Grupo_128270" data-name="Grupo 128270" transform="translate(93.616 19.88)">
            <path id="Trazado_188216" data-name="Trazado 188216" d="M161.368,564.3c.781-12.418.985-23.717-8.706-38.2s-7.643,23.736-7.485,24.173,8.591,16.553,8.591,16.553Z" transform="translate(-141.588 -522.824)" fill="#ffe1a6"/>
            <path id="Trazado_188217" data-name="Trazado 188217" d="M158.423,595.741c-1.231,7.141-.4,13.039,3.027,13.629s7.2-4.721,8.427-11.863-.547-13.409-3.971-14S159.654,588.6,158.423,595.741Z" transform="translate(-144.113 -534.609)" fill="#ffd16c"/>
            <path id="Trazado_188218" data-name="Trazado 188218" d="M165.638,604.279l-2.156.877-2.113,5.854s-.358.725-.8,1.659a3.015,3.015,0,0,0,1.4.657c3.034.523,6.339-3.592,7.909-9.505C167.158,605.235,165.638,604.279,165.638,604.279Z" transform="translate(-144.635 -538.565)" fill="#e89d14"/>
            <path id="Trazado_188219" data-name="Trazado 188219" d="M151.932,571.406c2.657-.492,10.191,1.5,11.046,5.4,1.945,8.85-1.286,29.378-7.215,34.446-2.16,1.846-8.176,1.471-10.311.815-5.419-1.664-5.437-10.327-3.456-21.82S148.246,572.089,151.932,571.406Z" transform="translate(-140.791 -532.251)" fill="#ffd16c"/>
            <path id="Trazado_188220" data-name="Trazado 188220" d="M161.828,604.39c-2.757,1.988-4.189,0-4.189,0-1.869,3.975-5.3,3.972-9.642,4.56l-2.431-1.287s-2.376,1.748-4.6,3.329c.4,3.956,1.753,6.647,4.525,7.5,2.135.655,8.151,1.031,10.311-.815C158.395,615.452,160.474,610.263,161.828,604.39Z" transform="translate(-140.824 -538.675)" fill="#e89d14"/>
            <path id="Trazado_188221" data-name="Trazado 188221" d="M164.538,576.8c-.856-3.891-8.389-5.889-11.046-5.4a3.983,3.983,0,0,0-.665.189c4.869-.36,7.418,3.048,7.977,6.95s0,21.569-5.731,29.362c-.732.993-2,3.9-6.256,4.514,2.705.355,6.8.284,8.507-1.173C163.252,606.181,166.483,585.653,164.538,576.8Z" transform="translate(-142.35 -532.251)" fill="#ffe1a6"/>
            <path id="Trazado_188222" data-name="Trazado 188222" d="M163.354,604.39c-2.757,1.988-4.189,0-4.189,0l0,0a28.234,28.234,0,0,1-4.091,9.939c-.732.993-2,3.9-6.256,4.514,2.705.355,6.8.284,8.507-1.173C159.921,615.452,162,610.263,163.354,604.39Z" transform="translate(-142.35 -538.675)" fill="#ffd16c"/>
            <path id="Trazado_188223" data-name="Trazado 188223" d="M153.524,593.957c-1.075,6.235-3.3,11.056-4.969,10.768s-2.152-5.576-1.078-11.81,3.3-11.056,4.968-10.768S154.6,587.722,153.524,593.957Z" transform="translate(-141.979 -534.351)" fill="#e89d14"/>
          </g>
          <path id="Trazado_188224" data-name="Trazado 188224" d="M50.336,604.2c.075.181.151.363.23.545,2.717,6.259,7.613,12.777,12.4,17.658,7.082,7.215,16.692,13.488,26.879,14.853,10.951,1.468,21-4.623,28.321-12.437a28.169,28.169,0,0,0,7.083-12.856c1.155-5.135.529-10.64,1.368-15.886a47.2,47.2,0,0,1,2.538-8.171,60.042,60.042,0,0,0,3.383-26.382c-.417-3.692-1.02-8.984-3.019-12.185-2.3-3.68-7.61-6.576-11.2-8.82-11.494-7.192-26.732-9.826-39.793-5.76-13.352,4.156-24.239,14.86-29.864,27.517-2.677,6.025-4.234,11.954-2.933,18.447C47.357,588.818,47.112,596.407,50.336,604.2Z" transform="translate(-28.611 -504.892)" fill="#ffd9cc"/>
          <path id="Trazado_188225" data-name="Trazado 188225" d="M48.234,574.985s20.749,5.7,39.069,0,24.537-17.179,26.064-23.139c0,0,14.964,11.734,17.958,29.043,0,0,1.028-30.735-8.521-34.561s-29.541-8.829-31.748-6.842-39.29,23.176-39.29,23.176Z" transform="translate(-29.187 -506.095)" fill="#fcc8cc"/>
          <g id="Grupo_128271" data-name="Grupo 128271" transform="translate(79.206 98.006)">
            <path id="Trazado_188226" data-name="Trazado 188226" d="M140.453,638.3a7.379,7.379,0,0,1-1.564-.039c-5.014-.68-7.7-1.054-7.7-1.054l.307-2.2s2.684.375,7.691,1.052c4.616.631,10.537-6.706,12.1-15.331a1.116,1.116,0,0,1,1.245-.924h0a1.1,1.1,0,0,1,.947,1.274C151.857,630.183,145.884,637.866,140.453,638.3Z" transform="translate(-124.515 -619.796)" fill="#ffe1a6"/>
            <path id="Trazado_188227" data-name="Trazado 188227" d="M153.218,620.271a1.044,1.044,0,0,1-.014.239c-1.622,9.1-7.594,16.786-13.025,17.22a7.329,7.329,0,0,1-1.565-.039c-3.957-.536-6.457-.881-7.338-1l-.085.612s2.686.374,7.7,1.054a7.324,7.324,0,0,0,1.564.038c5.431-.433,11.4-8.117,13.026-17.219A1.074,1.074,0,0,0,153.218,620.271Z" transform="translate(-124.515 -619.888)" fill="#ffd16c"/>
            <path id="Trazado_188228" data-name="Trazado 188228" d="M129.7,641.486l-4.4-.6a2.775,2.775,0,0,1-2.373-3.125h0a2.775,2.775,0,0,1,3.125-2.373l4.4.6a2.775,2.775,0,0,1,2.373,3.125h0A2.774,2.774,0,0,1,129.7,641.486Z" transform="translate(-122.905 -622.821)" fill="#84226c"/>
            <path id="Trazado_188229" data-name="Trazado 188229" d="M132.184,637.33a2.785,2.785,0,0,1-.019.548h0a2.775,2.775,0,0,1-3.125,2.373l-3.849-.527a2.763,2.763,0,0,1-2.212-1.783c-.015.068-.039.131-.048.2h0a2.775,2.775,0,0,0,2.373,3.125l4.4.6a2.774,2.774,0,0,0,3.125-2.373h0A2.756,2.756,0,0,0,132.184,637.33Z" transform="translate(-122.905 -623.204)" fill="#601837"/>
          </g>
          <g id="Grupo_128272" data-name="Grupo 128272" transform="translate(4.26 0.207)">
            <path id="Trazado_188230" data-name="Trazado 188230" d="M121.241,539.256s22.073,9.271,22.293,39.51c0,0,17.658-19.424,7.284-48.56s-40.393-28.033-40.393-28.033Z" transform="translate(-45.534 -499.137)" fill="#0b2d50"/>
            <path id="Trazado_188231" data-name="Trazado 188231" d="M123.622,547s21.529,9.063,22.261,38.439c0-.169,0-.331,0-.5-.361-29.639-10.636-37.512-20.789-42.91l-2.419,1.731Z" transform="translate(-47.914 -506.883)" fill="#251860"/>
            <path id="Trazado_188232" data-name="Trazado 188232" d="M43.417,565.454s60.847,3.531,65.7-27.37-10.742-38.4-18.394-39.143-22.562-2.512-35.316,9.86S28.417,528.666,30,568.691Z" transform="translate(-29.88 -498.406)" fill="#0b2d50"/>
            <path id="Trazado_188233" data-name="Trazado 188233" d="M45.115,566.047c2.653-1.477,5.3-2.992,7.862-4.661q3.865-2.468,7.583-5.188a159.86,159.86,0,0,0,14.292-11.672,160.718,160.718,0,0,1-13.185,13.048q-3.476,3.094-7.156,5.972c-2.436,1.942-4.986,3.746-7.567,5.523Z" transform="translate(-32.841 -507.369)" fill="#050432"/>
            <path id="Trazado_188234" data-name="Trazado 188234" d="M79.75,514.571c-14.418,7.8-30.273,26.556-30.58,42.093,0,0-6.1-5.66-2.89-13.773s12.646-17.1,17.875-20.963S79.75,514.571,79.75,514.571Z" transform="translate(-32.886 -501.547)" fill="#050432"/>
            <path id="Trazado_188235" data-name="Trazado 188235" d="M47.041,558.81c-1.932-5.006-.607-22.089,0-26.945a45.5,45.5,0,0,1,2.593-9.464c.193-.91-.226-1.185-.226-1.185,10.039-15.449,24.284-17.659,38.73-22.178l-.831-.41c-8.164-.648-20.839-.553-31.9,10.173C42.655,521.172,28.417,528.666,30,568.691l13.415-3.237s20.809,1.2,39.059-3.974C62.182,565.468,48.971,563.814,47.041,558.81Z" transform="translate(-29.88 -498.406)" fill="#050432"/>
            <path id="Trazado_188236" data-name="Trazado 188236" d="M103.625,547.533c-5.963,9.309-13.343,18-41.516,22.043-18.769,2.7-21.735-1.155-21.735-1.155s32.757-2.182,45.992-8.9S103.625,547.533,103.625,547.533Z" transform="translate(-31.92 -507.953)" fill="#050432"/>
          </g>
          <g id="Grupo_128273" data-name="Grupo 128273">
            <path id="Trazado_188237" data-name="Trazado 188237" d="M49.859,521.9c3.646-10.669,21.926-22.715,43.116-23.01a43.992,43.992,0,0,0-23.545,2.06c-12.655,4.709-21.763,12.389-26.774,21.057S49.859,521.9,49.859,521.9Z" transform="translate(-27.869 -498.149)" fill="#ffe1a6"/>
            <path id="Trazado_188238" data-name="Trazado 188238" d="M68.5,504.014a42.535,42.535,0,0,0-18.026,14.458c-.584.073-5.871,1.057-5.952,1.072-.6.869-1.172,1.748-1.688,2.64-.18.312-.332.594-.469.863,1.656-.114,4.087-.224,4.728.06a2.98,2.98,0,0,0,1.614-.121c.8-.525,1.329-.909,1.329-.909,3.646-10.669,21.926-22.715,43.116-23.01C86.02,498.977,80.088,499.379,68.5,504.014Z" transform="translate(-28.047 -498.325)" fill="#ffd16c"/>
            <path id="Trazado_188239" data-name="Trazado 188239" d="M45.941,564.861c-1-19.819,1.8-33.337,4.3-37.016s-7.764-2.079-9.824.809c-1.335,1.872-5.851,17.636-4.193,36.346S45.941,564.861,45.941,564.861Z" transform="translate(-26.784 -503.504)" fill="#ffe1a6"/>
            <path id="Trazado_188240" data-name="Trazado 188240" d="M48.437,525.709c.881.334,1.138.776.513,1.731s-3.2,9.344-3.863,16.738-.331,15.157-.478,16.04-6.619,2.512-8.571,1.625c.056,1.042.128,2.094.222,3.157.122,1.381.28,2.553.466,3.547,1.966.222,4.695.318,7.186.357a39.864,39.864,0,0,0,2.061-4.043c-1-19.819,1.8-33.337,4.3-37.016C51.29,526.358,50.214,525.734,48.437,525.709Z" transform="translate(-26.817 -503.505)" fill="#ffd16c"/>
            <path id="Trazado_188241" data-name="Trazado 188241" d="M43.1,573.061c-2.592-.763-10.292.447-11.543,4.231-2.846,8.6-1.745,29.354,3.63,35.005,1.959,2.059,7.981,2.3,10.172,1.873,5.561-1.1,6.47-9.712,5.684-21.348S46.694,574.119,43.1,573.061Z" transform="translate(-25.649 -512.665)" fill="#ffd16c"/>
            <path id="Trazado_188242" data-name="Trazado 188242" d="M35.514,616.317c1.959,2.059,7.981,2.305,10.172,1.873,3.2-.631,4.85-3.753,5.534-8.5-2.675,2.294-9.512,1.56-12.968,0,0,0,.566-10.331-1.263-16.158a127.352,127.352,0,0,0-5.264,13.927C32.579,611.329,33.839,614.557,35.514,616.317Z" transform="translate(-25.979 -516.686)" fill="#e89d14"/>
            <path id="Trazado_188243" data-name="Trazado 188243" d="M41.8,593.955c.7,10.393-1.752,19.022-5.482,19.275s-7.323-7.969-8.025-18.362,1.752-19.022,5.481-19.275S41.094,583.562,41.8,593.955Z" transform="translate(-25.288 -513.198)" fill="#ffe1a6"/>
            <path id="Trazado_188244" data-name="Trazado 188244" d="M37.587,603.814s-4.765.595-6.6,7.805c1.54,4.442,3.683,7.245,5.88,7.1,1.9-.128,3.462-2.432,4.451-6.025a16.057,16.057,0,0,1-3.2-1S38.527,610.009,37.587,603.814Z" transform="translate(-25.834 -518.684)" fill="#ffd16c"/>
            <path id="Trazado_188245" data-name="Trazado 188245" d="M36.243,596.524c.526,7.784-.881,14-4.348,14.232s-6.7-5.886-7.229-13.67,1.858-14.284,5.324-14.519S35.716,588.74,36.243,596.524Z" transform="translate(-24.593 -514.553)" fill="#ffd16c"/>
            <path id="Trazado_188246" data-name="Trazado 188246" d="M31.5,612.192c-1.582.107-3.124-.831-4.488-2.514,1.374,3.287,3.323,5.345,5.356,5.208,2.982-.2,4.435-4.83,4.45-11.072C36.074,608.726,34.317,612,31.5,612.192Z" transform="translate(-25.062 -518.684)" fill="#e89d14"/>
          </g>
        </g>
      </g>
    </g>
    <g id="Grupo_128287" data-name="Grupo 128287" transform="translate(144.951 545.176)">
      <g id="Grupo_128284" data-name="Grupo 128284" transform="translate(0 13.758)">
        <g id="Grupo_128277" data-name="Grupo 128277" transform="translate(5.566 15.416)">
          <path id="Trazado_188247" data-name="Trazado 188247" d="M241.273,650.3c-.72,2.65,1.561,5,2.3,5.446s5.74,2.5,8.829,2.575,7.652-6.474,6.034-7.21-12.949-1.545-14.2-1.545A9.428,9.428,0,0,0,241.273,650.3Z" transform="translate(-241.134 -610.255)" fill="#ffc6c8"/>
          <path id="Trazado_188248" data-name="Trazado 188248" d="M251.508,646.4c.773,7.946,3.532,14.126,4.525,14.237s10.854-3.2,13.594-4.414.632-19.864-1.043-19.536-5.553,3.912-8.666,5.629S251.508,646.4,251.508,646.4Z" transform="translate(-243.15 -607.751)" fill="#fff"/>
          <path id="Trazado_188249" data-name="Trazado 188249" d="M267.668,652.848c-1.043,1.59-8.981,5.621-13.3,7.091.869,2.346,1.745,3.791,2.218,3.843.851.094,8.2-2.32,12.016-3.777A54.688,54.688,0,0,0,267.668,652.848Z" transform="translate(-243.706 -610.892)" fill="#d6edff"/>
          <path id="Trazado_188250" data-name="Trazado 188250" d="M241.32,641.877c-.3,3.153,2.5,3.605,5.96,2.8s9.565-8.461,12.287-11.92,7.78-9.62,8.774-10.171,3.2-.845,5.3-3.954.11-9.62-.718-10.393-8.59,1.807-9.565,3.111.019,8.312-.313,9.2-7.3,8.093-10.246,9.859S241.54,639.6,241.32,641.877Z" transform="translate(-241.165 -602.194)" fill="#ffc6c8"/>
          <path id="Trazado_188251" data-name="Trazado 188251" d="M274.227,614.211c.922-.442,1.284-2.446.7-2.093a6.122,6.122,0,0,1-2.891.327,11.048,11.048,0,0,1-1.86-.132,11.844,11.844,0,0,0-.244,1.58S273.3,614.653,274.227,614.211Z" transform="translate(-246.73 -602.968)" fill="#ff8b8e"/>
          <path id="Trazado_188252" data-name="Trazado 188252" d="M276.273,614.866c-.467-1-.829-1.766-.829-1.766l-5.576,5.016a29.556,29.556,0,0,0-3-2.363l-.518.818a15.675,15.675,0,0,1,1.217,5.179s.736.882,1.178.956c0,0-6.217,8.829-10.117,13.17-3.877,4.315-6.589,8.048-8.356,9.247,3.53-1.954,8.617-8.324,11.035-11.4,2.722-3.458,7.78-9.62,8.774-10.171s3.2-.845,5.3-3.954A7.666,7.666,0,0,0,276.273,614.866Z" transform="translate(-242.911 -603.167)" fill="#ff8b8e"/>
          <path id="Trazado_188253" data-name="Trazado 188253" d="M269.036,612.974c.026.515,4.877,5,5.382,5.518a.771.771,0,0,0,.557,0c1.465-1.21,8.272-12.129,8.409-12.523.127-.367-3.592-4.123-4.737-5.129a1.1,1.1,0,0,0-.97.112C276.313,602.773,269,612.309,269.036,612.974Z" transform="translate(-246.556 -600.771)" fill="#6a2554"/>
          <path id="Trazado_188254" data-name="Trazado 188254" d="M269.727,612.983c.026.515,4.877,5,5.382,5.518s8.819-12.1,8.965-12.523c.127-.367-4.048-4.063-5.194-5.068a.348.348,0,0,0-.513.051C277,602.783,269.694,612.318,269.727,612.983Z" transform="translate(-246.691 -600.781)" fill="#8d3170"/>
          <path id="Trazado_188255" data-name="Trazado 188255" d="M270.876,612.256c.024.481,4.562,4.681,5.035,5.163S284.16,606.1,284.3,605.7c.119-.344-3.787-3.8-4.859-4.741a.326.326,0,0,0-.48.048C277.683,602.714,270.845,611.634,270.876,612.256Z" transform="translate(-246.914 -600.792)" fill="#f3e2ee"/>
          <path id="Trazado_188256" data-name="Trazado 188256" d="M274.761,606.437a6.4,6.4,0,0,0,2.07-2.672c.129-.552.11-1.048-.313-1.159s-1.876,1.619-2.576,2.133-1.582,1.582-1.306,2.3,1.766.442,1.932.331S274.761,606.437,274.761,606.437Z" transform="translate(-247.246 -601.127)" fill="#ffc6c8"/>
          <path id="Trazado_188257" data-name="Trazado 188257" d="M277.005,602.787c.209.627-1.631,3.145-3.136,3.87l.495.617s.249-.054.57-.129a4.5,4.5,0,0,0,.077-.672,6.4,6.4,0,0,0,2.07-2.672A1.2,1.2,0,0,0,277.005,602.787Z" transform="translate(-247.495 -601.163)" fill="#ff8b8e"/>
          <path id="Trazado_188258" data-name="Trazado 188258" d="M272.254,609.878a16.464,16.464,0,0,1,3.282-.958c.773-.3.993-1.462.5-1.655a13.687,13.687,0,0,0-4.47.662c-.828.359-1.331,2.011-1.331,2.011Z" transform="translate(-246.789 -602.025)" fill="#ffc6c8"/>
          <path id="Trazado_188259" data-name="Trazado 188259" d="M273.159,609.241a1.741,1.741,0,0,1-1.048,0c0,.305-.3.457-.655.89l1.037-.031a16.445,16.445,0,0,1,3.281-.958,1.237,1.237,0,0,0,.69-.776C276.085,609,273.946,609.095,273.159,609.241Z" transform="translate(-247.027 -602.247)" fill="#ff8b8e"/>
          <path id="Trazado_188260" data-name="Trazado 188260" d="M268.677,611.816c.662,1.018,4.3.577,5.04.467s1.225-.57,1.185-1.033c-.082-.935-4.865-.769-5.269-.622S268.677,611.816,268.677,611.816Z" transform="translate(-246.486 -602.664)" fill="#ffc6c8"/>
          <path id="Trazado_188261" data-name="Trazado 188261" d="M275.156,611.706a5.675,5.675,0,0,1-3.037.874,12.185,12.185,0,0,1-1.916.034,14.963,14.963,0,0,0,3.81-.1A1.318,1.318,0,0,0,275.156,611.706Z" transform="translate(-246.783 -602.896)" fill="#ff8b8e"/>
        </g>
        <g id="Grupo_128280" data-name="Grupo 128280" transform="translate(0 102.04)">
          <g id="Grupo_128278" data-name="Grupo 128278" transform="translate(45.057 111.254)">
            <path id="Trazado_188262" data-name="Trazado 188262" d="M290.754,869.745c.221,1.932.993,2.649,3.808,3.036s6.953.331,9.106-1.766a13.122,13.122,0,0,0,3.642-5.573,10.656,10.656,0,0,1,.442-2.759c.331-.552,2.082-.9,1.866-3.973S290.754,869.745,290.754,869.745Z" transform="translate(-290.268 -848.692)" fill="#ffdcdd"/>
            <path id="Trazado_188263" data-name="Trazado 188263" d="M308.861,849.09c-.317-4.273-10.443-2.625-10.5-.914s-2.427,8.884-4.758,11.063l0,0c-3.051,1.388-4.2,4.862-2.969,8.191,1.045,2.825,8.885,2.142,10.76,1.1a12.621,12.621,0,0,0,4.521-5.508h0a12.819,12.819,0,0,1,1.549-3.43c.938-1.159,1.434-.939,1.876-2.318S309.178,853.364,308.861,849.09Z" transform="translate(-290.151 -846.381)" fill="#191010"/>
            <path id="Trazado_188264" data-name="Trazado 188264" d="M302.012,849.316c-.973,4.407-3.074,7.277-2.46,7.789s4.407,1.127,5.125,0a24.458,24.458,0,0,0,1.947-7.789C306.624,847.42,302.012,849.316,302.012,849.316Z" transform="translate(-291.956 -846.788)" fill="#ffdcdd"/>
          </g>
          <g id="Grupo_128279" data-name="Grupo 128279" transform="translate(0 104.385)">
            <path id="Trazado_188265" data-name="Trazado 188265" d="M266.934,850.866a13.221,13.221,0,0,0-1.347-7.933c-1.625-3.2-1.545-3.477-3.422-3.807s-8.719-1.27-8.719-1.27a11.335,11.335,0,0,1-5.187,5.408c-4.028,2.208-4.856,2.98-7.449,2.98s-8.327.305-6.071,7.174c0,0,1.822.791,6.383.754s9.2-.4,10.852-1.03,3.385-.957,4.378-.552,4.23.257,6.07,0A17.308,17.308,0,0,0,266.934,850.866Z" transform="translate(-234.225 -837.856)" fill="#191010"/>
            <path id="Trazado_188266" data-name="Trazado 188266" d="M247.891,844.724a.45.45,0,0,0-.227.679c.543.843,1.672,1.767,2.273,1.557a42.605,42.605,0,0,0,5.96-4.415c.846-.736,1.655-2.133,1.177-2.8s-1.729-1.435-2.245-1.03-1.508,2.346-3.6,4.079A10.626,10.626,0,0,1,247.891,844.724Z" transform="translate(-236.822 -838.002)" fill="#ffdcdd"/>
            <path id="Trazado_188267" data-name="Trazado 188267" d="M234.864,856.544a85.547,85.547,0,0,0,17.076-.993c2.128-.552,3.286-1.49,5.328-.717s8.333-.441,9.326-.828.717,1.168,0,1.329-5.242,1.117-7.56,1.329-2.428-1.5-5.187-.23-7.284,1.269-9.271,1.269-7.67.441-8.719,0S234.864,856.544,234.864,856.544Z" transform="translate(-234.349 -840.983)" fill="#ffdcdd"/>
          </g>
          <path id="Trazado_188268" data-name="Trazado 188268" d="M290.909,822.333c3.1.844,11.919.552,12.36-.662s-1.214-20.307-1.214-26.376-2.1-21.079-1.765-22.735a12.971,12.971,0,0,0-.221-5.739c-.552-2.87-.769-36.127-3.422-58.53l-34.433,3.237s-5.519,21.19-5.959,36.2.073,22.22,0,24.428.939,4.414,1.168,6.18-.065,14.862-.359,19.571-.509,13.391-.99,14.42,10.408,3.091,11.879,2.355,1.471-.883,1.471-8.535,1.03-26.045,1.03-29.283,1.03-3.825.589-5.445,1.177-8.976,2.8-14.42,3.531-11.331,3.531-11.331,4.562,29.431,6.034,31.2,1.177,6.328,2.06,8.977S289,806.441,289,811.885,287.672,821.451,290.909,822.333Z" transform="translate(-238.468 -708.291)" fill="#f7ca18"/>
          <path id="Trazado_188269" data-name="Trazado 188269" d="M301.47,822.765a21.324,21.324,0,0,0,3.788-.462c.367-1.57.759-3.547,1.166-5.843-.339-6.424-1.14-16.943-1.14-21.165,0-6.07-2.1-21.079-1.765-22.735a12.972,12.972,0,0,0-.221-5.739c-.552-2.87-.769-36.127-3.422-58.53l-6.929.651-20.276,7.626a154.673,154.673,0,0,0,21.141-1.257s1.585,17.938,1.639,20.586,1.967,27.38,1.967,29.656.883,2.933,1.03,5.4a3.413,3.413,0,0,1-1.766,3.35s2.649.883,2.649,1.324.551,7.542.551,10.3,1.2,6.511,1.54,14.789,1.441,18.1,1.441,19.2C302.862,821,302.858,822.12,301.47,822.765Z" transform="translate(-241.697 -708.291)" fill="#94790e"/>
          <path id="Trazado_188270" data-name="Trazado 188270" d="M277.222,733.519l-7.394-1.876,5.739,2.759-4.635.11,3.551,1.268s1.108,9.222-1.2,15.4c-2.526,6.769-3.679,24.06-4.451,25.384s-2.759.993-2.759.993,2.1.221,2.207,1.766-.441,5.849-.441,10.411a139.373,139.373,0,0,1-.882,14.875c-.442,3.078-.648,10.608-.883,12.609s-3.243,1.533-3.243,1.533h0a38.623,38.623,0,0,0,4.326.591c4.546.429,3.6-1.254,3.595-10.2.112-8.334,1.018-24.7,1.018-27.739,0-3.237,1.03-3.825.589-5.445s1.177-8.976,2.8-14.42,3.531-11.331,3.531-11.331-.8-7.526-.914-9.292S277.222,733.519,277.222,733.519Z" transform="translate(-239.784 -712.829)" fill="#94790e"/>
        </g>
        <g id="Grupo_128281" data-name="Grupo 128281" transform="translate(20.964 29.23)">
          <path id="Trazado_188271" data-name="Trazado 188271" d="M282.894,629.2c-7.946,3.9-9.193,3.749-12.613,5.517s-3.795,20.382-3.795,23.251-.037,14.274-.7,17.364-3.2,14.568-4.083,16.334-2.539,4.745-.441,6.511,6.717,2.979,16.988,2.317,21.75-6.953,22.3-7.835-3.642-17.107-3.642-20.2a40.317,40.317,0,0,0-.662-6.842c-.221-1.435,3.522-8.167,4.355-12.471s6.373-16.178,5.644-18.353-8.7-4.6-14.042-7.364S282.894,629.2,282.894,629.2Z" transform="translate(-260.246 -619.594)" fill="#fff"/>
          <path id="Trazado_188272" data-name="Trazado 188272" d="M286.076,633.7a5.739,5.739,0,0,0,.109,1.4,3.319,3.319,0,0,0,.486,1.262,2.55,2.55,0,0,0,2.217,1.177A7.378,7.378,0,0,0,291.56,637c.877-.316,1.715-.74,2.572-1.148-.383.278-.781.537-1.175.8-.421.218-.829.47-1.27.659a6.507,6.507,0,0,1-2.817.661l-.373-.017-.369-.085a2.6,2.6,0,0,1-1.75-1.345A4.087,4.087,0,0,1,286.076,633.7Z" transform="translate(-265.242 -620.985)" fill="#d6edff"/>
          <path id="Trazado_188273" data-name="Trazado 188273" d="M306.443,697.774c.552-.883-3.642-17.107-3.642-20.2a40.317,40.317,0,0,0-.662-6.842c-.221-1.435,3.522-8.167,4.355-12.471a24.211,24.211,0,0,1,.8-2.842l-3.268-2.573c-2.437,5.652-4.424,15.584-6.521,18.012s-6.953,3.422-6.953,3.422,4.645,1.1,6.737.662c0,0,1.565,8.718,1.277,13.023s-1.162,10.815-1.277,11.7c-.043.329-.054,1.479-.051,2.789C302.336,700.494,306.131,698.272,306.443,697.774Z" transform="translate(-266.136 -624.706)" fill="#d6edff"/>
          <path id="Trazado_188274" data-name="Trazado 188274" d="M297.1,617.918c-.256,4.605-.183,7.769.773,8.652,0,0-2.311,7.642-9.271,6.989-2.354-.221-1.839-4.193-.515-6.033l-.294-5.648Z" transform="translate(-265.438 -617.918)" fill="#ffc6c8"/>
          <path id="Trazado_188275" data-name="Trazado 188275" d="M297.6,625.759h0c-.5-1.413-.5-4.165-.3-7.841l-9.306,3.96.189,3.622h0C289.727,626.217,297.6,625.759,297.6,625.759Z" transform="translate(-265.638 -617.918)" fill="#ff8b8e"/>
        </g>
        <g id="Grupo_128282" data-name="Grupo 128282" transform="translate(41.055 44.356)">
          <path id="Trazado_188276" data-name="Trazado 188276" d="M318.874,664.149c1.4,2.134,3.091,7.431,2.134,9.86s-9.785,13.243-13.759,17.29-4.856,4.708-5.591,6.033a70.464,70.464,0,0,1-5.151,7.615,4.443,4.443,0,0,1-2.373.939,4.193,4.193,0,0,1-3.3.993,13.291,13.291,0,0,1-3.43,1.6s-.552.937-1.049,1.02-1.048-.91,0-2.9,2.594-2.814,2.925-4.083a27.906,27.906,0,0,1,1.669-3.858s-2.771,2.644-4.372,2.809-1.745-.773-.817-1.545a22.493,22.493,0,0,0,3.3-3.421,6.656,6.656,0,0,1,4.58-2.759,12.444,12.444,0,0,0,4.028-.883,38.491,38.491,0,0,0,5.57-8.185c2.1-4.047,4.1-9.218,9.017-13.759l-1.766-3.531Z" transform="translate(-285.183 -642.028)" fill="#ffc6c8"/>
          <path id="Trazado_188277" data-name="Trazado 188277" d="M288.045,717.482a9.4,9.4,0,0,1,2.115-2.924l.336-.309c.1-.1.272-.217.313-.274.173-.2.329-.467.5-.707.327-.5.648-1,1.005-1.489a13.359,13.359,0,0,1-.711,1.66,5.49,5.49,0,0,1-.469.8,3.591,3.591,0,0,1-.347.33l-.318.305c-.426.407-.834.835-1.245,1.262S288.429,717.017,288.045,717.482Z" transform="translate(-285.739 -651.285)" fill="#ff8b8e"/>
          <path id="Trazado_188278" data-name="Trazado 188278" d="M292.337,715.913c.347-.594.745-1.109,1.107-1.651s.714-1.07,1.064-1.66a3.653,3.653,0,0,1-.7,1.91A4.868,4.868,0,0,1,292.337,715.913Z" transform="translate(-286.574 -651.445)" fill="#ff8b8e"/>
          <path id="Trazado_188279" data-name="Trazado 188279" d="M294.32,715.912a3.968,3.968,0,0,0,1.59-.847,4.443,4.443,0,0,0,2.373-.939,23.793,23.793,0,0,0,2.039-2.741c-.019.02-1.016,1.025-1.741,1.854a2.357,2.357,0,0,1-2.337.781l.259-1.076S295.431,715.388,294.32,715.912Z" transform="translate(-286.959 -651.208)" fill="#ff8b8e"/>
          <path id="Trazado_188280" data-name="Trazado 188280" d="M324.859,673.038c-.118,1.007-.188,1.808-1.873,4.45-1.9,2.974-12.913,15.507-15.286,17.824s-2.318,2.465-3.889,6.127c.665-1.035,1.222-1.938,1.467-2.379.736-1.325,1.619-1.986,5.591-6.033s12.8-14.863,13.759-17.29A6.117,6.117,0,0,0,324.859,673.038Z" transform="translate(-288.803 -643.756)" fill="#ff8b8e"/>
          <path id="Trazado_188281" data-name="Trazado 188281" d="M319.721,669.391l.721,1.368a5.13,5.13,0,0,0-2,1.136l-1.4-2.718Z" transform="translate(-291.374 -643.006)" fill="#ff8b8e"/>
          <path id="Trazado_188282" data-name="Trazado 188282" d="M308.666,655.6c-1.808-4.148-2.162-10.884,0-14.429s5.85-4.822,6.7-4.4,2.837,5.956,4.893,8.509,7.658,9.715,7.8,10.317-4.823,5.468-13.757,9.041C313.24,665.063,308.666,655.6,308.666,655.6Z" transform="translate(-289.457 -636.692)" fill="#fff"/>
          <path id="Trazado_188283" data-name="Trazado 188283" d="M314.887,661.955l1.178,2.838s-6.319-6.833-8.778-11.932a19.421,19.421,0,0,0,1.4,5.878s4.574,9.467,5.637,9.041c1.528-.612,2.932-1.262,4.222-1.921Z" transform="translate(-289.479 -639.835)" fill="#d6edff"/>
        </g>
        <g id="Grupo_128283" data-name="Grupo 128283" transform="translate(33.006)">
          <path id="Trazado_188284" data-name="Trazado 188284" d="M299.552,604.869c1.624-3.965,3.61-8.159,1.109-10.366a11.9,11.9,0,0,1,4.268-.589,11.444,11.444,0,0,0-4.414-1.177s.578-6.7-.962-9.565c0,0,.006,2.943-.8,4.12a10.077,10.077,0,0,0-6.4-4.782c-4.782-1.324-9.418-1.471-12.729,1.913s-7.188,7.725-1.607,14.273a26.119,26.119,0,0,0,16.1,8.683C297.277,607.82,299.552,604.869,299.552,604.869Z" transform="translate(-275.193 -581.637)" fill="#0b2d50"/>
          <path id="Trazado_188285" data-name="Trazado 188285" d="M284.255,594.863a17.785,17.785,0,0,0,3.4,1.073c1.156.261,2.319.495,3.491.676s2.347.339,3.526.45a15.523,15.523,0,0,0,3.56,0,8.834,8.834,0,0,1-3.583.686,21.11,21.11,0,0,1-3.643-.268,21.411,21.411,0,0,1-3.542-.888A9.551,9.551,0,0,1,284.255,594.863Z" transform="translate(-276.954 -584.207)" fill="#050432"/>
          <path id="Trazado_188286" data-name="Trazado 188286" d="M297.666,601.368c1.275-.316,3.389-2.357,3.389-2.357s-2.19,1.548-6.693,1.179a38.368,38.368,0,0,1-7.511-1.3s4.641,2.724,6.352,3.163S297.666,601.368,297.666,601.368Z" transform="translate(-277.458 -584.989)" fill="#050432"/>
          <path id="Trazado_188287" data-name="Trazado 188287" d="M280.172,598.166c-2.092-1.034-2.7.015-2.7.9a9.3,9.3,0,0,0,.98,2.761Z" transform="translate(-275.636 -584.766)" fill="#050432"/>
          <path id="Trazado_188288" data-name="Trazado 188288" d="M306.751,602.3a18.86,18.86,0,0,1-5.387,5.86s-1.453,1.959.178,2.753c.068.033.143.062.218.091a7.756,7.756,0,0,0,2.762-2.116A29.725,29.725,0,0,0,306.751,602.3Z" transform="translate(-280.163 -585.652)" fill="#050432"/>
          <path id="Trazado_188289" data-name="Trazado 188289" d="M297,607.374s1.71-1.269,2.869,0-1.048,7.174-3.642,5.739c0,0-4.3,5.463-7.284,7.008s-4.967.773-5.959-.331-4.326-5.631-4.636-10.429c-.11-1.71.387-5.076.387-5.794s-.441-3.531.165-4.359a2.332,2.332,0,0,1,1.435-.938,23.366,23.366,0,0,0,6.9,2.1,12.5,12.5,0,0,1-2.042-1.6s6.346,2.207,10.816,2.483a24.661,24.661,0,0,0,.165,3.642A14.691,14.691,0,0,0,297,607.374Z" transform="translate(-275.804 -584.869)" fill="#ffc6c8"/>
          <path id="Trazado_188290" data-name="Trazado 188290" d="M303.711,611.335c-.155-1.081-1.062-1.295-1.8-.541a5.839,5.839,0,0,0-.9,3.58c.155.36,1.366.334,1.648-.413s-.386-1.215-1.081-.993a2.661,2.661,0,0,1,.5-1.793c.607-.7,1.166-.433,1.295-.253A4.76,4.76,0,0,0,303.711,611.335Z" transform="translate(-280.202 -587.216)" fill="#ff8b8e"/>
        </g>
      </g>
      <g id="Grupo_128285" data-name="Grupo 128285" transform="translate(76.664 0)">
        <path id="Trazado_188291" data-name="Trazado 188291" d="M332.628,584.107a15.649,15.649,0,0,1,1.154-2.457,5.769,5.769,0,0,1,1.851-1.91,7.482,7.482,0,0,1,3.2-1.042c.409-.056.992-.121,1.744-.192a17.8,17.8,0,0,0,2.349-.387,7.993,7.993,0,0,0,2.2-.838,2.875,2.875,0,0,0,1.339-1.523,2.1,2.1,0,0,0,.054-1.368,2.724,2.724,0,0,0-.727-1.189,3.647,3.647,0,0,0-1.277-.789,3.225,3.225,0,0,0-2.044-.146,5.038,5.038,0,0,0-1.617.781c-.465.342-.88.621-1.242.841l-4.162-6.115a9.649,9.649,0,0,1,3.447-2.415,10.859,10.859,0,0,1,4.145-.8,12.631,12.631,0,0,1,4.451.827,13.95,13.95,0,0,1,3.385,1.835,10.777,10.777,0,0,1,2.695,2.844,8.625,8.625,0,0,1,1.32,3.809,10.318,10.318,0,0,1-.719,4.736,12.466,12.466,0,0,1-.976,2.062,7.835,7.835,0,0,1-1.344,1.688,8.108,8.108,0,0,1-1.8,1.279,10.083,10.083,0,0,1-2.311.856,19.707,19.707,0,0,1-3.363.543,17.321,17.321,0,0,0-2.9.426,2.128,2.128,0,0,0-1.608,1.328Zm-3,8.529.156-.418a3.862,3.862,0,0,1,4.964-2.278h0a3.861,3.861,0,0,1,2.278,4.964l-.155.418A3.862,3.862,0,0,1,331.9,597.6h0A3.863,3.863,0,0,1,329.624,592.636Z" transform="translate(-329.382 -564.56)" fill="#b13e8d"/>
      </g>
      <g id="Grupo_128286" data-name="Grupo 128286" transform="translate(63.206 2.987)">
        <path id="Trazado_188292" data-name="Trazado 188292" d="M316.649,585.574a11.423,11.423,0,0,1-.132-1.976,4.211,4.211,0,0,1,.506-1.872,5.464,5.464,0,0,1,1.674-1.8q.364-.271,1.046-.74a12.989,12.989,0,0,0,1.362-1.076,5.846,5.846,0,0,0,1.105-1.311,2.1,2.1,0,0,0,.316-1.445,1.53,1.53,0,0,0-.45-.892,1.983,1.983,0,0,0-.883-.5,2.669,2.669,0,0,0-1.094-.052,2.351,2.351,0,0,0-1.355.629,3.677,3.677,0,0,0-.756,1.07q-.263.574-.5.976l-4.816-2.431a7.048,7.048,0,0,1,1.346-2.759,7.921,7.921,0,0,1,2.362-1.975,9.24,9.24,0,0,1,3.132-1.045,10.224,10.224,0,0,1,2.808-.025,7.856,7.856,0,0,1,2.724.863,6.283,6.283,0,0,1,2.189,1.963,7.525,7.525,0,0,1,1.214,3.277,9.033,9.033,0,0,1,.106,1.66,5.7,5.7,0,0,1-.261,1.552,5.923,5.923,0,0,1-.7,1.453,7.337,7.337,0,0,1-1.172,1.362,14.285,14.285,0,0,1-1.954,1.535,12.616,12.616,0,0,0-1.7,1.3,1.553,1.553,0,0,0-.558,1.416Zm1.1,6.5-.049-.321a2.817,2.817,0,0,1,2.363-3.207h0a2.817,2.817,0,0,1,3.207,2.362l.048.321a2.816,2.816,0,0,1-2.362,3.207h0A2.817,2.817,0,0,1,317.746,592.077Z" transform="translate(-312.677 -568.268)" fill="#b13e8d"/>
      </g>
    </g>
    <g id="Grupo_128291" data-name="Grupo 128291" transform="translate(-225.146 471.09)">
      <g id="Grupo_128288" data-name="Grupo 128288" transform="translate(0 145.865)">
        <rect id="Rectángulo_40677" data-name="Rectángulo 40677" width="67.15" height="40.218" rx="6.849" transform="translate(0 0)" fill="#f7ca18"/>
        <path id="Trazado_188293" data-name="Trazado 188293" d="M-161.618,697.323h-59.906a3.622,3.622,0,0,1-3.622-3.622l33.575-22.286L-158,693.7A3.622,3.622,0,0,1-161.618,697.323Z" transform="translate(225.146 -657.106)" fill="#f7ca18"/>
        <path id="Trazado_188294" data-name="Trazado 188294" d="M-161.618,653.654h-59.906a3.622,3.622,0,0,0-3.622,3.622l33.575,22.286L-158,657.276A3.622,3.622,0,0,0-161.618,653.654Z" transform="translate(225.146 -653.654)" fill="#fcedae"/>
      </g>
      <g id="Grupo_128289" data-name="Grupo 128289" transform="translate(321.243)">
        <path id="Trazado_188295" data-name="Trazado 188295" d="M315.151,472.6H181.146a7.558,7.558,0,0,0-7.559,7.559V511.5a7.558,7.558,0,0,0,7.559,7.559h13.46l-4.588,11.323,15.253-11.323H315.151a7.558,7.558,0,0,0,7.559-7.559V480.163A7.558,7.558,0,0,0,315.151,472.6Z" transform="translate(-173.587 -472.604)" fill="#b13e8d"/>
        <path id="Trazado_188296" data-name="Trazado 188296" d="M309.836,492.932H207.708a1.766,1.766,0,0,1,0-3.532H309.836a1.766,1.766,0,0,1,0,3.532ZM311.6,499.1a1.767,1.767,0,0,0-1.766-1.766H193.523a1.766,1.766,0,0,0,0,3.532H309.836A1.767,1.767,0,0,0,311.6,499.1Zm-51.065,7.932a1.765,1.765,0,0,0-1.765-1.765H193.523a1.766,1.766,0,0,0,0,3.531h65.249A1.765,1.765,0,0,0,260.537,507.029Z" transform="translate(-177.118 -475.868)" fill="#fff"/>
      </g>
      <g id="Grupo_128290" data-name="Grupo 128290" transform="translate(35.389 200.695)">
        <path id="Trazado_188297" data-name="Trazado 188297" d="M-169.743,755.953a21.58,21.58,0,0,1-.947-3.646,8,8,0,0,1,.281-3.681,10.4,10.4,0,0,1,2.494-3.952q.583-.634,1.693-1.752a24.792,24.792,0,0,0,2.165-2.5,11.114,11.114,0,0,0,1.6-2.842,3.99,3.99,0,0,0,.079-2.813,2.919,2.919,0,0,0-1.156-1.509,3.774,3.774,0,0,0-1.83-.624,5.046,5.046,0,0,0-2.063.29,4.47,4.47,0,0,0-2.311,1.656,6.99,6.99,0,0,0-1.034,2.27c-.193.777-.388,1.442-.58,2l-9.869-2.837a13.4,13.4,0,0,1,1.54-5.636,15.068,15.068,0,0,1,3.717-4.53,17.555,17.555,0,0,1,5.486-3.065,19.363,19.363,0,0,1,5.241-1.043,14.962,14.962,0,0,1,5.4.647,11.959,11.959,0,0,1,4.788,2.9,14.33,14.33,0,0,1,3.434,5.7,17.338,17.338,0,0,1,.786,3.068,10.887,10.887,0,0,1,.061,2.994,11.252,11.252,0,0,1-.789,2.965,14.035,14.035,0,0,1-1.709,2.963,27.368,27.368,0,0,1-3.109,3.563,23.938,23.938,0,0,0-2.713,3.024,2.953,2.953,0,0,0-.54,2.844Zm4.358,11.772-.205-.584a5.361,5.361,0,0,1,3.281-6.834h0a5.359,5.359,0,0,1,6.834,3.28l.205.584a5.361,5.361,0,0,1-3.28,6.835h0A5.362,5.362,0,0,1-165.386,767.724Z" transform="translate(181.22 -721.71)" fill="#b13e8d"/>
      </g>
    </g>
  </g>
</svg>
